  0
SECTION
  2
HEADER
  9
$ACADVER
  1
AC1009
  9
$EXTMIN
 10
0.0
 20
0.0
 30
0.0
  9
$EXTMAX
 10
1000.0
 20
1000.0
 30
0.0
  9
$FILLMODE
 70
 0
  9
$SPLFRAME
 70
 1
  0
ENDSEC
  0
SECTION
  2
TABLES
  0
TABLE
  2
LAYER
 70
1
  0
LAYER
  2
0
 70
     0
 62
     7
  6
CONTINUOUS
  0
ENDTAB
  0
ENDSEC
  0
SECTION
  2
ENTITIES
  0
LINE
  8
0
 62
     0
 10
0.0950846
 20
95.1548
 30
0.0
 11
304.096
 21
95.1548
 31
0.0
  0
LINE
  8
0
 62
     0
 10
304.096
 20
95.1548
 30
0.0
 11
304.096
 21
0.15434
 31
0.0
  0
LINE
  8
0
 62
     0
 10
304.096
 20
0.15434
 30
0.0
 11
0.0950846
 21
0.15434
 31
0.0
  0
LINE
  8
0
 62
     0
 10
0.0950846
 20
0.15434
 30
0.0
 11
0.0950846
 21
95.1548
 31
0.0
  0
LINE
  8
0
 62
     0
 10
230.594
 20
16.655
 30
0.0
 11
230.594
 21
11.9558
 31
0.0
  0
LINE
  8
0
 62
     0
 10
230.594
 20
11.9558
 30
0.0
 11
229.07
 21
11.9558
 31
0.0
  0
LINE
  8
0
 62
     0
 10
229.07
 20
11.9558
 30
0.0
 11
229.07
 21
15.186
 31
0.0
  0
LINE
  8
0
 62
     0
 10
229.07
 20
15.186
 30
0.0
 11
227.344
 21
15.186
 31
0.0
  0
LINE
  8
0
 62
     0
 10
227.344
 20
15.186
 30
0.0
 11
227.344
 21
16.1051
 31
0.0
  0
LINE
  8
0
 62
     0
 10
227.344
 20
16.1051
 30
0.0
 11
224.044
 21
16.1051
 31
0.0
  0
LINE
  8
0
 62
     0
 10
224.044
 20
16.1051
 30
0.0
 11
224.044
 21
15.186
 31
0.0
  0
LINE
  8
0
 62
     0
 10
224.044
 20
15.186
 30
0.0
 11
222.319
 21
15.186
 31
0.0
  0
LINE
  8
0
 62
     0
 10
222.319
 20
15.186
 30
0.0
 11
222.319
 21
11.9558
 31
0.0
  0
LINE
  8
0
 62
     0
 10
222.319
 20
11.9558
 30
0.0
 11
221.495
 21
11.9558
 31
0.0
  0
LINE
  8
0
 62
     0
 10
221.495
 20
11.9558
 30
0.0
 11
221.495
 21
9.15568
 31
0.0
  0
LINE
  8
0
 62
     0
 10
221.495
 20
9.15568
 30
0.0
 11
222.319
 21
9.15568
 31
0.0
  0
LINE
  8
0
 62
     0
 10
222.319
 20
9.15568
 30
0.0
 11
222.319
 21
2.88561
 31
0.0
  0
LINE
  8
0
 62
     0
 10
222.319
 20
2.88561
 30
0.0
 11
224.044
 21
2.88561
 31
0.0
  0
LINE
  8
0
 62
     0
 10
224.044
 20
2.88561
 30
0.0
 11
224.044
 21
1.90583
 31
0.0
  0
LINE
  8
0
 62
     0
 10
224.044
 20
1.90583
 30
0.0
 11
227.344
 21
1.90583
 31
0.0
  0
LINE
  8
0
 62
     0
 10
227.344
 20
1.90583
 30
0.0
 11
227.344
 21
2.88561
 31
0.0
  0
LINE
  8
0
 62
     0
 10
227.344
 20
2.88561
 30
0.0
 11
229.07
 21
2.88561
 31
0.0
  0
LINE
  8
0
 62
     0
 10
229.07
 20
2.88561
 30
0.0
 11
229.07
 21
7.35598
 31
0.0
  0
LINE
  8
0
 62
     0
 10
229.07
 20
7.35598
 30
0.0
 11
230.594
 21
7.35598
 31
0.0
  0
LINE
  8
0
 62
     0
 10
230.594
 20
7.35598
 30
0.0
 11
230.594
 21
2.65548
 31
0.0
  0
LINE
  8
0
 62
     0
 10
230.594
 20
2.65548
 30
0.0
 11
244.595
 21
2.65548
 31
0.0
  0
LINE
  8
0
 62
     0
 10
244.595
 20
2.65548
 30
0.0
 11
244.595
 21
7.35598
 31
0.0
  0
LINE
  8
0
 62
     0
 10
244.595
 20
7.35598
 30
0.0
 11
246.119
 21
7.35598
 31
0.0
  0
LINE
  8
0
 62
     0
 10
246.119
 20
7.35598
 30
0.0
 11
246.119
 21
2.88561
 31
0.0
  0
LINE
  8
0
 62
     0
 10
246.119
 20
2.88561
 30
0.0
 11
247.844
 21
2.88561
 31
0.0
  0
LINE
  8
0
 62
     0
 10
247.844
 20
2.88561
 30
0.0
 11
247.844
 21
1.90583
 31
0.0
  0
LINE
  8
0
 62
     0
 10
247.844
 20
1.90583
 30
0.0
 11
251.145
 21
1.90583
 31
0.0
  0
LINE
  8
0
 62
     0
 10
251.145
 20
1.90583
 30
0.0
 11
251.145
 21
2.88561
 31
0.0
  0
LINE
  8
0
 62
     0
 10
251.145
 20
2.88561
 30
0.0
 11
252.869
 21
2.88561
 31
0.0
  0
LINE
  8
0
 62
     0
 10
252.869
 20
2.88561
 30
0.0
 11
252.869
 21
9.15568
 31
0.0
  0
LINE
  8
0
 62
     0
 10
252.869
 20
9.15568
 30
0.0
 11
253.694
 21
9.15568
 31
0.0
  0
LINE
  8
0
 62
     0
 10
253.694
 20
9.15568
 30
0.0
 11
253.694
 21
11.9558
 31
0.0
  0
LINE
  8
0
 62
     0
 10
253.694
 20
11.9558
 30
0.0
 11
252.869
 21
11.9558
 31
0.0
  0
LINE
  8
0
 62
     0
 10
252.869
 20
11.9558
 30
0.0
 11
252.869
 21
15.186
 31
0.0
  0
LINE
  8
0
 62
     0
 10
252.869
 20
15.186
 30
0.0
 11
251.145
 21
15.186
 31
0.0
  0
LINE
  8
0
 62
     0
 10
251.145
 20
15.186
 30
0.0
 11
251.145
 21
16.1051
 31
0.0
  0
LINE
  8
0
 62
     0
 10
251.145
 20
16.1051
 30
0.0
 11
247.844
 21
16.1051
 31
0.0
  0
LINE
  8
0
 62
     0
 10
247.844
 20
16.1051
 30
0.0
 11
247.844
 21
15.186
 31
0.0
  0
LINE
  8
0
 62
     0
 10
247.844
 20
15.186
 30
0.0
 11
246.119
 21
15.186
 31
0.0
  0
LINE
  8
0
 62
     0
 10
246.119
 20
15.186
 30
0.0
 11
246.119
 21
11.9558
 31
0.0
  0
LINE
  8
0
 62
     0
 10
246.119
 20
11.9558
 30
0.0
 11
244.595
 21
11.9558
 31
0.0
  0
LINE
  8
0
 62
     0
 10
244.595
 20
11.9558
 30
0.0
 11
244.595
 21
16.655
 31
0.0
  0
LINE
  8
0
 62
     0
 10
244.595
 20
16.655
 30
0.0
 11
230.594
 21
16.655
 31
0.0
  0
LINE
  8
0
 62
     0
 10
118.97
 20
16.655
 30
0.0
 11
118.97
 21
11.9558
 31
0.0
  0
LINE
  8
0
 62
     0
 10
118.97
 20
11.9558
 30
0.0
 11
117.445
 21
11.9558
 31
0.0
  0
LINE
  8
0
 62
     0
 10
117.445
 20
11.9558
 30
0.0
 11
117.445
 21
15.186
 31
0.0
  0
LINE
  8
0
 62
     0
 10
117.445
 20
15.186
 30
0.0
 11
115.719
 21
15.186
 31
0.0
  0
LINE
  8
0
 62
     0
 10
115.719
 20
15.186
 30
0.0
 11
115.719
 21
16.1051
 31
0.0
  0
LINE
  8
0
 62
     0
 10
115.719
 20
16.1051
 30
0.0
 11
112.419
 21
16.1051
 31
0.0
  0
LINE
  8
0
 62
     0
 10
112.419
 20
16.1051
 30
0.0
 11
112.419
 21
15.186
 31
0.0
  0
LINE
  8
0
 62
     0
 10
112.419
 20
15.186
 30
0.0
 11
110.695
 21
15.186
 31
0.0
  0
LINE
  8
0
 62
     0
 10
110.695
 20
15.186
 30
0.0
 11
110.695
 21
11.9558
 31
0.0
  0
LINE
  8
0
 62
     0
 10
110.695
 20
11.9558
 30
0.0
 11
109.869
 21
11.9558
 31
0.0
  0
LINE
  8
0
 62
     0
 10
109.869
 20
11.9558
 30
0.0
 11
109.869
 21
9.15568
 31
0.0
  0
LINE
  8
0
 62
     0
 10
109.869
 20
9.15568
 30
0.0
 11
110.695
 21
9.15568
 31
0.0
  0
LINE
  8
0
 62
     0
 10
110.695
 20
9.15568
 30
0.0
 11
110.695
 21
2.88561
 31
0.0
  0
LINE
  8
0
 62
     0
 10
110.695
 20
2.88561
 30
0.0
 11
112.419
 21
2.88561
 31
0.0
  0
LINE
  8
0
 62
     0
 10
112.419
 20
2.88561
 30
0.0
 11
112.419
 21
1.90583
 31
0.0
  0
LINE
  8
0
 62
     0
 10
112.419
 20
1.90583
 30
0.0
 11
115.719
 21
1.90583
 31
0.0
  0
LINE
  8
0
 62
     0
 10
115.719
 20
1.90583
 30
0.0
 11
115.719
 21
2.88561
 31
0.0
  0
LINE
  8
0
 62
     0
 10
115.719
 20
2.88561
 30
0.0
 11
117.445
 21
2.88561
 31
0.0
  0
LINE
  8
0
 62
     0
 10
117.445
 20
2.88561
 30
0.0
 11
117.445
 21
7.35598
 31
0.0
  0
LINE
  8
0
 62
     0
 10
117.445
 20
7.35598
 30
0.0
 11
118.97
 21
7.35598
 31
0.0
  0
LINE
  8
0
 62
     0
 10
118.97
 20
7.35598
 30
0.0
 11
118.97
 21
2.65548
 31
0.0
  0
LINE
  8
0
 62
     0
 10
118.97
 20
2.65548
 30
0.0
 11
132.97
 21
2.65548
 31
0.0
  0
LINE
  8
0
 62
     0
 10
132.97
 20
2.65548
 30
0.0
 11
132.97
 21
7.35598
 31
0.0
  0
LINE
  8
0
 62
     0
 10
132.97
 20
7.35598
 30
0.0
 11
134.495
 21
7.35598
 31
0.0
  0
LINE
  8
0
 62
     0
 10
134.495
 20
7.35598
 30
0.0
 11
134.495
 21
2.88561
 31
0.0
  0
LINE
  8
0
 62
     0
 10
134.495
 20
2.88561
 30
0.0
 11
136.219
 21
2.88561
 31
0.0
  0
LINE
  8
0
 62
     0
 10
136.219
 20
2.88561
 30
0.0
 11
136.219
 21
1.90583
 31
0.0
  0
LINE
  8
0
 62
     0
 10
136.219
 20
1.90583
 30
0.0
 11
139.519
 21
1.90583
 31
0.0
  0
LINE
  8
0
 62
     0
 10
139.519
 20
1.90583
 30
0.0
 11
139.519
 21
2.88561
 31
0.0
  0
LINE
  8
0
 62
     0
 10
139.519
 20
2.88561
 30
0.0
 11
141.245
 21
2.88561
 31
0.0
  0
LINE
  8
0
 62
     0
 10
141.245
 20
2.88561
 30
0.0
 11
141.245
 21
9.15568
 31
0.0
  0
LINE
  8
0
 62
     0
 10
141.245
 20
9.15568
 30
0.0
 11
142.069
 21
9.15568
 31
0.0
  0
LINE
  8
0
 62
     0
 10
142.069
 20
9.15568
 30
0.0
 11
142.069
 21
11.9558
 31
0.0
  0
LINE
  8
0
 62
     0
 10
142.069
 20
11.9558
 30
0.0
 11
141.245
 21
11.9558
 31
0.0
  0
LINE
  8
0
 62
     0
 10
141.245
 20
11.9558
 30
0.0
 11
141.245
 21
15.186
 31
0.0
  0
LINE
  8
0
 62
     0
 10
141.245
 20
15.186
 30
0.0
 11
139.519
 21
15.186
 31
0.0
  0
LINE
  8
0
 62
     0
 10
139.519
 20
15.186
 30
0.0
 11
139.519
 21
16.1051
 31
0.0
  0
LINE
  8
0
 62
     0
 10
139.519
 20
16.1051
 30
0.0
 11
136.219
 21
16.1051
 31
0.0
  0
LINE
  8
0
 62
     0
 10
136.219
 20
16.1051
 30
0.0
 11
136.219
 21
15.186
 31
0.0
  0
LINE
  8
0
 62
     0
 10
136.219
 20
15.186
 30
0.0
 11
134.495
 21
15.186
 31
0.0
  0
LINE
  8
0
 62
     0
 10
134.495
 20
15.186
 30
0.0
 11
134.495
 21
11.9558
 31
0.0
  0
LINE
  8
0
 62
     0
 10
134.495
 20
11.9558
 30
0.0
 11
132.97
 21
11.9558
 31
0.0
  0
LINE
  8
0
 62
     0
 10
132.97
 20
11.9558
 30
0.0
 11
132.97
 21
16.655
 31
0.0
  0
LINE
  8
0
 62
     0
 10
132.97
 20
16.655
 30
0.0
 11
118.97
 21
16.655
 31
0.0
  0
LINE
  8
0
 62
     0
 10
35.844
 20
16.655
 30
0.0
 11
35.844
 21
11.9558
 31
0.0
  0
LINE
  8
0
 62
     0
 10
35.844
 20
11.9558
 30
0.0
 11
34.3201
 21
11.9558
 31
0.0
  0
LINE
  8
0
 62
     0
 10
34.3201
 20
11.9558
 30
0.0
 11
34.3201
 21
15.186
 31
0.0
  0
LINE
  8
0
 62
     0
 10
34.3201
 20
15.186
 30
0.0
 11
32.5947
 21
15.186
 31
0.0
  0
LINE
  8
0
 62
     0
 10
32.5947
 20
15.186
 30
0.0
 11
32.5947
 21
16.1051
 31
0.0
  0
LINE
  8
0
 62
     0
 10
32.5947
 20
16.1051
 30
0.0
 11
29.2943
 21
16.1051
 31
0.0
  0
LINE
  8
0
 62
     0
 10
29.2943
 20
16.1051
 30
0.0
 11
29.2943
 21
15.186
 31
0.0
  0
LINE
  8
0
 62
     0
 10
29.2943
 20
15.186
 30
0.0
 11
27.569
 21
15.186
 31
0.0
  0
LINE
  8
0
 62
     0
 10
27.569
 20
15.186
 30
0.0
 11
27.569
 21
11.9558
 31
0.0
  0
LINE
  8
0
 62
     0
 10
27.569
 20
11.9558
 30
0.0
 11
26.745
 21
11.9558
 31
0.0
  0
LINE
  8
0
 62
     0
 10
26.745
 20
11.9558
 30
0.0
 11
26.745
 21
9.15568
 31
0.0
  0
LINE
  8
0
 62
     0
 10
26.745
 20
9.15568
 30
0.0
 11
27.569
 21
9.15568
 31
0.0
  0
LINE
  8
0
 62
     0
 10
27.569
 20
9.15568
 30
0.0
 11
27.569
 21
2.88561
 31
0.0
  0
LINE
  8
0
 62
     0
 10
27.569
 20
2.88561
 30
0.0
 11
29.2943
 21
2.88561
 31
0.0
  0
LINE
  8
0
 62
     0
 10
29.2943
 20
2.88561
 30
0.0
 11
29.2943
 21
1.90583
 31
0.0
  0
LINE
  8
0
 62
     0
 10
29.2943
 20
1.90583
 30
0.0
 11
32.5947
 21
1.90583
 31
0.0
  0
LINE
  8
0
 62
     0
 10
32.5947
 20
1.90583
 30
0.0
 11
32.5947
 21
2.88561
 31
0.0
  0
LINE
  8
0
 62
     0
 10
32.5947
 20
2.88561
 30
0.0
 11
34.3201
 21
2.88561
 31
0.0
  0
LINE
  8
0
 62
     0
 10
34.3201
 20
2.88561
 30
0.0
 11
34.3201
 21
7.35598
 31
0.0
  0
LINE
  8
0
 62
     0
 10
34.3201
 20
7.35598
 30
0.0
 11
35.844
 21
7.35598
 31
0.0
  0
LINE
  8
0
 62
     0
 10
35.844
 20
7.35598
 30
0.0
 11
35.844
 21
2.65548
 31
0.0
  0
LINE
  8
0
 62
     0
 10
35.844
 20
2.65548
 30
0.0
 11
49.845
 21
2.65548
 31
0.0
  0
LINE
  8
0
 62
     0
 10
49.845
 20
2.65548
 30
0.0
 11
49.845
 21
7.35598
 31
0.0
  0
LINE
  8
0
 62
     0
 10
49.845
 20
7.35598
 30
0.0
 11
51.369
 21
7.35598
 31
0.0
  0
LINE
  8
0
 62
     0
 10
51.369
 20
7.35598
 30
0.0
 11
51.369
 21
2.88561
 31
0.0
  0
LINE
  8
0
 62
     0
 10
51.369
 20
2.88561
 30
0.0
 11
53.0945
 21
2.88561
 31
0.0
  0
LINE
  8
0
 62
     0
 10
53.0945
 20
2.88561
 30
0.0
 11
53.0945
 21
1.90583
 31
0.0
  0
LINE
  8
0
 62
     0
 10
53.0945
 20
1.90583
 30
0.0
 11
56.3947
 21
1.90583
 31
0.0
  0
LINE
  8
0
 62
     0
 10
56.3947
 20
1.90583
 30
0.0
 11
56.3947
 21
2.88561
 31
0.0
  0
LINE
  8
0
 62
     0
 10
56.3947
 20
2.88561
 30
0.0
 11
58.1201
 21
2.88561
 31
0.0
  0
LINE
  8
0
 62
     0
 10
58.1201
 20
2.88561
 30
0.0
 11
58.1201
 21
9.15568
 31
0.0
  0
LINE
  8
0
 62
     0
 10
58.1201
 20
9.15568
 30
0.0
 11
58.9442
 21
9.15568
 31
0.0
  0
LINE
  8
0
 62
     0
 10
58.9442
 20
9.15568
 30
0.0
 11
58.9442
 21
11.9558
 31
0.0
  0
LINE
  8
0
 62
     0
 10
58.9442
 20
11.9558
 30
0.0
 11
58.1201
 21
11.9558
 31
0.0
  0
LINE
  8
0
 62
     0
 10
58.1201
 20
11.9558
 30
0.0
 11
58.1201
 21
15.186
 31
0.0
  0
LINE
  8
0
 62
     0
 10
58.1201
 20
15.186
 30
0.0
 11
56.3947
 21
15.186
 31
0.0
  0
LINE
  8
0
 62
     0
 10
56.3947
 20
15.186
 30
0.0
 11
56.3947
 21
16.1051
 31
0.0
  0
LINE
  8
0
 62
     0
 10
56.3947
 20
16.1051
 30
0.0
 11
53.0945
 21
16.1051
 31
0.0
  0
LINE
  8
0
 62
     0
 10
53.0945
 20
16.1051
 30
0.0
 11
53.0945
 21
15.186
 31
0.0
  0
LINE
  8
0
 62
     0
 10
53.0945
 20
15.186
 30
0.0
 11
51.369
 21
15.186
 31
0.0
  0
LINE
  8
0
 62
     0
 10
51.369
 20
15.186
 30
0.0
 11
51.369
 21
11.9558
 31
0.0
  0
LINE
  8
0
 62
     0
 10
51.369
 20
11.9558
 30
0.0
 11
49.845
 21
11.9558
 31
0.0
  0
LINE
  8
0
 62
     0
 10
49.845
 20
11.9558
 30
0.0
 11
49.845
 21
16.655
 31
0.0
  0
LINE
  8
0
 62
     0
 10
49.845
 20
16.655
 30
0.0
 11
35.844
 21
16.655
 31
0.0
  0
LINE
  8
0
 62
     0
 10
261.469
 20
16.655
 30
0.0
 11
275.47
 21
16.655
 31
0.0
  0
LINE
  8
0
 62
     0
 10
275.47
 20
16.655
 30
0.0
 11
275.47
 21
2.65548
 31
0.0
  0
LINE
  8
0
 62
     0
 10
275.47
 20
2.65548
 30
0.0
 11
261.469
 21
2.65548
 31
0.0
  0
LINE
  8
0
 62
     0
 10
261.469
 20
2.65548
 30
0.0
 11
261.469
 21
16.655
 31
0.0
  0
LINE
  8
0
 62
     0
 10
199.719
 20
16.655
 30
0.0
 11
213.72
 21
16.655
 31
0.0
  0
LINE
  8
0
 62
     0
 10
213.72
 20
16.655
 30
0.0
 11
213.72
 21
2.65548
 31
0.0
  0
LINE
  8
0
 62
     0
 10
213.72
 20
2.65548
 30
0.0
 11
199.719
 21
2.65548
 31
0.0
  0
LINE
  8
0
 62
     0
 10
199.719
 20
2.65548
 30
0.0
 11
199.719
 21
16.655
 31
0.0
  0
LINE
  8
0
 62
     0
 10
175.97
 20
16.655
 30
0.0
 11
189.969
 21
16.655
 31
0.0
  0
LINE
  8
0
 62
     0
 10
189.969
 20
16.655
 30
0.0
 11
189.969
 21
2.65548
 31
0.0
  0
LINE
  8
0
 62
     0
 10
189.969
 20
2.65548
 30
0.0
 11
175.97
 21
2.65548
 31
0.0
  0
LINE
  8
0
 62
     0
 10
175.97
 20
2.65548
 30
0.0
 11
175.97
 21
16.655
 31
0.0
  0
LINE
  8
0
 62
     0
 10
152.219
 20
16.655
 30
0.0
 11
166.219
 21
16.655
 31
0.0
  0
LINE
  8
0
 62
     0
 10
166.219
 20
16.655
 30
0.0
 11
166.219
 21
2.65548
 31
0.0
  0
LINE
  8
0
 62
     0
 10
166.219
 20
2.65548
 30
0.0
 11
152.219
 21
2.65548
 31
0.0
  0
LINE
  8
0
 62
     0
 10
152.219
 20
2.65548
 30
0.0
 11
152.219
 21
16.655
 31
0.0
  0
LINE
  8
0
 62
     0
 10
88.0939
 20
16.655
 30
0.0
 11
102.095
 21
16.655
 31
0.0
  0
LINE
  8
0
 62
     0
 10
102.095
 20
16.655
 30
0.0
 11
102.095
 21
2.65548
 31
0.0
  0
LINE
  8
0
 62
     0
 10
102.095
 20
2.65548
 30
0.0
 11
88.0939
 21
2.65548
 31
0.0
  0
LINE
  8
0
 62
     0
 10
88.0939
 20
2.65548
 30
0.0
 11
88.0939
 21
16.655
 31
0.0
  0
LINE
  8
0
 62
     0
 10
66.7191
 20
16.655
 30
0.0
 11
80.7201
 21
16.655
 31
0.0
  0
LINE
  8
0
 62
     0
 10
80.7201
 20
16.655
 30
0.0
 11
80.7201
 21
2.65548
 31
0.0
  0
LINE
  8
0
 62
     0
 10
80.7201
 20
2.65548
 30
0.0
 11
66.7191
 21
2.65548
 31
0.0
  0
LINE
  8
0
 62
     0
 10
66.7191
 20
2.65548
 30
0.0
 11
66.7191
 21
16.655
 31
0.0
  0
LINE
  8
0
 62
     0
 10
249.595
 20
35.6553
 30
0.0
 11
249.595
 21
30.9549
 31
0.0
  0
LINE
  8
0
 62
     0
 10
249.595
 20
30.9549
 30
0.0
 11
248.069
 21
30.9549
 31
0.0
  0
LINE
  8
0
 62
     0
 10
248.069
 20
30.9549
 30
0.0
 11
248.069
 21
34.185
 31
0.0
  0
LINE
  8
0
 62
     0
 10
248.069
 20
34.185
 30
0.0
 11
246.345
 21
34.185
 31
0.0
  0
LINE
  8
0
 62
     0
 10
246.345
 20
34.185
 30
0.0
 11
246.345
 21
35.1055
 31
0.0
  0
LINE
  8
0
 62
     0
 10
246.345
 20
35.1055
 30
0.0
 11
243.044
 21
35.1055
 31
0.0
  0
LINE
  8
0
 62
     0
 10
243.044
 20
35.1055
 30
0.0
 11
243.044
 21
34.185
 31
0.0
  0
LINE
  8
0
 62
     0
 10
243.044
 20
34.185
 30
0.0
 11
241.319
 21
34.185
 31
0.0
  0
LINE
  8
0
 62
     0
 10
241.319
 20
34.185
 30
0.0
 11
241.319
 21
30.9549
 31
0.0
  0
LINE
  8
0
 62
     0
 10
241.319
 20
30.9549
 30
0.0
 11
240.494
 21
30.9549
 31
0.0
  0
LINE
  8
0
 62
     0
 10
240.494
 20
30.9549
 30
0.0
 11
240.494
 21
28.1561
 31
0.0
  0
LINE
  8
0
 62
     0
 10
240.494
 20
28.1561
 30
0.0
 11
241.319
 21
28.1561
 31
0.0
  0
LINE
  8
0
 62
     0
 10
241.319
 20
28.1561
 30
0.0
 11
241.319
 21
21.886
 31
0.0
  0
LINE
  8
0
 62
     0
 10
241.319
 20
21.886
 30
0.0
 11
243.044
 21
21.886
 31
0.0
  0
LINE
  8
0
 62
     0
 10
243.044
 20
21.886
 30
0.0
 11
243.044
 21
20.9048
 31
0.0
  0
LINE
  8
0
 62
     0
 10
243.044
 20
20.9048
 30
0.0
 11
246.345
 21
20.9048
 31
0.0
  0
LINE
  8
0
 62
     0
 10
246.345
 20
20.9048
 30
0.0
 11
246.345
 21
21.886
 31
0.0
  0
LINE
  8
0
 62
     0
 10
246.345
 20
21.886
 30
0.0
 11
248.069
 21
21.886
 31
0.0
  0
LINE
  8
0
 62
     0
 10
248.069
 20
21.886
 30
0.0
 11
248.069
 21
26.355
 31
0.0
  0
LINE
  8
0
 62
     0
 10
248.069
 20
26.355
 30
0.0
 11
249.595
 21
26.355
 31
0.0
  0
LINE
  8
0
 62
     0
 10
249.595
 20
26.355
 30
0.0
 11
249.595
 21
21.6559
 31
0.0
  0
LINE
  8
0
 62
     0
 10
249.595
 20
21.6559
 30
0.0
 11
263.594
 21
21.6559
 31
0.0
  0
LINE
  8
0
 62
     0
 10
263.594
 20
21.6559
 30
0.0
 11
263.594
 21
26.355
 31
0.0
  0
LINE
  8
0
 62
     0
 10
263.594
 20
26.355
 30
0.0
 11
265.12
 21
26.355
 31
0.0
  0
LINE
  8
0
 62
     0
 10
265.12
 20
26.355
 30
0.0
 11
265.12
 21
21.886
 31
0.0
  0
LINE
  8
0
 62
     0
 10
265.12
 20
21.886
 30
0.0
 11
266.845
 21
21.886
 31
0.0
  0
LINE
  8
0
 62
     0
 10
266.845
 20
21.886
 30
0.0
 11
266.845
 21
20.9048
 31
0.0
  0
LINE
  8
0
 62
     0
 10
266.845
 20
20.9048
 30
0.0
 11
270.145
 21
20.9048
 31
0.0
  0
LINE
  8
0
 62
     0
 10
270.145
 20
20.9048
 30
0.0
 11
270.145
 21
21.886
 31
0.0
  0
LINE
  8
0
 62
     0
 10
270.145
 20
21.886
 30
0.0
 11
271.869
 21
21.886
 31
0.0
  0
LINE
  8
0
 62
     0
 10
271.869
 20
21.886
 30
0.0
 11
271.869
 21
28.1561
 31
0.0
  0
LINE
  8
0
 62
     0
 10
271.869
 20
28.1561
 30
0.0
 11
272.694
 21
28.1561
 31
0.0
  0
LINE
  8
0
 62
     0
 10
272.694
 20
28.1561
 30
0.0
 11
272.694
 21
30.9549
 31
0.0
  0
LINE
  8
0
 62
     0
 10
272.694
 20
30.9549
 30
0.0
 11
271.869
 21
30.9549
 31
0.0
  0
LINE
  8
0
 62
     0
 10
271.869
 20
30.9549
 30
0.0
 11
271.869
 21
34.185
 31
0.0
  0
LINE
  8
0
 62
     0
 10
271.869
 20
34.185
 30
0.0
 11
270.145
 21
34.185
 31
0.0
  0
LINE
  8
0
 62
     0
 10
270.145
 20
34.185
 30
0.0
 11
270.145
 21
35.1055
 31
0.0
  0
LINE
  8
0
 62
     0
 10
270.145
 20
35.1055
 30
0.0
 11
266.845
 21
35.1055
 31
0.0
  0
LINE
  8
0
 62
     0
 10
266.845
 20
35.1055
 30
0.0
 11
266.845
 21
34.185
 31
0.0
  0
LINE
  8
0
 62
     0
 10
266.845
 20
34.185
 30
0.0
 11
265.12
 21
34.185
 31
0.0
  0
LINE
  8
0
 62
     0
 10
265.12
 20
34.185
 30
0.0
 11
265.12
 21
30.9549
 31
0.0
  0
LINE
  8
0
 62
     0
 10
265.12
 20
30.9549
 30
0.0
 11
263.594
 21
30.9549
 31
0.0
  0
LINE
  8
0
 62
     0
 10
263.594
 20
30.9549
 30
0.0
 11
263.594
 21
35.6553
 31
0.0
  0
LINE
  8
0
 62
     0
 10
263.594
 20
35.6553
 30
0.0
 11
249.595
 21
35.6553
 31
0.0
  0
LINE
  8
0
 62
     0
 10
282.845
 20
35.6553
 30
0.0
 11
296.845
 21
35.6553
 31
0.0
  0
LINE
  8
0
 62
     0
 10
296.845
 20
35.6553
 30
0.0
 11
296.845
 21
21.6559
 31
0.0
  0
LINE
  8
0
 62
     0
 10
296.845
 20
21.6559
 30
0.0
 11
282.845
 21
21.6559
 31
0.0
  0
LINE
  8
0
 62
     0
 10
282.845
 20
21.6559
 30
0.0
 11
282.845
 21
35.6553
 31
0.0
  0
LINE
  8
0
 62
     0
 10
221.094
 20
35.6553
 30
0.0
 11
235.095
 21
35.6553
 31
0.0
  0
LINE
  8
0
 62
     0
 10
235.095
 20
35.6553
 30
0.0
 11
235.095
 21
21.6559
 31
0.0
  0
LINE
  8
0
 62
     0
 10
235.095
 20
21.6559
 30
0.0
 11
221.094
 21
21.6559
 31
0.0
  0
LINE
  8
0
 62
     0
 10
221.094
 20
21.6559
 30
0.0
 11
221.094
 21
35.6553
 31
0.0
  0
LINE
  8
0
 62
     0
 10
202.095
 20
35.6553
 30
0.0
 11
216.094
 21
35.6553
 31
0.0
  0
LINE
  8
0
 62
     0
 10
216.094
 20
35.6553
 30
0.0
 11
216.094
 21
21.6559
 31
0.0
  0
LINE
  8
0
 62
     0
 10
216.094
 20
21.6559
 30
0.0
 11
202.095
 21
21.6559
 31
0.0
  0
LINE
  8
0
 62
     0
 10
202.095
 20
21.6559
 30
0.0
 11
202.095
 21
35.6553
 31
0.0
  0
LINE
  8
0
 62
     0
 10
183.094
 20
35.6553
 30
0.0
 11
197.094
 21
35.6553
 31
0.0
  0
LINE
  8
0
 62
     0
 10
197.094
 20
35.6553
 30
0.0
 11
197.094
 21
21.6559
 31
0.0
  0
LINE
  8
0
 62
     0
 10
197.094
 20
21.6559
 30
0.0
 11
183.094
 21
21.6559
 31
0.0
  0
LINE
  8
0
 62
     0
 10
183.094
 20
21.6559
 30
0.0
 11
183.094
 21
35.6553
 31
0.0
  0
LINE
  8
0
 62
     0
 10
164.094
 20
35.6553
 30
0.0
 11
178.095
 21
35.6553
 31
0.0
  0
LINE
  8
0
 62
     0
 10
178.095
 20
35.6553
 30
0.0
 11
178.095
 21
21.6559
 31
0.0
  0
LINE
  8
0
 62
     0
 10
178.095
 20
21.6559
 30
0.0
 11
164.094
 21
21.6559
 31
0.0
  0
LINE
  8
0
 62
     0
 10
164.094
 20
21.6559
 30
0.0
 11
164.094
 21
35.6553
 31
0.0
  0
LINE
  8
0
 62
     0
 10
145.095
 20
35.6553
 30
0.0
 11
159.095
 21
35.6553
 31
0.0
  0
LINE
  8
0
 62
     0
 10
159.095
 20
35.6553
 30
0.0
 11
159.095
 21
21.6559
 31
0.0
  0
LINE
  8
0
 62
     0
 10
159.095
 20
21.6559
 30
0.0
 11
145.095
 21
21.6559
 31
0.0
  0
LINE
  8
0
 62
     0
 10
145.095
 20
21.6559
 30
0.0
 11
145.095
 21
35.6553
 31
0.0
  0
LINE
  8
0
 62
     0
 10
126.095
 20
35.6553
 30
0.0
 11
140.094
 21
35.6553
 31
0.0
  0
LINE
  8
0
 62
     0
 10
140.094
 20
35.6553
 30
0.0
 11
140.094
 21
21.6559
 31
0.0
  0
LINE
  8
0
 62
     0
 10
140.094
 20
21.6559
 30
0.0
 11
126.095
 21
21.6559
 31
0.0
  0
LINE
  8
0
 62
     0
 10
126.095
 20
21.6559
 30
0.0
 11
126.095
 21
35.6553
 31
0.0
  0
LINE
  8
0
 62
     0
 10
107.094
 20
35.6553
 30
0.0
 11
121.095
 21
35.6553
 31
0.0
  0
LINE
  8
0
 62
     0
 10
121.095
 20
35.6553
 30
0.0
 11
121.095
 21
21.6559
 31
0.0
  0
LINE
  8
0
 62
     0
 10
121.095
 20
21.6559
 30
0.0
 11
107.094
 21
21.6559
 31
0.0
  0
LINE
  8
0
 62
     0
 10
107.094
 20
21.6559
 30
0.0
 11
107.094
 21
35.6553
 31
0.0
  0
LINE
  8
0
 62
     0
 10
88.0939
 20
35.6553
 30
0.0
 11
102.095
 21
35.6553
 31
0.0
  0
LINE
  8
0
 62
     0
 10
102.095
 20
35.6553
 30
0.0
 11
102.095
 21
21.6559
 31
0.0
  0
LINE
  8
0
 62
     0
 10
102.095
 20
21.6559
 30
0.0
 11
88.0939
 21
21.6559
 31
0.0
  0
LINE
  8
0
 62
     0
 10
88.0939
 20
21.6559
 30
0.0
 11
88.0939
 21
35.6553
 31
0.0
  0
LINE
  8
0
 62
     0
 10
69.0947
 20
35.6553
 30
0.0
 11
83.0943
 21
35.6553
 31
0.0
  0
LINE
  8
0
 62
     0
 10
83.0943
 20
35.6553
 30
0.0
 11
83.0943
 21
21.6559
 31
0.0
  0
LINE
  8
0
 62
     0
 10
83.0943
 20
21.6559
 30
0.0
 11
69.0947
 21
21.6559
 31
0.0
  0
LINE
  8
0
 62
     0
 10
69.0947
 20
21.6559
 30
0.0
 11
69.0947
 21
35.6553
 31
0.0
  0
LINE
  8
0
 62
     0
 10
50.0944
 20
35.6553
 30
0.0
 11
64.0941
 21
35.6553
 31
0.0
  0
LINE
  8
0
 62
     0
 10
64.0941
 20
35.6553
 30
0.0
 11
64.0941
 21
21.6559
 31
0.0
  0
LINE
  8
0
 62
     0
 10
64.0941
 20
21.6559
 30
0.0
 11
50.0944
 21
21.6559
 31
0.0
  0
LINE
  8
0
 62
     0
 10
50.0944
 20
21.6559
 30
0.0
 11
50.0944
 21
35.6553
 31
0.0
  0
LINE
  8
0
 62
     0
 10
31.094
 20
35.6553
 30
0.0
 11
45.0949
 21
35.6553
 31
0.0
  0
LINE
  8
0
 62
     0
 10
45.0949
 20
35.6553
 30
0.0
 11
45.0949
 21
21.6559
 31
0.0
  0
LINE
  8
0
 62
     0
 10
45.0949
 20
21.6559
 30
0.0
 11
31.094
 21
21.6559
 31
0.0
  0
LINE
  8
0
 62
     0
 10
31.094
 20
21.6559
 30
0.0
 11
31.094
 21
35.6553
 31
0.0
  0
LINE
  8
0
 62
     0
 10
7.34494
 20
35.6553
 30
0.0
 11
21.3444
 21
35.6553
 31
0.0
  0
LINE
  8
0
 62
     0
 10
21.3444
 20
35.6553
 30
0.0
 11
21.3444
 21
21.6559
 31
0.0
  0
LINE
  8
0
 62
     0
 10
21.3444
 20
21.6559
 30
0.0
 11
7.34494
 21
21.6559
 31
0.0
  0
LINE
  8
0
 62
     0
 10
7.34494
 20
21.6559
 30
0.0
 11
7.34494
 21
35.6553
 31
0.0
  0
LINE
  8
0
 62
     0
 10
278.095
 20
54.6559
 30
0.0
 11
278.095
 21
49.9551
 31
0.0
  0
LINE
  8
0
 62
     0
 10
278.095
 20
49.9551
 30
0.0
 11
276.57
 21
49.9551
 31
0.0
  0
LINE
  8
0
 62
     0
 10
276.57
 20
49.9551
 30
0.0
 11
276.57
 21
53.1855
 31
0.0
  0
LINE
  8
0
 62
     0
 10
276.57
 20
53.1855
 30
0.0
 11
274.844
 21
53.1855
 31
0.0
  0
LINE
  8
0
 62
     0
 10
274.844
 20
53.1855
 30
0.0
 11
274.844
 21
54.1059
 31
0.0
  0
LINE
  8
0
 62
     0
 10
274.844
 20
54.1059
 30
0.0
 11
271.545
 21
54.1059
 31
0.0
  0
LINE
  8
0
 62
     0
 10
271.545
 20
54.1059
 30
0.0
 11
271.545
 21
53.1855
 31
0.0
  0
LINE
  8
0
 62
     0
 10
271.545
 20
53.1855
 30
0.0
 11
269.82
 21
53.1855
 31
0.0
  0
LINE
  8
0
 62
     0
 10
269.82
 20
53.1855
 30
0.0
 11
269.82
 21
49.9551
 31
0.0
  0
LINE
  8
0
 62
     0
 10
269.82
 20
49.9551
 30
0.0
 11
268.994
 21
49.9551
 31
0.0
  0
LINE
  8
0
 62
     0
 10
268.994
 20
49.9551
 30
0.0
 11
268.994
 21
47.1551
 31
0.0
  0
LINE
  8
0
 62
     0
 10
268.994
 20
47.1551
 30
0.0
 11
269.82
 21
47.1551
 31
0.0
  0
LINE
  8
0
 62
     0
 10
269.82
 20
47.1551
 30
0.0
 11
269.82
 21
40.8862
 31
0.0
  0
LINE
  8
0
 62
     0
 10
269.82
 20
40.8862
 30
0.0
 11
271.545
 21
40.8862
 31
0.0
  0
LINE
  8
0
 62
     0
 10
271.545
 20
40.8862
 30
0.0
 11
271.545
 21
39.9052
 31
0.0
  0
LINE
  8
0
 62
     0
 10
271.545
 20
39.9052
 30
0.0
 11
274.844
 21
39.9052
 31
0.0
  0
LINE
  8
0
 62
     0
 10
274.844
 20
39.9052
 30
0.0
 11
274.844
 21
40.8862
 31
0.0
  0
LINE
  8
0
 62
     0
 10
274.844
 20
40.8862
 30
0.0
 11
276.57
 21
40.8862
 31
0.0
  0
LINE
  8
0
 62
     0
 10
276.57
 20
40.8862
 30
0.0
 11
276.57
 21
45.3552
 31
0.0
  0
LINE
  8
0
 62
     0
 10
276.57
 20
45.3552
 30
0.0
 11
278.095
 21
45.3552
 31
0.0
  0
LINE
  8
0
 62
     0
 10
278.095
 20
45.3552
 30
0.0
 11
278.095
 21
40.6548
 31
0.0
  0
LINE
  8
0
 62
     0
 10
278.095
 20
40.6548
 30
0.0
 11
292.094
 21
40.6548
 31
0.0
  0
LINE
  8
0
 62
     0
 10
292.094
 20
40.6548
 30
0.0
 11
292.094
 21
45.3552
 31
0.0
  0
LINE
  8
0
 62
     0
 10
292.094
 20
45.3552
 30
0.0
 11
293.62
 21
45.3552
 31
0.0
  0
LINE
  8
0
 62
     0
 10
293.62
 20
45.3552
 30
0.0
 11
293.62
 21
40.8862
 31
0.0
  0
LINE
  8
0
 62
     0
 10
293.62
 20
40.8862
 30
0.0
 11
295.344
 21
40.8862
 31
0.0
  0
LINE
  8
0
 62
     0
 10
295.344
 20
40.8862
 30
0.0
 11
295.344
 21
39.9052
 31
0.0
  0
LINE
  8
0
 62
     0
 10
295.344
 20
39.9052
 30
0.0
 11
298.644
 21
39.9052
 31
0.0
  0
LINE
  8
0
 62
     0
 10
298.644
 20
39.9052
 30
0.0
 11
298.644
 21
40.8862
 31
0.0
  0
LINE
  8
0
 62
     0
 10
298.644
 20
40.8862
 30
0.0
 11
300.369
 21
40.8862
 31
0.0
  0
LINE
  8
0
 62
     0
 10
300.369
 20
40.8862
 30
0.0
 11
300.369
 21
47.1551
 31
0.0
  0
LINE
  8
0
 62
     0
 10
300.369
 20
47.1551
 30
0.0
 11
301.195
 21
47.1551
 31
0.0
  0
LINE
  8
0
 62
     0
 10
301.195
 20
47.1551
 30
0.0
 11
301.195
 21
49.9551
 31
0.0
  0
LINE
  8
0
 62
     0
 10
301.195
 20
49.9551
 30
0.0
 11
300.369
 21
49.9551
 31
0.0
  0
LINE
  8
0
 62
     0
 10
300.369
 20
49.9551
 30
0.0
 11
300.369
 21
53.1855
 31
0.0
  0
LINE
  8
0
 62
     0
 10
300.369
 20
53.1855
 30
0.0
 11
298.644
 21
53.1855
 31
0.0
  0
LINE
  8
0
 62
     0
 10
298.644
 20
53.1855
 30
0.0
 11
298.644
 21
54.1059
 31
0.0
  0
LINE
  8
0
 62
     0
 10
298.644
 20
54.1059
 30
0.0
 11
295.344
 21
54.1059
 31
0.0
  0
LINE
  8
0
 62
     0
 10
295.344
 20
54.1059
 30
0.0
 11
295.344
 21
53.1855
 31
0.0
  0
LINE
  8
0
 62
     0
 10
295.344
 20
53.1855
 30
0.0
 11
293.62
 21
53.1855
 31
0.0
  0
LINE
  8
0
 62
     0
 10
293.62
 20
53.1855
 30
0.0
 11
293.62
 21
49.9551
 31
0.0
  0
LINE
  8
0
 62
     0
 10
293.62
 20
49.9551
 30
0.0
 11
292.094
 21
49.9551
 31
0.0
  0
LINE
  8
0
 62
     0
 10
292.094
 20
49.9551
 30
0.0
 11
292.094
 21
54.6559
 31
0.0
  0
LINE
  8
0
 62
     0
 10
292.094
 20
54.6559
 30
0.0
 11
278.095
 21
54.6559
 31
0.0
  0
LINE
  8
0
 62
     0
 10
12.0951
 20
54.6559
 30
0.0
 11
12.0951
 21
49.9551
 31
0.0
  0
LINE
  8
0
 62
     0
 10
12.0951
 20
49.9551
 30
0.0
 11
10.5695
 21
49.9551
 31
0.0
  0
LINE
  8
0
 62
     0
 10
10.5695
 20
49.9551
 30
0.0
 11
10.5695
 21
53.1855
 31
0.0
  0
LINE
  8
0
 62
     0
 10
10.5695
 20
53.1855
 30
0.0
 11
8.84424
 21
53.1855
 31
0.0
  0
LINE
  8
0
 62
     0
 10
8.84424
 20
53.1855
 30
0.0
 11
8.84424
 21
54.1059
 31
0.0
  0
LINE
  8
0
 62
     0
 10
8.84424
 20
54.1059
 30
0.0
 11
5.54383
 21
54.1059
 31
0.0
  0
LINE
  8
0
 62
     0
 10
5.54383
 20
54.1059
 30
0.0
 11
5.54383
 21
53.1855
 31
0.0
  0
LINE
  8
0
 62
     0
 10
5.54383
 20
53.1855
 30
0.0
 11
3.81991
 21
53.1855
 31
0.0
  0
LINE
  8
0
 62
     0
 10
3.81991
 20
53.1855
 30
0.0
 11
3.81991
 21
49.9551
 31
0.0
  0
LINE
  8
0
 62
     0
 10
3.81991
 20
49.9551
 30
0.0
 11
2.9931
 21
49.9551
 31
0.0
  0
LINE
  8
0
 62
     0
 10
2.9931
 20
49.9551
 30
0.0
 11
2.9931
 21
47.1551
 31
0.0
  0
LINE
  8
0
 62
     0
 10
2.9931
 20
47.1551
 30
0.0
 11
3.81991
 21
47.1551
 31
0.0
  0
LINE
  8
0
 62
     0
 10
3.81991
 20
47.1551
 30
0.0
 11
3.81991
 21
40.8862
 31
0.0
  0
LINE
  8
0
 62
     0
 10
3.81991
 20
40.8862
 30
0.0
 11
5.54383
 21
40.8862
 31
0.0
  0
LINE
  8
0
 62
     0
 10
5.54383
 20
40.8862
 30
0.0
 11
5.54383
 21
39.9052
 31
0.0
  0
LINE
  8
0
 62
     0
 10
5.54383
 20
39.9052
 30
0.0
 11
8.84424
 21
39.9052
 31
0.0
  0
LINE
  8
0
 62
     0
 10
8.84424
 20
39.9052
 30
0.0
 11
8.84424
 21
40.8862
 31
0.0
  0
LINE
  8
0
 62
     0
 10
8.84424
 20
40.8862
 30
0.0
 11
10.5695
 21
40.8862
 31
0.0
  0
LINE
  8
0
 62
     0
 10
10.5695
 20
40.8862
 30
0.0
 11
10.5695
 21
45.3552
 31
0.0
  0
LINE
  8
0
 62
     0
 10
10.5695
 20
45.3552
 30
0.0
 11
12.0951
 21
45.3552
 31
0.0
  0
LINE
  8
0
 62
     0
 10
12.0951
 20
45.3552
 30
0.0
 11
12.0951
 21
40.6548
 31
0.0
  0
LINE
  8
0
 62
     0
 10
12.0951
 20
40.6548
 30
0.0
 11
26.0946
 21
40.6548
 31
0.0
  0
LINE
  8
0
 62
     0
 10
26.0946
 20
40.6548
 30
0.0
 11
26.0946
 21
45.3552
 31
0.0
  0
LINE
  8
0
 62
     0
 10
26.0946
 20
45.3552
 30
0.0
 11
27.62
 21
45.3552
 31
0.0
  0
LINE
  8
0
 62
     0
 10
27.62
 20
45.3552
 30
0.0
 11
27.62
 21
40.8862
 31
0.0
  0
LINE
  8
0
 62
     0
 10
27.62
 20
40.8862
 30
0.0
 11
29.344
 21
40.8862
 31
0.0
  0
LINE
  8
0
 62
     0
 10
29.344
 20
40.8862
 30
0.0
 11
29.344
 21
39.9052
 31
0.0
  0
LINE
  8
0
 62
     0
 10
29.344
 20
39.9052
 30
0.0
 11
32.6444
 21
39.9052
 31
0.0
  0
LINE
  8
0
 62
     0
 10
32.6444
 20
39.9052
 30
0.0
 11
32.6444
 21
40.8862
 31
0.0
  0
LINE
  8
0
 62
     0
 10
32.6444
 20
40.8862
 30
0.0
 11
34.3697
 21
40.8862
 31
0.0
  0
LINE
  8
0
 62
     0
 10
34.3697
 20
40.8862
 30
0.0
 11
34.3697
 21
47.1551
 31
0.0
  0
LINE
  8
0
 62
     0
 10
34.3697
 20
47.1551
 30
0.0
 11
35.1951
 21
47.1551
 31
0.0
  0
LINE
  8
0
 62
     0
 10
35.1951
 20
47.1551
 30
0.0
 11
35.1951
 21
49.9551
 31
0.0
  0
LINE
  8
0
 62
     0
 10
35.1951
 20
49.9551
 30
0.0
 11
34.3697
 21
49.9551
 31
0.0
  0
LINE
  8
0
 62
     0
 10
34.3697
 20
49.9551
 30
0.0
 11
34.3697
 21
53.1855
 31
0.0
  0
LINE
  8
0
 62
     0
 10
34.3697
 20
53.1855
 30
0.0
 11
32.6444
 21
53.1855
 31
0.0
  0
LINE
  8
0
 62
     0
 10
32.6444
 20
53.1855
 30
0.0
 11
32.6444
 21
54.1059
 31
0.0
  0
LINE
  8
0
 62
     0
 10
32.6444
 20
54.1059
 30
0.0
 11
29.344
 21
54.1059
 31
0.0
  0
LINE
  8
0
 62
     0
 10
29.344
 20
54.1059
 30
0.0
 11
29.344
 21
53.1855
 31
0.0
  0
LINE
  8
0
 62
     0
 10
29.344
 20
53.1855
 30
0.0
 11
27.62
 21
53.1855
 31
0.0
  0
LINE
  8
0
 62
     0
 10
27.62
 20
53.1855
 30
0.0
 11
27.62
 21
49.9551
 31
0.0
  0
LINE
  8
0
 62
     0
 10
27.62
 20
49.9551
 30
0.0
 11
26.0946
 21
49.9551
 31
0.0
  0
LINE
  8
0
 62
     0
 10
26.0946
 20
49.9551
 30
0.0
 11
26.0946
 21
54.6559
 31
0.0
  0
LINE
  8
0
 62
     0
 10
26.0946
 20
54.6559
 30
0.0
 11
12.0951
 21
54.6559
 31
0.0
  0
LINE
  8
0
 62
     0
 10
249.595
 20
54.6559
 30
0.0
 11
263.594
 21
54.6559
 31
0.0
  0
LINE
  8
0
 62
     0
 10
263.594
 20
54.6559
 30
0.0
 11
263.594
 21
40.6548
 31
0.0
  0
LINE
  8
0
 62
     0
 10
263.594
 20
40.6548
 30
0.0
 11
249.595
 21
40.6548
 31
0.0
  0
LINE
  8
0
 62
     0
 10
249.595
 20
40.6548
 30
0.0
 11
249.595
 21
54.6559
 31
0.0
  0
LINE
  8
0
 62
     0
 10
230.594
 20
54.6559
 30
0.0
 11
244.595
 21
54.6559
 31
0.0
  0
LINE
  8
0
 62
     0
 10
244.595
 20
54.6559
 30
0.0
 11
244.595
 21
40.6548
 31
0.0
  0
LINE
  8
0
 62
     0
 10
244.595
 20
40.6548
 30
0.0
 11
230.594
 21
40.6548
 31
0.0
  0
LINE
  8
0
 62
     0
 10
230.594
 20
40.6548
 30
0.0
 11
230.594
 21
54.6559
 31
0.0
  0
LINE
  8
0
 62
     0
 10
211.595
 20
54.6559
 30
0.0
 11
225.594
 21
54.6559
 31
0.0
  0
LINE
  8
0
 62
     0
 10
225.594
 20
54.6559
 30
0.0
 11
225.594
 21
40.6548
 31
0.0
  0
LINE
  8
0
 62
     0
 10
225.594
 20
40.6548
 30
0.0
 11
211.595
 21
40.6548
 31
0.0
  0
LINE
  8
0
 62
     0
 10
211.595
 20
40.6548
 30
0.0
 11
211.595
 21
54.6559
 31
0.0
  0
LINE
  8
0
 62
     0
 10
192.595
 20
54.6559
 30
0.0
 11
206.594
 21
54.6559
 31
0.0
  0
LINE
  8
0
 62
     0
 10
206.594
 20
54.6559
 30
0.0
 11
206.594
 21
40.6548
 31
0.0
  0
LINE
  8
0
 62
     0
 10
206.594
 20
40.6548
 30
0.0
 11
192.595
 21
40.6548
 31
0.0
  0
LINE
  8
0
 62
     0
 10
192.595
 20
40.6548
 30
0.0
 11
192.595
 21
54.6559
 31
0.0
  0
LINE
  8
0
 62
     0
 10
173.594
 20
54.6559
 30
0.0
 11
187.595
 21
54.6559
 31
0.0
  0
LINE
  8
0
 62
     0
 10
187.595
 20
54.6559
 30
0.0
 11
187.595
 21
40.6548
 31
0.0
  0
LINE
  8
0
 62
     0
 10
187.595
 20
40.6548
 30
0.0
 11
173.594
 21
40.6548
 31
0.0
  0
LINE
  8
0
 62
     0
 10
173.594
 20
40.6548
 30
0.0
 11
173.594
 21
54.6559
 31
0.0
  0
LINE
  8
0
 62
     0
 10
154.594
 20
54.6559
 30
0.0
 11
168.595
 21
54.6559
 31
0.0
  0
LINE
  8
0
 62
     0
 10
168.595
 20
54.6559
 30
0.0
 11
168.595
 21
40.6548
 31
0.0
  0
LINE
  8
0
 62
     0
 10
168.595
 20
40.6548
 30
0.0
 11
154.594
 21
40.6548
 31
0.0
  0
LINE
  8
0
 62
     0
 10
154.594
 20
40.6548
 30
0.0
 11
154.594
 21
54.6559
 31
0.0
  0
LINE
  8
0
 62
     0
 10
135.595
 20
54.6559
 30
0.0
 11
149.594
 21
54.6559
 31
0.0
  0
LINE
  8
0
 62
     0
 10
149.594
 20
54.6559
 30
0.0
 11
149.594
 21
40.6548
 31
0.0
  0
LINE
  8
0
 62
     0
 10
149.594
 20
40.6548
 30
0.0
 11
135.595
 21
40.6548
 31
0.0
  0
LINE
  8
0
 62
     0
 10
135.595
 20
40.6548
 30
0.0
 11
135.595
 21
54.6559
 31
0.0
  0
LINE
  8
0
 62
     0
 10
116.594
 20
54.6559
 30
0.0
 11
130.594
 21
54.6559
 31
0.0
  0
LINE
  8
0
 62
     0
 10
130.594
 20
54.6559
 30
0.0
 11
130.594
 21
40.6548
 31
0.0
  0
LINE
  8
0
 62
     0
 10
130.594
 20
40.6548
 30
0.0
 11
116.594
 21
40.6548
 31
0.0
  0
LINE
  8
0
 62
     0
 10
116.594
 20
40.6548
 30
0.0
 11
116.594
 21
54.6559
 31
0.0
  0
LINE
  8
0
 62
     0
 10
97.5942
 20
54.6559
 30
0.0
 11
111.595
 21
54.6559
 31
0.0
  0
LINE
  8
0
 62
     0
 10
111.595
 20
54.6559
 30
0.0
 11
111.595
 21
40.6548
 31
0.0
  0
LINE
  8
0
 62
     0
 10
111.595
 20
40.6548
 30
0.0
 11
97.5942
 21
40.6548
 31
0.0
  0
LINE
  8
0
 62
     0
 10
97.5942
 20
40.6548
 30
0.0
 11
97.5942
 21
54.6559
 31
0.0
  0
LINE
  8
0
 62
     0
 10
78.595
 20
54.6559
 30
0.0
 11
92.5946
 21
54.6559
 31
0.0
  0
LINE
  8
0
 62
     0
 10
92.5946
 20
54.6559
 30
0.0
 11
92.5946
 21
40.6548
 31
0.0
  0
LINE
  8
0
 62
     0
 10
92.5946
 20
40.6548
 30
0.0
 11
78.595
 21
40.6548
 31
0.0
  0
LINE
  8
0
 62
     0
 10
78.595
 20
40.6548
 30
0.0
 11
78.595
 21
54.6559
 31
0.0
  0
LINE
  8
0
 62
     0
 10
59.5947
 20
54.6559
 30
0.0
 11
73.594
 21
54.6559
 31
0.0
  0
LINE
  8
0
 62
     0
 10
73.594
 20
54.6559
 30
0.0
 11
73.594
 21
40.6548
 31
0.0
  0
LINE
  8
0
 62
     0
 10
73.594
 20
40.6548
 30
0.0
 11
59.5947
 21
40.6548
 31
0.0
  0
LINE
  8
0
 62
     0
 10
59.5947
 20
40.6548
 30
0.0
 11
59.5947
 21
54.6559
 31
0.0
  0
LINE
  8
0
 62
     0
 10
40.5941
 20
54.6559
 30
0.0
 11
54.5952
 21
54.6559
 31
0.0
  0
LINE
  8
0
 62
     0
 10
54.5952
 20
54.6559
 30
0.0
 11
54.5952
 21
40.6548
 31
0.0
  0
LINE
  8
0
 62
     0
 10
54.5952
 20
40.6548
 30
0.0
 11
40.5941
 21
40.6548
 31
0.0
  0
LINE
  8
0
 62
     0
 10
40.5941
 20
40.6548
 30
0.0
 11
40.5941
 21
54.6559
 31
0.0
  0
LINE
  8
0
 62
     0
 10
275.719
 20
73.6561
 30
0.0
 11
275.719
 21
68.9557
 31
0.0
  0
LINE
  8
0
 62
     0
 10
275.719
 20
68.9557
 30
0.0
 11
274.195
 21
68.9557
 31
0.0
  0
LINE
  8
0
 62
     0
 10
274.195
 20
68.9557
 30
0.0
 11
274.195
 21
72.1857
 31
0.0
  0
LINE
  8
0
 62
     0
 10
274.195
 20
72.1857
 30
0.0
 11
272.47
 21
72.1857
 31
0.0
  0
LINE
  8
0
 62
     0
 10
272.47
 20
72.1857
 30
0.0
 11
272.47
 21
73.1051
 31
0.0
  0
LINE
  8
0
 62
     0
 10
272.47
 20
73.1051
 30
0.0
 11
269.169
 21
73.1051
 31
0.0
  0
LINE
  8
0
 62
     0
 10
269.169
 20
73.1051
 30
0.0
 11
269.169
 21
72.1857
 31
0.0
  0
LINE
  8
0
 62
     0
 10
269.169
 20
72.1857
 30
0.0
 11
267.444
 21
72.1857
 31
0.0
  0
LINE
  8
0
 62
     0
 10
267.444
 20
72.1857
 30
0.0
 11
267.444
 21
68.9557
 31
0.0
  0
LINE
  8
0
 62
     0
 10
267.444
 20
68.9557
 30
0.0
 11
266.62
 21
68.9557
 31
0.0
  0
LINE
  8
0
 62
     0
 10
266.62
 20
68.9557
 30
0.0
 11
266.62
 21
66.1554
 31
0.0
  0
LINE
  8
0
 62
     0
 10
266.62
 20
66.1554
 30
0.0
 11
267.444
 21
66.1554
 31
0.0
  0
LINE
  8
0
 62
     0
 10
267.444
 20
66.1554
 30
0.0
 11
267.444
 21
59.8868
 31
0.0
  0
LINE
  8
0
 62
     0
 10
267.444
 20
59.8868
 30
0.0
 11
269.169
 21
59.8868
 31
0.0
  0
LINE
  8
0
 62
     0
 10
269.169
 20
59.8868
 30
0.0
 11
269.169
 21
58.9058
 31
0.0
  0
LINE
  8
0
 62
     0
 10
269.169
 20
58.9058
 30
0.0
 11
272.47
 21
58.9058
 31
0.0
  0
LINE
  8
0
 62
     0
 10
272.47
 20
58.9058
 30
0.0
 11
272.47
 21
59.8868
 31
0.0
  0
LINE
  8
0
 62
     0
 10
272.47
 20
59.8868
 30
0.0
 11
274.195
 21
59.8868
 31
0.0
  0
LINE
  8
0
 62
     0
 10
274.195
 20
59.8868
 30
0.0
 11
274.195
 21
64.3558
 31
0.0
  0
LINE
  8
0
 62
     0
 10
274.195
 20
64.3558
 30
0.0
 11
275.719
 21
64.3558
 31
0.0
  0
LINE
  8
0
 62
     0
 10
275.719
 20
64.3558
 30
0.0
 11
275.719
 21
59.6554
 31
0.0
  0
LINE
  8
0
 62
     0
 10
275.719
 20
59.6554
 30
0.0
 11
289.72
 21
59.6554
 31
0.0
  0
LINE
  8
0
 62
     0
 10
289.72
 20
59.6554
 30
0.0
 11
289.72
 21
64.3558
 31
0.0
  0
LINE
  8
0
 62
     0
 10
289.72
 20
64.3558
 30
0.0
 11
291.244
 21
64.3558
 31
0.0
  0
LINE
  8
0
 62
     0
 10
291.244
 20
64.3558
 30
0.0
 11
291.244
 21
59.8868
 31
0.0
  0
LINE
  8
0
 62
     0
 10
291.244
 20
59.8868
 30
0.0
 11
292.97
 21
59.8868
 31
0.0
  0
LINE
  8
0
 62
     0
 10
292.97
 20
59.8868
 30
0.0
 11
292.97
 21
58.9058
 31
0.0
  0
LINE
  8
0
 62
     0
 10
292.97
 20
58.9058
 30
0.0
 11
296.27
 21
58.9058
 31
0.0
  0
LINE
  8
0
 62
     0
 10
296.27
 20
58.9058
 30
0.0
 11
296.27
 21
59.8868
 31
0.0
  0
LINE
  8
0
 62
     0
 10
296.27
 20
59.8868
 30
0.0
 11
297.994
 21
59.8868
 31
0.0
  0
LINE
  8
0
 62
     0
 10
297.994
 20
59.8868
 30
0.0
 11
297.994
 21
66.1554
 31
0.0
  0
LINE
  8
0
 62
     0
 10
297.994
 20
66.1554
 30
0.0
 11
298.819
 21
66.1554
 31
0.0
  0
LINE
  8
0
 62
     0
 10
298.819
 20
66.1554
 30
0.0
 11
298.819
 21
68.9557
 31
0.0
  0
LINE
  8
0
 62
     0
 10
298.819
 20
68.9557
 30
0.0
 11
297.994
 21
68.9557
 31
0.0
  0
LINE
  8
0
 62
     0
 10
297.994
 20
68.9557
 30
0.0
 11
297.994
 21
72.1857
 31
0.0
  0
LINE
  8
0
 62
     0
 10
297.994
 20
72.1857
 30
0.0
 11
296.27
 21
72.1857
 31
0.0
  0
LINE
  8
0
 62
     0
 10
296.27
 20
72.1857
 30
0.0
 11
296.27
 21
73.1051
 31
0.0
  0
LINE
  8
0
 62
     0
 10
296.27
 20
73.1051
 30
0.0
 11
292.97
 21
73.1051
 31
0.0
  0
LINE
  8
0
 62
     0
 10
292.97
 20
73.1051
 30
0.0
 11
292.97
 21
72.1857
 31
0.0
  0
LINE
  8
0
 62
     0
 10
292.97
 20
72.1857
 30
0.0
 11
291.244
 21
72.1857
 31
0.0
  0
LINE
  8
0
 62
     0
 10
291.244
 20
72.1857
 30
0.0
 11
291.244
 21
68.9557
 31
0.0
  0
LINE
  8
0
 62
     0
 10
291.244
 20
68.9557
 30
0.0
 11
289.72
 21
68.9557
 31
0.0
  0
LINE
  8
0
 62
     0
 10
289.72
 20
68.9557
 30
0.0
 11
289.72
 21
73.6561
 31
0.0
  0
LINE
  8
0
 62
     0
 10
289.72
 20
73.6561
 30
0.0
 11
275.719
 21
73.6561
 31
0.0
  0
LINE
  8
0
 62
     0
 10
244.844
 20
73.6561
 30
0.0
 11
258.845
 21
73.6561
 31
0.0
  0
LINE
  8
0
 62
     0
 10
258.845
 20
73.6561
 30
0.0
 11
258.845
 21
59.6554
 31
0.0
  0
LINE
  8
0
 62
     0
 10
258.845
 20
59.6554
 30
0.0
 11
244.844
 21
59.6554
 31
0.0
  0
LINE
  8
0
 62
     0
 10
244.844
 20
59.6554
 30
0.0
 11
244.844
 21
73.6561
 31
0.0
  0
LINE
  8
0
 62
     0
 10
225.844
 20
73.6561
 30
0.0
 11
239.845
 21
73.6561
 31
0.0
  0
LINE
  8
0
 62
     0
 10
239.845
 20
73.6561
 30
0.0
 11
239.845
 21
59.6554
 31
0.0
  0
LINE
  8
0
 62
     0
 10
239.845
 20
59.6554
 30
0.0
 11
225.844
 21
59.6554
 31
0.0
  0
LINE
  8
0
 62
     0
 10
225.844
 20
59.6554
 30
0.0
 11
225.844
 21
73.6561
 31
0.0
  0
LINE
  8
0
 62
     0
 10
206.845
 20
73.6561
 30
0.0
 11
220.845
 21
73.6561
 31
0.0
  0
LINE
  8
0
 62
     0
 10
220.845
 20
73.6561
 30
0.0
 11
220.845
 21
59.6554
 31
0.0
  0
LINE
  8
0
 62
     0
 10
220.845
 20
59.6554
 30
0.0
 11
206.845
 21
59.6554
 31
0.0
  0
LINE
  8
0
 62
     0
 10
206.845
 20
59.6554
 30
0.0
 11
206.845
 21
73.6561
 31
0.0
  0
LINE
  8
0
 62
     0
 10
187.845
 20
73.6561
 30
0.0
 11
201.844
 21
73.6561
 31
0.0
  0
LINE
  8
0
 62
     0
 10
201.844
 20
73.6561
 30
0.0
 11
201.844
 21
59.6554
 31
0.0
  0
LINE
  8
0
 62
     0
 10
201.844
 20
59.6554
 30
0.0
 11
187.845
 21
59.6554
 31
0.0
  0
LINE
  8
0
 62
     0
 10
187.845
 20
59.6554
 30
0.0
 11
187.845
 21
73.6561
 31
0.0
  0
LINE
  8
0
 62
     0
 10
168.844
 20
73.6561
 30
0.0
 11
182.845
 21
73.6561
 31
0.0
  0
LINE
  8
0
 62
     0
 10
182.845
 20
73.6561
 30
0.0
 11
182.845
 21
59.6554
 31
0.0
  0
LINE
  8
0
 62
     0
 10
182.845
 20
59.6554
 30
0.0
 11
168.844
 21
59.6554
 31
0.0
  0
LINE
  8
0
 62
     0
 10
168.844
 20
59.6554
 30
0.0
 11
168.844
 21
73.6561
 31
0.0
  0
LINE
  8
0
 62
     0
 10
149.845
 20
73.6561
 30
0.0
 11
163.844
 21
73.6561
 31
0.0
  0
LINE
  8
0
 62
     0
 10
163.844
 20
73.6561
 30
0.0
 11
163.844
 21
59.6554
 31
0.0
  0
LINE
  8
0
 62
     0
 10
163.844
 20
59.6554
 30
0.0
 11
149.845
 21
59.6554
 31
0.0
  0
LINE
  8
0
 62
     0
 10
149.845
 20
59.6554
 30
0.0
 11
149.845
 21
73.6561
 31
0.0
  0
LINE
  8
0
 62
     0
 10
130.845
 20
73.6561
 30
0.0
 11
144.844
 21
73.6561
 31
0.0
  0
LINE
  8
0
 62
     0
 10
144.844
 20
73.6561
 30
0.0
 11
144.844
 21
59.6554
 31
0.0
  0
LINE
  8
0
 62
     0
 10
144.844
 20
59.6554
 30
0.0
 11
130.845
 21
59.6554
 31
0.0
  0
LINE
  8
0
 62
     0
 10
130.845
 20
59.6554
 30
0.0
 11
130.845
 21
73.6561
 31
0.0
  0
LINE
  8
0
 62
     0
 10
111.844
 20
73.6561
 30
0.0
 11
125.844
 21
73.6561
 31
0.0
  0
LINE
  8
0
 62
     0
 10
125.844
 20
73.6561
 30
0.0
 11
125.844
 21
59.6554
 31
0.0
  0
LINE
  8
0
 62
     0
 10
125.844
 20
59.6554
 30
0.0
 11
111.844
 21
59.6554
 31
0.0
  0
LINE
  8
0
 62
     0
 10
111.844
 20
59.6554
 30
0.0
 11
111.844
 21
73.6561
 31
0.0
  0
LINE
  8
0
 62
     0
 10
92.8441
 20
73.6561
 30
0.0
 11
106.845
 21
73.6561
 31
0.0
  0
LINE
  8
0
 62
     0
 10
106.845
 20
73.6561
 30
0.0
 11
106.845
 21
59.6554
 31
0.0
  0
LINE
  8
0
 62
     0
 10
106.845
 20
59.6554
 30
0.0
 11
92.8441
 21
59.6554
 31
0.0
  0
LINE
  8
0
 62
     0
 10
92.8441
 20
59.6554
 30
0.0
 11
92.8441
 21
73.6561
 31
0.0
  0
LINE
  8
0
 62
     0
 10
73.8449
 20
73.6561
 30
0.0
 11
87.8445
 21
73.6561
 31
0.0
  0
LINE
  8
0
 62
     0
 10
87.8445
 20
73.6561
 30
0.0
 11
87.8445
 21
59.6554
 31
0.0
  0
LINE
  8
0
 62
     0
 10
87.8445
 20
59.6554
 30
0.0
 11
73.8449
 21
59.6554
 31
0.0
  0
LINE
  8
0
 62
     0
 10
73.8449
 20
59.6554
 30
0.0
 11
73.8449
 21
73.6561
 31
0.0
  0
LINE
  8
0
 62
     0
 10
54.8446
 20
73.6561
 30
0.0
 11
68.8439
 21
73.6561
 31
0.0
  0
LINE
  8
0
 62
     0
 10
68.8439
 20
73.6561
 30
0.0
 11
68.8439
 21
59.6554
 31
0.0
  0
LINE
  8
0
 62
     0
 10
68.8439
 20
59.6554
 30
0.0
 11
54.8446
 21
59.6554
 31
0.0
  0
LINE
  8
0
 62
     0
 10
54.8446
 20
59.6554
 30
0.0
 11
54.8446
 21
73.6561
 31
0.0
  0
LINE
  8
0
 62
     0
 10
35.844
 20
73.6561
 30
0.0
 11
49.845
 21
73.6561
 31
0.0
  0
LINE
  8
0
 62
     0
 10
49.845
 20
73.6561
 30
0.0
 11
49.845
 21
59.6554
 31
0.0
  0
LINE
  8
0
 62
     0
 10
49.845
 20
59.6554
 30
0.0
 11
35.844
 21
59.6554
 31
0.0
  0
LINE
  8
0
 62
     0
 10
35.844
 20
59.6554
 30
0.0
 11
35.844
 21
73.6561
 31
0.0
  0
LINE
  8
0
 62
     0
 10
9.71931
 20
73.6561
 30
0.0
 11
23.7202
 21
73.6561
 31
0.0
  0
LINE
  8
0
 62
     0
 10
23.7202
 20
73.6561
 30
0.0
 11
23.7202
 21
59.6554
 31
0.0
  0
LINE
  8
0
 62
     0
 10
23.7202
 20
59.6554
 30
0.0
 11
9.71931
 21
59.6554
 31
0.0
  0
LINE
  8
0
 62
     0
 10
9.71931
 20
59.6554
 30
0.0
 11
9.71931
 21
73.6561
 31
0.0
  0
LINE
  8
0
 62
     0
 10
282.845
 20
92.6553
 30
0.0
 11
296.845
 21
92.6553
 31
0.0
  0
LINE
  8
0
 62
     0
 10
296.845
 20
92.6553
 30
0.0
 11
296.845
 21
78.6557
 31
0.0
  0
LINE
  8
0
 62
     0
 10
296.845
 20
78.6557
 30
0.0
 11
282.845
 21
78.6557
 31
0.0
  0
LINE
  8
0
 62
     0
 10
282.845
 20
78.6557
 30
0.0
 11
282.845
 21
92.6553
 31
0.0
  0
LINE
  8
0
 62
     0
 10
259.094
 20
92.6553
 30
0.0
 11
273.094
 21
92.6553
 31
0.0
  0
LINE
  8
0
 62
     0
 10
273.094
 20
92.6553
 30
0.0
 11
273.094
 21
78.6557
 31
0.0
  0
LINE
  8
0
 62
     0
 10
273.094
 20
78.6557
 30
0.0
 11
259.094
 21
78.6557
 31
0.0
  0
LINE
  8
0
 62
     0
 10
259.094
 20
78.6557
 30
0.0
 11
259.094
 21
92.6553
 31
0.0
  0
LINE
  8
0
 62
     0
 10
240.094
 20
92.6553
 30
0.0
 11
254.095
 21
92.6553
 31
0.0
  0
LINE
  8
0
 62
     0
 10
254.095
 20
92.6553
 30
0.0
 11
254.095
 21
78.6557
 31
0.0
  0
LINE
  8
0
 62
     0
 10
254.095
 20
78.6557
 30
0.0
 11
240.094
 21
78.6557
 31
0.0
  0
LINE
  8
0
 62
     0
 10
240.094
 20
78.6557
 30
0.0
 11
240.094
 21
92.6553
 31
0.0
  0
LINE
  8
0
 62
     0
 10
221.094
 20
92.6553
 30
0.0
 11
235.095
 21
92.6553
 31
0.0
  0
LINE
  8
0
 62
     0
 10
235.095
 20
92.6553
 30
0.0
 11
235.095
 21
78.6557
 31
0.0
  0
LINE
  8
0
 62
     0
 10
235.095
 20
78.6557
 30
0.0
 11
221.094
 21
78.6557
 31
0.0
  0
LINE
  8
0
 62
     0
 10
221.094
 20
78.6557
 30
0.0
 11
221.094
 21
92.6553
 31
0.0
  0
LINE
  8
0
 62
     0
 10
202.095
 20
92.6553
 30
0.0
 11
216.094
 21
92.6553
 31
0.0
  0
LINE
  8
0
 62
     0
 10
216.094
 20
92.6553
 30
0.0
 11
216.094
 21
78.6557
 31
0.0
  0
LINE
  8
0
 62
     0
 10
216.094
 20
78.6557
 30
0.0
 11
202.095
 21
78.6557
 31
0.0
  0
LINE
  8
0
 62
     0
 10
202.095
 20
78.6557
 30
0.0
 11
202.095
 21
92.6553
 31
0.0
  0
LINE
  8
0
 62
     0
 10
183.094
 20
92.6553
 30
0.0
 11
197.094
 21
92.6553
 31
0.0
  0
LINE
  8
0
 62
     0
 10
197.094
 20
92.6553
 30
0.0
 11
197.094
 21
78.6557
 31
0.0
  0
LINE
  8
0
 62
     0
 10
197.094
 20
78.6557
 30
0.0
 11
183.094
 21
78.6557
 31
0.0
  0
LINE
  8
0
 62
     0
 10
183.094
 20
78.6557
 30
0.0
 11
183.094
 21
92.6553
 31
0.0
  0
LINE
  8
0
 62
     0
 10
164.094
 20
92.6553
 30
0.0
 11
178.095
 21
92.6553
 31
0.0
  0
LINE
  8
0
 62
     0
 10
178.095
 20
92.6553
 30
0.0
 11
178.095
 21
78.6557
 31
0.0
  0
LINE
  8
0
 62
     0
 10
178.095
 20
78.6557
 30
0.0
 11
164.094
 21
78.6557
 31
0.0
  0
LINE
  8
0
 62
     0
 10
164.094
 20
78.6557
 30
0.0
 11
164.094
 21
92.6553
 31
0.0
  0
LINE
  8
0
 62
     0
 10
145.095
 20
92.6553
 30
0.0
 11
159.095
 21
92.6553
 31
0.0
  0
LINE
  8
0
 62
     0
 10
159.095
 20
92.6553
 30
0.0
 11
159.095
 21
78.6557
 31
0.0
  0
LINE
  8
0
 62
     0
 10
159.095
 20
78.6557
 30
0.0
 11
145.095
 21
78.6557
 31
0.0
  0
LINE
  8
0
 62
     0
 10
145.095
 20
78.6557
 30
0.0
 11
145.095
 21
92.6553
 31
0.0
  0
LINE
  8
0
 62
     0
 10
126.095
 20
92.6553
 30
0.0
 11
140.094
 21
92.6553
 31
0.0
  0
LINE
  8
0
 62
     0
 10
140.094
 20
92.6553
 30
0.0
 11
140.094
 21
78.6557
 31
0.0
  0
LINE
  8
0
 62
     0
 10
140.094
 20
78.6557
 30
0.0
 11
126.095
 21
78.6557
 31
0.0
  0
LINE
  8
0
 62
     0
 10
126.095
 20
78.6557
 30
0.0
 11
126.095
 21
92.6553
 31
0.0
  0
LINE
  8
0
 62
     0
 10
107.094
 20
92.6553
 30
0.0
 11
121.095
 21
92.6553
 31
0.0
  0
LINE
  8
0
 62
     0
 10
121.095
 20
92.6553
 30
0.0
 11
121.095
 21
78.6557
 31
0.0
  0
LINE
  8
0
 62
     0
 10
121.095
 20
78.6557
 30
0.0
 11
107.094
 21
78.6557
 31
0.0
  0
LINE
  8
0
 62
     0
 10
107.094
 20
78.6557
 30
0.0
 11
107.094
 21
92.6553
 31
0.0
  0
LINE
  8
0
 62
     0
 10
88.0939
 20
92.6553
 30
0.0
 11
102.095
 21
92.6553
 31
0.0
  0
LINE
  8
0
 62
     0
 10
102.095
 20
92.6553
 30
0.0
 11
102.095
 21
78.6557
 31
0.0
  0
LINE
  8
0
 62
     0
 10
102.095
 20
78.6557
 30
0.0
 11
88.0939
 21
78.6557
 31
0.0
  0
LINE
  8
0
 62
     0
 10
88.0939
 20
78.6557
 30
0.0
 11
88.0939
 21
92.6553
 31
0.0
  0
LINE
  8
0
 62
     0
 10
69.0947
 20
92.6553
 30
0.0
 11
83.0943
 21
92.6553
 31
0.0
  0
LINE
  8
0
 62
     0
 10
83.0943
 20
92.6553
 30
0.0
 11
83.0943
 21
78.6557
 31
0.0
  0
LINE
  8
0
 62
     0
 10
83.0943
 20
78.6557
 30
0.0
 11
69.0947
 21
78.6557
 31
0.0
  0
LINE
  8
0
 62
     0
 10
69.0947
 20
78.6557
 30
0.0
 11
69.0947
 21
92.6553
 31
0.0
  0
LINE
  8
0
 62
     0
 10
50.0944
 20
92.6553
 30
0.0
 11
64.0941
 21
92.6553
 31
0.0
  0
LINE
  8
0
 62
     0
 10
64.0941
 20
92.6553
 30
0.0
 11
64.0941
 21
78.6557
 31
0.0
  0
LINE
  8
0
 62
     0
 10
64.0941
 20
78.6557
 30
0.0
 11
50.0944
 21
78.6557
 31
0.0
  0
LINE
  8
0
 62
     0
 10
50.0944
 20
78.6557
 30
0.0
 11
50.0944
 21
92.6553
 31
0.0
  0
LINE
  8
0
 62
     0
 10
31.094
 20
92.6553
 30
0.0
 11
45.0949
 21
92.6553
 31
0.0
  0
LINE
  8
0
 62
     0
 10
45.0949
 20
92.6553
 30
0.0
 11
45.0949
 21
78.6557
 31
0.0
  0
LINE
  8
0
 62
     0
 10
45.0949
 20
78.6557
 30
0.0
 11
31.094
 21
78.6557
 31
0.0
  0
LINE
  8
0
 62
     0
 10
31.094
 20
78.6557
 30
0.0
 11
31.094
 21
92.6553
 31
0.0
  0
LINE
  8
0
 62
     0
 10
7.34494
 20
92.6553
 30
0.0
 11
21.3444
 21
92.6553
 31
0.0
  0
LINE
  8
0
 62
     0
 10
21.3444
 20
92.6553
 30
0.0
 11
21.3444
 21
78.6557
 31
0.0
  0
LINE
  8
0
 62
     0
 10
21.3444
 20
78.6557
 30
0.0
 11
7.34494
 21
78.6557
 31
0.0
  0
LINE
  8
0
 62
     0
 10
7.34494
 20
78.6557
 30
0.0
 11
7.34494
 21
92.6553
 31
0.0
  0
ENDSEC
  0
EOF
