  0
SECTION
  2
HEADER
  9
$ACADVER
  1
AC1009
  9
$EXTMIN
 10
0.0
 20
0.0
 30
0.0
  9
$EXTMAX
 10
1000.0
 20
1000.0
 30
0.0
  9
$FILLMODE
 70
 0
  9
$SPLFRAME
 70
 1
  0
ENDSEC
  0
SECTION
  2
TABLES
  0
TABLE
  2
LAYER
 70
1
  0
LAYER
  2
0
 70
     0
 62
     7
  6
CONTINUOUS
  0
ENDTAB
  0
ENDSEC
  0
SECTION
  2
ENTITIES
  0
LINE
  8
0
 62
     0
 10
0.0950846
 20
95.5075
 30
0.0
 11
304.895
 21
95.5075
 31
0.0
  0
LINE
  8
0
 62
     0
 10
304.895
 20
95.5075
 30
0.0
 11
304.895
 21
0.257693
 31
0.0
  0
LINE
  8
0
 62
     0
 10
304.895
 20
0.257693
 30
0.0
 11
0.0950846
 21
0.257693
 31
0.0
  0
LINE
  8
0
 62
     0
 10
0.0950846
 20
0.257693
 30
0.0
 11
0.0950846
 21
95.5075
 31
0.0
  0
LINE
  8
0
 62
     0
 10
231.22
 20
16.7831
 30
0.0
 11
231.22
 21
12.0826
 31
0.0
  0
LINE
  8
0
 62
     0
 10
231.22
 20
12.0826
 30
0.0
 11
229.694
 21
12.0826
 31
0.0
  0
LINE
  8
0
 62
     0
 10
229.694
 20
12.0826
 30
0.0
 11
229.694
 21
15.3128
 31
0.0
  0
LINE
  8
0
 62
     0
 10
229.694
 20
15.3128
 30
0.0
 11
227.969
 21
15.3128
 31
0.0
  0
LINE
  8
0
 62
     0
 10
227.969
 20
15.3128
 30
0.0
 11
227.969
 21
16.2347
 31
0.0
  0
LINE
  8
0
 62
     0
 10
227.969
 20
16.2347
 30
0.0
 11
224.67
 21
16.2347
 31
0.0
  0
LINE
  8
0
 62
     0
 10
224.67
 20
16.2347
 30
0.0
 11
224.67
 21
15.3128
 31
0.0
  0
LINE
  8
0
 62
     0
 10
224.67
 20
15.3128
 30
0.0
 11
222.945
 21
15.3128
 31
0.0
  0
LINE
  8
0
 62
     0
 10
222.945
 20
15.3128
 30
0.0
 11
222.945
 21
12.0826
 31
0.0
  0
LINE
  8
0
 62
     0
 10
222.945
 20
12.0826
 30
0.0
 11
222.119
 21
12.0826
 31
0.0
  0
LINE
  8
0
 62
     0
 10
222.119
 20
12.0826
 30
0.0
 11
222.119
 21
9.28384
 31
0.0
  0
LINE
  8
0
 62
     0
 10
222.119
 20
9.28384
 30
0.0
 11
222.945
 21
9.28384
 31
0.0
  0
LINE
  8
0
 62
     0
 10
222.945
 20
9.28384
 30
0.0
 11
222.945
 21
3.01377
 31
0.0
  0
LINE
  8
0
 62
     0
 10
222.945
 20
3.01377
 30
0.0
 11
224.67
 21
3.01377
 31
0.0
  0
LINE
  8
0
 62
     0
 10
224.67
 20
3.01377
 30
0.0
 11
224.67
 21
2.03261
 31
0.0
  0
LINE
  8
0
 62
     0
 10
224.67
 20
2.03261
 30
0.0
 11
227.969
 21
2.03261
 31
0.0
  0
LINE
  8
0
 62
     0
 10
227.969
 20
2.03261
 30
0.0
 11
227.969
 21
3.01377
 31
0.0
  0
LINE
  8
0
 62
     0
 10
227.969
 20
3.01377
 30
0.0
 11
229.694
 21
3.01377
 31
0.0
  0
LINE
  8
0
 62
     0
 10
229.694
 20
3.01377
 30
0.0
 11
229.694
 21
7.48411
 31
0.0
  0
LINE
  8
0
 62
     0
 10
229.694
 20
7.48411
 30
0.0
 11
231.22
 21
7.48411
 31
0.0
  0
LINE
  8
0
 62
     0
 10
231.22
 20
7.48411
 30
0.0
 11
231.22
 21
2.78364
 31
0.0
  0
LINE
  8
0
 62
     0
 10
231.22
 20
2.78364
 30
0.0
 11
245.219
 21
2.78364
 31
0.0
  0
LINE
  8
0
 62
     0
 10
245.219
 20
2.78364
 30
0.0
 11
245.219
 21
7.48411
 31
0.0
  0
LINE
  8
0
 62
     0
 10
245.219
 20
7.48411
 30
0.0
 11
246.745
 21
7.48411
 31
0.0
  0
LINE
  8
0
 62
     0
 10
246.745
 20
7.48411
 30
0.0
 11
246.745
 21
3.01377
 31
0.0
  0
LINE
  8
0
 62
     0
 10
246.745
 20
3.01377
 30
0.0
 11
248.47
 21
3.01377
 31
0.0
  0
LINE
  8
0
 62
     0
 10
248.47
 20
3.01377
 30
0.0
 11
248.47
 21
2.03261
 31
0.0
  0
LINE
  8
0
 62
     0
 10
248.47
 20
2.03261
 30
0.0
 11
251.769
 21
2.03261
 31
0.0
  0
LINE
  8
0
 62
     0
 10
251.769
 20
2.03261
 30
0.0
 11
251.769
 21
3.01377
 31
0.0
  0
LINE
  8
0
 62
     0
 10
251.769
 20
3.01377
 30
0.0
 11
253.493
 21
3.01377
 31
0.0
  0
LINE
  8
0
 62
     0
 10
253.493
 20
3.01377
 30
0.0
 11
253.493
 21
9.28384
 31
0.0
  0
LINE
  8
0
 62
     0
 10
253.493
 20
9.28384
 30
0.0
 11
254.32
 21
9.28384
 31
0.0
  0
LINE
  8
0
 62
     0
 10
254.32
 20
9.28384
 30
0.0
 11
254.32
 21
12.0826
 31
0.0
  0
LINE
  8
0
 62
     0
 10
254.32
 20
12.0826
 30
0.0
 11
253.493
 21
12.0826
 31
0.0
  0
LINE
  8
0
 62
     0
 10
253.493
 20
12.0826
 30
0.0
 11
253.493
 21
15.3128
 31
0.0
  0
LINE
  8
0
 62
     0
 10
253.493
 20
15.3128
 30
0.0
 11
251.769
 21
15.3128
 31
0.0
  0
LINE
  8
0
 62
     0
 10
251.769
 20
15.3128
 30
0.0
 11
251.769
 21
16.2347
 31
0.0
  0
LINE
  8
0
 62
     0
 10
251.769
 20
16.2347
 30
0.0
 11
248.47
 21
16.2347
 31
0.0
  0
LINE
  8
0
 62
     0
 10
248.47
 20
16.2347
 30
0.0
 11
248.47
 21
15.3128
 31
0.0
  0
LINE
  8
0
 62
     0
 10
248.47
 20
15.3128
 30
0.0
 11
246.745
 21
15.3128
 31
0.0
  0
LINE
  8
0
 62
     0
 10
246.745
 20
15.3128
 30
0.0
 11
246.745
 21
12.0826
 31
0.0
  0
LINE
  8
0
 62
     0
 10
246.745
 20
12.0826
 30
0.0
 11
245.219
 21
12.0826
 31
0.0
  0
LINE
  8
0
 62
     0
 10
245.219
 20
12.0826
 30
0.0
 11
245.219
 21
16.7831
 31
0.0
  0
LINE
  8
0
 62
     0
 10
245.219
 20
16.7831
 30
0.0
 11
231.22
 21
16.7831
 31
0.0
  0
LINE
  8
0
 62
     0
 10
119.301
 20
16.7831
 30
0.0
 11
119.301
 21
12.0826
 31
0.0
  0
LINE
  8
0
 62
     0
 10
119.301
 20
12.0826
 30
0.0
 11
117.776
 21
12.0826
 31
0.0
  0
LINE
  8
0
 62
     0
 10
117.776
 20
12.0826
 30
0.0
 11
117.776
 21
15.3128
 31
0.0
  0
LINE
  8
0
 62
     0
 10
117.776
 20
15.3128
 30
0.0
 11
116.05
 21
15.3128
 31
0.0
  0
LINE
  8
0
 62
     0
 10
116.05
 20
15.3128
 30
0.0
 11
116.05
 21
16.2347
 31
0.0
  0
LINE
  8
0
 62
     0
 10
116.05
 20
16.2347
 30
0.0
 11
112.751
 21
16.2347
 31
0.0
  0
LINE
  8
0
 62
     0
 10
112.751
 20
16.2347
 30
0.0
 11
112.751
 21
15.3128
 31
0.0
  0
LINE
  8
0
 62
     0
 10
112.751
 20
15.3128
 30
0.0
 11
111.026
 21
15.3128
 31
0.0
  0
LINE
  8
0
 62
     0
 10
111.026
 20
15.3128
 30
0.0
 11
111.026
 21
12.0826
 31
0.0
  0
LINE
  8
0
 62
     0
 10
111.026
 20
12.0826
 30
0.0
 11
110.2
 21
12.0826
 31
0.0
  0
LINE
  8
0
 62
     0
 10
110.2
 20
12.0826
 30
0.0
 11
110.2
 21
9.28384
 31
0.0
  0
LINE
  8
0
 62
     0
 10
110.2
 20
9.28384
 30
0.0
 11
111.026
 21
9.28384
 31
0.0
  0
LINE
  8
0
 62
     0
 10
111.026
 20
9.28384
 30
0.0
 11
111.026
 21
3.01377
 31
0.0
  0
LINE
  8
0
 62
     0
 10
111.026
 20
3.01377
 30
0.0
 11
112.751
 21
3.01377
 31
0.0
  0
LINE
  8
0
 62
     0
 10
112.751
 20
3.01377
 30
0.0
 11
112.751
 21
2.03261
 31
0.0
  0
LINE
  8
0
 62
     0
 10
112.751
 20
2.03261
 30
0.0
 11
116.05
 21
2.03261
 31
0.0
  0
LINE
  8
0
 62
     0
 10
116.05
 20
2.03261
 30
0.0
 11
116.05
 21
3.01377
 31
0.0
  0
LINE
  8
0
 62
     0
 10
116.05
 20
3.01377
 30
0.0
 11
117.776
 21
3.01377
 31
0.0
  0
LINE
  8
0
 62
     0
 10
117.776
 20
3.01377
 30
0.0
 11
117.776
 21
7.48411
 31
0.0
  0
LINE
  8
0
 62
     0
 10
117.776
 20
7.48411
 30
0.0
 11
119.301
 21
7.48411
 31
0.0
  0
LINE
  8
0
 62
     0
 10
119.301
 20
7.48411
 30
0.0
 11
119.301
 21
2.78364
 31
0.0
  0
LINE
  8
0
 62
     0
 10
119.301
 20
2.78364
 30
0.0
 11
133.3
 21
2.78364
 31
0.0
  0
LINE
  8
0
 62
     0
 10
133.3
 20
2.78364
 30
0.0
 11
133.3
 21
7.48411
 31
0.0
  0
LINE
  8
0
 62
     0
 10
133.3
 20
7.48411
 30
0.0
 11
134.826
 21
7.48411
 31
0.0
  0
LINE
  8
0
 62
     0
 10
134.826
 20
7.48411
 30
0.0
 11
134.826
 21
3.01377
 31
0.0
  0
LINE
  8
0
 62
     0
 10
134.826
 20
3.01377
 30
0.0
 11
136.55
 21
3.01377
 31
0.0
  0
LINE
  8
0
 62
     0
 10
136.55
 20
3.01377
 30
0.0
 11
136.55
 21
2.03261
 31
0.0
  0
LINE
  8
0
 62
     0
 10
136.55
 20
2.03261
 30
0.0
 11
139.85
 21
2.03261
 31
0.0
  0
LINE
  8
0
 62
     0
 10
139.85
 20
2.03261
 30
0.0
 11
139.85
 21
3.01377
 31
0.0
  0
LINE
  8
0
 62
     0
 10
139.85
 20
3.01377
 30
0.0
 11
141.575
 21
3.01377
 31
0.0
  0
LINE
  8
0
 62
     0
 10
141.575
 20
3.01377
 30
0.0
 11
141.575
 21
9.28384
 31
0.0
  0
LINE
  8
0
 62
     0
 10
141.575
 20
9.28384
 30
0.0
 11
142.401
 21
9.28384
 31
0.0
  0
LINE
  8
0
 62
     0
 10
142.401
 20
9.28384
 30
0.0
 11
142.401
 21
12.0826
 31
0.0
  0
LINE
  8
0
 62
     0
 10
142.401
 20
12.0826
 30
0.0
 11
141.575
 21
12.0826
 31
0.0
  0
LINE
  8
0
 62
     0
 10
141.575
 20
12.0826
 30
0.0
 11
141.575
 21
15.3128
 31
0.0
  0
LINE
  8
0
 62
     0
 10
141.575
 20
15.3128
 30
0.0
 11
139.85
 21
15.3128
 31
0.0
  0
LINE
  8
0
 62
     0
 10
139.85
 20
15.3128
 30
0.0
 11
139.85
 21
16.2347
 31
0.0
  0
LINE
  8
0
 62
     0
 10
139.85
 20
16.2347
 30
0.0
 11
136.55
 21
16.2347
 31
0.0
  0
LINE
  8
0
 62
     0
 10
136.55
 20
16.2347
 30
0.0
 11
136.55
 21
15.3128
 31
0.0
  0
LINE
  8
0
 62
     0
 10
136.55
 20
15.3128
 30
0.0
 11
134.826
 21
15.3128
 31
0.0
  0
LINE
  8
0
 62
     0
 10
134.826
 20
15.3128
 30
0.0
 11
134.826
 21
12.0826
 31
0.0
  0
LINE
  8
0
 62
     0
 10
134.826
 20
12.0826
 30
0.0
 11
133.3
 21
12.0826
 31
0.0
  0
LINE
  8
0
 62
     0
 10
133.3
 20
12.0826
 30
0.0
 11
133.3
 21
16.7831
 31
0.0
  0
LINE
  8
0
 62
     0
 10
133.3
 20
16.7831
 30
0.0
 11
119.301
 21
16.7831
 31
0.0
  0
LINE
  8
0
 62
     0
 10
35.9572
 20
16.7831
 30
0.0
 11
35.9572
 21
12.0826
 31
0.0
  0
LINE
  8
0
 62
     0
 10
35.9572
 20
12.0826
 30
0.0
 11
34.4317
 21
12.0826
 31
0.0
  0
LINE
  8
0
 62
     0
 10
34.4317
 20
12.0826
 30
0.0
 11
34.4317
 21
15.3128
 31
0.0
  0
LINE
  8
0
 62
     0
 10
34.4317
 20
15.3128
 30
0.0
 11
32.7063
 21
15.3128
 31
0.0
  0
LINE
  8
0
 62
     0
 10
32.7063
 20
15.3128
 30
0.0
 11
32.7063
 21
16.2347
 31
0.0
  0
LINE
  8
0
 62
     0
 10
32.7063
 20
16.2347
 30
0.0
 11
29.406
 21
16.2347
 31
0.0
  0
LINE
  8
0
 62
     0
 10
29.406
 20
16.2347
 30
0.0
 11
29.406
 21
15.3128
 31
0.0
  0
LINE
  8
0
 62
     0
 10
29.406
 20
15.3128
 30
0.0
 11
27.6821
 21
15.3128
 31
0.0
  0
LINE
  8
0
 62
     0
 10
27.6821
 20
15.3128
 30
0.0
 11
27.6821
 21
12.0826
 31
0.0
  0
LINE
  8
0
 62
     0
 10
27.6821
 20
12.0826
 30
0.0
 11
26.8566
 21
12.0826
 31
0.0
  0
LINE
  8
0
 62
     0
 10
26.8566
 20
12.0826
 30
0.0
 11
26.8566
 21
9.28384
 31
0.0
  0
LINE
  8
0
 62
     0
 10
26.8566
 20
9.28384
 30
0.0
 11
27.6821
 21
9.28384
 31
0.0
  0
LINE
  8
0
 62
     0
 10
27.6821
 20
9.28384
 30
0.0
 11
27.6821
 21
3.01377
 31
0.0
  0
LINE
  8
0
 62
     0
 10
27.6821
 20
3.01377
 30
0.0
 11
29.406
 21
3.01377
 31
0.0
  0
LINE
  8
0
 62
     0
 10
29.406
 20
3.01377
 30
0.0
 11
29.406
 21
2.03261
 31
0.0
  0
LINE
  8
0
 62
     0
 10
29.406
 20
2.03261
 30
0.0
 11
32.7063
 21
2.03261
 31
0.0
  0
LINE
  8
0
 62
     0
 10
32.7063
 20
2.03261
 30
0.0
 11
32.7063
 21
3.01377
 31
0.0
  0
LINE
  8
0
 62
     0
 10
32.7063
 20
3.01377
 30
0.0
 11
34.4317
 21
3.01377
 31
0.0
  0
LINE
  8
0
 62
     0
 10
34.4317
 20
3.01377
 30
0.0
 11
34.4317
 21
7.48411
 31
0.0
  0
LINE
  8
0
 62
     0
 10
34.4317
 20
7.48411
 30
0.0
 11
35.9572
 21
7.48411
 31
0.0
  0
LINE
  8
0
 62
     0
 10
35.9572
 20
7.48411
 30
0.0
 11
35.9572
 21
2.78364
 31
0.0
  0
LINE
  8
0
 62
     0
 10
35.9572
 20
2.78364
 30
0.0
 11
49.9565
 21
2.78364
 31
0.0
  0
LINE
  8
0
 62
     0
 10
49.9565
 20
2.78364
 30
0.0
 11
49.9565
 21
7.48411
 31
0.0
  0
LINE
  8
0
 62
     0
 10
49.9565
 20
7.48411
 30
0.0
 11
51.4823
 21
7.48411
 31
0.0
  0
LINE
  8
0
 62
     0
 10
51.4823
 20
7.48411
 30
0.0
 11
51.4823
 21
3.01377
 31
0.0
  0
LINE
  8
0
 62
     0
 10
51.4823
 20
3.01377
 30
0.0
 11
53.2059
 21
3.01377
 31
0.0
  0
LINE
  8
0
 62
     0
 10
53.2059
 20
3.01377
 30
0.0
 11
53.2059
 21
2.03261
 31
0.0
  0
LINE
  8
0
 62
     0
 10
53.2059
 20
2.03261
 30
0.0
 11
56.5065
 21
2.03261
 31
0.0
  0
LINE
  8
0
 62
     0
 10
56.5065
 20
2.03261
 30
0.0
 11
56.5065
 21
3.01377
 31
0.0
  0
LINE
  8
0
 62
     0
 10
56.5065
 20
3.01377
 30
0.0
 11
58.2316
 21
3.01377
 31
0.0
  0
LINE
  8
0
 62
     0
 10
58.2316
 20
3.01377
 30
0.0
 11
58.2316
 21
9.28384
 31
0.0
  0
LINE
  8
0
 62
     0
 10
58.2316
 20
9.28384
 30
0.0
 11
59.0557
 21
9.28384
 31
0.0
  0
LINE
  8
0
 62
     0
 10
59.0557
 20
9.28384
 30
0.0
 11
59.0557
 21
12.0826
 31
0.0
  0
LINE
  8
0
 62
     0
 10
59.0557
 20
12.0826
 30
0.0
 11
58.2316
 21
12.0826
 31
0.0
  0
LINE
  8
0
 62
     0
 10
58.2316
 20
12.0826
 30
0.0
 11
58.2316
 21
15.3128
 31
0.0
  0
LINE
  8
0
 62
     0
 10
58.2316
 20
15.3128
 30
0.0
 11
56.5065
 21
15.3128
 31
0.0
  0
LINE
  8
0
 62
     0
 10
56.5065
 20
15.3128
 30
0.0
 11
56.5065
 21
16.2347
 31
0.0
  0
LINE
  8
0
 62
     0
 10
56.5065
 20
16.2347
 30
0.0
 11
53.2059
 21
16.2347
 31
0.0
  0
LINE
  8
0
 62
     0
 10
53.2059
 20
16.2347
 30
0.0
 11
53.2059
 21
15.3128
 31
0.0
  0
LINE
  8
0
 62
     0
 10
53.2059
 20
15.3128
 30
0.0
 11
51.4823
 21
15.3128
 31
0.0
  0
LINE
  8
0
 62
     0
 10
51.4823
 20
15.3128
 30
0.0
 11
51.4823
 21
12.0826
 31
0.0
  0
LINE
  8
0
 62
     0
 10
51.4823
 20
12.0826
 30
0.0
 11
49.9565
 21
12.0826
 31
0.0
  0
LINE
  8
0
 62
     0
 10
49.9565
 20
12.0826
 30
0.0
 11
49.9565
 21
16.7831
 31
0.0
  0
LINE
  8
0
 62
     0
 10
49.9565
 20
16.7831
 30
0.0
 11
35.9572
 21
16.7831
 31
0.0
  0
LINE
  8
0
 62
     0
 10
262.176
 20
16.7831
 30
0.0
 11
276.175
 21
16.7831
 31
0.0
  0
LINE
  8
0
 62
     0
 10
276.175
 20
16.7831
 30
0.0
 11
276.175
 21
2.78364
 31
0.0
  0
LINE
  8
0
 62
     0
 10
276.175
 20
2.78364
 30
0.0
 11
262.176
 21
2.78364
 31
0.0
  0
LINE
  8
0
 62
     0
 10
262.176
 20
2.78364
 30
0.0
 11
262.176
 21
16.7831
 31
0.0
  0
LINE
  8
0
 62
     0
 10
200.262
 20
16.7831
 30
0.0
 11
214.263
 21
16.7831
 31
0.0
  0
LINE
  8
0
 62
     0
 10
214.263
 20
16.7831
 30
0.0
 11
214.263
 21
2.78364
 31
0.0
  0
LINE
  8
0
 62
     0
 10
214.263
 20
2.78364
 30
0.0
 11
200.262
 21
2.78364
 31
0.0
  0
LINE
  8
0
 62
     0
 10
200.262
 20
2.78364
 30
0.0
 11
200.262
 21
16.7831
 31
0.0
  0
LINE
  8
0
 62
     0
 10
176.451
 20
16.7831
 30
0.0
 11
190.45
 21
16.7831
 31
0.0
  0
LINE
  8
0
 62
     0
 10
190.45
 20
16.7831
 30
0.0
 11
190.45
 21
2.78364
 31
0.0
  0
LINE
  8
0
 62
     0
 10
190.45
 20
2.78364
 30
0.0
 11
176.451
 21
2.78364
 31
0.0
  0
LINE
  8
0
 62
     0
 10
176.451
 20
2.78364
 30
0.0
 11
176.451
 21
16.7831
 31
0.0
  0
LINE
  8
0
 62
     0
 10
152.637
 20
16.7831
 30
0.0
 11
166.638
 21
16.7831
 31
0.0
  0
LINE
  8
0
 62
     0
 10
166.638
 20
16.7831
 30
0.0
 11
166.638
 21
2.78364
 31
0.0
  0
LINE
  8
0
 62
     0
 10
166.638
 20
2.78364
 30
0.0
 11
152.637
 21
2.78364
 31
0.0
  0
LINE
  8
0
 62
     0
 10
152.637
 20
2.78364
 30
0.0
 11
152.637
 21
16.7831
 31
0.0
  0
LINE
  8
0
 62
     0
 10
88.3447
 20
16.7831
 30
0.0
 11
102.344
 21
16.7831
 31
0.0
  0
LINE
  8
0
 62
     0
 10
102.344
 20
16.7831
 30
0.0
 11
102.344
 21
2.78364
 31
0.0
  0
LINE
  8
0
 62
     0
 10
102.344
 20
2.78364
 30
0.0
 11
88.3447
 21
2.78364
 31
0.0
  0
LINE
  8
0
 62
     0
 10
88.3447
 20
2.78364
 30
0.0
 11
88.3447
 21
16.7831
 31
0.0
  0
LINE
  8
0
 62
     0
 10
66.9121
 20
16.7831
 30
0.0
 11
80.9128
 21
16.7831
 31
0.0
  0
LINE
  8
0
 62
     0
 10
80.9128
 20
16.7831
 30
0.0
 11
80.9128
 21
2.78364
 31
0.0
  0
LINE
  8
0
 62
     0
 10
80.9128
 20
2.78364
 30
0.0
 11
66.9121
 21
2.78364
 31
0.0
  0
LINE
  8
0
 62
     0
 10
66.9121
 20
2.78364
 30
0.0
 11
66.9121
 21
16.7831
 31
0.0
  0
LINE
  8
0
 62
     0
 10
250.27
 20
35.833
 30
0.0
 11
250.27
 21
31.1326
 31
0.0
  0
LINE
  8
0
 62
     0
 10
250.27
 20
31.1326
 30
0.0
 11
248.744
 21
31.1326
 31
0.0
  0
LINE
  8
0
 62
     0
 10
248.744
 20
31.1326
 30
0.0
 11
248.744
 21
34.3628
 31
0.0
  0
LINE
  8
0
 62
     0
 10
248.744
 20
34.3628
 30
0.0
 11
247.019
 21
34.3628
 31
0.0
  0
LINE
  8
0
 62
     0
 10
247.019
 20
34.3628
 30
0.0
 11
247.019
 21
35.2848
 31
0.0
  0
LINE
  8
0
 62
     0
 10
247.019
 20
35.2848
 30
0.0
 11
243.72
 21
35.2848
 31
0.0
  0
LINE
  8
0
 62
     0
 10
243.72
 20
35.2848
 30
0.0
 11
243.72
 21
34.3628
 31
0.0
  0
LINE
  8
0
 62
     0
 10
243.72
 20
34.3628
 30
0.0
 11
241.995
 21
34.3628
 31
0.0
  0
LINE
  8
0
 62
     0
 10
241.995
 20
34.3628
 30
0.0
 11
241.995
 21
31.1326
 31
0.0
  0
LINE
  8
0
 62
     0
 10
241.995
 20
31.1326
 30
0.0
 11
241.169
 21
31.1326
 31
0.0
  0
LINE
  8
0
 62
     0
 10
241.169
 20
31.1326
 30
0.0
 11
241.169
 21
28.3338
 31
0.0
  0
LINE
  8
0
 62
     0
 10
241.169
 20
28.3338
 30
0.0
 11
241.995
 21
28.3338
 31
0.0
  0
LINE
  8
0
 62
     0
 10
241.995
 20
28.3338
 30
0.0
 11
241.995
 21
22.0638
 31
0.0
  0
LINE
  8
0
 62
     0
 10
241.995
 20
22.0638
 30
0.0
 11
243.72
 21
22.0638
 31
0.0
  0
LINE
  8
0
 62
     0
 10
243.72
 20
22.0638
 30
0.0
 11
243.72
 21
21.0826
 31
0.0
  0
LINE
  8
0
 62
     0
 10
243.72
 20
21.0826
 30
0.0
 11
247.019
 21
21.0826
 31
0.0
  0
LINE
  8
0
 62
     0
 10
247.019
 20
21.0826
 30
0.0
 11
247.019
 21
22.0638
 31
0.0
  0
LINE
  8
0
 62
     0
 10
247.019
 20
22.0638
 30
0.0
 11
248.744
 21
22.0638
 31
0.0
  0
LINE
  8
0
 62
     0
 10
248.744
 20
22.0638
 30
0.0
 11
248.744
 21
26.5327
 31
0.0
  0
LINE
  8
0
 62
     0
 10
248.744
 20
26.5327
 30
0.0
 11
250.27
 21
26.5327
 31
0.0
  0
LINE
  8
0
 62
     0
 10
250.27
 20
26.5327
 30
0.0
 11
250.27
 21
21.8336
 31
0.0
  0
LINE
  8
0
 62
     0
 10
250.27
 20
21.8336
 30
0.0
 11
264.269
 21
21.8336
 31
0.0
  0
LINE
  8
0
 62
     0
 10
264.269
 20
21.8336
 30
0.0
 11
264.269
 21
26.5327
 31
0.0
  0
LINE
  8
0
 62
     0
 10
264.269
 20
26.5327
 30
0.0
 11
265.795
 21
26.5327
 31
0.0
  0
LINE
  8
0
 62
     0
 10
265.795
 20
26.5327
 30
0.0
 11
265.795
 21
22.0638
 31
0.0
  0
LINE
  8
0
 62
     0
 10
265.795
 20
22.0638
 30
0.0
 11
267.52
 21
22.0638
 31
0.0
  0
LINE
  8
0
 62
     0
 10
267.52
 20
22.0638
 30
0.0
 11
267.52
 21
21.0826
 31
0.0
  0
LINE
  8
0
 62
     0
 10
267.52
 20
21.0826
 30
0.0
 11
270.819
 21
21.0826
 31
0.0
  0
LINE
  8
0
 62
     0
 10
270.819
 20
21.0826
 30
0.0
 11
270.819
 21
22.0638
 31
0.0
  0
LINE
  8
0
 62
     0
 10
270.819
 20
22.0638
 30
0.0
 11
272.544
 21
22.0638
 31
0.0
  0
LINE
  8
0
 62
     0
 10
272.544
 20
22.0638
 30
0.0
 11
272.544
 21
28.3338
 31
0.0
  0
LINE
  8
0
 62
     0
 10
272.544
 20
28.3338
 30
0.0
 11
273.37
 21
28.3338
 31
0.0
  0
LINE
  8
0
 62
     0
 10
273.37
 20
28.3338
 30
0.0
 11
273.37
 21
31.1326
 31
0.0
  0
LINE
  8
0
 62
     0
 10
273.37
 20
31.1326
 30
0.0
 11
272.544
 21
31.1326
 31
0.0
  0
LINE
  8
0
 62
     0
 10
272.544
 20
31.1326
 30
0.0
 11
272.544
 21
34.3628
 31
0.0
  0
LINE
  8
0
 62
     0
 10
272.544
 20
34.3628
 30
0.0
 11
270.819
 21
34.3628
 31
0.0
  0
LINE
  8
0
 62
     0
 10
270.819
 20
34.3628
 30
0.0
 11
270.819
 21
35.2848
 31
0.0
  0
LINE
  8
0
 62
     0
 10
270.819
 20
35.2848
 30
0.0
 11
267.52
 21
35.2848
 31
0.0
  0
LINE
  8
0
 62
     0
 10
267.52
 20
35.2848
 30
0.0
 11
267.52
 21
34.3628
 31
0.0
  0
LINE
  8
0
 62
     0
 10
267.52
 20
34.3628
 30
0.0
 11
265.795
 21
34.3628
 31
0.0
  0
LINE
  8
0
 62
     0
 10
265.795
 20
34.3628
 30
0.0
 11
265.795
 21
31.1326
 31
0.0
  0
LINE
  8
0
 62
     0
 10
265.795
 20
31.1326
 30
0.0
 11
264.269
 21
31.1326
 31
0.0
  0
LINE
  8
0
 62
     0
 10
264.269
 20
31.1326
 30
0.0
 11
264.269
 21
35.833
 31
0.0
  0
LINE
  8
0
 62
     0
 10
264.269
 20
35.833
 30
0.0
 11
250.27
 21
35.833
 31
0.0
  0
LINE
  8
0
 62
     0
 10
283.607
 20
35.833
 30
0.0
 11
297.607
 21
35.833
 31
0.0
  0
LINE
  8
0
 62
     0
 10
297.607
 20
35.833
 30
0.0
 11
297.607
 21
21.8336
 31
0.0
  0
LINE
  8
0
 62
     0
 10
297.607
 20
21.8336
 30
0.0
 11
283.607
 21
21.8336
 31
0.0
  0
LINE
  8
0
 62
     0
 10
283.607
 20
21.8336
 30
0.0
 11
283.607
 21
35.833
 31
0.0
  0
LINE
  8
0
 62
     0
 10
221.695
 20
35.833
 30
0.0
 11
235.694
 21
35.833
 31
0.0
  0
LINE
  8
0
 62
     0
 10
235.694
 20
35.833
 30
0.0
 11
235.694
 21
21.8336
 31
0.0
  0
LINE
  8
0
 62
     0
 10
235.694
 20
21.8336
 30
0.0
 11
221.695
 21
21.8336
 31
0.0
  0
LINE
  8
0
 62
     0
 10
221.695
 20
21.8336
 30
0.0
 11
221.695
 21
35.833
 31
0.0
  0
LINE
  8
0
 62
     0
 10
202.645
 20
35.833
 30
0.0
 11
216.644
 21
35.833
 31
0.0
  0
LINE
  8
0
 62
     0
 10
216.644
 20
35.833
 30
0.0
 11
216.644
 21
21.8336
 31
0.0
  0
LINE
  8
0
 62
     0
 10
216.644
 20
21.8336
 30
0.0
 11
202.645
 21
21.8336
 31
0.0
  0
LINE
  8
0
 62
     0
 10
202.645
 20
21.8336
 30
0.0
 11
202.645
 21
35.833
 31
0.0
  0
LINE
  8
0
 62
     0
 10
183.595
 20
35.833
 30
0.0
 11
197.594
 21
35.833
 31
0.0
  0
LINE
  8
0
 62
     0
 10
197.594
 20
35.833
 30
0.0
 11
197.594
 21
21.8336
 31
0.0
  0
LINE
  8
0
 62
     0
 10
197.594
 20
21.8336
 30
0.0
 11
183.595
 21
21.8336
 31
0.0
  0
LINE
  8
0
 62
     0
 10
183.595
 20
21.8336
 30
0.0
 11
183.595
 21
35.833
 31
0.0
  0
LINE
  8
0
 62
     0
 10
164.545
 20
35.833
 30
0.0
 11
178.544
 21
35.833
 31
0.0
  0
LINE
  8
0
 62
     0
 10
178.544
 20
35.833
 30
0.0
 11
178.544
 21
21.8336
 31
0.0
  0
LINE
  8
0
 62
     0
 10
178.544
 20
21.8336
 30
0.0
 11
164.545
 21
21.8336
 31
0.0
  0
LINE
  8
0
 62
     0
 10
164.545
 20
21.8336
 30
0.0
 11
164.545
 21
35.833
 31
0.0
  0
LINE
  8
0
 62
     0
 10
145.495
 20
35.833
 30
0.0
 11
159.494
 21
35.833
 31
0.0
  0
LINE
  8
0
 62
     0
 10
159.494
 20
35.833
 30
0.0
 11
159.494
 21
21.8336
 31
0.0
  0
LINE
  8
0
 62
     0
 10
159.494
 20
21.8336
 30
0.0
 11
145.495
 21
21.8336
 31
0.0
  0
LINE
  8
0
 62
     0
 10
145.495
 20
21.8336
 30
0.0
 11
145.495
 21
35.833
 31
0.0
  0
LINE
  8
0
 62
     0
 10
126.445
 20
35.833
 30
0.0
 11
140.444
 21
35.833
 31
0.0
  0
LINE
  8
0
 62
     0
 10
140.444
 20
35.833
 30
0.0
 11
140.444
 21
21.8336
 31
0.0
  0
LINE
  8
0
 62
     0
 10
140.444
 20
21.8336
 30
0.0
 11
126.445
 21
21.8336
 31
0.0
  0
LINE
  8
0
 62
     0
 10
126.445
 20
21.8336
 30
0.0
 11
126.445
 21
35.833
 31
0.0
  0
LINE
  8
0
 62
     0
 10
107.395
 20
35.833
 30
0.0
 11
121.394
 21
35.833
 31
0.0
  0
LINE
  8
0
 62
     0
 10
121.394
 20
35.833
 30
0.0
 11
121.394
 21
21.8336
 31
0.0
  0
LINE
  8
0
 62
     0
 10
121.394
 20
21.8336
 30
0.0
 11
107.395
 21
21.8336
 31
0.0
  0
LINE
  8
0
 62
     0
 10
107.395
 20
21.8336
 30
0.0
 11
107.395
 21
35.833
 31
0.0
  0
LINE
  8
0
 62
     0
 10
88.3447
 20
35.833
 30
0.0
 11
102.344
 21
35.833
 31
0.0
  0
LINE
  8
0
 62
     0
 10
102.344
 20
35.833
 30
0.0
 11
102.344
 21
21.8336
 31
0.0
  0
LINE
  8
0
 62
     0
 10
102.344
 20
21.8336
 30
0.0
 11
88.3447
 21
21.8336
 31
0.0
  0
LINE
  8
0
 62
     0
 10
88.3447
 20
21.8336
 30
0.0
 11
88.3447
 21
35.833
 31
0.0
  0
LINE
  8
0
 62
     0
 10
69.2947
 20
35.833
 30
0.0
 11
83.294
 21
35.833
 31
0.0
  0
LINE
  8
0
 62
     0
 10
83.294
 20
35.833
 30
0.0
 11
83.294
 21
21.8336
 31
0.0
  0
LINE
  8
0
 62
     0
 10
83.294
 20
21.8336
 30
0.0
 11
69.2947
 21
21.8336
 31
0.0
  0
LINE
  8
0
 62
     0
 10
69.2947
 20
21.8336
 30
0.0
 11
69.2947
 21
35.833
 31
0.0
  0
LINE
  8
0
 62
     0
 10
50.2447
 20
35.833
 30
0.0
 11
64.244
 21
35.833
 31
0.0
  0
LINE
  8
0
 62
     0
 10
64.244
 20
35.833
 30
0.0
 11
64.244
 21
21.8336
 31
0.0
  0
LINE
  8
0
 62
     0
 10
64.244
 20
21.8336
 30
0.0
 11
50.2447
 21
21.8336
 31
0.0
  0
LINE
  8
0
 62
     0
 10
50.2447
 20
21.8336
 30
0.0
 11
50.2447
 21
35.833
 31
0.0
  0
LINE
  8
0
 62
     0
 10
31.1947
 20
35.833
 30
0.0
 11
45.194
 21
35.833
 31
0.0
  0
LINE
  8
0
 62
     0
 10
45.194
 20
35.833
 30
0.0
 11
45.194
 21
21.8336
 31
0.0
  0
LINE
  8
0
 62
     0
 10
45.194
 20
21.8336
 30
0.0
 11
31.1947
 21
21.8336
 31
0.0
  0
LINE
  8
0
 62
     0
 10
31.1947
 20
21.8336
 30
0.0
 11
31.1947
 21
35.833
 31
0.0
  0
LINE
  8
0
 62
     0
 10
7.38216
 20
35.833
 30
0.0
 11
21.3817
 21
35.833
 31
0.0
  0
LINE
  8
0
 62
     0
 10
21.3817
 20
35.833
 30
0.0
 11
21.3817
 21
21.8336
 31
0.0
  0
LINE
  8
0
 62
     0
 10
21.3817
 20
21.8336
 30
0.0
 11
7.38216
 21
21.8336
 31
0.0
  0
LINE
  8
0
 62
     0
 10
7.38216
 20
21.8336
 30
0.0
 11
7.38216
 21
35.833
 31
0.0
  0
LINE
  8
0
 62
     0
 10
278.845
 20
54.8831
 30
0.0
 11
278.845
 21
50.1826
 31
0.0
  0
LINE
  8
0
 62
     0
 10
278.845
 20
50.1826
 30
0.0
 11
277.319
 21
50.1826
 31
0.0
  0
LINE
  8
0
 62
     0
 10
277.319
 20
50.1826
 30
0.0
 11
277.319
 21
53.4127
 31
0.0
  0
LINE
  8
0
 62
     0
 10
277.319
 20
53.4127
 30
0.0
 11
275.594
 21
53.4127
 31
0.0
  0
LINE
  8
0
 62
     0
 10
275.594
 20
53.4127
 30
0.0
 11
275.594
 21
54.3334
 31
0.0
  0
LINE
  8
0
 62
     0
 10
275.594
 20
54.3334
 30
0.0
 11
272.295
 21
54.3334
 31
0.0
  0
LINE
  8
0
 62
     0
 10
272.295
 20
54.3334
 30
0.0
 11
272.295
 21
53.4127
 31
0.0
  0
LINE
  8
0
 62
     0
 10
272.295
 20
53.4127
 30
0.0
 11
270.57
 21
53.4127
 31
0.0
  0
LINE
  8
0
 62
     0
 10
270.57
 20
53.4127
 30
0.0
 11
270.57
 21
50.1826
 31
0.0
  0
LINE
  8
0
 62
     0
 10
270.57
 20
50.1826
 30
0.0
 11
269.744
 21
50.1826
 31
0.0
  0
LINE
  8
0
 62
     0
 10
269.744
 20
50.1826
 30
0.0
 11
269.744
 21
47.3837
 31
0.0
  0
LINE
  8
0
 62
     0
 10
269.744
 20
47.3837
 30
0.0
 11
270.57
 21
47.3837
 31
0.0
  0
LINE
  8
0
 62
     0
 10
270.57
 20
47.3837
 30
0.0
 11
270.57
 21
41.1138
 31
0.0
  0
LINE
  8
0
 62
     0
 10
270.57
 20
41.1138
 30
0.0
 11
272.295
 21
41.1138
 31
0.0
  0
LINE
  8
0
 62
     0
 10
272.295
 20
41.1138
 30
0.0
 11
272.295
 21
40.1327
 31
0.0
  0
LINE
  8
0
 62
     0
 10
272.295
 20
40.1327
 30
0.0
 11
275.594
 21
40.1327
 31
0.0
  0
LINE
  8
0
 62
     0
 10
275.594
 20
40.1327
 30
0.0
 11
275.594
 21
41.1138
 31
0.0
  0
LINE
  8
0
 62
     0
 10
275.594
 20
41.1138
 30
0.0
 11
277.319
 21
41.1138
 31
0.0
  0
LINE
  8
0
 62
     0
 10
277.319
 20
41.1138
 30
0.0
 11
277.319
 21
45.5828
 31
0.0
  0
LINE
  8
0
 62
     0
 10
277.319
 20
45.5828
 30
0.0
 11
278.845
 21
45.5828
 31
0.0
  0
LINE
  8
0
 62
     0
 10
278.845
 20
45.5828
 30
0.0
 11
278.845
 21
40.8838
 31
0.0
  0
LINE
  8
0
 62
     0
 10
278.845
 20
40.8838
 30
0.0
 11
292.844
 21
40.8838
 31
0.0
  0
LINE
  8
0
 62
     0
 10
292.844
 20
40.8838
 30
0.0
 11
292.844
 21
45.5828
 31
0.0
  0
LINE
  8
0
 62
     0
 10
292.844
 20
45.5828
 30
0.0
 11
294.37
 21
45.5828
 31
0.0
  0
LINE
  8
0
 62
     0
 10
294.37
 20
45.5828
 30
0.0
 11
294.37
 21
41.1138
 31
0.0
  0
LINE
  8
0
 62
     0
 10
294.37
 20
41.1138
 30
0.0
 11
296.095
 21
41.1138
 31
0.0
  0
LINE
  8
0
 62
     0
 10
296.095
 20
41.1138
 30
0.0
 11
296.095
 21
40.1327
 31
0.0
  0
LINE
  8
0
 62
     0
 10
296.095
 20
40.1327
 30
0.0
 11
299.394
 21
40.1327
 31
0.0
  0
LINE
  8
0
 62
     0
 10
299.394
 20
40.1327
 30
0.0
 11
299.394
 21
41.1138
 31
0.0
  0
LINE
  8
0
 62
     0
 10
299.394
 20
41.1138
 30
0.0
 11
301.119
 21
41.1138
 31
0.0
  0
LINE
  8
0
 62
     0
 10
301.119
 20
41.1138
 30
0.0
 11
301.119
 21
47.3837
 31
0.0
  0
LINE
  8
0
 62
     0
 10
301.119
 20
47.3837
 30
0.0
 11
301.945
 21
47.3837
 31
0.0
  0
LINE
  8
0
 62
     0
 10
301.945
 20
47.3837
 30
0.0
 11
301.945
 21
50.1826
 31
0.0
  0
LINE
  8
0
 62
     0
 10
301.945
 20
50.1826
 30
0.0
 11
301.119
 21
50.1826
 31
0.0
  0
LINE
  8
0
 62
     0
 10
301.119
 20
50.1826
 30
0.0
 11
301.119
 21
53.4127
 31
0.0
  0
LINE
  8
0
 62
     0
 10
301.119
 20
53.4127
 30
0.0
 11
299.394
 21
53.4127
 31
0.0
  0
LINE
  8
0
 62
     0
 10
299.394
 20
53.4127
 30
0.0
 11
299.394
 21
54.3334
 31
0.0
  0
LINE
  8
0
 62
     0
 10
299.394
 20
54.3334
 30
0.0
 11
296.095
 21
54.3334
 31
0.0
  0
LINE
  8
0
 62
     0
 10
296.095
 20
54.3334
 30
0.0
 11
296.095
 21
53.4127
 31
0.0
  0
LINE
  8
0
 62
     0
 10
296.095
 20
53.4127
 30
0.0
 11
294.37
 21
53.4127
 31
0.0
  0
LINE
  8
0
 62
     0
 10
294.37
 20
53.4127
 30
0.0
 11
294.37
 21
50.1826
 31
0.0
  0
LINE
  8
0
 62
     0
 10
294.37
 20
50.1826
 30
0.0
 11
292.844
 21
50.1826
 31
0.0
  0
LINE
  8
0
 62
     0
 10
292.844
 20
50.1826
 30
0.0
 11
292.844
 21
54.8831
 31
0.0
  0
LINE
  8
0
 62
     0
 10
292.844
 20
54.8831
 30
0.0
 11
278.845
 21
54.8831
 31
0.0
  0
LINE
  8
0
 62
     0
 10
12.1447
 20
54.8831
 30
0.0
 11
12.1447
 21
50.1826
 31
0.0
  0
LINE
  8
0
 62
     0
 10
12.1447
 20
50.1826
 30
0.0
 11
10.6192
 21
50.1826
 31
0.0
  0
LINE
  8
0
 62
     0
 10
10.6192
 20
50.1826
 30
0.0
 11
10.6192
 21
53.4127
 31
0.0
  0
LINE
  8
0
 62
     0
 10
10.6192
 20
53.4127
 30
0.0
 11
8.89385
 21
53.4127
 31
0.0
  0
LINE
  8
0
 62
     0
 10
8.89385
 20
53.4127
 30
0.0
 11
8.89385
 21
54.3334
 31
0.0
  0
LINE
  8
0
 62
     0
 10
8.89385
 20
54.3334
 30
0.0
 11
5.59484
 21
54.3334
 31
0.0
  0
LINE
  8
0
 62
     0
 10
5.59484
 20
54.3334
 30
0.0
 11
5.59484
 21
53.4127
 31
0.0
  0
LINE
  8
0
 62
     0
 10
5.59484
 20
53.4127
 30
0.0
 11
3.86955
 21
53.4127
 31
0.0
  0
LINE
  8
0
 62
     0
 10
3.86955
 20
53.4127
 30
0.0
 11
3.86955
 21
50.1826
 31
0.0
  0
LINE
  8
0
 62
     0
 10
3.86955
 20
50.1826
 30
0.0
 11
3.04409
 21
50.1826
 31
0.0
  0
LINE
  8
0
 62
     0
 10
3.04409
 20
50.1826
 30
0.0
 11
3.04409
 21
47.3837
 31
0.0
  0
LINE
  8
0
 62
     0
 10
3.04409
 20
47.3837
 30
0.0
 11
3.86955
 21
47.3837
 31
0.0
  0
LINE
  8
0
 62
     0
 10
3.86955
 20
47.3837
 30
0.0
 11
3.86955
 21
41.1138
 31
0.0
  0
LINE
  8
0
 62
     0
 10
3.86955
 20
41.1138
 30
0.0
 11
5.59484
 21
41.1138
 31
0.0
  0
LINE
  8
0
 62
     0
 10
5.59484
 20
41.1138
 30
0.0
 11
5.59484
 21
40.1327
 31
0.0
  0
LINE
  8
0
 62
     0
 10
5.59484
 20
40.1327
 30
0.0
 11
8.89385
 21
40.1327
 31
0.0
  0
LINE
  8
0
 62
     0
 10
8.89385
 20
40.1327
 30
0.0
 11
8.89385
 21
41.1138
 31
0.0
  0
LINE
  8
0
 62
     0
 10
8.89385
 20
41.1138
 30
0.0
 11
10.6192
 21
41.1138
 31
0.0
  0
LINE
  8
0
 62
     0
 10
10.6192
 20
41.1138
 30
0.0
 11
10.6192
 21
45.5828
 31
0.0
  0
LINE
  8
0
 62
     0
 10
10.6192
 20
45.5828
 30
0.0
 11
12.1447
 21
45.5828
 31
0.0
  0
LINE
  8
0
 62
     0
 10
12.1447
 20
45.5828
 30
0.0
 11
12.1447
 21
40.8838
 31
0.0
  0
LINE
  8
0
 62
     0
 10
12.1447
 20
40.8838
 30
0.0
 11
26.1441
 21
40.8838
 31
0.0
  0
LINE
  8
0
 62
     0
 10
26.1441
 20
40.8838
 30
0.0
 11
26.1441
 21
45.5828
 31
0.0
  0
LINE
  8
0
 62
     0
 10
26.1441
 20
45.5828
 30
0.0
 11
27.6696
 21
45.5828
 31
0.0
  0
LINE
  8
0
 62
     0
 10
27.6696
 20
45.5828
 30
0.0
 11
27.6696
 21
41.1138
 31
0.0
  0
LINE
  8
0
 62
     0
 10
27.6696
 20
41.1138
 30
0.0
 11
29.3949
 21
41.1138
 31
0.0
  0
LINE
  8
0
 62
     0
 10
29.3949
 20
41.1138
 30
0.0
 11
29.3949
 21
40.1327
 31
0.0
  0
LINE
  8
0
 62
     0
 10
29.3949
 20
40.1327
 30
0.0
 11
32.694
 21
40.1327
 31
0.0
  0
LINE
  8
0
 62
     0
 10
32.694
 20
40.1327
 30
0.0
 11
32.694
 21
41.1138
 31
0.0
  0
LINE
  8
0
 62
     0
 10
32.694
 20
41.1138
 30
0.0
 11
34.4193
 21
41.1138
 31
0.0
  0
LINE
  8
0
 62
     0
 10
34.4193
 20
41.1138
 30
0.0
 11
34.4193
 21
47.3837
 31
0.0
  0
LINE
  8
0
 62
     0
 10
34.4193
 20
47.3837
 30
0.0
 11
35.2447
 21
47.3837
 31
0.0
  0
LINE
  8
0
 62
     0
 10
35.2447
 20
47.3837
 30
0.0
 11
35.2447
 21
50.1826
 31
0.0
  0
LINE
  8
0
 62
     0
 10
35.2447
 20
50.1826
 30
0.0
 11
34.4193
 21
50.1826
 31
0.0
  0
LINE
  8
0
 62
     0
 10
34.4193
 20
50.1826
 30
0.0
 11
34.4193
 21
53.4127
 31
0.0
  0
LINE
  8
0
 62
     0
 10
34.4193
 20
53.4127
 30
0.0
 11
32.694
 21
53.4127
 31
0.0
  0
LINE
  8
0
 62
     0
 10
32.694
 20
53.4127
 30
0.0
 11
32.694
 21
54.3334
 31
0.0
  0
LINE
  8
0
 62
     0
 10
32.694
 20
54.3334
 30
0.0
 11
29.3949
 21
54.3334
 31
0.0
  0
LINE
  8
0
 62
     0
 10
29.3949
 20
54.3334
 30
0.0
 11
29.3949
 21
53.4127
 31
0.0
  0
LINE
  8
0
 62
     0
 10
29.3949
 20
53.4127
 30
0.0
 11
27.6696
 21
53.4127
 31
0.0
  0
LINE
  8
0
 62
     0
 10
27.6696
 20
53.4127
 30
0.0
 11
27.6696
 21
50.1826
 31
0.0
  0
LINE
  8
0
 62
     0
 10
27.6696
 20
50.1826
 30
0.0
 11
26.1441
 21
50.1826
 31
0.0
  0
LINE
  8
0
 62
     0
 10
26.1441
 20
50.1826
 30
0.0
 11
26.1441
 21
54.8831
 31
0.0
  0
LINE
  8
0
 62
     0
 10
26.1441
 20
54.8831
 30
0.0
 11
12.1447
 21
54.8831
 31
0.0
  0
LINE
  8
0
 62
     0
 10
250.27
 20
54.8831
 30
0.0
 11
264.269
 21
54.8831
 31
0.0
  0
LINE
  8
0
 62
     0
 10
264.269
 20
54.8831
 30
0.0
 11
264.269
 21
40.8838
 31
0.0
  0
LINE
  8
0
 62
     0
 10
264.269
 20
40.8838
 30
0.0
 11
250.27
 21
40.8838
 31
0.0
  0
LINE
  8
0
 62
     0
 10
250.27
 20
40.8838
 30
0.0
 11
250.27
 21
54.8831
 31
0.0
  0
LINE
  8
0
 62
     0
 10
231.22
 20
54.8831
 30
0.0
 11
245.219
 21
54.8831
 31
0.0
  0
LINE
  8
0
 62
     0
 10
245.219
 20
54.8831
 30
0.0
 11
245.219
 21
40.8838
 31
0.0
  0
LINE
  8
0
 62
     0
 10
245.219
 20
40.8838
 30
0.0
 11
231.22
 21
40.8838
 31
0.0
  0
LINE
  8
0
 62
     0
 10
231.22
 20
40.8838
 30
0.0
 11
231.22
 21
54.8831
 31
0.0
  0
LINE
  8
0
 62
     0
 10
212.17
 20
54.8831
 30
0.0
 11
226.169
 21
54.8831
 31
0.0
  0
LINE
  8
0
 62
     0
 10
226.169
 20
54.8831
 30
0.0
 11
226.169
 21
40.8838
 31
0.0
  0
LINE
  8
0
 62
     0
 10
226.169
 20
40.8838
 30
0.0
 11
212.17
 21
40.8838
 31
0.0
  0
LINE
  8
0
 62
     0
 10
212.17
 20
40.8838
 30
0.0
 11
212.17
 21
54.8831
 31
0.0
  0
LINE
  8
0
 62
     0
 10
193.12
 20
54.8831
 30
0.0
 11
207.119
 21
54.8831
 31
0.0
  0
LINE
  8
0
 62
     0
 10
207.119
 20
54.8831
 30
0.0
 11
207.119
 21
40.8838
 31
0.0
  0
LINE
  8
0
 62
     0
 10
207.119
 20
40.8838
 30
0.0
 11
193.12
 21
40.8838
 31
0.0
  0
LINE
  8
0
 62
     0
 10
193.12
 20
40.8838
 30
0.0
 11
193.12
 21
54.8831
 31
0.0
  0
LINE
  8
0
 62
     0
 10
174.07
 20
54.8831
 30
0.0
 11
188.069
 21
54.8831
 31
0.0
  0
LINE
  8
0
 62
     0
 10
188.069
 20
54.8831
 30
0.0
 11
188.069
 21
40.8838
 31
0.0
  0
LINE
  8
0
 62
     0
 10
188.069
 20
40.8838
 30
0.0
 11
174.07
 21
40.8838
 31
0.0
  0
LINE
  8
0
 62
     0
 10
174.07
 20
40.8838
 30
0.0
 11
174.07
 21
54.8831
 31
0.0
  0
LINE
  8
0
 62
     0
 10
155.02
 20
54.8831
 30
0.0
 11
169.019
 21
54.8831
 31
0.0
  0
LINE
  8
0
 62
     0
 10
169.019
 20
54.8831
 30
0.0
 11
169.019
 21
40.8838
 31
0.0
  0
LINE
  8
0
 62
     0
 10
169.019
 20
40.8838
 30
0.0
 11
155.02
 21
40.8838
 31
0.0
  0
LINE
  8
0
 62
     0
 10
155.02
 20
40.8838
 30
0.0
 11
155.02
 21
54.8831
 31
0.0
  0
LINE
  8
0
 62
     0
 10
135.97
 20
54.8831
 30
0.0
 11
149.969
 21
54.8831
 31
0.0
  0
LINE
  8
0
 62
     0
 10
149.969
 20
54.8831
 30
0.0
 11
149.969
 21
40.8838
 31
0.0
  0
LINE
  8
0
 62
     0
 10
149.969
 20
40.8838
 30
0.0
 11
135.97
 21
40.8838
 31
0.0
  0
LINE
  8
0
 62
     0
 10
135.97
 20
40.8838
 30
0.0
 11
135.97
 21
54.8831
 31
0.0
  0
LINE
  8
0
 62
     0
 10
116.918
 20
54.8831
 30
0.0
 11
130.919
 21
54.8831
 31
0.0
  0
LINE
  8
0
 62
     0
 10
130.919
 20
54.8831
 30
0.0
 11
130.919
 21
40.8838
 31
0.0
  0
LINE
  8
0
 62
     0
 10
130.919
 20
40.8838
 30
0.0
 11
116.918
 21
40.8838
 31
0.0
  0
LINE
  8
0
 62
     0
 10
116.918
 20
40.8838
 30
0.0
 11
116.918
 21
54.8831
 31
0.0
  0
LINE
  8
0
 62
     0
 10
97.8683
 20
54.8831
 30
0.0
 11
111.869
 21
54.8831
 31
0.0
  0
LINE
  8
0
 62
     0
 10
111.869
 20
54.8831
 30
0.0
 11
111.869
 21
40.8838
 31
0.0
  0
LINE
  8
0
 62
     0
 10
111.869
 20
40.8838
 30
0.0
 11
97.8683
 21
40.8838
 31
0.0
  0
LINE
  8
0
 62
     0
 10
97.8683
 20
40.8838
 30
0.0
 11
97.8683
 21
54.8831
 31
0.0
  0
LINE
  8
0
 62
     0
 10
78.8197
 20
54.8831
 30
0.0
 11
92.819
 21
54.8831
 31
0.0
  0
LINE
  8
0
 62
     0
 10
92.819
 20
54.8831
 30
0.0
 11
92.819
 21
40.8838
 31
0.0
  0
LINE
  8
0
 62
     0
 10
92.819
 20
40.8838
 30
0.0
 11
78.8197
 21
40.8838
 31
0.0
  0
LINE
  8
0
 62
     0
 10
78.8197
 20
40.8838
 30
0.0
 11
78.8197
 21
54.8831
 31
0.0
  0
LINE
  8
0
 62
     0
 10
59.7697
 20
54.8831
 30
0.0
 11
73.769
 21
54.8831
 31
0.0
  0
LINE
  8
0
 62
     0
 10
73.769
 20
54.8831
 30
0.0
 11
73.769
 21
40.8838
 31
0.0
  0
LINE
  8
0
 62
     0
 10
73.769
 20
40.8838
 30
0.0
 11
59.7697
 21
40.8838
 31
0.0
  0
LINE
  8
0
 62
     0
 10
59.7697
 20
40.8838
 30
0.0
 11
59.7697
 21
54.8831
 31
0.0
  0
LINE
  8
0
 62
     0
 10
40.7197
 20
54.8831
 30
0.0
 11
54.719
 21
54.8831
 31
0.0
  0
LINE
  8
0
 62
     0
 10
54.719
 20
54.8831
 30
0.0
 11
54.719
 21
40.8838
 31
0.0
  0
LINE
  8
0
 62
     0
 10
54.719
 20
40.8838
 30
0.0
 11
40.7197
 21
40.8838
 31
0.0
  0
LINE
  8
0
 62
     0
 10
40.7197
 20
40.8838
 30
0.0
 11
40.7197
 21
54.8831
 31
0.0
  0
LINE
  8
0
 62
     0
 10
276.462
 20
73.9331
 30
0.0
 11
276.462
 21
69.2326
 31
0.0
  0
LINE
  8
0
 62
     0
 10
276.462
 20
69.2326
 30
0.0
 11
274.938
 21
69.2326
 31
0.0
  0
LINE
  8
0
 62
     0
 10
274.938
 20
69.2326
 30
0.0
 11
274.938
 21
72.4627
 31
0.0
  0
LINE
  8
0
 62
     0
 10
274.938
 20
72.4627
 30
0.0
 11
273.213
 21
72.4627
 31
0.0
  0
LINE
  8
0
 62
     0
 10
273.213
 20
72.4627
 30
0.0
 11
273.213
 21
73.3834
 31
0.0
  0
LINE
  8
0
 62
     0
 10
273.213
 20
73.3834
 30
0.0
 11
269.912
 21
73.3834
 31
0.0
  0
LINE
  8
0
 62
     0
 10
269.912
 20
73.3834
 30
0.0
 11
269.912
 21
72.4627
 31
0.0
  0
LINE
  8
0
 62
     0
 10
269.912
 20
72.4627
 30
0.0
 11
268.187
 21
72.4627
 31
0.0
  0
LINE
  8
0
 62
     0
 10
268.187
 20
72.4627
 30
0.0
 11
268.187
 21
69.2326
 31
0.0
  0
LINE
  8
0
 62
     0
 10
268.187
 20
69.2326
 30
0.0
 11
267.363
 21
69.2326
 31
0.0
  0
LINE
  8
0
 62
     0
 10
267.363
 20
69.2326
 30
0.0
 11
267.363
 21
66.4337
 31
0.0
  0
LINE
  8
0
 62
     0
 10
267.363
 20
66.4337
 30
0.0
 11
268.187
 21
66.4337
 31
0.0
  0
LINE
  8
0
 62
     0
 10
268.187
 20
66.4337
 30
0.0
 11
268.187
 21
60.1638
 31
0.0
  0
LINE
  8
0
 62
     0
 10
268.187
 20
60.1638
 30
0.0
 11
269.912
 21
60.1638
 31
0.0
  0
LINE
  8
0
 62
     0
 10
269.912
 20
60.1638
 30
0.0
 11
269.912
 21
59.1827
 31
0.0
  0
LINE
  8
0
 62
     0
 10
269.912
 20
59.1827
 30
0.0
 11
273.213
 21
59.1827
 31
0.0
  0
LINE
  8
0
 62
     0
 10
273.213
 20
59.1827
 30
0.0
 11
273.213
 21
60.1638
 31
0.0
  0
LINE
  8
0
 62
     0
 10
273.213
 20
60.1638
 30
0.0
 11
274.938
 21
60.1638
 31
0.0
  0
LINE
  8
0
 62
     0
 10
274.938
 20
60.1638
 30
0.0
 11
274.938
 21
64.6328
 31
0.0
  0
LINE
  8
0
 62
     0
 10
274.938
 20
64.6328
 30
0.0
 11
276.462
 21
64.6328
 31
0.0
  0
LINE
  8
0
 62
     0
 10
276.462
 20
64.6328
 30
0.0
 11
276.462
 21
59.9338
 31
0.0
  0
LINE
  8
0
 62
     0
 10
276.462
 20
59.9338
 30
0.0
 11
290.463
 21
59.9338
 31
0.0
  0
LINE
  8
0
 62
     0
 10
290.463
 20
59.9338
 30
0.0
 11
290.463
 21
64.6328
 31
0.0
  0
LINE
  8
0
 62
     0
 10
290.463
 20
64.6328
 30
0.0
 11
291.987
 21
64.6328
 31
0.0
  0
LINE
  8
0
 62
     0
 10
291.987
 20
64.6328
 30
0.0
 11
291.987
 21
60.1638
 31
0.0
  0
LINE
  8
0
 62
     0
 10
291.987
 20
60.1638
 30
0.0
 11
293.712
 21
60.1638
 31
0.0
  0
LINE
  8
0
 62
     0
 10
293.712
 20
60.1638
 30
0.0
 11
293.712
 21
59.1827
 31
0.0
  0
LINE
  8
0
 62
     0
 10
293.712
 20
59.1827
 30
0.0
 11
297.013
 21
59.1827
 31
0.0
  0
LINE
  8
0
 62
     0
 10
297.013
 20
59.1827
 30
0.0
 11
297.013
 21
60.1638
 31
0.0
  0
LINE
  8
0
 62
     0
 10
297.013
 20
60.1638
 30
0.0
 11
298.738
 21
60.1638
 31
0.0
  0
LINE
  8
0
 62
     0
 10
298.738
 20
60.1638
 30
0.0
 11
298.738
 21
66.4337
 31
0.0
  0
LINE
  8
0
 62
     0
 10
298.738
 20
66.4337
 30
0.0
 11
299.562
 21
66.4337
 31
0.0
  0
LINE
  8
0
 62
     0
 10
299.562
 20
66.4337
 30
0.0
 11
299.562
 21
69.2326
 31
0.0
  0
LINE
  8
0
 62
     0
 10
299.562
 20
69.2326
 30
0.0
 11
298.738
 21
69.2326
 31
0.0
  0
LINE
  8
0
 62
     0
 10
298.738
 20
69.2326
 30
0.0
 11
298.738
 21
72.4627
 31
0.0
  0
LINE
  8
0
 62
     0
 10
298.738
 20
72.4627
 30
0.0
 11
297.013
 21
72.4627
 31
0.0
  0
LINE
  8
0
 62
     0
 10
297.013
 20
72.4627
 30
0.0
 11
297.013
 21
73.3834
 31
0.0
  0
LINE
  8
0
 62
     0
 10
297.013
 20
73.3834
 30
0.0
 11
293.712
 21
73.3834
 31
0.0
  0
LINE
  8
0
 62
     0
 10
293.712
 20
73.3834
 30
0.0
 11
293.712
 21
72.4627
 31
0.0
  0
LINE
  8
0
 62
     0
 10
293.712
 20
72.4627
 30
0.0
 11
291.987
 21
72.4627
 31
0.0
  0
LINE
  8
0
 62
     0
 10
291.987
 20
72.4627
 30
0.0
 11
291.987
 21
69.2326
 31
0.0
  0
LINE
  8
0
 62
     0
 10
291.987
 20
69.2326
 30
0.0
 11
290.463
 21
69.2326
 31
0.0
  0
LINE
  8
0
 62
     0
 10
290.463
 20
69.2326
 30
0.0
 11
290.463
 21
73.9331
 31
0.0
  0
LINE
  8
0
 62
     0
 10
290.463
 20
73.9331
 30
0.0
 11
276.462
 21
73.9331
 31
0.0
  0
LINE
  8
0
 62
     0
 10
245.507
 20
73.9331
 30
0.0
 11
259.507
 21
73.9331
 31
0.0
  0
LINE
  8
0
 62
     0
 10
259.507
 20
73.9331
 30
0.0
 11
259.507
 21
59.9338
 31
0.0
  0
LINE
  8
0
 62
     0
 10
259.507
 20
59.9338
 30
0.0
 11
245.507
 21
59.9338
 31
0.0
  0
LINE
  8
0
 62
     0
 10
245.507
 20
59.9338
 30
0.0
 11
245.507
 21
73.9331
 31
0.0
  0
LINE
  8
0
 62
     0
 10
226.457
 20
73.9331
 30
0.0
 11
240.457
 21
73.9331
 31
0.0
  0
LINE
  8
0
 62
     0
 10
240.457
 20
73.9331
 30
0.0
 11
240.457
 21
59.9338
 31
0.0
  0
LINE
  8
0
 62
     0
 10
240.457
 20
59.9338
 30
0.0
 11
226.457
 21
59.9338
 31
0.0
  0
LINE
  8
0
 62
     0
 10
226.457
 20
59.9338
 30
0.0
 11
226.457
 21
73.9331
 31
0.0
  0
LINE
  8
0
 62
     0
 10
207.407
 20
73.9331
 30
0.0
 11
221.407
 21
73.9331
 31
0.0
  0
LINE
  8
0
 62
     0
 10
221.407
 20
73.9331
 30
0.0
 11
221.407
 21
59.9338
 31
0.0
  0
LINE
  8
0
 62
     0
 10
221.407
 20
59.9338
 30
0.0
 11
207.407
 21
59.9338
 31
0.0
  0
LINE
  8
0
 62
     0
 10
207.407
 20
59.9338
 30
0.0
 11
207.407
 21
73.9331
 31
0.0
  0
LINE
  8
0
 62
     0
 10
188.357
 20
73.9331
 30
0.0
 11
202.357
 21
73.9331
 31
0.0
  0
LINE
  8
0
 62
     0
 10
202.357
 20
73.9331
 30
0.0
 11
202.357
 21
59.9338
 31
0.0
  0
LINE
  8
0
 62
     0
 10
202.357
 20
59.9338
 30
0.0
 11
188.357
 21
59.9338
 31
0.0
  0
LINE
  8
0
 62
     0
 10
188.357
 20
59.9338
 30
0.0
 11
188.357
 21
73.9331
 31
0.0
  0
LINE
  8
0
 62
     0
 10
169.307
 20
73.9331
 30
0.0
 11
183.307
 21
73.9331
 31
0.0
  0
LINE
  8
0
 62
     0
 10
183.307
 20
73.9331
 30
0.0
 11
183.307
 21
59.9338
 31
0.0
  0
LINE
  8
0
 62
     0
 10
183.307
 20
59.9338
 30
0.0
 11
169.307
 21
59.9338
 31
0.0
  0
LINE
  8
0
 62
     0
 10
169.307
 20
59.9338
 30
0.0
 11
169.307
 21
73.9331
 31
0.0
  0
LINE
  8
0
 62
     0
 10
150.257
 20
73.9331
 30
0.0
 11
164.257
 21
73.9331
 31
0.0
  0
LINE
  8
0
 62
     0
 10
164.257
 20
73.9331
 30
0.0
 11
164.257
 21
59.9338
 31
0.0
  0
LINE
  8
0
 62
     0
 10
164.257
 20
59.9338
 30
0.0
 11
150.257
 21
59.9338
 31
0.0
  0
LINE
  8
0
 62
     0
 10
150.257
 20
59.9338
 30
0.0
 11
150.257
 21
73.9331
 31
0.0
  0
LINE
  8
0
 62
     0
 10
131.207
 20
73.9331
 30
0.0
 11
145.207
 21
73.9331
 31
0.0
  0
LINE
  8
0
 62
     0
 10
145.207
 20
73.9331
 30
0.0
 11
145.207
 21
59.9338
 31
0.0
  0
LINE
  8
0
 62
     0
 10
145.207
 20
59.9338
 30
0.0
 11
131.207
 21
59.9338
 31
0.0
  0
LINE
  8
0
 62
     0
 10
131.207
 20
59.9338
 30
0.0
 11
131.207
 21
73.9331
 31
0.0
  0
LINE
  8
0
 62
     0
 10
112.157
 20
73.9331
 30
0.0
 11
126.157
 21
73.9331
 31
0.0
  0
LINE
  8
0
 62
     0
 10
126.157
 20
73.9331
 30
0.0
 11
126.157
 21
59.9338
 31
0.0
  0
LINE
  8
0
 62
     0
 10
126.157
 20
59.9338
 30
0.0
 11
112.157
 21
59.9338
 31
0.0
  0
LINE
  8
0
 62
     0
 10
112.157
 20
59.9338
 30
0.0
 11
112.157
 21
73.9331
 31
0.0
  0
LINE
  8
0
 62
     0
 10
93.1072
 20
73.9331
 30
0.0
 11
107.107
 21
73.9331
 31
0.0
  0
LINE
  8
0
 62
     0
 10
107.107
 20
73.9331
 30
0.0
 11
107.107
 21
59.9338
 31
0.0
  0
LINE
  8
0
 62
     0
 10
107.107
 20
59.9338
 30
0.0
 11
93.1072
 21
59.9338
 31
0.0
  0
LINE
  8
0
 62
     0
 10
93.1072
 20
59.9338
 30
0.0
 11
93.1072
 21
73.9331
 31
0.0
  0
LINE
  8
0
 62
     0
 10
74.0572
 20
73.9331
 30
0.0
 11
88.0565
 21
73.9331
 31
0.0
  0
LINE
  8
0
 62
     0
 10
88.0565
 20
73.9331
 30
0.0
 11
88.0565
 21
59.9338
 31
0.0
  0
LINE
  8
0
 62
     0
 10
88.0565
 20
59.9338
 30
0.0
 11
74.0572
 21
59.9338
 31
0.0
  0
LINE
  8
0
 62
     0
 10
74.0572
 20
59.9338
 30
0.0
 11
74.0572
 21
73.9331
 31
0.0
  0
LINE
  8
0
 62
     0
 10
55.0072
 20
73.9331
 30
0.0
 11
69.0065
 21
73.9331
 31
0.0
  0
LINE
  8
0
 62
     0
 10
69.0065
 20
73.9331
 30
0.0
 11
69.0065
 21
59.9338
 31
0.0
  0
LINE
  8
0
 62
     0
 10
69.0065
 20
59.9338
 30
0.0
 11
55.0072
 21
59.9338
 31
0.0
  0
LINE
  8
0
 62
     0
 10
55.0072
 20
59.9338
 30
0.0
 11
55.0072
 21
73.9331
 31
0.0
  0
LINE
  8
0
 62
     0
 10
35.9572
 20
73.9331
 30
0.0
 11
49.9565
 21
73.9331
 31
0.0
  0
LINE
  8
0
 62
     0
 10
49.9565
 20
73.9331
 30
0.0
 11
49.9565
 21
59.9338
 31
0.0
  0
LINE
  8
0
 62
     0
 10
49.9565
 20
59.9338
 30
0.0
 11
35.9572
 21
59.9338
 31
0.0
  0
LINE
  8
0
 62
     0
 10
35.9572
 20
59.9338
 30
0.0
 11
35.9572
 21
73.9331
 31
0.0
  0
LINE
  8
0
 62
     0
 10
9.76203
 20
73.9331
 30
0.0
 11
23.7629
 21
73.9331
 31
0.0
  0
LINE
  8
0
 62
     0
 10
23.7629
 20
73.9331
 30
0.0
 11
23.7629
 21
59.9338
 31
0.0
  0
LINE
  8
0
 62
     0
 10
23.7629
 20
59.9338
 30
0.0
 11
9.76203
 21
59.9338
 31
0.0
  0
LINE
  8
0
 62
     0
 10
9.76203
 20
59.9338
 30
0.0
 11
9.76203
 21
73.9331
 31
0.0
  0
LINE
  8
0
 62
     0
 10
283.607
 20
92.9831
 30
0.0
 11
297.607
 21
92.9831
 31
0.0
  0
LINE
  8
0
 62
     0
 10
297.607
 20
92.9831
 30
0.0
 11
297.607
 21
78.9838
 31
0.0
  0
LINE
  8
0
 62
     0
 10
297.607
 20
78.9838
 30
0.0
 11
283.607
 21
78.9838
 31
0.0
  0
LINE
  8
0
 62
     0
 10
283.607
 20
78.9838
 30
0.0
 11
283.607
 21
92.9831
 31
0.0
  0
LINE
  8
0
 62
     0
 10
259.795
 20
92.9831
 30
0.0
 11
273.794
 21
92.9831
 31
0.0
  0
LINE
  8
0
 62
     0
 10
273.794
 20
92.9831
 30
0.0
 11
273.794
 21
78.9838
 31
0.0
  0
LINE
  8
0
 62
     0
 10
273.794
 20
78.9838
 30
0.0
 11
259.795
 21
78.9838
 31
0.0
  0
LINE
  8
0
 62
     0
 10
259.795
 20
78.9838
 30
0.0
 11
259.795
 21
92.9831
 31
0.0
  0
LINE
  8
0
 62
     0
 10
240.745
 20
92.9831
 30
0.0
 11
254.744
 21
92.9831
 31
0.0
  0
LINE
  8
0
 62
     0
 10
254.744
 20
92.9831
 30
0.0
 11
254.744
 21
78.9838
 31
0.0
  0
LINE
  8
0
 62
     0
 10
254.744
 20
78.9838
 30
0.0
 11
240.745
 21
78.9838
 31
0.0
  0
LINE
  8
0
 62
     0
 10
240.745
 20
78.9838
 30
0.0
 11
240.745
 21
92.9831
 31
0.0
  0
LINE
  8
0
 62
     0
 10
221.695
 20
92.9831
 30
0.0
 11
235.694
 21
92.9831
 31
0.0
  0
LINE
  8
0
 62
     0
 10
235.694
 20
92.9831
 30
0.0
 11
235.694
 21
78.9838
 31
0.0
  0
LINE
  8
0
 62
     0
 10
235.694
 20
78.9838
 30
0.0
 11
221.695
 21
78.9838
 31
0.0
  0
LINE
  8
0
 62
     0
 10
221.695
 20
78.9838
 30
0.0
 11
221.695
 21
92.9831
 31
0.0
  0
LINE
  8
0
 62
     0
 10
202.645
 20
92.9831
 30
0.0
 11
216.644
 21
92.9831
 31
0.0
  0
LINE
  8
0
 62
     0
 10
216.644
 20
92.9831
 30
0.0
 11
216.644
 21
78.9838
 31
0.0
  0
LINE
  8
0
 62
     0
 10
216.644
 20
78.9838
 30
0.0
 11
202.645
 21
78.9838
 31
0.0
  0
LINE
  8
0
 62
     0
 10
202.645
 20
78.9838
 30
0.0
 11
202.645
 21
92.9831
 31
0.0
  0
LINE
  8
0
 62
     0
 10
183.595
 20
92.9831
 30
0.0
 11
197.594
 21
92.9831
 31
0.0
  0
LINE
  8
0
 62
     0
 10
197.594
 20
92.9831
 30
0.0
 11
197.594
 21
78.9838
 31
0.0
  0
LINE
  8
0
 62
     0
 10
197.594
 20
78.9838
 30
0.0
 11
183.595
 21
78.9838
 31
0.0
  0
LINE
  8
0
 62
     0
 10
183.595
 20
78.9838
 30
0.0
 11
183.595
 21
92.9831
 31
0.0
  0
LINE
  8
0
 62
     0
 10
164.545
 20
92.9831
 30
0.0
 11
178.544
 21
92.9831
 31
0.0
  0
LINE
  8
0
 62
     0
 10
178.544
 20
92.9831
 30
0.0
 11
178.544
 21
78.9838
 31
0.0
  0
LINE
  8
0
 62
     0
 10
178.544
 20
78.9838
 30
0.0
 11
164.545
 21
78.9838
 31
0.0
  0
LINE
  8
0
 62
     0
 10
164.545
 20
78.9838
 30
0.0
 11
164.545
 21
92.9831
 31
0.0
  0
LINE
  8
0
 62
     0
 10
145.495
 20
92.9831
 30
0.0
 11
159.494
 21
92.9831
 31
0.0
  0
LINE
  8
0
 62
     0
 10
159.494
 20
92.9831
 30
0.0
 11
159.494
 21
78.9838
 31
0.0
  0
LINE
  8
0
 62
     0
 10
159.494
 20
78.9838
 30
0.0
 11
145.495
 21
78.9838
 31
0.0
  0
LINE
  8
0
 62
     0
 10
145.495
 20
78.9838
 30
0.0
 11
145.495
 21
92.9831
 31
0.0
  0
LINE
  8
0
 62
     0
 10
126.445
 20
92.9831
 30
0.0
 11
140.444
 21
92.9831
 31
0.0
  0
LINE
  8
0
 62
     0
 10
140.444
 20
92.9831
 30
0.0
 11
140.444
 21
78.9838
 31
0.0
  0
LINE
  8
0
 62
     0
 10
140.444
 20
78.9838
 30
0.0
 11
126.445
 21
78.9838
 31
0.0
  0
LINE
  8
0
 62
     0
 10
126.445
 20
78.9838
 30
0.0
 11
126.445
 21
92.9831
 31
0.0
  0
LINE
  8
0
 62
     0
 10
107.395
 20
92.9831
 30
0.0
 11
121.394
 21
92.9831
 31
0.0
  0
LINE
  8
0
 62
     0
 10
121.394
 20
92.9831
 30
0.0
 11
121.394
 21
78.9838
 31
0.0
  0
LINE
  8
0
 62
     0
 10
121.394
 20
78.9838
 30
0.0
 11
107.395
 21
78.9838
 31
0.0
  0
LINE
  8
0
 62
     0
 10
107.395
 20
78.9838
 30
0.0
 11
107.395
 21
92.9831
 31
0.0
  0
LINE
  8
0
 62
     0
 10
88.3447
 20
92.9831
 30
0.0
 11
102.344
 21
92.9831
 31
0.0
  0
LINE
  8
0
 62
     0
 10
102.344
 20
92.9831
 30
0.0
 11
102.344
 21
78.9838
 31
0.0
  0
LINE
  8
0
 62
     0
 10
102.344
 20
78.9838
 30
0.0
 11
88.3447
 21
78.9838
 31
0.0
  0
LINE
  8
0
 62
     0
 10
88.3447
 20
78.9838
 30
0.0
 11
88.3447
 21
92.9831
 31
0.0
  0
LINE
  8
0
 62
     0
 10
69.2947
 20
92.9831
 30
0.0
 11
83.294
 21
92.9831
 31
0.0
  0
LINE
  8
0
 62
     0
 10
83.294
 20
92.9831
 30
0.0
 11
83.294
 21
78.9838
 31
0.0
  0
LINE
  8
0
 62
     0
 10
83.294
 20
78.9838
 30
0.0
 11
69.2947
 21
78.9838
 31
0.0
  0
LINE
  8
0
 62
     0
 10
69.2947
 20
78.9838
 30
0.0
 11
69.2947
 21
92.9831
 31
0.0
  0
LINE
  8
0
 62
     0
 10
50.2447
 20
92.9831
 30
0.0
 11
64.244
 21
92.9831
 31
0.0
  0
LINE
  8
0
 62
     0
 10
64.244
 20
92.9831
 30
0.0
 11
64.244
 21
78.9838
 31
0.0
  0
LINE
  8
0
 62
     0
 10
64.244
 20
78.9838
 30
0.0
 11
50.2447
 21
78.9838
 31
0.0
  0
LINE
  8
0
 62
     0
 10
50.2447
 20
78.9838
 30
0.0
 11
50.2447
 21
92.9831
 31
0.0
  0
LINE
  8
0
 62
     0
 10
31.1947
 20
92.9831
 30
0.0
 11
45.194
 21
92.9831
 31
0.0
  0
LINE
  8
0
 62
     0
 10
45.194
 20
92.9831
 30
0.0
 11
45.194
 21
78.9838
 31
0.0
  0
LINE
  8
0
 62
     0
 10
45.194
 20
78.9838
 30
0.0
 11
31.1947
 21
78.9838
 31
0.0
  0
LINE
  8
0
 62
     0
 10
31.1947
 20
78.9838
 30
0.0
 11
31.1947
 21
92.9831
 31
0.0
  0
LINE
  8
0
 62
     0
 10
7.38216
 20
92.9831
 30
0.0
 11
21.3817
 21
92.9831
 31
0.0
  0
LINE
  8
0
 62
     0
 10
21.3817
 20
92.9831
 30
0.0
 11
21.3817
 21
78.9838
 31
0.0
  0
LINE
  8
0
 62
     0
 10
21.3817
 20
78.9838
 30
0.0
 11
7.38216
 21
78.9838
 31
0.0
  0
LINE
  8
0
 62
     0
 10
7.38216
 20
78.9838
 30
0.0
 11
7.38216
 21
92.9831
 31
0.0
  0
ENDSEC
  0
EOF
