<?xml version="1.0" standalone="no"?>
 <!DOCTYPE svg PUBLIC "-//W3C//DTD SVG 1.1//EN" 
 "http://www.w3.org/Graphics/SVG/1.1/DTD/svg11.dtd"> 
<svg
  xmlns:svg="http://www.w3.org/2000/svg"
  xmlns="http://www.w3.org/2000/svg"
  xmlns:xlink="http://www.w3.org/1999/xlink"
  version="1.1"
  width="30.403800cm" height="9.504680cm" viewBox="0 0 119700 37420">
<title>SVG Picture created as zedekiel-Dwgs_User.svg date 2020/07/02 22:40:16 </title>
  <desc>Picture generated by PCBNEW </desc>
<g style="fill:#000000; fill-opacity:1;stroke:#000000; stroke-opacity:1;
stroke-linecap:round; stroke-linejoin:round;"
 transform="translate(0 0) scale(1 1)">
</g>
<g style="fill:#000000; fill-opacity:0.0; 
stroke:#000000; stroke-width:-0.000393701; stroke-opacity:1; 
stroke-linecap:round; stroke-linejoin:round;">
</g>
<g style="fill:#C2C2C2; fill-opacity:0.0; 
stroke:#C2C2C2; stroke-width:-0.000393701; stroke-opacity:1; 
stroke-linecap:round; stroke-linejoin:round;">
</g>
<g style="fill:#C2C2C2; fill-opacity:0.0; 
stroke:#C2C2C2; stroke-width:47.2441; stroke-opacity:1; 
stroke-linecap:round; stroke-linejoin:round;">
<path d="M108474 9
L108474 7490
" />
<path d="M108474 7490
L119694 7490
" />
<path d="M119694 9
L119694 7490
" />
<path d="M108474 9
L119694 9
" />
<path d="M108474 22450
L108474 29931
" />
<path d="M108474 29931
L119694 29931
" />
<path d="M119694 22450
L119694 29931
" />
<path d="M108474 22450
L119694 22450
" />
<path d="M9 22458
L9 29938
" />
<path d="M9 29938
L11230 29938
" />
<path d="M11230 22458
L11230 29938
" />
<path d="M9 22458
L11230 22458
" />
<path d="M9 9
L9 7490
" />
<path d="M9 7490
L11230 7490
" />
<path d="M11230 9
L11230 7490
" />
<path d="M9 9
L11230 9
" />
<path d="M41151 29931
L41151 37411
" />
<path d="M41151 37411
L57982 37411
" />
<path d="M57982 29931
L57982 37411
" />
<path d="M41151 29931
L57982 29931
" />
<path d="M102864 7490
L102864 14970
" />
<path d="M102864 14970
L119694 14970
" />
<path d="M119694 7490
L119694 14970
" />
<path d="M102864 7490
L119694 7490
" />
<path d="M24320 29931
L24320 37411
" />
<path d="M24320 37411
L33671 37411
" />
<path d="M33671 29931
L33671 37411
" />
<path d="M24320 29931
L33671 29931
" />
<path d="M100994 29931
L100994 37411
" />
<path d="M100994 37411
L110344 37411
" />
<path d="M110344 29931
L110344 37411
" />
<path d="M100994 29931
L110344 29931
" />
<path d="M76683 29931
L76683 37411
" />
<path d="M76683 37411
L86033 37411
" />
<path d="M86033 29931
L86033 37411
" />
<path d="M76683 29931
L86033 29931
" />
<path d="M67332 29931
L67332 37411
" />
<path d="M67332 37411
L76683 37411
" />
<path d="M76683 29931
L76683 37411
" />
<path d="M67332 29931
L76683 29931
" />
<path d="M57982 29931
L57982 37411
" />
<path d="M57982 37411
L67332 37411
" />
<path d="M67332 29931
L67332 37411
" />
<path d="M57982 29931
L67332 29931
" />
<path d="M86033 29931
L86033 37411
" />
<path d="M86033 37411
L100994 37411
" />
<path d="M100994 29931
L100994 37411
" />
<path d="M86033 29931
L100994 29931
" />
<path d="M9360 29931
L9360 37411
" />
<path d="M9360 37411
L24320 37411
" />
<path d="M24320 29931
L24320 37411
" />
<path d="M9360 29931
L24320 29931
" />
<path d="M93513 22450
L93513 29931
" />
<path d="M93513 29931
L108474 29931
" />
<path d="M108474 22450
L108474 29931
" />
<path d="M93513 22450
L108474 22450
" />
<path d="M104734 14970
L104734 22450
" />
<path d="M104734 22450
L119694 22450
" />
<path d="M119694 14970
L119694 22450
" />
<path d="M104734 14970
L119694 14970
" />
<path d="M9 14970
L9 22450
" />
<path d="M9 22450
L14970 22450
" />
<path d="M14970 14970
L14970 22450
" />
<path d="M9 14970
L14970 14970
" />
<path d="M9 7490
L9 14970
" />
<path d="M9 14970
L13100 14970
" />
<path d="M13100 7490
L13100 14970
" />
<path d="M9 7490
L13100 7490
" />
<path d="M89773 14970
L89773 22450
" />
<path d="M89773 22450
L97253 22450
" />
<path d="M97253 14970
L97253 22450
" />
<path d="M89773 14970
L97253 14970
" />
<path d="M33671 22450
L33671 29931
" />
<path d="M33671 29931
L41151 29931
" />
<path d="M41151 22450
L41151 29931
" />
<path d="M33671 22450
L41151 22450
" />
<path d="M67332 14970
L67332 22450
" />
<path d="M67332 22450
L74812 22450
" />
<path d="M74812 14970
L74812 22450
" />
<path d="M67332 14970
L74812 14970
" />
<path d="M44891 14970
L44891 22450
" />
<path d="M44891 22450
L52372 22450
" />
<path d="M52372 14970
L52372 22450
" />
<path d="M44891 14970
L52372 14970
" />
<path d="M29931 14970
L29931 22450
" />
<path d="M29931 22450
L37411 22450
" />
<path d="M37411 14970
L37411 22450
" />
<path d="M29931 14970
L37411 14970
" />
<path d="M22450 14970
L22450 22450
" />
<path d="M22450 22450
L29931 22450
" />
<path d="M29931 14970
L29931 22450
" />
<path d="M22450 14970
L29931 14970
" />
<path d="M33671 29931
L33671 37411
" />
<path d="M33671 37411
L41151 37411
" />
<path d="M41151 29931
L41151 37411
" />
<path d="M33671 29931
L41151 29931
" />
<path d="M86033 22450
L86033 29931
" />
<path d="M86033 29931
L93513 29931
" />
<path d="M93513 22450
L93513 29931
" />
<path d="M86033 22450
L93513 22450
" />
<path d="M78553 22450
L78553 29931
" />
<path d="M78553 29931
L86033 29931
" />
<path d="M86033 22450
L86033 29931
" />
<path d="M78553 22450
L86033 22450
" />
<path d="M71072 22450
L71072 29931
" />
<path d="M71072 29931
L78553 29931
" />
<path d="M78553 22450
L78553 29931
" />
<path d="M71072 22450
L78553 22450
" />
<path d="M63592 22450
L63592 29931
" />
<path d="M63592 29931
L71072 29931
" />
<path d="M71072 22450
L71072 29931
" />
<path d="M63592 22450
L71072 22450
" />
<path d="M56112 22450
L56112 29931
" />
<path d="M56112 29931
L63592 29931
" />
<path d="M63592 22450
L63592 29931
" />
<path d="M56112 22450
L63592 22450
" />
<path d="M48631 22450
L48631 29931
" />
<path d="M48631 29931
L56112 29931
" />
<path d="M56112 22450
L56112 29931
" />
<path d="M48631 22450
L56112 22450
" />
<path d="M41151 22450
L41151 29931
" />
<path d="M41151 29931
L48631 29931
" />
<path d="M48631 22450
L48631 29931
" />
<path d="M41151 22450
L48631 22450
" />
<path d="M26190 22450
L26190 29931
" />
<path d="M26190 29931
L33671 29931
" />
<path d="M33671 22450
L33671 29931
" />
<path d="M26190 22450
L33671 22450
" />
<path d="M18710 22450
L18710 29931
" />
<path d="M18710 29931
L26190 29931
" />
<path d="M26190 22450
L26190 29931
" />
<path d="M18710 22450
L26190 22450
" />
<path d="M11230 22450
L11230 29931
" />
<path d="M11230 29931
L18710 29931
" />
<path d="M18710 22450
L18710 29931
" />
<path d="M11230 22450
L18710 22450
" />
<path d="M97253 14970
L97253 22450
" />
<path d="M97253 22450
L104734 22450
" />
<path d="M104734 14970
L104734 22450
" />
<path d="M97253 14970
L104734 14970
" />
<path d="M82293 14970
L82293 22450
" />
<path d="M82293 22450
L89773 22450
" />
<path d="M89773 14970
L89773 22450
" />
<path d="M82293 14970
L89773 14970
" />
<path d="M74812 14970
L74812 22450
" />
<path d="M74812 22450
L82293 22450
" />
<path d="M82293 14970
L82293 22450
" />
<path d="M74812 14970
L82293 14970
" />
<path d="M59852 14970
L59852 22450
" />
<path d="M59852 22450
L67332 22450
" />
<path d="M67332 14970
L67332 22450
" />
<path d="M59852 14970
L67332 14970
" />
<path d="M52372 14970
L52372 22450
" />
<path d="M52372 22450
L59852 22450
" />
<path d="M59852 14970
L59852 22450
" />
<path d="M52372 14970
L59852 14970
" />
<path d="M37411 14970
L37411 22450
" />
<path d="M37411 22450
L44891 22450
" />
<path d="M44891 14970
L44891 22450
" />
<path d="M37411 14970
L44891 14970
" />
<path d="M14970 14970
L14970 22450
" />
<path d="M14970 22450
L22450 22450
" />
<path d="M22450 14970
L22450 22450
" />
<path d="M14970 14970
L22450 14970
" />
<path d="M95383 7490
L95383 14970
" />
<path d="M95383 14970
L102864 14970
" />
<path d="M102864 7490
L102864 14970
" />
<path d="M95383 7490
L102864 7490
" />
<path d="M87903 7490
L87903 14970
" />
<path d="M87903 14970
L95383 14970
" />
<path d="M95383 7490
L95383 14970
" />
<path d="M87903 7490
L95383 7490
" />
<path d="M80423 7490
L80423 14970
" />
<path d="M80423 14970
L87903 14970
" />
<path d="M87903 7490
L87903 14970
" />
<path d="M80423 7490
L87903 7490
" />
<path d="M72942 7490
L72942 14970
" />
<path d="M72942 14970
L80423 14970
" />
<path d="M80423 7490
L80423 14970
" />
<path d="M72942 7490
L80423 7490
" />
<path d="M65462 7490
L65462 14970
" />
<path d="M65462 14970
L72942 14970
" />
<path d="M72942 7490
L72942 14970
" />
<path d="M65462 7490
L72942 7490
" />
<path d="M57982 7490
L57982 14970
" />
<path d="M57982 14970
L65462 14970
" />
<path d="M65462 7490
L65462 14970
" />
<path d="M57982 7490
L65462 7490
" />
<path d="M50501 7490
L50501 14970
" />
<path d="M50501 14970
L57982 14970
" />
<path d="M57982 7490
L57982 14970
" />
<path d="M50501 7490
L57982 7490
" />
<path d="M43021 7490
L43021 14970
" />
<path d="M43021 14970
L50501 14970
" />
<path d="M50501 7490
L50501 14970
" />
<path d="M43021 7490
L50501 7490
" />
<path d="M35541 7490
L35541 14970
" />
<path d="M35541 14970
L43021 14970
" />
<path d="M43021 7490
L43021 14970
" />
<path d="M35541 7490
L43021 7490
" />
<path d="M28061 7490
L28061 14970
" />
<path d="M28061 14970
L35541 14970
" />
<path d="M35541 7490
L35541 14970
" />
<path d="M28061 7490
L35541 7490
" />
<path d="M20580 7490
L20580 14970
" />
<path d="M20580 14970
L28061 14970
" />
<path d="M28061 7490
L28061 14970
" />
<path d="M20580 7490
L28061 7490
" />
<path d="M13100 7490
L13100 14970
" />
<path d="M13100 14970
L20580 14970
" />
<path d="M20580 7490
L20580 14970
" />
<path d="M13100 7490
L20580 7490
" />
<path d="M100994 9
L100994 7490
" />
<path d="M100994 7490
L108474 7490
" />
<path d="M108474 9
L108474 7490
" />
<path d="M100994 9
L108474 9
" />
<path d="M93513 9
L93513 7490
" />
<path d="M93513 7490
L100994 7490
" />
<path d="M100994 9
L100994 7490
" />
<path d="M93513 9
L100994 9
" />
<path d="M86033 9
L86033 7490
" />
<path d="M86033 7490
L93513 7490
" />
<path d="M93513 9
L93513 7490
" />
<path d="M86033 9
L93513 9
" />
<path d="M78553 9
L78553 7490
" />
<path d="M78553 7490
L86033 7490
" />
<path d="M86033 9
L86033 7490
" />
<path d="M78553 9
L86033 9
" />
<path d="M71072 9
L71072 7490
" />
<path d="M71072 7490
L78553 7490
" />
<path d="M78553 9
L78553 7490
" />
<path d="M71072 9
L78553 9
" />
<path d="M63592 9
L63592 7490
" />
<path d="M63592 7490
L71072 7490
" />
<path d="M71072 9
L71072 7490
" />
<path d="M63592 9
L71072 9
" />
<path d="M56112 9
L56112 7490
" />
<path d="M56112 7490
L63592 7490
" />
<path d="M63592 9
L63592 7490
" />
<path d="M56112 9
L63592 9
" />
<path d="M48631 9
L48631 7490
" />
<path d="M48631 7490
L56112 7490
" />
<path d="M56112 9
L56112 7490
" />
<path d="M48631 9
L56112 9
" />
<path d="M41151 9
L41151 7490
" />
<path d="M41151 7490
L48631 7490
" />
<path d="M48631 9
L48631 7490
" />
<path d="M41151 9
L48631 9
" />
<path d="M33671 9
L33671 7490
" />
<path d="M33671 7490
L41151 7490
" />
<path d="M41151 9
L41151 7490
" />
<path d="M33671 9
L41151 9
" />
<path d="M26190 9
L26190 7490
" />
<path d="M26190 7490
L33671 7490
" />
<path d="M33671 9
L33671 7490
" />
<path d="M26190 9
L33671 9
" />
<path d="M18710 9
L18710 7490
" />
<path d="M18710 7490
L26190 7490
" />
<path d="M26190 9
L26190 7490
" />
<path d="M18710 9
L26190 9
" />
<path d="M11230 9
L11230 7490
" />
<path d="M11230 7490
L18710 7490
" />
<path d="M18710 9
L18710 7490
" />
<path d="M11230 9
L18710 9
" />
</g>
<g style="fill:#C2C2C2; fill-opacity:0.0; 
stroke:#C2C2C2; stroke-width:59.0551; stroke-opacity:1; 
stroke-linecap:round; stroke-linejoin:round;">
<path d="M8958 2490
L12478 2490
" />
<path d="M12478 -383
L12478 2490
" />
<path d="M8958 -383
L8958 2490
" />
<path d="M8958 -383
L12478 -383
" />
</g>
<g style="fill:#C2C2C2; fill-opacity:0.0; 
stroke:#C2C2C2; stroke-width:47.2441; stroke-opacity:1; 
stroke-linecap:round; stroke-linejoin:round;">
<path d="M13474 21702
L13474 14734
" />
<path d="M10836 21702
L10836 14734
" />
<path d="M13474 14734
L10836 14734
" />
<path d="M13474 21702
L10836 21702
" />
<path d="M4147 21704
L4147 14736
" />
<path d="M4147 21704
L1510 21704
" />
<path d="M1510 21704
L1510 14736
" />
<path d="M4147 14736
L1510 14736
" />
</g>
<g style="fill:#C2C2C2; fill-opacity:0.0; 
stroke:#C2C2C2; stroke-width:511.811; stroke-opacity:1; 
stroke-linecap:round; stroke-linejoin:round;">
<path d="M13218 15797
L1761 15797
" />
</g>
<g style="fill:#C2C2C2; fill-opacity:0.0; 
stroke:#C2C2C2; stroke-width:47.2441; stroke-opacity:1; 
stroke-linecap:round; stroke-linejoin:round;">
<path d="M117263 14222
L117263 7253
" />
<path d="M114625 14222
L114625 7253
" />
<path d="M117263 7253
L114625 7253
" />
<path d="M117263 14222
L114625 14222
" />
<path d="M107937 14224
L107937 7256
" />
<path d="M107937 14224
L105299 14224
" />
<path d="M105299 14224
L105299 7256
" />
<path d="M107937 7256
L105299 7256
" />
</g>
<g style="fill:#C2C2C2; fill-opacity:0.0; 
stroke:#C2C2C2; stroke-width:511.811; stroke-opacity:1; 
stroke-linecap:round; stroke-linejoin:round;">
<path d="M117007 8316
L105551 8316
" />
</g>
<g style="fill:#C2C2C2; fill-opacity:0.0; 
stroke:#C2C2C2; stroke-width:47.2441; stroke-opacity:1; 
stroke-linecap:round; stroke-linejoin:round;">
<path d="M118198 21702
L118198 14734
" />
<path d="M115561 21702
L115561 14734
" />
<path d="M118198 14734
L115561 14734
" />
<path d="M118198 21702
L115561 21702
" />
<path d="M108872 21704
L108872 14736
" />
<path d="M108872 21704
L106234 21704
" />
<path d="M106234 21704
L106234 14736
" />
<path d="M108872 14736
L106234 14736
" />
</g>
<g style="fill:#C2C2C2; fill-opacity:0.0; 
stroke:#C2C2C2; stroke-width:511.811; stroke-opacity:1; 
stroke-linecap:round; stroke-linejoin:round;">
<path d="M117942 15797
L106486 15797
" />
</g>
<g style="fill:#C2C2C2; fill-opacity:0.0; 
stroke:#C2C2C2; stroke-width:47.2441; stroke-opacity:1; 
stroke-linecap:round; stroke-linejoin:round;">
<path d="M106978 29183
L106978 22214
" />
<path d="M104340 29183
L104340 22214
" />
<path d="M106978 22214
L104340 22214
" />
<path d="M106978 29183
L104340 29183
" />
<path d="M97651 29185
L97651 22216
" />
<path d="M97651 29185
L95014 29185
" />
<path d="M95014 29185
L95014 22216
" />
<path d="M97651 22216
L95014 22216
" />
</g>
<g style="fill:#C2C2C2; fill-opacity:0.0; 
stroke:#C2C2C2; stroke-width:511.811; stroke-opacity:1; 
stroke-linecap:round; stroke-linejoin:round;">
<path d="M106722 23277
L95265 23277
" />
</g>
<g style="fill:#C2C2C2; fill-opacity:0.0; 
stroke:#C2C2C2; stroke-width:47.2441; stroke-opacity:1; 
stroke-linecap:round; stroke-linejoin:round;">
<path d="M99498 36663
L99498 29694
" />
<path d="M96860 36663
L96860 29694
" />
<path d="M99498 29694
L96860 29694
" />
<path d="M99498 36663
L96860 36663
" />
<path d="M90171 36665
L90171 29697
" />
<path d="M90171 36665
L87533 36665
" />
<path d="M87533 36665
L87533 29697
" />
<path d="M90171 29697
L87533 29697
" />
</g>
<g style="fill:#C2C2C2; fill-opacity:0.0; 
stroke:#C2C2C2; stroke-width:511.811; stroke-opacity:1; 
stroke-linecap:round; stroke-linejoin:round;">
<path d="M99242 30757
L87785 30757
" />
</g>
<g style="fill:#C2C2C2; fill-opacity:0.0; 
stroke:#C2C2C2; stroke-width:47.2441; stroke-opacity:1; 
stroke-linecap:round; stroke-linejoin:round;">
<path d="M55551 36663
L55551 29694
" />
<path d="M52913 36663
L52913 29694
" />
<path d="M55551 29694
L52913 29694
" />
<path d="M55551 36663
L52913 36663
" />
<path d="M46224 36665
L46224 29697
" />
<path d="M46224 36665
L43586 36665
" />
<path d="M43586 36665
L43586 29697
" />
<path d="M46224 29697
L43586 29697
" />
</g>
<g style="fill:#C2C2C2; fill-opacity:0.0; 
stroke:#C2C2C2; stroke-width:511.811; stroke-opacity:1; 
stroke-linecap:round; stroke-linejoin:round;">
<path d="M55295 30757
L43838 30757
" />
</g>
<g style="fill:#C2C2C2; fill-opacity:0.0; 
stroke:#C2C2C2; stroke-width:47.2441; stroke-opacity:1; 
stroke-linecap:round; stroke-linejoin:round;">
<path d="M22824 36663
L22824 29694
" />
<path d="M20187 36663
L20187 29694
" />
<path d="M22824 29694
L20187 29694
" />
<path d="M22824 36663
L20187 36663
" />
<path d="M13498 36665
L13498 29697
" />
<path d="M13498 36665
L10860 36665
" />
<path d="M10860 36665
L10860 29697
" />
<path d="M13498 29697
L10860 29697
" />
</g>
<g style="fill:#C2C2C2; fill-opacity:0.0; 
stroke:#C2C2C2; stroke-width:511.811; stroke-opacity:1; 
stroke-linecap:round; stroke-linejoin:round;">
<path d="M22568 30757
L11112 30757
" />
</g>
<g style="fill:#C2C2C2; fill-opacity:0.0; 
stroke:#C2C2C2; stroke-width:47.2441; stroke-opacity:1; 
stroke-linecap:round; stroke-linejoin:round;">
<circle cx="108907" cy="29379.9" r="905.512" /> 
<circle cx="57490.2" cy="33671.3" r="905.512" /> 
<circle cx="10639.8" cy="26939" r="905.512" /> 
<circle cx="89773.6" cy="17765.7" r="905.512" /> 
<circle cx="37411.4" cy="17765.7" r="905.512" /> 
<circle cx="10088.6" cy="7490.16" r="905.512" /> 
<circle cx="109656" cy="5915.35" r="905.512" /> 
<circle cx="56112.2" cy="7253.94" r="905.512" /> 
<g >
</g>
<g >
</g>
<g >
</g>
<g >
</g>
<g >
</g>
<g >
</g>
<g >
</g>
<g >
</g>
<g >
</g>
<g >
</g>
<g >
</g>
<g >
</g>
<g >
</g>
<g >
</g>
<g >
</g>
<g >
</g>
<g >
</g>
<g >
</g>
<g >
</g>
<g >
</g>
<g >
</g>
<g >
</g>
<g >
</g>
<g >
</g>
<g >
</g>
<g >
</g>
<g >
</g>
<g >
</g>
<g >
</g>
<g >
</g>
<g >
</g>
<g >
</g>
<g >
</g>
<g >
</g>
<g >
</g>
<g >
</g>
<g >
</g>
<g >
</g>
<g >
</g>
<g >
</g>
<g >
</g>
<g >
</g>
<g >
</g>
<g >
</g>
<g >
</g>
<g >
</g>
<g >
</g>
<g >
</g>
<g >
</g>
<g >
</g>
<g >
</g>
<g >
</g>
<g >
</g>
<g >
</g>
<g >
</g>
<g >
</g>
<g >
</g>
<g >
</g>
<g >
</g>
<g >
</g>
<g >
</g>
<g >
</g>
<g >
</g>
<g >
</g>
<g >
</g>
<g >
</g>
<g >
</g>
<g >
</g>
<g >
</g>
<g >
</g>
<g >
</g>
<g >
</g>
<g >
</g>
<g >
</g>
<g >
</g>
<g >
</g>
<g >
</g>
<g >
</g>
<g >
</g>
<g >
</g>
<g >
</g>
<g >
</g>
<g >
</g>
<g >
</g>
<g >
</g>
<g >
</g>
<g >
</g>
<g >
</g>
<g >
</g>
<g >
</g>
<g >
</g>
<g >
</g>
<g >
</g>
<g >
</g>
<g >
</g>
<g >
</g>
<g >
</g>
<g >
</g>
<g >
</g>
<g >
</g>
<g >
</g>
<g >
</g>
<g >
</g>
<g >
</g>
<g >
</g>
<g >
</g>
<g >
</g>
<g >
</g>
<g >
</g>
<g >
</g>
<g >
</g>
<g >
</g>
<g >
</g>
<g >
</g>
<g >
</g>
<g >
</g>
<g >
</g>
<g >
</g>
<g >
</g>
<g >
</g>
<g >
</g>
<g >
</g>
<g >
</g>
<g >
</g>
<g >
</g>
<g >
</g>
<g >
</g>
<g >
</g>
<g >
</g>
<g >
</g>
<g >
</g>
<g >
</g>
<g >
</g>
<g >
</g>
<g >
</g>
<g >
</g>
<g >
</g>
<g >
</g>
<g >
</g>
<g >
</g>
<g >
</g>
<g >
</g>
<g >
</g>
<g >
</g>
<g >
</g>
<g >
</g>
<g >
</g>
<g >
</g>
<g >
</g>
<g >
</g>
<g >
</g>
<g >
</g>
<g >
</g>
<g >
</g>
<g >
</g>
<g >
</g>
<g >
</g>
<g >
</g>
<g >
</g>
<g >
</g>
<g >
</g>
<g >
</g>
<g >
</g>
<g >
</g>
<g >
</g>
<g >
</g>
<g >
</g>
<g >
</g>
<g >
</g>
<g >
</g>
<g >
</g>
<g >
</g>
<g >
</g>
<g >
</g>
<g >
</g>
<g >
</g>
<g >
</g>
<g >
</g>
<g >
</g>
<g >
</g>
</g> 
</svg>
