%TF.GenerationSoftware,KiCad,Pcbnew,5.1.6*%
%TF.CreationDate,2020-07-08T12:45:37+02:00*%
%TF.ProjectId,zedekiel,7a656465-6b69-4656-9c2e-6b696361645f,rev?*%
%TF.SameCoordinates,Original*%
%TF.FileFunction,Paste,Bot*%
%TF.FilePolarity,Positive*%
%FSLAX46Y46*%
G04 Gerber Fmt 4.6, Leading zero omitted, Abs format (unit mm)*
G04 Created by KiCad (PCBNEW 5.1.6) date 2020-07-08 12:45:37*
%MOMM*%
%LPD*%
G01*
G04 APERTURE LIST*
%TA.AperFunction,Profile*%
%ADD10C,0.050000*%
%TD*%
%ADD11R,2.550000X2.500000*%
%ADD12R,0.300000X1.450000*%
%ADD13R,0.600000X1.450000*%
%ADD14R,2.000000X2.400000*%
%ADD15R,0.800000X0.750000*%
%ADD16R,0.750000X0.800000*%
%ADD17C,0.100000*%
%ADD18R,0.450000X0.600000*%
%ADD19R,0.900000X0.500000*%
%ADD20R,2.000000X2.000000*%
G04 APERTURE END LIST*
D10*
X20400000Y-113400000D02*
X20400000Y-22400000D01*
X22400000Y-115400000D02*
X20400000Y-113400000D01*
X322400000Y-115400000D02*
X22400000Y-115400000D01*
X324400000Y-113400000D02*
X322400000Y-115400000D01*
X324400000Y-22400000D02*
X324400000Y-113400000D01*
X322400000Y-20400000D02*
X324400000Y-22400000D01*
X22400000Y-20400000D02*
X322400000Y-20400000D01*
X20400000Y-22400000D02*
X22400000Y-20400000D01*
D11*
%TO.C,K66*%
X317710000Y-32440000D03*
X303860000Y-34980000D03*
%TD*%
%TO.C,K28*%
X310585000Y-51440000D03*
X296735000Y-53980000D03*
%TD*%
%TO.C,K42*%
X312960000Y-70440000D03*
X299110000Y-72980000D03*
%TD*%
%TO.C,K56*%
X317710000Y-89440000D03*
X303860000Y-91980000D03*
%TD*%
%TO.C,K55*%
X284460000Y-89440000D03*
X270610000Y-91980000D03*
%TD*%
%TO.C,K65*%
X282485000Y-110980000D03*
X296335000Y-108440000D03*
%TD*%
%TO.C,K64*%
X265460000Y-108440000D03*
X251610000Y-110980000D03*
%TD*%
%TO.C,K63*%
X220735000Y-110980000D03*
X234585000Y-108440000D03*
%TD*%
%TO.C,K62*%
X196985000Y-110980000D03*
X210835000Y-108440000D03*
%TD*%
%TO.C,K61*%
X173235000Y-110980000D03*
X187085000Y-108440000D03*
%TD*%
%TO.C,K60*%
X153835000Y-108440000D03*
X139985000Y-110980000D03*
%TD*%
%TO.C,K58*%
X87735000Y-110980000D03*
X101585000Y-108440000D03*
%TD*%
%TO.C,K57*%
X70710000Y-108440000D03*
X56860000Y-110980000D03*
%TD*%
%TO.C,K43*%
X42210000Y-89440000D03*
X28360000Y-91980000D03*
%TD*%
%TO.C,K29*%
X46960000Y-70440000D03*
X33110000Y-72980000D03*
%TD*%
%TO.C,K15*%
X44585000Y-51440000D03*
X30735000Y-53980000D03*
%TD*%
%TO.C,K1*%
X42210000Y-32440000D03*
X28360000Y-34980000D03*
%TD*%
%TO.C,K40*%
X251610000Y-72980000D03*
X265460000Y-70440000D03*
%TD*%
%TO.C,K47*%
X109110000Y-91980000D03*
X122960000Y-89440000D03*
%TD*%
%TO.C,K37*%
X194610000Y-72980000D03*
X208460000Y-70440000D03*
%TD*%
%TO.C,K34*%
X137610000Y-72980000D03*
X151460000Y-70440000D03*
%TD*%
%TO.C,K32*%
X99610000Y-72980000D03*
X113460000Y-70440000D03*
%TD*%
%TO.C,K31*%
X80610000Y-72980000D03*
X94460000Y-70440000D03*
%TD*%
%TO.C,K59*%
X109110000Y-110980000D03*
X122960000Y-108440000D03*
%TD*%
%TO.C,K54*%
X242110000Y-91980000D03*
X255960000Y-89440000D03*
%TD*%
%TO.C,K53*%
X223110000Y-91980000D03*
X236960000Y-89440000D03*
%TD*%
%TO.C,K52*%
X204110000Y-91980000D03*
X217960000Y-89440000D03*
%TD*%
%TO.C,K51*%
X185110000Y-91980000D03*
X198960000Y-89440000D03*
%TD*%
%TO.C,K50*%
X166110000Y-91980000D03*
X179960000Y-89440000D03*
%TD*%
%TO.C,K49*%
X147110000Y-91980000D03*
X160960000Y-89440000D03*
%TD*%
%TO.C,K48*%
X128110000Y-91980000D03*
X141960000Y-89440000D03*
%TD*%
%TO.C,K46*%
X90110000Y-91980000D03*
X103960000Y-89440000D03*
%TD*%
%TO.C,K45*%
X71110000Y-91980000D03*
X84960000Y-89440000D03*
%TD*%
%TO.C,K44*%
X52110000Y-91980000D03*
X65960000Y-89440000D03*
%TD*%
%TO.C,K41*%
X270610000Y-72980000D03*
X284460000Y-70440000D03*
%TD*%
%TO.C,K39*%
X232610000Y-72980000D03*
X246460000Y-70440000D03*
%TD*%
%TO.C,K38*%
X213610000Y-72980000D03*
X227460000Y-70440000D03*
%TD*%
%TO.C,K36*%
X175610000Y-72980000D03*
X189460000Y-70440000D03*
%TD*%
%TO.C,K35*%
X156610000Y-72980000D03*
X170460000Y-70440000D03*
%TD*%
%TO.C,K33*%
X118610000Y-72980000D03*
X132460000Y-70440000D03*
%TD*%
%TO.C,K30*%
X61610000Y-72980000D03*
X75460000Y-70440000D03*
%TD*%
%TO.C,K27*%
X265860000Y-53980000D03*
X279710000Y-51440000D03*
%TD*%
%TO.C,K26*%
X246860000Y-53980000D03*
X260710000Y-51440000D03*
%TD*%
%TO.C,K25*%
X227860000Y-53980000D03*
X241710000Y-51440000D03*
%TD*%
%TO.C,K24*%
X208860000Y-53980000D03*
X222710000Y-51440000D03*
%TD*%
%TO.C,K23*%
X189860000Y-53980000D03*
X203710000Y-51440000D03*
%TD*%
%TO.C,K22*%
X170860000Y-53980000D03*
X184710000Y-51440000D03*
%TD*%
%TO.C,K21*%
X151860000Y-53980000D03*
X165710000Y-51440000D03*
%TD*%
%TO.C,K20*%
X132860000Y-53980000D03*
X146710000Y-51440000D03*
%TD*%
%TO.C,K19*%
X113860000Y-53980000D03*
X127710000Y-51440000D03*
%TD*%
%TO.C,K18*%
X94860000Y-53980000D03*
X108710000Y-51440000D03*
%TD*%
%TO.C,K17*%
X75860000Y-53980000D03*
X89710000Y-51440000D03*
%TD*%
%TO.C,K16*%
X56860000Y-53980000D03*
X70710000Y-51440000D03*
%TD*%
%TO.C,K14*%
X280110000Y-34980000D03*
X293960000Y-32440000D03*
%TD*%
%TO.C,K13*%
X261110000Y-34980000D03*
X274960000Y-32440000D03*
%TD*%
%TO.C,K12*%
X242110000Y-34980000D03*
X255960000Y-32440000D03*
%TD*%
%TO.C,K11*%
X223110000Y-34980000D03*
X236960000Y-32440000D03*
%TD*%
%TO.C,K10*%
X204110000Y-34980000D03*
X217960000Y-32440000D03*
%TD*%
%TO.C,K9*%
X185110000Y-34980000D03*
X198960000Y-32440000D03*
%TD*%
%TO.C,K8*%
X166110000Y-34980000D03*
X179960000Y-32440000D03*
%TD*%
%TO.C,K7*%
X147110000Y-34980000D03*
X160960000Y-32440000D03*
%TD*%
%TO.C,K6*%
X128110000Y-34980000D03*
X141960000Y-32440000D03*
%TD*%
%TO.C,K5*%
X109110000Y-34980000D03*
X122960000Y-32440000D03*
%TD*%
%TO.C,K4*%
X90110000Y-34980000D03*
X103960000Y-32440000D03*
%TD*%
%TO.C,K3*%
X71110000Y-34980000D03*
X84960000Y-32440000D03*
%TD*%
%TO.C,K2*%
X52110000Y-34980000D03*
X65960000Y-32440000D03*
%TD*%
D12*
%TO.C,USB1*%
X47350000Y-26695000D03*
X47850000Y-26695000D03*
X48350000Y-26695000D03*
X46850000Y-26695000D03*
X48850000Y-26695000D03*
X46350000Y-26695000D03*
X49350000Y-26695000D03*
X45850000Y-26695000D03*
D13*
X45150000Y-26695000D03*
X50050000Y-26695000D03*
X44375000Y-26695000D03*
X50825000Y-26695000D03*
%TD*%
D14*
%TO.C,X1*%
X24200000Y-111625000D03*
X27900000Y-111625000D03*
%TD*%
D15*
%TO.C,C1*%
X25100000Y-107200000D03*
X23600000Y-107200000D03*
%TD*%
D16*
%TO.C,C8*%
X22900000Y-100200000D03*
X22900000Y-101700000D03*
%TD*%
D17*
%TO.C,C7*%
G36*
X42641332Y-95421662D02*
G01*
X43171662Y-94891332D01*
X43737348Y-95457018D01*
X43207018Y-95987348D01*
X42641332Y-95421662D01*
G37*
G36*
X43701992Y-96482322D02*
G01*
X44232322Y-95951992D01*
X44798008Y-96517678D01*
X44267678Y-97048008D01*
X43701992Y-96482322D01*
G37*
%TD*%
%TO.C,C6*%
G36*
X32011992Y-96928338D02*
G01*
X31481662Y-96398008D01*
X32047348Y-95832322D01*
X32577678Y-96362652D01*
X32011992Y-96928338D01*
G37*
G36*
X33072652Y-95867678D02*
G01*
X32542322Y-95337348D01*
X33108008Y-94771662D01*
X33638338Y-95301992D01*
X33072652Y-95867678D01*
G37*
%TD*%
%TO.C,C5*%
G36*
X47348008Y-108221662D02*
G01*
X47878338Y-108751992D01*
X47312652Y-109317678D01*
X46782322Y-108787348D01*
X47348008Y-108221662D01*
G37*
G36*
X46287348Y-109282322D02*
G01*
X46817678Y-109812652D01*
X46251992Y-110378338D01*
X45721662Y-109848008D01*
X46287348Y-109282322D01*
G37*
%TD*%
%TO.C,C4*%
G36*
X29421662Y-99408668D02*
G01*
X28891332Y-98878338D01*
X29457018Y-98312652D01*
X29987348Y-98842982D01*
X29421662Y-99408668D01*
G37*
G36*
X30482322Y-98348008D02*
G01*
X29951992Y-97817678D01*
X30517678Y-97251992D01*
X31048008Y-97782322D01*
X30482322Y-98348008D01*
G37*
%TD*%
D15*
%TO.C,C3*%
X25100000Y-108800000D03*
X23600000Y-108800000D03*
%TD*%
%TO.C,C2*%
X28500000Y-108800000D03*
X27000000Y-108800000D03*
%TD*%
D18*
%TO.C,D1*%
X42600000Y-36850000D03*
X42600000Y-34750000D03*
%TD*%
%TO.C,D26*%
X261200000Y-55850000D03*
X261200000Y-53750000D03*
%TD*%
%TO.C,D7*%
X158500000Y-40150000D03*
X158500000Y-38050000D03*
%TD*%
%TO.C,D66*%
X318200000Y-36850000D03*
X318200000Y-34750000D03*
%TD*%
%TO.C,D65*%
X296600000Y-112850000D03*
X296600000Y-110750000D03*
%TD*%
%TO.C,D64*%
X265800000Y-112850000D03*
X265800000Y-110750000D03*
%TD*%
%TO.C,D63*%
X235000000Y-112850000D03*
X235000000Y-110750000D03*
%TD*%
%TO.C,D62*%
X211200000Y-112850000D03*
X211200000Y-110750000D03*
%TD*%
%TO.C,D61*%
X187400000Y-112850000D03*
X187400000Y-110750000D03*
%TD*%
%TO.C,D60*%
X154200000Y-112850000D03*
X154200000Y-110750000D03*
%TD*%
%TO.C,D59*%
X123400000Y-112850000D03*
X123400000Y-110750000D03*
%TD*%
%TO.C,D58*%
X102000000Y-112850000D03*
X102000000Y-110750000D03*
%TD*%
%TO.C,D57*%
X71200000Y-112850000D03*
X71200000Y-110750000D03*
%TD*%
%TO.C,D56*%
X318200000Y-93850000D03*
X318200000Y-91750000D03*
%TD*%
%TO.C,D55*%
X285000000Y-93850000D03*
X285000000Y-91750000D03*
%TD*%
%TO.C,D54*%
X256400000Y-93850000D03*
X256400000Y-91750000D03*
%TD*%
%TO.C,D53*%
X237400000Y-93850000D03*
X237400000Y-91750000D03*
%TD*%
%TO.C,D52*%
X218400000Y-93850000D03*
X218400000Y-91750000D03*
%TD*%
%TO.C,D51*%
X199400000Y-93850000D03*
X199400000Y-91750000D03*
%TD*%
%TO.C,D50*%
X180400000Y-93850000D03*
X180400000Y-91750000D03*
%TD*%
%TO.C,D49*%
X161400000Y-93850000D03*
X161400000Y-91750000D03*
%TD*%
%TO.C,D48*%
X142400000Y-93850000D03*
X142400000Y-91750000D03*
%TD*%
%TO.C,D47*%
X123400000Y-93850000D03*
X123400000Y-91750000D03*
%TD*%
%TO.C,D46*%
X104400000Y-93850000D03*
X104400000Y-91750000D03*
%TD*%
%TO.C,D45*%
X85400000Y-93850000D03*
X85400000Y-91750000D03*
%TD*%
%TO.C,D44*%
X66400000Y-93850000D03*
X66400000Y-91750000D03*
%TD*%
%TO.C,D43*%
X42600000Y-93850000D03*
X42600000Y-91750000D03*
%TD*%
%TO.C,D42*%
X313400000Y-74850000D03*
X313400000Y-72750000D03*
%TD*%
%TO.C,D41*%
X285000000Y-74850000D03*
X285000000Y-72750000D03*
%TD*%
%TO.C,D40*%
X266000000Y-74850000D03*
X266000000Y-72750000D03*
%TD*%
%TO.C,D39*%
X247000000Y-74850000D03*
X247000000Y-72750000D03*
%TD*%
%TO.C,D38*%
X228000000Y-74850000D03*
X228000000Y-72750000D03*
%TD*%
%TO.C,D37*%
X209000000Y-74850000D03*
X209000000Y-72750000D03*
%TD*%
%TO.C,D36*%
X190000000Y-74850000D03*
X190000000Y-72750000D03*
%TD*%
%TO.C,D35*%
X171000000Y-74850000D03*
X171000000Y-72750000D03*
%TD*%
%TO.C,D34*%
X152000000Y-74850000D03*
X152000000Y-72750000D03*
%TD*%
%TO.C,D33*%
X133000000Y-74850000D03*
X133000000Y-72750000D03*
%TD*%
%TO.C,D32*%
X114000000Y-74850000D03*
X114000000Y-72750000D03*
%TD*%
%TO.C,D31*%
X95000000Y-74850000D03*
X95000000Y-72750000D03*
%TD*%
%TO.C,D30*%
X76000000Y-74850000D03*
X76000000Y-72750000D03*
%TD*%
%TO.C,D29*%
X47400000Y-74850000D03*
X47400000Y-72750000D03*
%TD*%
%TO.C,D28*%
X311000000Y-55850000D03*
X311000000Y-53750000D03*
%TD*%
%TO.C,D27*%
X280200000Y-55850000D03*
X280200000Y-53750000D03*
%TD*%
%TO.C,D25*%
X242200000Y-55850000D03*
X242200000Y-53750000D03*
%TD*%
%TO.C,D24*%
X223200000Y-55850000D03*
X223200000Y-53750000D03*
%TD*%
%TO.C,D23*%
X204200000Y-55850000D03*
X204200000Y-53750000D03*
%TD*%
%TO.C,D22*%
X185200000Y-55850000D03*
X185200000Y-53750000D03*
%TD*%
%TO.C,D21*%
X166200000Y-55850000D03*
X166200000Y-53750000D03*
%TD*%
%TO.C,D20*%
X147200000Y-55850000D03*
X147200000Y-53750000D03*
%TD*%
%TO.C,D19*%
X128200000Y-55850000D03*
X128200000Y-53750000D03*
%TD*%
%TO.C,D18*%
X109200000Y-55850000D03*
X109200000Y-53750000D03*
%TD*%
%TO.C,D17*%
X90200000Y-55850000D03*
X90200000Y-53750000D03*
%TD*%
%TO.C,D16*%
X71200000Y-55850000D03*
X71200000Y-53750000D03*
%TD*%
%TO.C,D15*%
X45000000Y-55850000D03*
X45000000Y-53750000D03*
%TD*%
%TO.C,D14*%
X294400000Y-36850000D03*
X294400000Y-34750000D03*
%TD*%
%TO.C,D13*%
X275400000Y-36850000D03*
X275400000Y-34750000D03*
%TD*%
%TO.C,D12*%
X256400000Y-36850000D03*
X256400000Y-34750000D03*
%TD*%
%TO.C,D11*%
X237400000Y-36850000D03*
X237400000Y-34750000D03*
%TD*%
%TO.C,D10*%
X218400000Y-36850000D03*
X218400000Y-34750000D03*
%TD*%
%TO.C,D9*%
X199400000Y-36850000D03*
X199400000Y-34750000D03*
%TD*%
%TO.C,D8*%
X180400000Y-36850000D03*
X180400000Y-34750000D03*
%TD*%
%TO.C,D6*%
X142400000Y-36850000D03*
X142400000Y-34750000D03*
%TD*%
%TO.C,D5*%
X123400000Y-36850000D03*
X123400000Y-34750000D03*
%TD*%
%TO.C,D4*%
X104400000Y-36850000D03*
X104400000Y-34750000D03*
%TD*%
%TO.C,D3*%
X85400000Y-36850000D03*
X85400000Y-34750000D03*
%TD*%
%TO.C,D2*%
X66400000Y-36850000D03*
X66400000Y-34750000D03*
%TD*%
D19*
%TO.C,R2*%
X45200000Y-30600000D03*
X45200000Y-29100000D03*
%TD*%
D17*
%TO.C,R6*%
G36*
X43971751Y-112764645D02*
G01*
X43335355Y-112128249D01*
X43688909Y-111774695D01*
X44325305Y-112411091D01*
X43971751Y-112764645D01*
G37*
G36*
X42911091Y-113825305D02*
G01*
X42274695Y-113188909D01*
X42628249Y-112835355D01*
X43264645Y-113471751D01*
X42911091Y-113825305D01*
G37*
%TD*%
D19*
%TO.C,R5*%
X46800000Y-29100000D03*
X46800000Y-30600000D03*
%TD*%
%TO.C,R4*%
X48400000Y-29100000D03*
X48400000Y-30600000D03*
%TD*%
%TO.C,R3*%
X50000000Y-30600000D03*
X50000000Y-29100000D03*
%TD*%
%TO.C,R1*%
X22900000Y-97150000D03*
X22900000Y-98650000D03*
%TD*%
D17*
%TO.C,U1*%
G36*
X31676940Y-104877298D02*
G01*
X32065848Y-105266206D01*
X31005188Y-106326866D01*
X30616280Y-105937958D01*
X31676940Y-104877298D01*
G37*
G36*
X32242626Y-105442983D02*
G01*
X32631534Y-105831891D01*
X31570874Y-106892551D01*
X31181966Y-106503643D01*
X32242626Y-105442983D01*
G37*
G36*
X32808311Y-106008668D02*
G01*
X33197219Y-106397576D01*
X32136559Y-107458236D01*
X31747651Y-107069328D01*
X32808311Y-106008668D01*
G37*
G36*
X33373996Y-106574354D02*
G01*
X33762904Y-106963262D01*
X32702244Y-108023922D01*
X32313336Y-107635014D01*
X33373996Y-106574354D01*
G37*
G36*
X33939682Y-107140039D02*
G01*
X34328590Y-107528947D01*
X33267930Y-108589607D01*
X32879022Y-108200699D01*
X33939682Y-107140039D01*
G37*
G36*
X34505367Y-107705725D02*
G01*
X34894275Y-108094633D01*
X33833615Y-109155293D01*
X33444707Y-108766385D01*
X34505367Y-107705725D01*
G37*
G36*
X35071053Y-108271410D02*
G01*
X35459961Y-108660318D01*
X34399301Y-109720978D01*
X34010393Y-109332070D01*
X35071053Y-108271410D01*
G37*
G36*
X35636738Y-108837096D02*
G01*
X36025646Y-109226004D01*
X34964986Y-110286664D01*
X34576078Y-109897756D01*
X35636738Y-108837096D01*
G37*
G36*
X36202424Y-109402781D02*
G01*
X36591332Y-109791689D01*
X35530672Y-110852349D01*
X35141764Y-110463441D01*
X36202424Y-109402781D01*
G37*
G36*
X36768109Y-109968466D02*
G01*
X37157017Y-110357374D01*
X36096357Y-111418034D01*
X35707449Y-111029126D01*
X36768109Y-109968466D01*
G37*
G36*
X37333794Y-110534152D02*
G01*
X37722702Y-110923060D01*
X36662042Y-111983720D01*
X36273134Y-111594812D01*
X37333794Y-110534152D01*
G37*
G36*
X38677298Y-110923060D02*
G01*
X39066206Y-110534152D01*
X40126866Y-111594812D01*
X39737958Y-111983720D01*
X38677298Y-110923060D01*
G37*
G36*
X39242983Y-110357374D02*
G01*
X39631891Y-109968466D01*
X40692551Y-111029126D01*
X40303643Y-111418034D01*
X39242983Y-110357374D01*
G37*
G36*
X39808668Y-109791689D02*
G01*
X40197576Y-109402781D01*
X41258236Y-110463441D01*
X40869328Y-110852349D01*
X39808668Y-109791689D01*
G37*
G36*
X40374354Y-109226004D02*
G01*
X40763262Y-108837096D01*
X41823922Y-109897756D01*
X41435014Y-110286664D01*
X40374354Y-109226004D01*
G37*
G36*
X40940039Y-108660318D02*
G01*
X41328947Y-108271410D01*
X42389607Y-109332070D01*
X42000699Y-109720978D01*
X40940039Y-108660318D01*
G37*
G36*
X41505725Y-108094633D02*
G01*
X41894633Y-107705725D01*
X42955293Y-108766385D01*
X42566385Y-109155293D01*
X41505725Y-108094633D01*
G37*
G36*
X42071410Y-107528947D02*
G01*
X42460318Y-107140039D01*
X43520978Y-108200699D01*
X43132070Y-108589607D01*
X42071410Y-107528947D01*
G37*
G36*
X42637096Y-106963262D02*
G01*
X43026004Y-106574354D01*
X44086664Y-107635014D01*
X43697756Y-108023922D01*
X42637096Y-106963262D01*
G37*
G36*
X43202781Y-106397576D02*
G01*
X43591689Y-106008668D01*
X44652349Y-107069328D01*
X44263441Y-107458236D01*
X43202781Y-106397576D01*
G37*
G36*
X43768466Y-105831891D02*
G01*
X44157374Y-105442983D01*
X45218034Y-106503643D01*
X44829126Y-106892551D01*
X43768466Y-105831891D01*
G37*
G36*
X44334152Y-105266206D02*
G01*
X44723060Y-104877298D01*
X45783720Y-105937958D01*
X45394812Y-106326866D01*
X44334152Y-105266206D01*
G37*
G36*
X45394812Y-102473134D02*
G01*
X45783720Y-102862042D01*
X44723060Y-103922702D01*
X44334152Y-103533794D01*
X45394812Y-102473134D01*
G37*
G36*
X44829126Y-101907449D02*
G01*
X45218034Y-102296357D01*
X44157374Y-103357017D01*
X43768466Y-102968109D01*
X44829126Y-101907449D01*
G37*
G36*
X44263441Y-101341764D02*
G01*
X44652349Y-101730672D01*
X43591689Y-102791332D01*
X43202781Y-102402424D01*
X44263441Y-101341764D01*
G37*
G36*
X43697756Y-100776078D02*
G01*
X44086664Y-101164986D01*
X43026004Y-102225646D01*
X42637096Y-101836738D01*
X43697756Y-100776078D01*
G37*
G36*
X43132070Y-100210393D02*
G01*
X43520978Y-100599301D01*
X42460318Y-101659961D01*
X42071410Y-101271053D01*
X43132070Y-100210393D01*
G37*
G36*
X42566385Y-99644707D02*
G01*
X42955293Y-100033615D01*
X41894633Y-101094275D01*
X41505725Y-100705367D01*
X42566385Y-99644707D01*
G37*
G36*
X42000699Y-99079022D02*
G01*
X42389607Y-99467930D01*
X41328947Y-100528590D01*
X40940039Y-100139682D01*
X42000699Y-99079022D01*
G37*
G36*
X41435014Y-98513336D02*
G01*
X41823922Y-98902244D01*
X40763262Y-99962904D01*
X40374354Y-99573996D01*
X41435014Y-98513336D01*
G37*
G36*
X40869328Y-97947651D02*
G01*
X41258236Y-98336559D01*
X40197576Y-99397219D01*
X39808668Y-99008311D01*
X40869328Y-97947651D01*
G37*
G36*
X40303643Y-97381966D02*
G01*
X40692551Y-97770874D01*
X39631891Y-98831534D01*
X39242983Y-98442626D01*
X40303643Y-97381966D01*
G37*
G36*
X39737958Y-96816280D02*
G01*
X40126866Y-97205188D01*
X39066206Y-98265848D01*
X38677298Y-97876940D01*
X39737958Y-96816280D01*
G37*
G36*
X36273134Y-97205188D02*
G01*
X36662042Y-96816280D01*
X37722702Y-97876940D01*
X37333794Y-98265848D01*
X36273134Y-97205188D01*
G37*
G36*
X35707449Y-97770874D02*
G01*
X36096357Y-97381966D01*
X37157017Y-98442626D01*
X36768109Y-98831534D01*
X35707449Y-97770874D01*
G37*
G36*
X35141764Y-98336559D02*
G01*
X35530672Y-97947651D01*
X36591332Y-99008311D01*
X36202424Y-99397219D01*
X35141764Y-98336559D01*
G37*
G36*
X34576078Y-98902244D02*
G01*
X34964986Y-98513336D01*
X36025646Y-99573996D01*
X35636738Y-99962904D01*
X34576078Y-98902244D01*
G37*
G36*
X34010393Y-99467930D02*
G01*
X34399301Y-99079022D01*
X35459961Y-100139682D01*
X35071053Y-100528590D01*
X34010393Y-99467930D01*
G37*
G36*
X33444707Y-100033615D02*
G01*
X33833615Y-99644707D01*
X34894275Y-100705367D01*
X34505367Y-101094275D01*
X33444707Y-100033615D01*
G37*
G36*
X32879022Y-100599301D02*
G01*
X33267930Y-100210393D01*
X34328590Y-101271053D01*
X33939682Y-101659961D01*
X32879022Y-100599301D01*
G37*
G36*
X32313336Y-101164986D02*
G01*
X32702244Y-100776078D01*
X33762904Y-101836738D01*
X33373996Y-102225646D01*
X32313336Y-101164986D01*
G37*
G36*
X31747651Y-101730672D02*
G01*
X32136559Y-101341764D01*
X33197219Y-102402424D01*
X32808311Y-102791332D01*
X31747651Y-101730672D01*
G37*
G36*
X31181966Y-102296357D02*
G01*
X31570874Y-101907449D01*
X32631534Y-102968109D01*
X32242626Y-103357017D01*
X31181966Y-102296357D01*
G37*
G36*
X30616280Y-102862042D02*
G01*
X31005188Y-102473134D01*
X32065848Y-103533794D01*
X31676940Y-103922702D01*
X30616280Y-102862042D01*
G37*
%TD*%
D20*
%TO.C,TP6*%
X22900000Y-76400000D03*
%TD*%
%TO.C,TP6*%
X22900000Y-78900000D03*
%TD*%
%TO.C,TP10*%
X22900000Y-86400000D03*
%TD*%
%TO.C,TP9*%
X22900000Y-83900000D03*
%TD*%
%TO.C,TP8*%
X22900000Y-81400000D03*
%TD*%
%TO.C,TP7*%
X53000000Y-108750000D03*
%TD*%
%TO.C,TP6*%
X53000000Y-103600000D03*
%TD*%
%TO.C,TP5*%
X53000000Y-106180000D03*
%TD*%
%TO.C,TP4*%
X64400000Y-23900000D03*
%TD*%
%TO.C,TP3*%
X61900000Y-23900000D03*
%TD*%
%TO.C,TP2*%
X59400000Y-23900000D03*
%TD*%
%TO.C,TP1*%
X56900000Y-23900000D03*
%TD*%
M02*
