M48
; DRILL file {KiCad 5.1.6} date Wed Jul  8 12:44:02 2020
; FORMAT={-:-/ absolute / metric / decimal}
; #@! TF.CreationDate,2020-07-08T12:44:02+02:00
; #@! TF.GenerationSoftware,Kicad,Pcbnew,5.1.6
FMAT,2
METRIC
T1C0.305
T2C0.400
T3C0.600
T4C0.650
T5C1.702
T6C3.000
T7C3.048
T8C3.988
T9C4.500
%
G90
G05
T1
X22.88Y-76.41
X22.9Y-94.1
X22.91Y-101.7
X23.6Y-107.2
X23.69Y-72.53
X24.076Y-53.524
X24.78Y-54.33
X26.39Y-95.64
X26.4Y-84.4
X26.84Y-96.34
X27.02Y-108.8
X27.23Y-83.82
X29.66Y-103.03
X29.98Y-101.8
X30.0Y-99.62
X30.09Y-110.51
X30.258Y-106.698
X30.51Y-97.8
X30.617Y-99.032
X30.815Y-107.286
X30.969Y-110.74
X31.859Y-110.961
X32.15Y-73.9
X32.7Y-111.15
X33.09Y-95.33
X33.28Y-100.6
X33.55Y-111.35
X33.8Y-93.75
X33.81Y-94.58
X35.64Y-99.572
X36.06Y-93.75
X36.06Y-94.57
X38.23Y-111.45
X39.64Y-98.432
X40.31Y-111.03
X40.45Y-100.47
X40.902Y-110.47
X41.01Y-99.33
X41.335Y-100.127
X41.55Y-93.75
X42.17Y-100.44
X42.9Y-96.9
X42.97Y-111.46
X43.12Y-108.21
X43.36Y-93.93
X43.58Y-112.13
X43.698Y-107.642
X44.3Y-107.1
X44.33Y-27.16
X45.19Y-30.6
X45.29Y-102.98
X45.66Y-112.21
X46.01Y-109.56
X46.9Y-102.2
X47.0Y-30.6
X48.2Y-30.6
X48.3Y-101.8
X48.35Y-29.045
X50.0Y-30.6
X50.6Y-107.57
X50.87Y-27.16
X53.0Y-35.9
X53.92Y-101.66
X55.9Y-54.9
X56.9Y-110.2
X58.8Y-24.55
X59.475Y-93.925
X60.65Y-73.9
X63.8Y-24.53
X70.1Y-80.7
X70.15Y-35.9
X70.15Y-92.9
X74.9Y-54.9
X79.65Y-73.9
X86.825Y-110.1
X88.725Y-81.125
X89.15Y-35.9
X89.15Y-92.9
X93.9Y-54.9
X98.65Y-73.9
X105.662Y-81.438
X108.15Y-35.9
X108.15Y-92.9
X108.175Y-110.075
X112.9Y-54.9
X117.65Y-73.9
X125.425Y-82.375
X127.15Y-35.9
X127.15Y-92.9
X131.9Y-54.9
X136.65Y-73.9
X139.05Y-110.075
X143.662Y-83.138
X146.15Y-35.9
X146.15Y-92.9
X150.9Y-54.9
X155.65Y-73.9
X162.662Y-83.138
X165.15Y-35.9
X165.15Y-92.9
X169.9Y-54.9
X172.325Y-110.075
X174.65Y-73.9
X181.7Y-83.2
X184.15Y-35.9
X184.15Y-92.9
X188.9Y-54.9
X193.425Y-99.825
X193.65Y-73.9
X196.05Y-110.075
X203.15Y-35.9
X203.15Y-92.9
X207.9Y-54.9
X212.537Y-99.7
X212.65Y-73.9
X219.8Y-110.075
X222.15Y-35.9
X222.15Y-92.9
X226.9Y-54.9
X231.65Y-73.9
X236.287Y-100.738
X241.15Y-35.9
X241.15Y-92.9
X245.9Y-54.9
X250.65Y-73.9
X250.65Y-110.05
X260.15Y-35.9
X264.9Y-54.9
X266.3Y-101.225
X269.65Y-73.9
X269.65Y-92.9
X279.15Y-35.9
X282.55Y-110.65
X293.938Y-101.787
X295.9Y-54.9
X296.65Y-102.925
X298.132Y-73.918
X302.882Y-92.918
X303.225Y-35.825
T2
X31.6Y-54.81
T4
X44.71Y-25.25
X50.49Y-25.25
T5
X198.195Y-105.9
X208.355Y-105.9
X267.07Y-48.9
X277.23Y-48.9
X138.82Y-67.9
X148.98Y-67.9
X141.195Y-105.9
X151.355Y-105.9
X53.32Y-29.9
X63.48Y-29.9
X148.32Y-86.9
X158.48Y-86.9
X195.82Y-67.9
X205.98Y-67.9
X283.695Y-105.9
X293.855Y-105.9
X134.07Y-48.9
X144.23Y-48.9
X176.82Y-67.9
X186.98Y-67.9
X129.32Y-29.9
X139.48Y-29.9
X271.82Y-86.9
X281.98Y-86.9
X224.32Y-86.9
X234.48Y-86.9
X81.82Y-67.9
X91.98Y-67.9
X221.945Y-105.9
X232.105Y-105.9
X186.32Y-29.9
X196.48Y-29.9
X100.82Y-67.9
X110.98Y-67.9
X214.82Y-67.9
X224.98Y-67.9
X72.32Y-29.9
X82.48Y-29.9
X186.32Y-86.9
X196.48Y-86.9
X29.57Y-29.9
X39.73Y-29.9
X243.32Y-86.9
X253.48Y-86.9
X233.82Y-67.9
X243.98Y-67.9
X119.82Y-67.9
X129.98Y-67.9
X305.07Y-29.9
X315.23Y-29.9
X148.32Y-29.9
X158.48Y-29.9
X58.07Y-48.9
X68.23Y-48.9
X91.32Y-29.9
X101.48Y-29.9
X53.32Y-86.9
X63.48Y-86.9
X157.82Y-67.9
X167.98Y-67.9
X172.07Y-48.9
X182.23Y-48.9
X271.82Y-67.9
X281.98Y-67.9
X129.32Y-86.9
X139.48Y-86.9
X281.32Y-29.9
X291.48Y-29.9
X191.07Y-48.9
X201.23Y-48.9
X58.07Y-105.9
X68.23Y-105.9
X243.32Y-29.9
X253.48Y-29.9
X229.07Y-48.9
X239.23Y-48.9
X110.32Y-105.9
X120.48Y-105.9
X34.32Y-67.9
X44.48Y-67.9
X224.32Y-29.9
X234.48Y-29.9
X205.32Y-29.9
X215.48Y-29.9
X153.07Y-48.9
X163.23Y-48.9
X77.07Y-48.9
X87.23Y-48.9
X72.32Y-86.9
X82.48Y-86.9
X252.82Y-67.9
X262.98Y-67.9
X300.32Y-67.9
X310.48Y-67.9
X91.32Y-86.9
X101.48Y-86.9
X297.945Y-48.9
X308.105Y-48.9
X248.07Y-48.9
X258.23Y-48.9
X88.945Y-105.9
X99.105Y-105.9
X115.07Y-48.9
X125.23Y-48.9
X205.32Y-86.9
X215.48Y-86.9
X110.32Y-29.9
X120.48Y-29.9
X262.32Y-29.9
X272.48Y-29.9
X31.945Y-48.9
X42.105Y-48.9
X252.82Y-105.9
X262.98Y-105.9
X167.32Y-86.9
X177.48Y-86.9
X96.07Y-48.9
X106.23Y-48.9
X167.32Y-29.9
X177.48Y-29.9
X210.07Y-48.9
X220.23Y-48.9
X174.445Y-105.9
X184.605Y-105.9
X305.07Y-86.9
X315.23Y-86.9
X110.32Y-86.9
X120.48Y-86.9
X62.82Y-67.9
X72.98Y-67.9
X29.57Y-86.9
X39.73Y-86.9
T6
X274.36Y-91.98
X280.71Y-89.44
X226.86Y-91.98
X233.21Y-89.44
X84.36Y-72.98
X90.71Y-70.44
X224.485Y-110.98
X230.835Y-108.44
X188.86Y-34.98
X195.21Y-32.44
X103.36Y-72.98
X109.71Y-70.44
X217.36Y-72.98
X223.71Y-70.44
X74.86Y-34.98
X81.21Y-32.44
X188.86Y-91.98
X195.21Y-89.44
X32.11Y-34.98
X38.46Y-32.44
X245.86Y-91.98
X252.21Y-89.44
X236.36Y-72.98
X242.71Y-70.44
X122.36Y-72.98
X128.71Y-70.44
X307.61Y-34.98
X313.96Y-32.44
X150.86Y-34.98
X157.21Y-32.44
X60.61Y-53.98
X66.96Y-51.44
X93.86Y-34.98
X100.21Y-32.44
X55.86Y-91.98
X62.21Y-89.44
X160.36Y-72.98
X166.71Y-70.44
X174.61Y-53.98
X180.96Y-51.44
X274.36Y-72.98
X280.71Y-70.44
X131.86Y-91.98
X138.21Y-89.44
X283.86Y-34.98
X290.21Y-32.44
X193.61Y-53.98
X199.96Y-51.44
X60.61Y-110.98
X66.96Y-108.44
X245.86Y-34.98
X252.21Y-32.44
X231.61Y-53.98
X237.96Y-51.44
X112.86Y-110.98
X119.21Y-108.44
X36.86Y-72.98
X43.21Y-70.44
X226.86Y-34.98
X233.21Y-32.44
X207.86Y-34.98
X214.21Y-32.44
X155.61Y-53.98
X161.96Y-51.44
X79.61Y-53.98
X85.96Y-51.44
X74.86Y-91.98
X81.21Y-89.44
X255.36Y-72.98
X261.71Y-70.44
X302.86Y-72.98
X309.21Y-70.44
X93.86Y-91.98
X100.21Y-89.44
X300.485Y-53.98
X306.835Y-51.44
X250.61Y-53.98
X256.96Y-51.44
X91.485Y-110.98
X97.835Y-108.44
X117.61Y-53.98
X123.96Y-51.44
X207.86Y-91.98
X214.21Y-89.44
X112.86Y-34.98
X119.21Y-32.44
X264.86Y-34.98
X271.21Y-32.44
X34.485Y-53.98
X40.835Y-51.44
X255.36Y-110.98
X261.71Y-108.44
X169.86Y-91.98
X176.21Y-89.44
X98.61Y-53.98
X104.96Y-51.44
X169.86Y-34.98
X176.21Y-32.44
X212.61Y-53.98
X218.96Y-51.44
X176.985Y-110.98
X183.335Y-108.44
X307.61Y-91.98
X313.96Y-89.44
X112.86Y-91.98
X119.21Y-89.44
X65.36Y-72.98
X71.71Y-70.44
X32.11Y-91.98
X38.46Y-89.44
X200.735Y-110.98
X207.085Y-108.44
X269.61Y-53.98
X275.96Y-51.44
X141.36Y-72.98
X147.71Y-70.44
X143.735Y-110.98
X150.085Y-108.44
X55.86Y-34.98
X62.21Y-32.44
X150.86Y-91.98
X157.21Y-89.44
X198.36Y-72.98
X204.71Y-70.44
X286.235Y-110.98
X292.585Y-108.44
X136.61Y-53.98
X142.96Y-51.44
X179.36Y-72.98
X185.71Y-70.44
X131.86Y-34.98
X138.21Y-32.44
T7
X51.25Y-112.885
X75.05Y-112.885
X134.375Y-112.885
X158.175Y-112.885
X246.0Y-112.885
X269.8Y-112.885
X265.0Y-93.885
X288.8Y-93.885
X293.5Y-74.885
X317.3Y-74.885
X291.125Y-55.885
X314.925Y-55.885
X27.5Y-74.885
X51.3Y-74.885
T8
X120.15Y-48.9
X210.4Y-86.9
X246.0Y-97.645
X269.8Y-97.645
X115.4Y-29.9
X267.4Y-29.9
X37.025Y-48.9
X257.9Y-105.9
X265.0Y-78.645
X288.8Y-78.645
X172.4Y-86.9
X101.15Y-48.9
X172.4Y-29.9
X215.15Y-48.9
X179.525Y-105.9
X310.15Y-86.9
X293.5Y-59.645
X317.3Y-59.645
X115.4Y-86.9
X67.9Y-67.9
X34.65Y-86.9
X203.275Y-105.9
X272.15Y-48.9
X143.9Y-67.9
X146.275Y-105.9
X291.125Y-40.645
X314.925Y-40.645
X58.4Y-29.9
X153.4Y-86.9
X200.9Y-67.9
X288.775Y-105.9
X139.15Y-48.9
X181.9Y-67.9
X134.4Y-29.9
X27.5Y-59.645
X51.3Y-59.645
X276.9Y-86.9
X229.4Y-86.9
X86.9Y-67.9
X227.025Y-105.9
X191.4Y-29.9
X105.9Y-67.9
X219.9Y-67.9
X77.4Y-29.9
X191.4Y-86.9
X34.65Y-29.9
X248.4Y-86.9
X238.9Y-67.9
X124.9Y-67.9
X310.15Y-29.9
X153.4Y-29.9
X63.15Y-48.9
X51.25Y-97.645
X75.05Y-97.645
X96.4Y-29.9
X58.4Y-86.9
X162.9Y-67.9
X177.15Y-48.9
X276.9Y-67.9
X134.4Y-86.9
X286.4Y-29.9
X196.15Y-48.9
X63.15Y-105.9
X248.4Y-29.9
X234.15Y-48.9
X115.4Y-105.9
X39.4Y-67.9
X229.4Y-29.9
X210.4Y-29.9
X134.375Y-97.645
X158.175Y-97.645
X158.15Y-48.9
X82.15Y-48.9
X77.4Y-86.9
X257.9Y-67.9
X305.4Y-67.9
X96.4Y-86.9
X303.025Y-48.9
X253.15Y-48.9
X94.025Y-105.9
T9
X47.4Y-88.8
X298.9Y-35.4
X162.9Y-38.8
X46.0Y-39.4
X248.4Y-65.5
X115.4Y-65.5
X166.4Y-105.9
X297.0Y-95.0
T3
G00X43.28Y-21.3
M15
G01X43.28Y-21.9
M16
G05
G00X43.28Y-25.23
M15
G01X43.28Y-26.33
M16
G05
G00X51.92Y-21.3
M15
G01X51.92Y-21.9
M16
G05
G00X51.92Y-25.23
M15
G01X51.92Y-26.33
M16
G05
T0
M30
