%TF.GenerationSoftware,KiCad,Pcbnew,5.1.6*%
%TF.CreationDate,2020-07-10T22:02:12+02:00*%
%TF.ProjectId,zedekiel,7a656465-6b69-4656-9c2e-6b696361645f,rev?*%
%TF.SameCoordinates,Original*%
%TF.FileFunction,Soldermask,Top*%
%TF.FilePolarity,Negative*%
%FSLAX46Y46*%
G04 Gerber Fmt 4.6, Leading zero omitted, Abs format (unit mm)*
G04 Created by KiCad (PCBNEW 5.1.6) date 2020-07-10 22:02:12*
%MOMM*%
%LPD*%
G01*
G04 APERTURE LIST*
%TA.AperFunction,Profile*%
%ADD10C,0.050000*%
%TD*%
%ADD11C,1.801800*%
%ADD12C,4.087800*%
%ADD13C,3.100000*%
%ADD14C,4.600000*%
%ADD15C,3.148000*%
%ADD16O,1.100000X1.700000*%
%ADD17O,1.100000X2.200000*%
%ADD18C,0.750000*%
%ADD19R,2.100000X2.100000*%
G04 APERTURE END LIST*
D10*
X20400000Y-113400000D02*
X20400000Y-22400000D01*
X22400000Y-115400000D02*
X20400000Y-113400000D01*
X322400000Y-115400000D02*
X22400000Y-115400000D01*
X324400000Y-113400000D02*
X322400000Y-115400000D01*
X324400000Y-22400000D02*
X324400000Y-113400000D01*
X322400000Y-20400000D02*
X324400000Y-22400000D01*
X22400000Y-20400000D02*
X322400000Y-20400000D01*
X20400000Y-22400000D02*
X22400000Y-20400000D01*
D11*
%TO.C,K66*%
X315230000Y-29900000D03*
X305070000Y-29900000D03*
D12*
X310150000Y-29900000D03*
D13*
X313960000Y-32440000D03*
X307610000Y-34980000D03*
%TD*%
D11*
%TO.C,K28*%
X308105000Y-48900000D03*
X297945000Y-48900000D03*
D12*
X303025000Y-48900000D03*
D13*
X306835000Y-51440000D03*
X300485000Y-53980000D03*
%TD*%
D11*
%TO.C,K42*%
X310480000Y-67900000D03*
X300320000Y-67900000D03*
D12*
X305400000Y-67900000D03*
D13*
X309210000Y-70440000D03*
X302860000Y-72980000D03*
%TD*%
D11*
%TO.C,K56*%
X315230000Y-86900000D03*
X305070000Y-86900000D03*
D12*
X310150000Y-86900000D03*
D13*
X313960000Y-89440000D03*
X307610000Y-91980000D03*
%TD*%
D11*
%TO.C,K55*%
X281980000Y-86900000D03*
X271820000Y-86900000D03*
D12*
X276900000Y-86900000D03*
D13*
X280710000Y-89440000D03*
X274360000Y-91980000D03*
%TD*%
%TO.C,K65*%
X286235000Y-110980000D03*
X292585000Y-108440000D03*
D12*
X288775000Y-105900000D03*
D11*
X283695000Y-105900000D03*
X293855000Y-105900000D03*
%TD*%
%TO.C,K64*%
X262980000Y-105900000D03*
X252820000Y-105900000D03*
D12*
X257900000Y-105900000D03*
D13*
X261710000Y-108440000D03*
X255360000Y-110980000D03*
%TD*%
%TO.C,K63*%
X224485000Y-110980000D03*
X230835000Y-108440000D03*
D12*
X227025000Y-105900000D03*
D11*
X221945000Y-105900000D03*
X232105000Y-105900000D03*
%TD*%
D13*
%TO.C,K62*%
X200735000Y-110980000D03*
X207085000Y-108440000D03*
D12*
X203275000Y-105900000D03*
D11*
X198195000Y-105900000D03*
X208355000Y-105900000D03*
%TD*%
D13*
%TO.C,K61*%
X176985000Y-110980000D03*
X183335000Y-108440000D03*
D12*
X179525000Y-105900000D03*
D11*
X174445000Y-105900000D03*
X184605000Y-105900000D03*
%TD*%
%TO.C,K60*%
X151355000Y-105900000D03*
X141195000Y-105900000D03*
D12*
X146275000Y-105900000D03*
D13*
X150085000Y-108440000D03*
X143735000Y-110980000D03*
%TD*%
%TO.C,K58*%
X91485000Y-110980000D03*
X97835000Y-108440000D03*
D12*
X94025000Y-105900000D03*
D11*
X88945000Y-105900000D03*
X99105000Y-105900000D03*
%TD*%
%TO.C,K57*%
X68230000Y-105900000D03*
X58070000Y-105900000D03*
D12*
X63150000Y-105900000D03*
D13*
X66960000Y-108440000D03*
X60610000Y-110980000D03*
%TD*%
D11*
%TO.C,K43*%
X39730000Y-86900000D03*
X29570000Y-86900000D03*
D12*
X34650000Y-86900000D03*
D13*
X38460000Y-89440000D03*
X32110000Y-91980000D03*
%TD*%
D11*
%TO.C,K29*%
X44480000Y-67900000D03*
X34320000Y-67900000D03*
D12*
X39400000Y-67900000D03*
D13*
X43210000Y-70440000D03*
X36860000Y-72980000D03*
%TD*%
D11*
%TO.C,K15*%
X42105000Y-48900000D03*
X31945000Y-48900000D03*
D12*
X37025000Y-48900000D03*
D13*
X40835000Y-51440000D03*
X34485000Y-53980000D03*
%TD*%
D11*
%TO.C,K1*%
X39730000Y-29900000D03*
X29570000Y-29900000D03*
D12*
X34650000Y-29900000D03*
D13*
X38460000Y-32440000D03*
X32110000Y-34980000D03*
%TD*%
%TO.C,K40*%
X255360000Y-72980000D03*
X261710000Y-70440000D03*
D12*
X257900000Y-67900000D03*
D11*
X252820000Y-67900000D03*
X262980000Y-67900000D03*
%TD*%
D13*
%TO.C,K47*%
X112860000Y-91980000D03*
X119210000Y-89440000D03*
D12*
X115400000Y-86900000D03*
D11*
X110320000Y-86900000D03*
X120480000Y-86900000D03*
%TD*%
D13*
%TO.C,K37*%
X198360000Y-72980000D03*
X204710000Y-70440000D03*
D12*
X200900000Y-67900000D03*
D11*
X195820000Y-67900000D03*
X205980000Y-67900000D03*
%TD*%
D13*
%TO.C,K34*%
X141360000Y-72980000D03*
X147710000Y-70440000D03*
D12*
X143900000Y-67900000D03*
D11*
X138820000Y-67900000D03*
X148980000Y-67900000D03*
%TD*%
D13*
%TO.C,K32*%
X103360000Y-72980000D03*
X109710000Y-70440000D03*
D12*
X105900000Y-67900000D03*
D11*
X100820000Y-67900000D03*
X110980000Y-67900000D03*
%TD*%
D13*
%TO.C,K31*%
X84360000Y-72980000D03*
X90710000Y-70440000D03*
D12*
X86900000Y-67900000D03*
D11*
X81820000Y-67900000D03*
X91980000Y-67900000D03*
%TD*%
D13*
%TO.C,K59*%
X112860000Y-110980000D03*
X119210000Y-108440000D03*
D12*
X115400000Y-105900000D03*
D11*
X110320000Y-105900000D03*
X120480000Y-105900000D03*
%TD*%
D13*
%TO.C,K54*%
X245860000Y-91980000D03*
X252210000Y-89440000D03*
D12*
X248400000Y-86900000D03*
D11*
X243320000Y-86900000D03*
X253480000Y-86900000D03*
%TD*%
D13*
%TO.C,K53*%
X226860000Y-91980000D03*
X233210000Y-89440000D03*
D12*
X229400000Y-86900000D03*
D11*
X224320000Y-86900000D03*
X234480000Y-86900000D03*
%TD*%
D13*
%TO.C,K52*%
X207860000Y-91980000D03*
X214210000Y-89440000D03*
D12*
X210400000Y-86900000D03*
D11*
X205320000Y-86900000D03*
X215480000Y-86900000D03*
%TD*%
D13*
%TO.C,K51*%
X188860000Y-91980000D03*
X195210000Y-89440000D03*
D12*
X191400000Y-86900000D03*
D11*
X186320000Y-86900000D03*
X196480000Y-86900000D03*
%TD*%
D13*
%TO.C,K50*%
X169860000Y-91980000D03*
X176210000Y-89440000D03*
D12*
X172400000Y-86900000D03*
D11*
X167320000Y-86900000D03*
X177480000Y-86900000D03*
%TD*%
D13*
%TO.C,K49*%
X150860000Y-91980000D03*
X157210000Y-89440000D03*
D12*
X153400000Y-86900000D03*
D11*
X148320000Y-86900000D03*
X158480000Y-86900000D03*
%TD*%
D13*
%TO.C,K48*%
X131860000Y-91980000D03*
X138210000Y-89440000D03*
D12*
X134400000Y-86900000D03*
D11*
X129320000Y-86900000D03*
X139480000Y-86900000D03*
%TD*%
D13*
%TO.C,K46*%
X93860000Y-91980000D03*
X100210000Y-89440000D03*
D12*
X96400000Y-86900000D03*
D11*
X91320000Y-86900000D03*
X101480000Y-86900000D03*
%TD*%
D13*
%TO.C,K45*%
X74860000Y-91980000D03*
X81210000Y-89440000D03*
D12*
X77400000Y-86900000D03*
D11*
X72320000Y-86900000D03*
X82480000Y-86900000D03*
%TD*%
D13*
%TO.C,K44*%
X55860000Y-91980000D03*
X62210000Y-89440000D03*
D12*
X58400000Y-86900000D03*
D11*
X53320000Y-86900000D03*
X63480000Y-86900000D03*
%TD*%
D13*
%TO.C,K41*%
X274360000Y-72980000D03*
X280710000Y-70440000D03*
D12*
X276900000Y-67900000D03*
D11*
X271820000Y-67900000D03*
X281980000Y-67900000D03*
%TD*%
D13*
%TO.C,K39*%
X236360000Y-72980000D03*
X242710000Y-70440000D03*
D12*
X238900000Y-67900000D03*
D11*
X233820000Y-67900000D03*
X243980000Y-67900000D03*
%TD*%
D13*
%TO.C,K38*%
X217360000Y-72980000D03*
X223710000Y-70440000D03*
D12*
X219900000Y-67900000D03*
D11*
X214820000Y-67900000D03*
X224980000Y-67900000D03*
%TD*%
D13*
%TO.C,K36*%
X179360000Y-72980000D03*
X185710000Y-70440000D03*
D12*
X181900000Y-67900000D03*
D11*
X176820000Y-67900000D03*
X186980000Y-67900000D03*
%TD*%
D13*
%TO.C,K35*%
X160360000Y-72980000D03*
X166710000Y-70440000D03*
D12*
X162900000Y-67900000D03*
D11*
X157820000Y-67900000D03*
X167980000Y-67900000D03*
%TD*%
D13*
%TO.C,K33*%
X122360000Y-72980000D03*
X128710000Y-70440000D03*
D12*
X124900000Y-67900000D03*
D11*
X119820000Y-67900000D03*
X129980000Y-67900000D03*
%TD*%
D13*
%TO.C,K30*%
X65360000Y-72980000D03*
X71710000Y-70440000D03*
D12*
X67900000Y-67900000D03*
D11*
X62820000Y-67900000D03*
X72980000Y-67900000D03*
%TD*%
D13*
%TO.C,K27*%
X269610000Y-53980000D03*
X275960000Y-51440000D03*
D12*
X272150000Y-48900000D03*
D11*
X267070000Y-48900000D03*
X277230000Y-48900000D03*
%TD*%
D13*
%TO.C,K26*%
X250610000Y-53980000D03*
X256960000Y-51440000D03*
D12*
X253150000Y-48900000D03*
D11*
X248070000Y-48900000D03*
X258230000Y-48900000D03*
%TD*%
D13*
%TO.C,K25*%
X231610000Y-53980000D03*
X237960000Y-51440000D03*
D12*
X234150000Y-48900000D03*
D11*
X229070000Y-48900000D03*
X239230000Y-48900000D03*
%TD*%
D13*
%TO.C,K24*%
X212610000Y-53980000D03*
X218960000Y-51440000D03*
D12*
X215150000Y-48900000D03*
D11*
X210070000Y-48900000D03*
X220230000Y-48900000D03*
%TD*%
D13*
%TO.C,K23*%
X193610000Y-53980000D03*
X199960000Y-51440000D03*
D12*
X196150000Y-48900000D03*
D11*
X191070000Y-48900000D03*
X201230000Y-48900000D03*
%TD*%
D13*
%TO.C,K22*%
X174610000Y-53980000D03*
X180960000Y-51440000D03*
D12*
X177150000Y-48900000D03*
D11*
X172070000Y-48900000D03*
X182230000Y-48900000D03*
%TD*%
D13*
%TO.C,K21*%
X155610000Y-53980000D03*
X161960000Y-51440000D03*
D12*
X158150000Y-48900000D03*
D11*
X153070000Y-48900000D03*
X163230000Y-48900000D03*
%TD*%
D13*
%TO.C,K20*%
X136610000Y-53980000D03*
X142960000Y-51440000D03*
D12*
X139150000Y-48900000D03*
D11*
X134070000Y-48900000D03*
X144230000Y-48900000D03*
%TD*%
D13*
%TO.C,K19*%
X117610000Y-53980000D03*
X123960000Y-51440000D03*
D12*
X120150000Y-48900000D03*
D11*
X115070000Y-48900000D03*
X125230000Y-48900000D03*
%TD*%
D13*
%TO.C,K18*%
X98610000Y-53980000D03*
X104960000Y-51440000D03*
D12*
X101150000Y-48900000D03*
D11*
X96070000Y-48900000D03*
X106230000Y-48900000D03*
%TD*%
D13*
%TO.C,K17*%
X79610000Y-53980000D03*
X85960000Y-51440000D03*
D12*
X82150000Y-48900000D03*
D11*
X77070000Y-48900000D03*
X87230000Y-48900000D03*
%TD*%
D13*
%TO.C,K16*%
X60610000Y-53980000D03*
X66960000Y-51440000D03*
D12*
X63150000Y-48900000D03*
D11*
X58070000Y-48900000D03*
X68230000Y-48900000D03*
%TD*%
D13*
%TO.C,K14*%
X283860000Y-34980000D03*
X290210000Y-32440000D03*
D12*
X286400000Y-29900000D03*
D11*
X281320000Y-29900000D03*
X291480000Y-29900000D03*
%TD*%
D13*
%TO.C,K13*%
X264860000Y-34980000D03*
X271210000Y-32440000D03*
D12*
X267400000Y-29900000D03*
D11*
X262320000Y-29900000D03*
X272480000Y-29900000D03*
%TD*%
D13*
%TO.C,K12*%
X245860000Y-34980000D03*
X252210000Y-32440000D03*
D12*
X248400000Y-29900000D03*
D11*
X243320000Y-29900000D03*
X253480000Y-29900000D03*
%TD*%
D13*
%TO.C,K11*%
X226860000Y-34980000D03*
X233210000Y-32440000D03*
D12*
X229400000Y-29900000D03*
D11*
X224320000Y-29900000D03*
X234480000Y-29900000D03*
%TD*%
D13*
%TO.C,K10*%
X207860000Y-34980000D03*
X214210000Y-32440000D03*
D12*
X210400000Y-29900000D03*
D11*
X205320000Y-29900000D03*
X215480000Y-29900000D03*
%TD*%
D13*
%TO.C,K9*%
X188860000Y-34980000D03*
X195210000Y-32440000D03*
D12*
X191400000Y-29900000D03*
D11*
X186320000Y-29900000D03*
X196480000Y-29900000D03*
%TD*%
D13*
%TO.C,K8*%
X169860000Y-34980000D03*
X176210000Y-32440000D03*
D12*
X172400000Y-29900000D03*
D11*
X167320000Y-29900000D03*
X177480000Y-29900000D03*
%TD*%
D13*
%TO.C,K7*%
X150860000Y-34980000D03*
X157210000Y-32440000D03*
D12*
X153400000Y-29900000D03*
D11*
X148320000Y-29900000D03*
X158480000Y-29900000D03*
%TD*%
D13*
%TO.C,K6*%
X131860000Y-34980000D03*
X138210000Y-32440000D03*
D12*
X134400000Y-29900000D03*
D11*
X129320000Y-29900000D03*
X139480000Y-29900000D03*
%TD*%
D13*
%TO.C,K5*%
X112860000Y-34980000D03*
X119210000Y-32440000D03*
D12*
X115400000Y-29900000D03*
D11*
X110320000Y-29900000D03*
X120480000Y-29900000D03*
%TD*%
D13*
%TO.C,K4*%
X93860000Y-34980000D03*
X100210000Y-32440000D03*
D12*
X96400000Y-29900000D03*
D11*
X91320000Y-29900000D03*
X101480000Y-29900000D03*
%TD*%
D13*
%TO.C,K3*%
X74860000Y-34980000D03*
X81210000Y-32440000D03*
D12*
X77400000Y-29900000D03*
D11*
X72320000Y-29900000D03*
X82480000Y-29900000D03*
%TD*%
D13*
%TO.C,K2*%
X55860000Y-34980000D03*
X62210000Y-32440000D03*
D12*
X58400000Y-29900000D03*
D11*
X53320000Y-29900000D03*
X63480000Y-29900000D03*
%TD*%
D14*
%TO.C,REF\u002A\u002A*%
X297000000Y-95000000D03*
%TD*%
%TO.C,REF\u002A\u002A*%
X166400000Y-105900000D03*
%TD*%
%TO.C,REF\u002A\u002A*%
X248400000Y-65500000D03*
%TD*%
%TO.C,REF\u002A\u002A*%
X115400000Y-65500000D03*
%TD*%
%TO.C,REF\u002A\u002A*%
X47400000Y-88800000D03*
%TD*%
%TO.C,REF\u002A\u002A*%
X298900000Y-35400000D03*
%TD*%
%TO.C,REF\u002A\u002A*%
X162900000Y-38800000D03*
%TD*%
%TO.C,REF\u002A\u002A*%
X46000000Y-39400000D03*
%TD*%
D15*
%TO.C,REF\u002A\u002A*%
X51300000Y-74885000D03*
X27500000Y-74885000D03*
D12*
X51300000Y-59645000D03*
X27500000Y-59645000D03*
%TD*%
D15*
%TO.C,REF\u002A\u002A*%
X314925000Y-55885000D03*
X291125000Y-55885000D03*
D12*
X314925000Y-40645000D03*
X291125000Y-40645000D03*
%TD*%
D15*
%TO.C,REF\u002A\u002A*%
X317300000Y-74885000D03*
X293500000Y-74885000D03*
D12*
X317300000Y-59645000D03*
X293500000Y-59645000D03*
%TD*%
D15*
%TO.C,REF\u002A\u002A*%
X288800000Y-93885000D03*
X265000000Y-93885000D03*
D12*
X288800000Y-78645000D03*
X265000000Y-78645000D03*
%TD*%
D15*
%TO.C,REF\u002A\u002A*%
X269800000Y-112885000D03*
X246000000Y-112885000D03*
D12*
X269800000Y-97645000D03*
X246000000Y-97645000D03*
%TD*%
D15*
%TO.C,REF\u002A\u002A*%
X158175000Y-112885000D03*
X134375000Y-112885000D03*
D12*
X158175000Y-97645000D03*
X134375000Y-97645000D03*
%TD*%
D15*
%TO.C,REF\u002A\u002A*%
X75050000Y-112885000D03*
X51250000Y-112885000D03*
D12*
X75050000Y-97645000D03*
X51250000Y-97645000D03*
%TD*%
D16*
%TO.C,USB1*%
X51920000Y-21600000D03*
X43280000Y-21600000D03*
D17*
X51920000Y-25780000D03*
X43280000Y-25780000D03*
D18*
X44710000Y-25250000D03*
X50490000Y-25250000D03*
%TD*%
D19*
%TO.C,SW1*%
X22900000Y-90500000D03*
X22900000Y-93500000D03*
%TD*%
M02*
