%TF.GenerationSoftware,KiCad,Pcbnew,5.1.6*%
%TF.CreationDate,2020-07-10T22:02:12+02:00*%
%TF.ProjectId,zedekiel,7a656465-6b69-4656-9c2e-6b696361645f,rev?*%
%TF.SameCoordinates,Original*%
%TF.FileFunction,Soldermask,Bot*%
%TF.FilePolarity,Negative*%
%FSLAX46Y46*%
G04 Gerber Fmt 4.6, Leading zero omitted, Abs format (unit mm)*
G04 Created by KiCad (PCBNEW 5.1.6) date 2020-07-10 22:02:12*
%MOMM*%
%LPD*%
G01*
G04 APERTURE LIST*
%TA.AperFunction,Profile*%
%ADD10C,0.050000*%
%TD*%
%ADD11C,1.500000*%
%ADD12R,2.650000X2.600000*%
%ADD13C,1.801800*%
%ADD14C,4.087800*%
%ADD15C,3.100000*%
%ADD16C,4.600000*%
%ADD17C,3.148000*%
%ADD18C,0.750000*%
%ADD19R,0.400000X1.550000*%
%ADD20R,0.700000X1.550000*%
%ADD21R,2.100000X2.500000*%
%ADD22R,0.900000X0.850000*%
%ADD23R,0.850000X0.900000*%
%ADD24C,0.100000*%
%ADD25R,0.550000X0.700000*%
%ADD26R,1.000000X0.600000*%
%ADD27R,2.100000X2.100000*%
G04 APERTURE END LIST*
D10*
X20400000Y-113400000D02*
X20400000Y-22400000D01*
X22400000Y-115400000D02*
X20400000Y-113400000D01*
X322400000Y-115400000D02*
X22400000Y-115400000D01*
X324400000Y-113400000D02*
X322400000Y-115400000D01*
X324400000Y-22400000D02*
X324400000Y-113400000D01*
X322400000Y-20400000D02*
X324400000Y-22400000D01*
X22400000Y-20400000D02*
X322400000Y-20400000D01*
X20400000Y-22400000D02*
X22400000Y-20400000D01*
D11*
%TO.C,REF\u002A\u002A*%
X321400000Y-112400000D03*
%TD*%
%TO.C,REF\u002A\u002A*%
X23400000Y-23400000D03*
%TD*%
D12*
%TO.C,K66*%
X317710000Y-32440000D03*
D13*
X315230000Y-29900000D03*
X305070000Y-29900000D03*
D14*
X310150000Y-29900000D03*
D15*
X313960000Y-32440000D03*
X307610000Y-34980000D03*
D12*
X303860000Y-34980000D03*
%TD*%
%TO.C,K28*%
X310585000Y-51440000D03*
D13*
X308105000Y-48900000D03*
X297945000Y-48900000D03*
D14*
X303025000Y-48900000D03*
D15*
X306835000Y-51440000D03*
X300485000Y-53980000D03*
D12*
X296735000Y-53980000D03*
%TD*%
%TO.C,K42*%
X312960000Y-70440000D03*
D13*
X310480000Y-67900000D03*
X300320000Y-67900000D03*
D14*
X305400000Y-67900000D03*
D15*
X309210000Y-70440000D03*
X302860000Y-72980000D03*
D12*
X299110000Y-72980000D03*
%TD*%
%TO.C,K56*%
X317710000Y-89440000D03*
D13*
X315230000Y-86900000D03*
X305070000Y-86900000D03*
D14*
X310150000Y-86900000D03*
D15*
X313960000Y-89440000D03*
X307610000Y-91980000D03*
D12*
X303860000Y-91980000D03*
%TD*%
%TO.C,K55*%
X284460000Y-89440000D03*
D13*
X281980000Y-86900000D03*
X271820000Y-86900000D03*
D14*
X276900000Y-86900000D03*
D15*
X280710000Y-89440000D03*
X274360000Y-91980000D03*
D12*
X270610000Y-91980000D03*
%TD*%
%TO.C,K65*%
X282485000Y-110980000D03*
D15*
X286235000Y-110980000D03*
X292585000Y-108440000D03*
D14*
X288775000Y-105900000D03*
D13*
X283695000Y-105900000D03*
X293855000Y-105900000D03*
D12*
X296335000Y-108440000D03*
%TD*%
%TO.C,K64*%
X265460000Y-108440000D03*
D13*
X262980000Y-105900000D03*
X252820000Y-105900000D03*
D14*
X257900000Y-105900000D03*
D15*
X261710000Y-108440000D03*
X255360000Y-110980000D03*
D12*
X251610000Y-110980000D03*
%TD*%
%TO.C,K63*%
X220735000Y-110980000D03*
D15*
X224485000Y-110980000D03*
X230835000Y-108440000D03*
D14*
X227025000Y-105900000D03*
D13*
X221945000Y-105900000D03*
X232105000Y-105900000D03*
D12*
X234585000Y-108440000D03*
%TD*%
%TO.C,K62*%
X196985000Y-110980000D03*
D15*
X200735000Y-110980000D03*
X207085000Y-108440000D03*
D14*
X203275000Y-105900000D03*
D13*
X198195000Y-105900000D03*
X208355000Y-105900000D03*
D12*
X210835000Y-108440000D03*
%TD*%
%TO.C,K61*%
X173235000Y-110980000D03*
D15*
X176985000Y-110980000D03*
X183335000Y-108440000D03*
D14*
X179525000Y-105900000D03*
D13*
X174445000Y-105900000D03*
X184605000Y-105900000D03*
D12*
X187085000Y-108440000D03*
%TD*%
%TO.C,K60*%
X153835000Y-108440000D03*
D13*
X151355000Y-105900000D03*
X141195000Y-105900000D03*
D14*
X146275000Y-105900000D03*
D15*
X150085000Y-108440000D03*
X143735000Y-110980000D03*
D12*
X139985000Y-110980000D03*
%TD*%
%TO.C,K58*%
X87735000Y-110980000D03*
D15*
X91485000Y-110980000D03*
X97835000Y-108440000D03*
D14*
X94025000Y-105900000D03*
D13*
X88945000Y-105900000D03*
X99105000Y-105900000D03*
D12*
X101585000Y-108440000D03*
%TD*%
%TO.C,K57*%
X70710000Y-108440000D03*
D13*
X68230000Y-105900000D03*
X58070000Y-105900000D03*
D14*
X63150000Y-105900000D03*
D15*
X66960000Y-108440000D03*
X60610000Y-110980000D03*
D12*
X56860000Y-110980000D03*
%TD*%
%TO.C,K43*%
X42210000Y-89440000D03*
D13*
X39730000Y-86900000D03*
X29570000Y-86900000D03*
D14*
X34650000Y-86900000D03*
D15*
X38460000Y-89440000D03*
X32110000Y-91980000D03*
D12*
X28360000Y-91980000D03*
%TD*%
%TO.C,K29*%
X46960000Y-70440000D03*
D13*
X44480000Y-67900000D03*
X34320000Y-67900000D03*
D14*
X39400000Y-67900000D03*
D15*
X43210000Y-70440000D03*
X36860000Y-72980000D03*
D12*
X33110000Y-72980000D03*
%TD*%
%TO.C,K15*%
X44585000Y-51440000D03*
D13*
X42105000Y-48900000D03*
X31945000Y-48900000D03*
D14*
X37025000Y-48900000D03*
D15*
X40835000Y-51440000D03*
X34485000Y-53980000D03*
D12*
X30735000Y-53980000D03*
%TD*%
%TO.C,K1*%
X42210000Y-32440000D03*
D13*
X39730000Y-29900000D03*
X29570000Y-29900000D03*
D14*
X34650000Y-29900000D03*
D15*
X38460000Y-32440000D03*
X32110000Y-34980000D03*
D12*
X28360000Y-34980000D03*
%TD*%
%TO.C,K40*%
X251610000Y-72980000D03*
D15*
X255360000Y-72980000D03*
X261710000Y-70440000D03*
D14*
X257900000Y-67900000D03*
D13*
X252820000Y-67900000D03*
X262980000Y-67900000D03*
D12*
X265460000Y-70440000D03*
%TD*%
%TO.C,K47*%
X109110000Y-91980000D03*
D15*
X112860000Y-91980000D03*
X119210000Y-89440000D03*
D14*
X115400000Y-86900000D03*
D13*
X110320000Y-86900000D03*
X120480000Y-86900000D03*
D12*
X122960000Y-89440000D03*
%TD*%
%TO.C,K37*%
X194610000Y-72980000D03*
D15*
X198360000Y-72980000D03*
X204710000Y-70440000D03*
D14*
X200900000Y-67900000D03*
D13*
X195820000Y-67900000D03*
X205980000Y-67900000D03*
D12*
X208460000Y-70440000D03*
%TD*%
%TO.C,K34*%
X137610000Y-72980000D03*
D15*
X141360000Y-72980000D03*
X147710000Y-70440000D03*
D14*
X143900000Y-67900000D03*
D13*
X138820000Y-67900000D03*
X148980000Y-67900000D03*
D12*
X151460000Y-70440000D03*
%TD*%
%TO.C,K32*%
X99610000Y-72980000D03*
D15*
X103360000Y-72980000D03*
X109710000Y-70440000D03*
D14*
X105900000Y-67900000D03*
D13*
X100820000Y-67900000D03*
X110980000Y-67900000D03*
D12*
X113460000Y-70440000D03*
%TD*%
%TO.C,K31*%
X80610000Y-72980000D03*
D15*
X84360000Y-72980000D03*
X90710000Y-70440000D03*
D14*
X86900000Y-67900000D03*
D13*
X81820000Y-67900000D03*
X91980000Y-67900000D03*
D12*
X94460000Y-70440000D03*
%TD*%
%TO.C,K59*%
X109110000Y-110980000D03*
D15*
X112860000Y-110980000D03*
X119210000Y-108440000D03*
D14*
X115400000Y-105900000D03*
D13*
X110320000Y-105900000D03*
X120480000Y-105900000D03*
D12*
X122960000Y-108440000D03*
%TD*%
%TO.C,K54*%
X242110000Y-91980000D03*
D15*
X245860000Y-91980000D03*
X252210000Y-89440000D03*
D14*
X248400000Y-86900000D03*
D13*
X243320000Y-86900000D03*
X253480000Y-86900000D03*
D12*
X255960000Y-89440000D03*
%TD*%
%TO.C,K53*%
X223110000Y-91980000D03*
D15*
X226860000Y-91980000D03*
X233210000Y-89440000D03*
D14*
X229400000Y-86900000D03*
D13*
X224320000Y-86900000D03*
X234480000Y-86900000D03*
D12*
X236960000Y-89440000D03*
%TD*%
%TO.C,K52*%
X204110000Y-91980000D03*
D15*
X207860000Y-91980000D03*
X214210000Y-89440000D03*
D14*
X210400000Y-86900000D03*
D13*
X205320000Y-86900000D03*
X215480000Y-86900000D03*
D12*
X217960000Y-89440000D03*
%TD*%
%TO.C,K51*%
X185110000Y-91980000D03*
D15*
X188860000Y-91980000D03*
X195210000Y-89440000D03*
D14*
X191400000Y-86900000D03*
D13*
X186320000Y-86900000D03*
X196480000Y-86900000D03*
D12*
X198960000Y-89440000D03*
%TD*%
%TO.C,K50*%
X166110000Y-91980000D03*
D15*
X169860000Y-91980000D03*
X176210000Y-89440000D03*
D14*
X172400000Y-86900000D03*
D13*
X167320000Y-86900000D03*
X177480000Y-86900000D03*
D12*
X179960000Y-89440000D03*
%TD*%
%TO.C,K49*%
X147110000Y-91980000D03*
D15*
X150860000Y-91980000D03*
X157210000Y-89440000D03*
D14*
X153400000Y-86900000D03*
D13*
X148320000Y-86900000D03*
X158480000Y-86900000D03*
D12*
X160960000Y-89440000D03*
%TD*%
%TO.C,K48*%
X128110000Y-91980000D03*
D15*
X131860000Y-91980000D03*
X138210000Y-89440000D03*
D14*
X134400000Y-86900000D03*
D13*
X129320000Y-86900000D03*
X139480000Y-86900000D03*
D12*
X141960000Y-89440000D03*
%TD*%
%TO.C,K46*%
X90110000Y-91980000D03*
D15*
X93860000Y-91980000D03*
X100210000Y-89440000D03*
D14*
X96400000Y-86900000D03*
D13*
X91320000Y-86900000D03*
X101480000Y-86900000D03*
D12*
X103960000Y-89440000D03*
%TD*%
%TO.C,K45*%
X71110000Y-91980000D03*
D15*
X74860000Y-91980000D03*
X81210000Y-89440000D03*
D14*
X77400000Y-86900000D03*
D13*
X72320000Y-86900000D03*
X82480000Y-86900000D03*
D12*
X84960000Y-89440000D03*
%TD*%
%TO.C,K44*%
X52110000Y-91980000D03*
D15*
X55860000Y-91980000D03*
X62210000Y-89440000D03*
D14*
X58400000Y-86900000D03*
D13*
X53320000Y-86900000D03*
X63480000Y-86900000D03*
D12*
X65960000Y-89440000D03*
%TD*%
%TO.C,K41*%
X270610000Y-72980000D03*
D15*
X274360000Y-72980000D03*
X280710000Y-70440000D03*
D14*
X276900000Y-67900000D03*
D13*
X271820000Y-67900000D03*
X281980000Y-67900000D03*
D12*
X284460000Y-70440000D03*
%TD*%
%TO.C,K39*%
X232610000Y-72980000D03*
D15*
X236360000Y-72980000D03*
X242710000Y-70440000D03*
D14*
X238900000Y-67900000D03*
D13*
X233820000Y-67900000D03*
X243980000Y-67900000D03*
D12*
X246460000Y-70440000D03*
%TD*%
%TO.C,K38*%
X213610000Y-72980000D03*
D15*
X217360000Y-72980000D03*
X223710000Y-70440000D03*
D14*
X219900000Y-67900000D03*
D13*
X214820000Y-67900000D03*
X224980000Y-67900000D03*
D12*
X227460000Y-70440000D03*
%TD*%
%TO.C,K36*%
X175610000Y-72980000D03*
D15*
X179360000Y-72980000D03*
X185710000Y-70440000D03*
D14*
X181900000Y-67900000D03*
D13*
X176820000Y-67900000D03*
X186980000Y-67900000D03*
D12*
X189460000Y-70440000D03*
%TD*%
%TO.C,K35*%
X156610000Y-72980000D03*
D15*
X160360000Y-72980000D03*
X166710000Y-70440000D03*
D14*
X162900000Y-67900000D03*
D13*
X157820000Y-67900000D03*
X167980000Y-67900000D03*
D12*
X170460000Y-70440000D03*
%TD*%
%TO.C,K33*%
X118610000Y-72980000D03*
D15*
X122360000Y-72980000D03*
X128710000Y-70440000D03*
D14*
X124900000Y-67900000D03*
D13*
X119820000Y-67900000D03*
X129980000Y-67900000D03*
D12*
X132460000Y-70440000D03*
%TD*%
%TO.C,K30*%
X61610000Y-72980000D03*
D15*
X65360000Y-72980000D03*
X71710000Y-70440000D03*
D14*
X67900000Y-67900000D03*
D13*
X62820000Y-67900000D03*
X72980000Y-67900000D03*
D12*
X75460000Y-70440000D03*
%TD*%
%TO.C,K27*%
X265860000Y-53980000D03*
D15*
X269610000Y-53980000D03*
X275960000Y-51440000D03*
D14*
X272150000Y-48900000D03*
D13*
X267070000Y-48900000D03*
X277230000Y-48900000D03*
D12*
X279710000Y-51440000D03*
%TD*%
%TO.C,K26*%
X246860000Y-53980000D03*
D15*
X250610000Y-53980000D03*
X256960000Y-51440000D03*
D14*
X253150000Y-48900000D03*
D13*
X248070000Y-48900000D03*
X258230000Y-48900000D03*
D12*
X260710000Y-51440000D03*
%TD*%
%TO.C,K25*%
X227860000Y-53980000D03*
D15*
X231610000Y-53980000D03*
X237960000Y-51440000D03*
D14*
X234150000Y-48900000D03*
D13*
X229070000Y-48900000D03*
X239230000Y-48900000D03*
D12*
X241710000Y-51440000D03*
%TD*%
%TO.C,K24*%
X208860000Y-53980000D03*
D15*
X212610000Y-53980000D03*
X218960000Y-51440000D03*
D14*
X215150000Y-48900000D03*
D13*
X210070000Y-48900000D03*
X220230000Y-48900000D03*
D12*
X222710000Y-51440000D03*
%TD*%
%TO.C,K23*%
X189860000Y-53980000D03*
D15*
X193610000Y-53980000D03*
X199960000Y-51440000D03*
D14*
X196150000Y-48900000D03*
D13*
X191070000Y-48900000D03*
X201230000Y-48900000D03*
D12*
X203710000Y-51440000D03*
%TD*%
%TO.C,K22*%
X170860000Y-53980000D03*
D15*
X174610000Y-53980000D03*
X180960000Y-51440000D03*
D14*
X177150000Y-48900000D03*
D13*
X172070000Y-48900000D03*
X182230000Y-48900000D03*
D12*
X184710000Y-51440000D03*
%TD*%
%TO.C,K21*%
X151860000Y-53980000D03*
D15*
X155610000Y-53980000D03*
X161960000Y-51440000D03*
D14*
X158150000Y-48900000D03*
D13*
X153070000Y-48900000D03*
X163230000Y-48900000D03*
D12*
X165710000Y-51440000D03*
%TD*%
%TO.C,K20*%
X132860000Y-53980000D03*
D15*
X136610000Y-53980000D03*
X142960000Y-51440000D03*
D14*
X139150000Y-48900000D03*
D13*
X134070000Y-48900000D03*
X144230000Y-48900000D03*
D12*
X146710000Y-51440000D03*
%TD*%
%TO.C,K19*%
X113860000Y-53980000D03*
D15*
X117610000Y-53980000D03*
X123960000Y-51440000D03*
D14*
X120150000Y-48900000D03*
D13*
X115070000Y-48900000D03*
X125230000Y-48900000D03*
D12*
X127710000Y-51440000D03*
%TD*%
%TO.C,K18*%
X94860000Y-53980000D03*
D15*
X98610000Y-53980000D03*
X104960000Y-51440000D03*
D14*
X101150000Y-48900000D03*
D13*
X96070000Y-48900000D03*
X106230000Y-48900000D03*
D12*
X108710000Y-51440000D03*
%TD*%
%TO.C,K17*%
X75860000Y-53980000D03*
D15*
X79610000Y-53980000D03*
X85960000Y-51440000D03*
D14*
X82150000Y-48900000D03*
D13*
X77070000Y-48900000D03*
X87230000Y-48900000D03*
D12*
X89710000Y-51440000D03*
%TD*%
%TO.C,K16*%
X56860000Y-53980000D03*
D15*
X60610000Y-53980000D03*
X66960000Y-51440000D03*
D14*
X63150000Y-48900000D03*
D13*
X58070000Y-48900000D03*
X68230000Y-48900000D03*
D12*
X70710000Y-51440000D03*
%TD*%
%TO.C,K14*%
X280110000Y-34980000D03*
D15*
X283860000Y-34980000D03*
X290210000Y-32440000D03*
D14*
X286400000Y-29900000D03*
D13*
X281320000Y-29900000D03*
X291480000Y-29900000D03*
D12*
X293960000Y-32440000D03*
%TD*%
%TO.C,K13*%
X261110000Y-34980000D03*
D15*
X264860000Y-34980000D03*
X271210000Y-32440000D03*
D14*
X267400000Y-29900000D03*
D13*
X262320000Y-29900000D03*
X272480000Y-29900000D03*
D12*
X274960000Y-32440000D03*
%TD*%
%TO.C,K12*%
X242110000Y-34980000D03*
D15*
X245860000Y-34980000D03*
X252210000Y-32440000D03*
D14*
X248400000Y-29900000D03*
D13*
X243320000Y-29900000D03*
X253480000Y-29900000D03*
D12*
X255960000Y-32440000D03*
%TD*%
%TO.C,K11*%
X223110000Y-34980000D03*
D15*
X226860000Y-34980000D03*
X233210000Y-32440000D03*
D14*
X229400000Y-29900000D03*
D13*
X224320000Y-29900000D03*
X234480000Y-29900000D03*
D12*
X236960000Y-32440000D03*
%TD*%
%TO.C,K10*%
X204110000Y-34980000D03*
D15*
X207860000Y-34980000D03*
X214210000Y-32440000D03*
D14*
X210400000Y-29900000D03*
D13*
X205320000Y-29900000D03*
X215480000Y-29900000D03*
D12*
X217960000Y-32440000D03*
%TD*%
%TO.C,K9*%
X185110000Y-34980000D03*
D15*
X188860000Y-34980000D03*
X195210000Y-32440000D03*
D14*
X191400000Y-29900000D03*
D13*
X186320000Y-29900000D03*
X196480000Y-29900000D03*
D12*
X198960000Y-32440000D03*
%TD*%
%TO.C,K8*%
X166110000Y-34980000D03*
D15*
X169860000Y-34980000D03*
X176210000Y-32440000D03*
D14*
X172400000Y-29900000D03*
D13*
X167320000Y-29900000D03*
X177480000Y-29900000D03*
D12*
X179960000Y-32440000D03*
%TD*%
%TO.C,K7*%
X147110000Y-34980000D03*
D15*
X150860000Y-34980000D03*
X157210000Y-32440000D03*
D14*
X153400000Y-29900000D03*
D13*
X148320000Y-29900000D03*
X158480000Y-29900000D03*
D12*
X160960000Y-32440000D03*
%TD*%
%TO.C,K6*%
X128110000Y-34980000D03*
D15*
X131860000Y-34980000D03*
X138210000Y-32440000D03*
D14*
X134400000Y-29900000D03*
D13*
X129320000Y-29900000D03*
X139480000Y-29900000D03*
D12*
X141960000Y-32440000D03*
%TD*%
%TO.C,K5*%
X109110000Y-34980000D03*
D15*
X112860000Y-34980000D03*
X119210000Y-32440000D03*
D14*
X115400000Y-29900000D03*
D13*
X110320000Y-29900000D03*
X120480000Y-29900000D03*
D12*
X122960000Y-32440000D03*
%TD*%
%TO.C,K4*%
X90110000Y-34980000D03*
D15*
X93860000Y-34980000D03*
X100210000Y-32440000D03*
D14*
X96400000Y-29900000D03*
D13*
X91320000Y-29900000D03*
X101480000Y-29900000D03*
D12*
X103960000Y-32440000D03*
%TD*%
%TO.C,K3*%
X71110000Y-34980000D03*
D15*
X74860000Y-34980000D03*
X81210000Y-32440000D03*
D14*
X77400000Y-29900000D03*
D13*
X72320000Y-29900000D03*
X82480000Y-29900000D03*
D12*
X84960000Y-32440000D03*
%TD*%
%TO.C,K2*%
X52110000Y-34980000D03*
D15*
X55860000Y-34980000D03*
X62210000Y-32440000D03*
D14*
X58400000Y-29900000D03*
D13*
X53320000Y-29900000D03*
X63480000Y-29900000D03*
D12*
X65960000Y-32440000D03*
%TD*%
D16*
%TO.C,REF\u002A\u002A*%
X297000000Y-95000000D03*
%TD*%
%TO.C,REF\u002A\u002A*%
X166400000Y-105900000D03*
%TD*%
%TO.C,REF\u002A\u002A*%
X248400000Y-65500000D03*
%TD*%
%TO.C,REF\u002A\u002A*%
X115400000Y-65500000D03*
%TD*%
%TO.C,REF\u002A\u002A*%
X47400000Y-88800000D03*
%TD*%
%TO.C,REF\u002A\u002A*%
X298900000Y-35400000D03*
%TD*%
%TO.C,REF\u002A\u002A*%
X162900000Y-38800000D03*
%TD*%
%TO.C,REF\u002A\u002A*%
X46000000Y-39400000D03*
%TD*%
D17*
%TO.C,REF\u002A\u002A*%
X51300000Y-74885000D03*
X27500000Y-74885000D03*
D14*
X51300000Y-59645000D03*
X27500000Y-59645000D03*
%TD*%
D17*
%TO.C,REF\u002A\u002A*%
X314925000Y-55885000D03*
X291125000Y-55885000D03*
D14*
X314925000Y-40645000D03*
X291125000Y-40645000D03*
%TD*%
D17*
%TO.C,REF\u002A\u002A*%
X317300000Y-74885000D03*
X293500000Y-74885000D03*
D14*
X317300000Y-59645000D03*
X293500000Y-59645000D03*
%TD*%
D17*
%TO.C,REF\u002A\u002A*%
X288800000Y-93885000D03*
X265000000Y-93885000D03*
D14*
X288800000Y-78645000D03*
X265000000Y-78645000D03*
%TD*%
D17*
%TO.C,REF\u002A\u002A*%
X269800000Y-112885000D03*
X246000000Y-112885000D03*
D14*
X269800000Y-97645000D03*
X246000000Y-97645000D03*
%TD*%
D17*
%TO.C,REF\u002A\u002A*%
X158175000Y-112885000D03*
X134375000Y-112885000D03*
D14*
X158175000Y-97645000D03*
X134375000Y-97645000D03*
%TD*%
D17*
%TO.C,REF\u002A\u002A*%
X75050000Y-112885000D03*
X51250000Y-112885000D03*
D14*
X75050000Y-97645000D03*
X51250000Y-97645000D03*
%TD*%
D18*
%TO.C,USB1*%
X44710000Y-25250000D03*
X50490000Y-25250000D03*
D19*
X47350000Y-26695000D03*
X47850000Y-26695000D03*
X48350000Y-26695000D03*
X46850000Y-26695000D03*
X48850000Y-26695000D03*
X46350000Y-26695000D03*
X49350000Y-26695000D03*
X45850000Y-26695000D03*
D20*
X45150000Y-26695000D03*
X50050000Y-26695000D03*
X44375000Y-26695000D03*
X50825000Y-26695000D03*
%TD*%
D21*
%TO.C,X1*%
X24200000Y-111625000D03*
X27900000Y-111625000D03*
%TD*%
D22*
%TO.C,C1*%
X25100000Y-107200000D03*
X23600000Y-107200000D03*
%TD*%
D23*
%TO.C,C8*%
X22900000Y-100200000D03*
X22900000Y-101700000D03*
%TD*%
D24*
%TO.C,C7*%
G36*
X42570622Y-95421662D02*
G01*
X43171662Y-94820622D01*
X43808058Y-95457018D01*
X43207018Y-96058058D01*
X42570622Y-95421662D01*
G37*
G36*
X43631282Y-96482322D02*
G01*
X44232322Y-95881282D01*
X44868718Y-96517678D01*
X44267678Y-97118718D01*
X43631282Y-96482322D01*
G37*
%TD*%
%TO.C,C6*%
G36*
X32011992Y-96999048D02*
G01*
X31410952Y-96398008D01*
X32047348Y-95761612D01*
X32648388Y-96362652D01*
X32011992Y-96999048D01*
G37*
G36*
X33072652Y-95938388D02*
G01*
X32471612Y-95337348D01*
X33108008Y-94700952D01*
X33709048Y-95301992D01*
X33072652Y-95938388D01*
G37*
%TD*%
%TO.C,C5*%
G36*
X47348008Y-108150952D02*
G01*
X47949048Y-108751992D01*
X47312652Y-109388388D01*
X46711612Y-108787348D01*
X47348008Y-108150952D01*
G37*
G36*
X46287348Y-109211612D02*
G01*
X46888388Y-109812652D01*
X46251992Y-110449048D01*
X45650952Y-109848008D01*
X46287348Y-109211612D01*
G37*
%TD*%
%TO.C,C4*%
G36*
X29421662Y-99479378D02*
G01*
X28820622Y-98878338D01*
X29457018Y-98241942D01*
X30058058Y-98842982D01*
X29421662Y-99479378D01*
G37*
G36*
X30482322Y-98418718D02*
G01*
X29881282Y-97817678D01*
X30517678Y-97181282D01*
X31118718Y-97782322D01*
X30482322Y-98418718D01*
G37*
%TD*%
D22*
%TO.C,C3*%
X25100000Y-108800000D03*
X23600000Y-108800000D03*
%TD*%
%TO.C,C2*%
X28500000Y-108800000D03*
X27000000Y-108800000D03*
%TD*%
D25*
%TO.C,D1*%
X42600000Y-36850000D03*
X42600000Y-34750000D03*
%TD*%
%TO.C,D26*%
X261200000Y-55850000D03*
X261200000Y-53750000D03*
%TD*%
%TO.C,D7*%
X158500000Y-40150000D03*
X158500000Y-38050000D03*
%TD*%
%TO.C,D66*%
X318200000Y-36850000D03*
X318200000Y-34750000D03*
%TD*%
%TO.C,D65*%
X296600000Y-112850000D03*
X296600000Y-110750000D03*
%TD*%
%TO.C,D64*%
X265800000Y-112850000D03*
X265800000Y-110750000D03*
%TD*%
%TO.C,D63*%
X235000000Y-112850000D03*
X235000000Y-110750000D03*
%TD*%
%TO.C,D62*%
X211200000Y-112850000D03*
X211200000Y-110750000D03*
%TD*%
%TO.C,D61*%
X187400000Y-112850000D03*
X187400000Y-110750000D03*
%TD*%
%TO.C,D60*%
X154200000Y-112850000D03*
X154200000Y-110750000D03*
%TD*%
%TO.C,D59*%
X123400000Y-112850000D03*
X123400000Y-110750000D03*
%TD*%
%TO.C,D58*%
X102000000Y-112850000D03*
X102000000Y-110750000D03*
%TD*%
%TO.C,D57*%
X71200000Y-112850000D03*
X71200000Y-110750000D03*
%TD*%
%TO.C,D56*%
X318200000Y-93850000D03*
X318200000Y-91750000D03*
%TD*%
%TO.C,D55*%
X285000000Y-93850000D03*
X285000000Y-91750000D03*
%TD*%
%TO.C,D54*%
X256400000Y-93850000D03*
X256400000Y-91750000D03*
%TD*%
%TO.C,D53*%
X237400000Y-93850000D03*
X237400000Y-91750000D03*
%TD*%
%TO.C,D52*%
X218400000Y-93850000D03*
X218400000Y-91750000D03*
%TD*%
%TO.C,D51*%
X199400000Y-93850000D03*
X199400000Y-91750000D03*
%TD*%
%TO.C,D50*%
X180400000Y-93850000D03*
X180400000Y-91750000D03*
%TD*%
%TO.C,D49*%
X161400000Y-93850000D03*
X161400000Y-91750000D03*
%TD*%
%TO.C,D48*%
X142400000Y-93850000D03*
X142400000Y-91750000D03*
%TD*%
%TO.C,D47*%
X123400000Y-93850000D03*
X123400000Y-91750000D03*
%TD*%
%TO.C,D46*%
X104400000Y-93850000D03*
X104400000Y-91750000D03*
%TD*%
%TO.C,D45*%
X85400000Y-93850000D03*
X85400000Y-91750000D03*
%TD*%
%TO.C,D44*%
X66400000Y-93850000D03*
X66400000Y-91750000D03*
%TD*%
%TO.C,D43*%
X42600000Y-93850000D03*
X42600000Y-91750000D03*
%TD*%
%TO.C,D42*%
X313400000Y-74850000D03*
X313400000Y-72750000D03*
%TD*%
%TO.C,D41*%
X285000000Y-74850000D03*
X285000000Y-72750000D03*
%TD*%
%TO.C,D40*%
X266000000Y-74850000D03*
X266000000Y-72750000D03*
%TD*%
%TO.C,D39*%
X247000000Y-74850000D03*
X247000000Y-72750000D03*
%TD*%
%TO.C,D38*%
X228000000Y-74850000D03*
X228000000Y-72750000D03*
%TD*%
%TO.C,D37*%
X209000000Y-74850000D03*
X209000000Y-72750000D03*
%TD*%
%TO.C,D36*%
X190000000Y-74850000D03*
X190000000Y-72750000D03*
%TD*%
%TO.C,D35*%
X171000000Y-74850000D03*
X171000000Y-72750000D03*
%TD*%
%TO.C,D34*%
X152000000Y-74850000D03*
X152000000Y-72750000D03*
%TD*%
%TO.C,D33*%
X133000000Y-74850000D03*
X133000000Y-72750000D03*
%TD*%
%TO.C,D32*%
X114000000Y-74850000D03*
X114000000Y-72750000D03*
%TD*%
%TO.C,D31*%
X95000000Y-74850000D03*
X95000000Y-72750000D03*
%TD*%
%TO.C,D30*%
X76000000Y-74850000D03*
X76000000Y-72750000D03*
%TD*%
%TO.C,D29*%
X47400000Y-74850000D03*
X47400000Y-72750000D03*
%TD*%
%TO.C,D28*%
X311000000Y-55850000D03*
X311000000Y-53750000D03*
%TD*%
%TO.C,D27*%
X280200000Y-55850000D03*
X280200000Y-53750000D03*
%TD*%
%TO.C,D25*%
X242200000Y-55850000D03*
X242200000Y-53750000D03*
%TD*%
%TO.C,D24*%
X223200000Y-55850000D03*
X223200000Y-53750000D03*
%TD*%
%TO.C,D23*%
X204200000Y-55850000D03*
X204200000Y-53750000D03*
%TD*%
%TO.C,D22*%
X185200000Y-55850000D03*
X185200000Y-53750000D03*
%TD*%
%TO.C,D21*%
X166200000Y-55850000D03*
X166200000Y-53750000D03*
%TD*%
%TO.C,D20*%
X147200000Y-55850000D03*
X147200000Y-53750000D03*
%TD*%
%TO.C,D19*%
X128200000Y-55850000D03*
X128200000Y-53750000D03*
%TD*%
%TO.C,D18*%
X109200000Y-55850000D03*
X109200000Y-53750000D03*
%TD*%
%TO.C,D17*%
X90200000Y-55850000D03*
X90200000Y-53750000D03*
%TD*%
%TO.C,D16*%
X71200000Y-55850000D03*
X71200000Y-53750000D03*
%TD*%
%TO.C,D15*%
X45000000Y-55850000D03*
X45000000Y-53750000D03*
%TD*%
%TO.C,D14*%
X294400000Y-36850000D03*
X294400000Y-34750000D03*
%TD*%
%TO.C,D13*%
X275400000Y-36850000D03*
X275400000Y-34750000D03*
%TD*%
%TO.C,D12*%
X256400000Y-36850000D03*
X256400000Y-34750000D03*
%TD*%
%TO.C,D11*%
X237400000Y-36850000D03*
X237400000Y-34750000D03*
%TD*%
%TO.C,D10*%
X218400000Y-36850000D03*
X218400000Y-34750000D03*
%TD*%
%TO.C,D9*%
X199400000Y-36850000D03*
X199400000Y-34750000D03*
%TD*%
%TO.C,D8*%
X180400000Y-36850000D03*
X180400000Y-34750000D03*
%TD*%
%TO.C,D6*%
X142400000Y-36850000D03*
X142400000Y-34750000D03*
%TD*%
%TO.C,D5*%
X123400000Y-36850000D03*
X123400000Y-34750000D03*
%TD*%
%TO.C,D4*%
X104400000Y-36850000D03*
X104400000Y-34750000D03*
%TD*%
%TO.C,D3*%
X85400000Y-36850000D03*
X85400000Y-34750000D03*
%TD*%
%TO.C,D2*%
X66400000Y-36850000D03*
X66400000Y-34750000D03*
%TD*%
D26*
%TO.C,R2*%
X45200000Y-30600000D03*
X45200000Y-29100000D03*
%TD*%
D24*
%TO.C,R6*%
G36*
X43971751Y-112835355D02*
G01*
X43264645Y-112128249D01*
X43688909Y-111703985D01*
X44396015Y-112411091D01*
X43971751Y-112835355D01*
G37*
G36*
X42911091Y-113896015D02*
G01*
X42203985Y-113188909D01*
X42628249Y-112764645D01*
X43335355Y-113471751D01*
X42911091Y-113896015D01*
G37*
%TD*%
D26*
%TO.C,R5*%
X46800000Y-29100000D03*
X46800000Y-30600000D03*
%TD*%
%TO.C,R4*%
X48400000Y-29100000D03*
X48400000Y-30600000D03*
%TD*%
%TO.C,R3*%
X50000000Y-30600000D03*
X50000000Y-29100000D03*
%TD*%
%TO.C,R1*%
X22900000Y-97150000D03*
X22900000Y-98650000D03*
%TD*%
D24*
%TO.C,U1*%
G36*
X31676940Y-104806587D02*
G01*
X32136559Y-105266206D01*
X31005188Y-106397577D01*
X30545569Y-105937958D01*
X31676940Y-104806587D01*
G37*
G36*
X32242626Y-105372272D02*
G01*
X32702245Y-105831891D01*
X31570874Y-106963262D01*
X31111255Y-106503643D01*
X32242626Y-105372272D01*
G37*
G36*
X32808311Y-105937957D02*
G01*
X33267930Y-106397576D01*
X32136559Y-107528947D01*
X31676940Y-107069328D01*
X32808311Y-105937957D01*
G37*
G36*
X33373996Y-106503643D02*
G01*
X33833615Y-106963262D01*
X32702244Y-108094633D01*
X32242625Y-107635014D01*
X33373996Y-106503643D01*
G37*
G36*
X33939682Y-107069328D02*
G01*
X34399301Y-107528947D01*
X33267930Y-108660318D01*
X32808311Y-108200699D01*
X33939682Y-107069328D01*
G37*
G36*
X34505367Y-107635014D02*
G01*
X34964986Y-108094633D01*
X33833615Y-109226004D01*
X33373996Y-108766385D01*
X34505367Y-107635014D01*
G37*
G36*
X35071053Y-108200699D02*
G01*
X35530672Y-108660318D01*
X34399301Y-109791689D01*
X33939682Y-109332070D01*
X35071053Y-108200699D01*
G37*
G36*
X35636738Y-108766385D02*
G01*
X36096357Y-109226004D01*
X34964986Y-110357375D01*
X34505367Y-109897756D01*
X35636738Y-108766385D01*
G37*
G36*
X36202424Y-109332070D02*
G01*
X36662043Y-109791689D01*
X35530672Y-110923060D01*
X35071053Y-110463441D01*
X36202424Y-109332070D01*
G37*
G36*
X36768109Y-109897755D02*
G01*
X37227728Y-110357374D01*
X36096357Y-111488745D01*
X35636738Y-111029126D01*
X36768109Y-109897755D01*
G37*
G36*
X37333794Y-110463441D02*
G01*
X37793413Y-110923060D01*
X36662042Y-112054431D01*
X36202423Y-111594812D01*
X37333794Y-110463441D01*
G37*
G36*
X38606587Y-110923060D02*
G01*
X39066206Y-110463441D01*
X40197577Y-111594812D01*
X39737958Y-112054431D01*
X38606587Y-110923060D01*
G37*
G36*
X39172272Y-110357374D02*
G01*
X39631891Y-109897755D01*
X40763262Y-111029126D01*
X40303643Y-111488745D01*
X39172272Y-110357374D01*
G37*
G36*
X39737957Y-109791689D02*
G01*
X40197576Y-109332070D01*
X41328947Y-110463441D01*
X40869328Y-110923060D01*
X39737957Y-109791689D01*
G37*
G36*
X40303643Y-109226004D02*
G01*
X40763262Y-108766385D01*
X41894633Y-109897756D01*
X41435014Y-110357375D01*
X40303643Y-109226004D01*
G37*
G36*
X40869328Y-108660318D02*
G01*
X41328947Y-108200699D01*
X42460318Y-109332070D01*
X42000699Y-109791689D01*
X40869328Y-108660318D01*
G37*
G36*
X41435014Y-108094633D02*
G01*
X41894633Y-107635014D01*
X43026004Y-108766385D01*
X42566385Y-109226004D01*
X41435014Y-108094633D01*
G37*
G36*
X42000699Y-107528947D02*
G01*
X42460318Y-107069328D01*
X43591689Y-108200699D01*
X43132070Y-108660318D01*
X42000699Y-107528947D01*
G37*
G36*
X42566385Y-106963262D02*
G01*
X43026004Y-106503643D01*
X44157375Y-107635014D01*
X43697756Y-108094633D01*
X42566385Y-106963262D01*
G37*
G36*
X43132070Y-106397576D02*
G01*
X43591689Y-105937957D01*
X44723060Y-107069328D01*
X44263441Y-107528947D01*
X43132070Y-106397576D01*
G37*
G36*
X43697755Y-105831891D02*
G01*
X44157374Y-105372272D01*
X45288745Y-106503643D01*
X44829126Y-106963262D01*
X43697755Y-105831891D01*
G37*
G36*
X44263441Y-105266206D02*
G01*
X44723060Y-104806587D01*
X45854431Y-105937958D01*
X45394812Y-106397577D01*
X44263441Y-105266206D01*
G37*
G36*
X45394812Y-102402423D02*
G01*
X45854431Y-102862042D01*
X44723060Y-103993413D01*
X44263441Y-103533794D01*
X45394812Y-102402423D01*
G37*
G36*
X44829126Y-101836738D02*
G01*
X45288745Y-102296357D01*
X44157374Y-103427728D01*
X43697755Y-102968109D01*
X44829126Y-101836738D01*
G37*
G36*
X44263441Y-101271053D02*
G01*
X44723060Y-101730672D01*
X43591689Y-102862043D01*
X43132070Y-102402424D01*
X44263441Y-101271053D01*
G37*
G36*
X43697756Y-100705367D02*
G01*
X44157375Y-101164986D01*
X43026004Y-102296357D01*
X42566385Y-101836738D01*
X43697756Y-100705367D01*
G37*
G36*
X43132070Y-100139682D02*
G01*
X43591689Y-100599301D01*
X42460318Y-101730672D01*
X42000699Y-101271053D01*
X43132070Y-100139682D01*
G37*
G36*
X42566385Y-99573996D02*
G01*
X43026004Y-100033615D01*
X41894633Y-101164986D01*
X41435014Y-100705367D01*
X42566385Y-99573996D01*
G37*
G36*
X42000699Y-99008311D02*
G01*
X42460318Y-99467930D01*
X41328947Y-100599301D01*
X40869328Y-100139682D01*
X42000699Y-99008311D01*
G37*
G36*
X41435014Y-98442625D02*
G01*
X41894633Y-98902244D01*
X40763262Y-100033615D01*
X40303643Y-99573996D01*
X41435014Y-98442625D01*
G37*
G36*
X40869328Y-97876940D02*
G01*
X41328947Y-98336559D01*
X40197576Y-99467930D01*
X39737957Y-99008311D01*
X40869328Y-97876940D01*
G37*
G36*
X40303643Y-97311255D02*
G01*
X40763262Y-97770874D01*
X39631891Y-98902245D01*
X39172272Y-98442626D01*
X40303643Y-97311255D01*
G37*
G36*
X39737958Y-96745569D02*
G01*
X40197577Y-97205188D01*
X39066206Y-98336559D01*
X38606587Y-97876940D01*
X39737958Y-96745569D01*
G37*
G36*
X36202423Y-97205188D02*
G01*
X36662042Y-96745569D01*
X37793413Y-97876940D01*
X37333794Y-98336559D01*
X36202423Y-97205188D01*
G37*
G36*
X35636738Y-97770874D02*
G01*
X36096357Y-97311255D01*
X37227728Y-98442626D01*
X36768109Y-98902245D01*
X35636738Y-97770874D01*
G37*
G36*
X35071053Y-98336559D02*
G01*
X35530672Y-97876940D01*
X36662043Y-99008311D01*
X36202424Y-99467930D01*
X35071053Y-98336559D01*
G37*
G36*
X34505367Y-98902244D02*
G01*
X34964986Y-98442625D01*
X36096357Y-99573996D01*
X35636738Y-100033615D01*
X34505367Y-98902244D01*
G37*
G36*
X33939682Y-99467930D02*
G01*
X34399301Y-99008311D01*
X35530672Y-100139682D01*
X35071053Y-100599301D01*
X33939682Y-99467930D01*
G37*
G36*
X33373996Y-100033615D02*
G01*
X33833615Y-99573996D01*
X34964986Y-100705367D01*
X34505367Y-101164986D01*
X33373996Y-100033615D01*
G37*
G36*
X32808311Y-100599301D02*
G01*
X33267930Y-100139682D01*
X34399301Y-101271053D01*
X33939682Y-101730672D01*
X32808311Y-100599301D01*
G37*
G36*
X32242625Y-101164986D02*
G01*
X32702244Y-100705367D01*
X33833615Y-101836738D01*
X33373996Y-102296357D01*
X32242625Y-101164986D01*
G37*
G36*
X31676940Y-101730672D02*
G01*
X32136559Y-101271053D01*
X33267930Y-102402424D01*
X32808311Y-102862043D01*
X31676940Y-101730672D01*
G37*
G36*
X31111255Y-102296357D02*
G01*
X31570874Y-101836738D01*
X32702245Y-102968109D01*
X32242626Y-103427728D01*
X31111255Y-102296357D01*
G37*
G36*
X30545569Y-102862042D02*
G01*
X31005188Y-102402423D01*
X32136559Y-103533794D01*
X31676940Y-103993413D01*
X30545569Y-102862042D01*
G37*
%TD*%
D27*
%TO.C,TP6*%
X22900000Y-76400000D03*
%TD*%
%TO.C,TP6*%
X22900000Y-78900000D03*
%TD*%
%TO.C,TP10*%
X22900000Y-86400000D03*
%TD*%
%TO.C,TP9*%
X22900000Y-83900000D03*
%TD*%
%TO.C,TP8*%
X22900000Y-81400000D03*
%TD*%
%TO.C,TP7*%
X53000000Y-108750000D03*
%TD*%
%TO.C,TP6*%
X53000000Y-103600000D03*
%TD*%
%TO.C,TP5*%
X53000000Y-106180000D03*
%TD*%
%TO.C,TP4*%
X64400000Y-23900000D03*
%TD*%
%TO.C,TP3*%
X61900000Y-23900000D03*
%TD*%
%TO.C,TP2*%
X59400000Y-23900000D03*
%TD*%
%TO.C,TP1*%
X56900000Y-23900000D03*
%TD*%
M02*
