%TF.GenerationSoftware,KiCad,Pcbnew,(5.1.4)-1*%
%TF.CreationDate,2020-07-12T16:14:56+02:00*%
%TF.ProjectId,zedekiel,7a656465-6b69-4656-9c2e-6b696361645f,rev?*%
%TF.SameCoordinates,Original*%
%TF.FileFunction,Legend,Bot*%
%TF.FilePolarity,Positive*%
%FSLAX46Y46*%
G04 Gerber Fmt 4.6, Leading zero omitted, Abs format (unit mm)*
G04 Created by KiCad (PCBNEW (5.1.4)-1) date 2020-07-12 16:14:56*
%MOMM*%
%LPD*%
G04 APERTURE LIST*
%ADD10C,0.150000*%
%ADD11C,0.050000*%
%ADD12C,0.100000*%
%ADD13C,0.120000*%
%ADD14C,0.010000*%
G04 APERTURE END LIST*
D10*
X22377380Y-62305952D02*
X23091666Y-62305952D01*
X23234523Y-62258333D01*
X23329761Y-62163095D01*
X23377380Y-62020238D01*
X23377380Y-61925000D01*
X23377380Y-63258333D02*
X23377380Y-62782142D01*
X22377380Y-62782142D01*
X23282142Y-64163095D02*
X23329761Y-64115476D01*
X23377380Y-63972619D01*
X23377380Y-63877380D01*
X23329761Y-63734523D01*
X23234523Y-63639285D01*
X23139285Y-63591666D01*
X22948809Y-63544047D01*
X22805952Y-63544047D01*
X22615476Y-63591666D01*
X22520238Y-63639285D01*
X22425000Y-63734523D01*
X22377380Y-63877380D01*
X22377380Y-63972619D01*
X22425000Y-64115476D01*
X22472619Y-64163095D01*
X22377380Y-64877380D02*
X23091666Y-64877380D01*
X23234523Y-64829761D01*
X23329761Y-64734523D01*
X23377380Y-64591666D01*
X23377380Y-64496428D01*
X23377380Y-65829761D02*
X23377380Y-65353571D01*
X22377380Y-65353571D01*
X23282142Y-66734523D02*
X23329761Y-66686904D01*
X23377380Y-66544047D01*
X23377380Y-66448809D01*
X23329761Y-66305952D01*
X23234523Y-66210714D01*
X23139285Y-66163095D01*
X22948809Y-66115476D01*
X22805952Y-66115476D01*
X22615476Y-66163095D01*
X22520238Y-66210714D01*
X22425000Y-66305952D01*
X22377380Y-66448809D01*
X22377380Y-66544047D01*
X22425000Y-66686904D01*
X22472619Y-66734523D01*
X22377380Y-67448809D02*
X23091666Y-67448809D01*
X23234523Y-67401190D01*
X23329761Y-67305952D01*
X23377380Y-67163095D01*
X23377380Y-67067857D01*
X23377380Y-68401190D02*
X23377380Y-67925000D01*
X22377380Y-67925000D01*
X23282142Y-69305952D02*
X23329761Y-69258333D01*
X23377380Y-69115476D01*
X23377380Y-69020238D01*
X23329761Y-68877380D01*
X23234523Y-68782142D01*
X23139285Y-68734523D01*
X22948809Y-68686904D01*
X22805952Y-68686904D01*
X22615476Y-68734523D01*
X22520238Y-68782142D01*
X22425000Y-68877380D01*
X22377380Y-69020238D01*
X22377380Y-69115476D01*
X22425000Y-69258333D01*
X22472619Y-69305952D01*
X22377380Y-70020238D02*
X23091666Y-70020238D01*
X23234523Y-69972619D01*
X23329761Y-69877380D01*
X23377380Y-69734523D01*
X23377380Y-69639285D01*
X23377380Y-70972619D02*
X23377380Y-70496428D01*
X22377380Y-70496428D01*
X23282142Y-71877380D02*
X23329761Y-71829761D01*
X23377380Y-71686904D01*
X23377380Y-71591666D01*
X23329761Y-71448809D01*
X23234523Y-71353571D01*
X23139285Y-71305952D01*
X22948809Y-71258333D01*
X22805952Y-71258333D01*
X22615476Y-71305952D01*
X22520238Y-71353571D01*
X22425000Y-71448809D01*
X22377380Y-71591666D01*
X22377380Y-71686904D01*
X22425000Y-71829761D01*
X22472619Y-71877380D01*
X56797500Y-108916666D02*
X56368928Y-108916666D01*
X56883214Y-109116666D02*
X56583214Y-108416666D01*
X56283214Y-109116666D01*
X55983214Y-109116666D02*
X55983214Y-108416666D01*
X55768928Y-108416666D01*
X55640357Y-108450000D01*
X55554642Y-108516666D01*
X55511785Y-108583333D01*
X55468928Y-108716666D01*
X55468928Y-108816666D01*
X55511785Y-108950000D01*
X55554642Y-109016666D01*
X55640357Y-109083333D01*
X55768928Y-109116666D01*
X55983214Y-109116666D01*
X54568928Y-109050000D02*
X54611785Y-109083333D01*
X54740357Y-109116666D01*
X54826071Y-109116666D01*
X54954642Y-109083333D01*
X55040357Y-109016666D01*
X55083214Y-108950000D01*
X55126071Y-108816666D01*
X55126071Y-108716666D01*
X55083214Y-108583333D01*
X55040357Y-108516666D01*
X54954642Y-108450000D01*
X54826071Y-108416666D01*
X54740357Y-108416666D01*
X54611785Y-108450000D01*
X54568928Y-108483333D01*
X56782857Y-106423333D02*
X56654285Y-106456666D01*
X56440000Y-106456666D01*
X56354285Y-106423333D01*
X56311428Y-106390000D01*
X56268571Y-106323333D01*
X56268571Y-106256666D01*
X56311428Y-106190000D01*
X56354285Y-106156666D01*
X56440000Y-106123333D01*
X56611428Y-106090000D01*
X56697142Y-106056666D01*
X56740000Y-106023333D01*
X56782857Y-105956666D01*
X56782857Y-105890000D01*
X56740000Y-105823333D01*
X56697142Y-105790000D01*
X56611428Y-105756666D01*
X56397142Y-105756666D01*
X56268571Y-105790000D01*
X55882857Y-106456666D02*
X55882857Y-105756666D01*
X55668571Y-105756666D01*
X55540000Y-105790000D01*
X55454285Y-105856666D01*
X55411428Y-105923333D01*
X55368571Y-106056666D01*
X55368571Y-106156666D01*
X55411428Y-106290000D01*
X55454285Y-106356666D01*
X55540000Y-106423333D01*
X55668571Y-106456666D01*
X55882857Y-106456666D01*
X55025714Y-106256666D02*
X54597142Y-106256666D01*
X55111428Y-106456666D02*
X54811428Y-105756666D01*
X54511428Y-106456666D01*
X56771428Y-103883333D02*
X56642857Y-103916666D01*
X56428571Y-103916666D01*
X56342857Y-103883333D01*
X56300000Y-103850000D01*
X56257142Y-103783333D01*
X56257142Y-103716666D01*
X56300000Y-103650000D01*
X56342857Y-103616666D01*
X56428571Y-103583333D01*
X56600000Y-103550000D01*
X56685714Y-103516666D01*
X56728571Y-103483333D01*
X56771428Y-103416666D01*
X56771428Y-103350000D01*
X56728571Y-103283333D01*
X56685714Y-103250000D01*
X56600000Y-103216666D01*
X56385714Y-103216666D01*
X56257142Y-103250000D01*
X55357142Y-103850000D02*
X55400000Y-103883333D01*
X55528571Y-103916666D01*
X55614285Y-103916666D01*
X55742857Y-103883333D01*
X55828571Y-103816666D01*
X55871428Y-103750000D01*
X55914285Y-103616666D01*
X55914285Y-103516666D01*
X55871428Y-103383333D01*
X55828571Y-103316666D01*
X55742857Y-103250000D01*
X55614285Y-103216666D01*
X55528571Y-103216666D01*
X55400000Y-103250000D01*
X55357142Y-103283333D01*
X54542857Y-103916666D02*
X54971428Y-103916666D01*
X54971428Y-103216666D01*
X27521428Y-86683333D02*
X27392857Y-86716666D01*
X27178571Y-86716666D01*
X27092857Y-86683333D01*
X27050000Y-86650000D01*
X27007142Y-86583333D01*
X27007142Y-86516666D01*
X27050000Y-86450000D01*
X27092857Y-86416666D01*
X27178571Y-86383333D01*
X27350000Y-86350000D01*
X27435714Y-86316666D01*
X27478571Y-86283333D01*
X27521428Y-86216666D01*
X27521428Y-86150000D01*
X27478571Y-86083333D01*
X27435714Y-86050000D01*
X27350000Y-86016666D01*
X27135714Y-86016666D01*
X27007142Y-86050000D01*
X26107142Y-86650000D02*
X26150000Y-86683333D01*
X26278571Y-86716666D01*
X26364285Y-86716666D01*
X26492857Y-86683333D01*
X26578571Y-86616666D01*
X26621428Y-86550000D01*
X26664285Y-86416666D01*
X26664285Y-86316666D01*
X26621428Y-86183333D01*
X26578571Y-86116666D01*
X26492857Y-86050000D01*
X26364285Y-86016666D01*
X26278571Y-86016666D01*
X26150000Y-86050000D01*
X26107142Y-86083333D01*
X25292857Y-86716666D02*
X25721428Y-86716666D01*
X25721428Y-86016666D01*
X24992857Y-86716666D02*
X24992857Y-86016666D01*
X24478571Y-86716666D02*
X24864285Y-86316666D01*
X24478571Y-86016666D02*
X24992857Y-86416666D01*
X27314285Y-84256666D02*
X27314285Y-83556666D01*
X27014285Y-84056666D01*
X26714285Y-83556666D01*
X26714285Y-84256666D01*
X26114285Y-83556666D02*
X25942857Y-83556666D01*
X25857142Y-83590000D01*
X25771428Y-83656666D01*
X25728571Y-83790000D01*
X25728571Y-84023333D01*
X25771428Y-84156666D01*
X25857142Y-84223333D01*
X25942857Y-84256666D01*
X26114285Y-84256666D01*
X26200000Y-84223333D01*
X26285714Y-84156666D01*
X26328571Y-84023333D01*
X26328571Y-83790000D01*
X26285714Y-83656666D01*
X26200000Y-83590000D01*
X26114285Y-83556666D01*
X25385714Y-84223333D02*
X25257142Y-84256666D01*
X25042857Y-84256666D01*
X24957142Y-84223333D01*
X24914285Y-84190000D01*
X24871428Y-84123333D01*
X24871428Y-84056666D01*
X24914285Y-83990000D01*
X24957142Y-83956666D01*
X25042857Y-83923333D01*
X25214285Y-83890000D01*
X25300000Y-83856666D01*
X25342857Y-83823333D01*
X25385714Y-83756666D01*
X25385714Y-83690000D01*
X25342857Y-83623333D01*
X25300000Y-83590000D01*
X25214285Y-83556666D01*
X25000000Y-83556666D01*
X24871428Y-83590000D01*
X24485714Y-84256666D02*
X24485714Y-83556666D01*
X27314285Y-81756666D02*
X27314285Y-81056666D01*
X27014285Y-81556666D01*
X26714285Y-81056666D01*
X26714285Y-81756666D01*
X26285714Y-81756666D02*
X26285714Y-81056666D01*
X25900000Y-81723333D02*
X25771428Y-81756666D01*
X25557142Y-81756666D01*
X25471428Y-81723333D01*
X25428571Y-81690000D01*
X25385714Y-81623333D01*
X25385714Y-81556666D01*
X25428571Y-81490000D01*
X25471428Y-81456666D01*
X25557142Y-81423333D01*
X25728571Y-81390000D01*
X25814285Y-81356666D01*
X25857142Y-81323333D01*
X25900000Y-81256666D01*
X25900000Y-81190000D01*
X25857142Y-81123333D01*
X25814285Y-81090000D01*
X25728571Y-81056666D01*
X25514285Y-81056666D01*
X25385714Y-81090000D01*
X24828571Y-81056666D02*
X24657142Y-81056666D01*
X24571428Y-81090000D01*
X24485714Y-81156666D01*
X24442857Y-81290000D01*
X24442857Y-81523333D01*
X24485714Y-81656666D01*
X24571428Y-81723333D01*
X24657142Y-81756666D01*
X24828571Y-81756666D01*
X24914285Y-81723333D01*
X25000000Y-81656666D01*
X25042857Y-81523333D01*
X25042857Y-81290000D01*
X25000000Y-81156666D01*
X24914285Y-81090000D01*
X24828571Y-81056666D01*
X26800000Y-78516666D02*
X26500000Y-79216666D01*
X26200000Y-78516666D01*
X25385714Y-79150000D02*
X25428571Y-79183333D01*
X25557142Y-79216666D01*
X25642857Y-79216666D01*
X25771428Y-79183333D01*
X25857142Y-79116666D01*
X25900000Y-79050000D01*
X25942857Y-78916666D01*
X25942857Y-78816666D01*
X25900000Y-78683333D01*
X25857142Y-78616666D01*
X25771428Y-78550000D01*
X25642857Y-78516666D01*
X25557142Y-78516666D01*
X25428571Y-78550000D01*
X25385714Y-78583333D01*
X24485714Y-79150000D02*
X24528571Y-79183333D01*
X24657142Y-79216666D01*
X24742857Y-79216666D01*
X24871428Y-79183333D01*
X24957142Y-79116666D01*
X25000000Y-79050000D01*
X25042857Y-78916666D01*
X25042857Y-78816666D01*
X25000000Y-78683333D01*
X24957142Y-78616666D01*
X24871428Y-78550000D01*
X24742857Y-78516666D01*
X24657142Y-78516666D01*
X24528571Y-78550000D01*
X24485714Y-78583333D01*
X24550000Y-75414285D02*
X24516666Y-75328571D01*
X24516666Y-75200000D01*
X24550000Y-75071428D01*
X24616666Y-74985714D01*
X24683333Y-74942857D01*
X24816666Y-74900000D01*
X24916666Y-74900000D01*
X25050000Y-74942857D01*
X25116666Y-74985714D01*
X25183333Y-75071428D01*
X25216666Y-75200000D01*
X25216666Y-75285714D01*
X25183333Y-75414285D01*
X25150000Y-75457142D01*
X24916666Y-75457142D01*
X24916666Y-75285714D01*
X25216666Y-75842857D02*
X24516666Y-75842857D01*
X25216666Y-76357142D01*
X24516666Y-76357142D01*
X25216666Y-76785714D02*
X24516666Y-76785714D01*
X24516666Y-77000000D01*
X24550000Y-77128571D01*
X24616666Y-77214285D01*
X24683333Y-77257142D01*
X24816666Y-77300000D01*
X24916666Y-77300000D01*
X25050000Y-77257142D01*
X25116666Y-77214285D01*
X25183333Y-77128571D01*
X25216666Y-77000000D01*
X25216666Y-76785714D01*
D11*
X20400000Y-113400000D02*
X20400000Y-22400000D01*
X22400000Y-115400000D02*
X20400000Y-113400000D01*
X322400000Y-115400000D02*
X22400000Y-115400000D01*
X324400000Y-113400000D02*
X322400000Y-115400000D01*
X324400000Y-22400000D02*
X324400000Y-113400000D01*
X322400000Y-20400000D02*
X324400000Y-22400000D01*
X22400000Y-20400000D02*
X322400000Y-20400000D01*
X20400000Y-22400000D02*
X22400000Y-20400000D01*
D10*
X64780952Y-25971428D02*
X64019047Y-25971428D01*
X62780952Y-26352380D02*
X62780952Y-25352380D01*
X62542857Y-25352380D01*
X62400000Y-25400000D01*
X62304761Y-25495238D01*
X62257142Y-25590476D01*
X62209523Y-25780952D01*
X62209523Y-25923809D01*
X62257142Y-26114285D01*
X62304761Y-26209523D01*
X62400000Y-26304761D01*
X62542857Y-26352380D01*
X62780952Y-26352380D01*
X61780952Y-25971428D02*
X61019047Y-25971428D01*
X61400000Y-26352380D02*
X61400000Y-25590476D01*
X60280952Y-26352380D02*
X60280952Y-25352380D01*
X60042857Y-25352380D01*
X59900000Y-25400000D01*
X59804761Y-25495238D01*
X59757142Y-25590476D01*
X59709523Y-25780952D01*
X59709523Y-25923809D01*
X59757142Y-26114285D01*
X59804761Y-26209523D01*
X59900000Y-26304761D01*
X60042857Y-26352380D01*
X60280952Y-26352380D01*
X59280952Y-25971428D02*
X58519047Y-25971428D01*
X57280952Y-25971428D02*
X56519047Y-25971428D01*
X56900000Y-26352380D02*
X56900000Y-25590476D01*
%TO.C,K66*%
X316500000Y-30916000D02*
X316500000Y-30535000D01*
X305070000Y-33456000D02*
X305070000Y-32440000D01*
X305070000Y-32440000D02*
X310150000Y-32440000D01*
X312614162Y-30535000D02*
X314341000Y-30535000D01*
X316119000Y-30535000D02*
X316500000Y-30535000D01*
X316500000Y-34345000D02*
X316500000Y-33964000D01*
X313960000Y-36885000D02*
X305070000Y-36885000D01*
X305070000Y-36885000D02*
X305070000Y-36504000D01*
X312614162Y-30516040D02*
G75*
G02X310150000Y-32440000I-2464162J616040D01*
G01*
X316500000Y-34345000D02*
G75*
G02X313960000Y-36885000I-2540000J0D01*
G01*
%TO.C,K28*%
X309375000Y-49916000D02*
X309375000Y-49535000D01*
X297945000Y-52456000D02*
X297945000Y-51440000D01*
X297945000Y-51440000D02*
X303025000Y-51440000D01*
X305489162Y-49535000D02*
X307216000Y-49535000D01*
X308994000Y-49535000D02*
X309375000Y-49535000D01*
X309375000Y-53345000D02*
X309375000Y-52964000D01*
X306835000Y-55885000D02*
X297945000Y-55885000D01*
X297945000Y-55885000D02*
X297945000Y-55504000D01*
X305489162Y-49516040D02*
G75*
G02X303025000Y-51440000I-2464162J616040D01*
G01*
X309375000Y-53345000D02*
G75*
G02X306835000Y-55885000I-2540000J0D01*
G01*
%TO.C,K42*%
X311750000Y-68916000D02*
X311750000Y-68535000D01*
X300320000Y-71456000D02*
X300320000Y-70440000D01*
X300320000Y-70440000D02*
X305400000Y-70440000D01*
X307864162Y-68535000D02*
X309591000Y-68535000D01*
X311369000Y-68535000D02*
X311750000Y-68535000D01*
X311750000Y-72345000D02*
X311750000Y-71964000D01*
X309210000Y-74885000D02*
X300320000Y-74885000D01*
X300320000Y-74885000D02*
X300320000Y-74504000D01*
X307864162Y-68516040D02*
G75*
G02X305400000Y-70440000I-2464162J616040D01*
G01*
X311750000Y-72345000D02*
G75*
G02X309210000Y-74885000I-2540000J0D01*
G01*
%TO.C,K56*%
X316500000Y-87916000D02*
X316500000Y-87535000D01*
X305070000Y-90456000D02*
X305070000Y-89440000D01*
X305070000Y-89440000D02*
X310150000Y-89440000D01*
X312614162Y-87535000D02*
X314341000Y-87535000D01*
X316119000Y-87535000D02*
X316500000Y-87535000D01*
X316500000Y-91345000D02*
X316500000Y-90964000D01*
X313960000Y-93885000D02*
X305070000Y-93885000D01*
X305070000Y-93885000D02*
X305070000Y-93504000D01*
X312614162Y-87516040D02*
G75*
G02X310150000Y-89440000I-2464162J616040D01*
G01*
X316500000Y-91345000D02*
G75*
G02X313960000Y-93885000I-2540000J0D01*
G01*
%TO.C,K55*%
X283250000Y-87916000D02*
X283250000Y-87535000D01*
X271820000Y-90456000D02*
X271820000Y-89440000D01*
X271820000Y-89440000D02*
X276900000Y-89440000D01*
X279364162Y-87535000D02*
X281091000Y-87535000D01*
X282869000Y-87535000D02*
X283250000Y-87535000D01*
X283250000Y-91345000D02*
X283250000Y-90964000D01*
X280710000Y-93885000D02*
X271820000Y-93885000D01*
X271820000Y-93885000D02*
X271820000Y-93504000D01*
X279364162Y-87516040D02*
G75*
G02X276900000Y-89440000I-2464162J616040D01*
G01*
X283250000Y-91345000D02*
G75*
G02X280710000Y-93885000I-2540000J0D01*
G01*
%TO.C,K65*%
X295125000Y-106916000D02*
X295125000Y-106535000D01*
X283695000Y-109456000D02*
X283695000Y-108440000D01*
X283695000Y-108440000D02*
X288775000Y-108440000D01*
X291239162Y-106535000D02*
X292966000Y-106535000D01*
X294744000Y-106535000D02*
X295125000Y-106535000D01*
X295125000Y-110345000D02*
X295125000Y-109964000D01*
X292585000Y-112885000D02*
X283695000Y-112885000D01*
X283695000Y-112885000D02*
X283695000Y-112504000D01*
X295125000Y-110345000D02*
G75*
G02X292585000Y-112885000I-2540000J0D01*
G01*
X291239162Y-106516040D02*
G75*
G02X288775000Y-108440000I-2464162J616040D01*
G01*
%TO.C,K64*%
X264250000Y-106916000D02*
X264250000Y-106535000D01*
X252820000Y-109456000D02*
X252820000Y-108440000D01*
X252820000Y-108440000D02*
X257900000Y-108440000D01*
X260364162Y-106535000D02*
X262091000Y-106535000D01*
X263869000Y-106535000D02*
X264250000Y-106535000D01*
X264250000Y-110345000D02*
X264250000Y-109964000D01*
X261710000Y-112885000D02*
X252820000Y-112885000D01*
X252820000Y-112885000D02*
X252820000Y-112504000D01*
X260364162Y-106516040D02*
G75*
G02X257900000Y-108440000I-2464162J616040D01*
G01*
X264250000Y-110345000D02*
G75*
G02X261710000Y-112885000I-2540000J0D01*
G01*
%TO.C,K63*%
X233375000Y-106916000D02*
X233375000Y-106535000D01*
X221945000Y-109456000D02*
X221945000Y-108440000D01*
X221945000Y-108440000D02*
X227025000Y-108440000D01*
X229489162Y-106535000D02*
X231216000Y-106535000D01*
X232994000Y-106535000D02*
X233375000Y-106535000D01*
X233375000Y-110345000D02*
X233375000Y-109964000D01*
X230835000Y-112885000D02*
X221945000Y-112885000D01*
X221945000Y-112885000D02*
X221945000Y-112504000D01*
X233375000Y-110345000D02*
G75*
G02X230835000Y-112885000I-2540000J0D01*
G01*
X229489162Y-106516040D02*
G75*
G02X227025000Y-108440000I-2464162J616040D01*
G01*
%TO.C,K62*%
X209625000Y-106916000D02*
X209625000Y-106535000D01*
X198195000Y-109456000D02*
X198195000Y-108440000D01*
X198195000Y-108440000D02*
X203275000Y-108440000D01*
X205739162Y-106535000D02*
X207466000Y-106535000D01*
X209244000Y-106535000D02*
X209625000Y-106535000D01*
X209625000Y-110345000D02*
X209625000Y-109964000D01*
X207085000Y-112885000D02*
X198195000Y-112885000D01*
X198195000Y-112885000D02*
X198195000Y-112504000D01*
X209625000Y-110345000D02*
G75*
G02X207085000Y-112885000I-2540000J0D01*
G01*
X205739162Y-106516040D02*
G75*
G02X203275000Y-108440000I-2464162J616040D01*
G01*
%TO.C,K61*%
X185875000Y-106916000D02*
X185875000Y-106535000D01*
X174445000Y-109456000D02*
X174445000Y-108440000D01*
X174445000Y-108440000D02*
X179525000Y-108440000D01*
X181989162Y-106535000D02*
X183716000Y-106535000D01*
X185494000Y-106535000D02*
X185875000Y-106535000D01*
X185875000Y-110345000D02*
X185875000Y-109964000D01*
X183335000Y-112885000D02*
X174445000Y-112885000D01*
X174445000Y-112885000D02*
X174445000Y-112504000D01*
X185875000Y-110345000D02*
G75*
G02X183335000Y-112885000I-2540000J0D01*
G01*
X181989162Y-106516040D02*
G75*
G02X179525000Y-108440000I-2464162J616040D01*
G01*
%TO.C,K60*%
X152625000Y-106916000D02*
X152625000Y-106535000D01*
X141195000Y-109456000D02*
X141195000Y-108440000D01*
X141195000Y-108440000D02*
X146275000Y-108440000D01*
X148739162Y-106535000D02*
X150466000Y-106535000D01*
X152244000Y-106535000D02*
X152625000Y-106535000D01*
X152625000Y-110345000D02*
X152625000Y-109964000D01*
X150085000Y-112885000D02*
X141195000Y-112885000D01*
X141195000Y-112885000D02*
X141195000Y-112504000D01*
X148739162Y-106516040D02*
G75*
G02X146275000Y-108440000I-2464162J616040D01*
G01*
X152625000Y-110345000D02*
G75*
G02X150085000Y-112885000I-2540000J0D01*
G01*
%TO.C,K58*%
X100375000Y-106916000D02*
X100375000Y-106535000D01*
X88945000Y-109456000D02*
X88945000Y-108440000D01*
X88945000Y-108440000D02*
X94025000Y-108440000D01*
X96489162Y-106535000D02*
X98216000Y-106535000D01*
X99994000Y-106535000D02*
X100375000Y-106535000D01*
X100375000Y-110345000D02*
X100375000Y-109964000D01*
X97835000Y-112885000D02*
X88945000Y-112885000D01*
X88945000Y-112885000D02*
X88945000Y-112504000D01*
X100375000Y-110345000D02*
G75*
G02X97835000Y-112885000I-2540000J0D01*
G01*
X96489162Y-106516040D02*
G75*
G02X94025000Y-108440000I-2464162J616040D01*
G01*
%TO.C,K57*%
X69500000Y-106916000D02*
X69500000Y-106535000D01*
X58070000Y-109456000D02*
X58070000Y-108440000D01*
X58070000Y-108440000D02*
X63150000Y-108440000D01*
X65614162Y-106535000D02*
X67341000Y-106535000D01*
X69119000Y-106535000D02*
X69500000Y-106535000D01*
X69500000Y-110345000D02*
X69500000Y-109964000D01*
X66960000Y-112885000D02*
X58070000Y-112885000D01*
X58070000Y-112885000D02*
X58070000Y-112504000D01*
X65614162Y-106516040D02*
G75*
G02X63150000Y-108440000I-2464162J616040D01*
G01*
X69500000Y-110345000D02*
G75*
G02X66960000Y-112885000I-2540000J0D01*
G01*
%TO.C,K43*%
X41000000Y-87916000D02*
X41000000Y-87535000D01*
X29570000Y-90456000D02*
X29570000Y-89440000D01*
X29570000Y-89440000D02*
X34650000Y-89440000D01*
X37114162Y-87535000D02*
X38841000Y-87535000D01*
X40619000Y-87535000D02*
X41000000Y-87535000D01*
X41000000Y-91345000D02*
X41000000Y-90964000D01*
X38460000Y-93885000D02*
X29570000Y-93885000D01*
X29570000Y-93885000D02*
X29570000Y-93504000D01*
X37114162Y-87516040D02*
G75*
G02X34650000Y-89440000I-2464162J616040D01*
G01*
X41000000Y-91345000D02*
G75*
G02X38460000Y-93885000I-2540000J0D01*
G01*
%TO.C,K29*%
X45750000Y-68916000D02*
X45750000Y-68535000D01*
X34320000Y-71456000D02*
X34320000Y-70440000D01*
X34320000Y-70440000D02*
X39400000Y-70440000D01*
X41864162Y-68535000D02*
X43591000Y-68535000D01*
X45369000Y-68535000D02*
X45750000Y-68535000D01*
X45750000Y-72345000D02*
X45750000Y-71964000D01*
X43210000Y-74885000D02*
X34320000Y-74885000D01*
X34320000Y-74885000D02*
X34320000Y-74504000D01*
X41864162Y-68516040D02*
G75*
G02X39400000Y-70440000I-2464162J616040D01*
G01*
X45750000Y-72345000D02*
G75*
G02X43210000Y-74885000I-2540000J0D01*
G01*
%TO.C,K15*%
X43375000Y-49916000D02*
X43375000Y-49535000D01*
X31945000Y-52456000D02*
X31945000Y-51440000D01*
X31945000Y-51440000D02*
X37025000Y-51440000D01*
X39489162Y-49535000D02*
X41216000Y-49535000D01*
X42994000Y-49535000D02*
X43375000Y-49535000D01*
X43375000Y-53345000D02*
X43375000Y-52964000D01*
X40835000Y-55885000D02*
X31945000Y-55885000D01*
X31945000Y-55885000D02*
X31945000Y-55504000D01*
X39489162Y-49516040D02*
G75*
G02X37025000Y-51440000I-2464162J616040D01*
G01*
X43375000Y-53345000D02*
G75*
G02X40835000Y-55885000I-2540000J0D01*
G01*
%TO.C,K1*%
X41000000Y-30916000D02*
X41000000Y-30535000D01*
X29570000Y-33456000D02*
X29570000Y-32440000D01*
X29570000Y-32440000D02*
X34650000Y-32440000D01*
X37114162Y-30535000D02*
X38841000Y-30535000D01*
X40619000Y-30535000D02*
X41000000Y-30535000D01*
X41000000Y-34345000D02*
X41000000Y-33964000D01*
X38460000Y-36885000D02*
X29570000Y-36885000D01*
X29570000Y-36885000D02*
X29570000Y-36504000D01*
X37114162Y-30516040D02*
G75*
G02X34650000Y-32440000I-2464162J616040D01*
G01*
X41000000Y-34345000D02*
G75*
G02X38460000Y-36885000I-2540000J0D01*
G01*
%TO.C,K40*%
X264250000Y-68916000D02*
X264250000Y-68535000D01*
X252820000Y-71456000D02*
X252820000Y-70440000D01*
X252820000Y-70440000D02*
X257900000Y-70440000D01*
X260364162Y-68535000D02*
X262091000Y-68535000D01*
X263869000Y-68535000D02*
X264250000Y-68535000D01*
X264250000Y-72345000D02*
X264250000Y-71964000D01*
X261710000Y-74885000D02*
X252820000Y-74885000D01*
X252820000Y-74885000D02*
X252820000Y-74504000D01*
X264250000Y-72345000D02*
G75*
G02X261710000Y-74885000I-2540000J0D01*
G01*
X260364162Y-68516040D02*
G75*
G02X257900000Y-70440000I-2464162J616040D01*
G01*
%TO.C,K47*%
X121750000Y-87916000D02*
X121750000Y-87535000D01*
X110320000Y-90456000D02*
X110320000Y-89440000D01*
X110320000Y-89440000D02*
X115400000Y-89440000D01*
X117864162Y-87535000D02*
X119591000Y-87535000D01*
X121369000Y-87535000D02*
X121750000Y-87535000D01*
X121750000Y-91345000D02*
X121750000Y-90964000D01*
X119210000Y-93885000D02*
X110320000Y-93885000D01*
X110320000Y-93885000D02*
X110320000Y-93504000D01*
X121750000Y-91345000D02*
G75*
G02X119210000Y-93885000I-2540000J0D01*
G01*
X117864162Y-87516040D02*
G75*
G02X115400000Y-89440000I-2464162J616040D01*
G01*
%TO.C,K37*%
X207250000Y-68916000D02*
X207250000Y-68535000D01*
X195820000Y-71456000D02*
X195820000Y-70440000D01*
X195820000Y-70440000D02*
X200900000Y-70440000D01*
X203364162Y-68535000D02*
X205091000Y-68535000D01*
X206869000Y-68535000D02*
X207250000Y-68535000D01*
X207250000Y-72345000D02*
X207250000Y-71964000D01*
X204710000Y-74885000D02*
X195820000Y-74885000D01*
X195820000Y-74885000D02*
X195820000Y-74504000D01*
X207250000Y-72345000D02*
G75*
G02X204710000Y-74885000I-2540000J0D01*
G01*
X203364162Y-68516040D02*
G75*
G02X200900000Y-70440000I-2464162J616040D01*
G01*
%TO.C,K34*%
X150250000Y-68916000D02*
X150250000Y-68535000D01*
X138820000Y-71456000D02*
X138820000Y-70440000D01*
X138820000Y-70440000D02*
X143900000Y-70440000D01*
X146364162Y-68535000D02*
X148091000Y-68535000D01*
X149869000Y-68535000D02*
X150250000Y-68535000D01*
X150250000Y-72345000D02*
X150250000Y-71964000D01*
X147710000Y-74885000D02*
X138820000Y-74885000D01*
X138820000Y-74885000D02*
X138820000Y-74504000D01*
X150250000Y-72345000D02*
G75*
G02X147710000Y-74885000I-2540000J0D01*
G01*
X146364162Y-68516040D02*
G75*
G02X143900000Y-70440000I-2464162J616040D01*
G01*
%TO.C,K32*%
X112250000Y-68916000D02*
X112250000Y-68535000D01*
X100820000Y-71456000D02*
X100820000Y-70440000D01*
X100820000Y-70440000D02*
X105900000Y-70440000D01*
X108364162Y-68535000D02*
X110091000Y-68535000D01*
X111869000Y-68535000D02*
X112250000Y-68535000D01*
X112250000Y-72345000D02*
X112250000Y-71964000D01*
X109710000Y-74885000D02*
X100820000Y-74885000D01*
X100820000Y-74885000D02*
X100820000Y-74504000D01*
X112250000Y-72345000D02*
G75*
G02X109710000Y-74885000I-2540000J0D01*
G01*
X108364162Y-68516040D02*
G75*
G02X105900000Y-70440000I-2464162J616040D01*
G01*
%TO.C,K31*%
X93250000Y-68916000D02*
X93250000Y-68535000D01*
X81820000Y-71456000D02*
X81820000Y-70440000D01*
X81820000Y-70440000D02*
X86900000Y-70440000D01*
X89364162Y-68535000D02*
X91091000Y-68535000D01*
X92869000Y-68535000D02*
X93250000Y-68535000D01*
X93250000Y-72345000D02*
X93250000Y-71964000D01*
X90710000Y-74885000D02*
X81820000Y-74885000D01*
X81820000Y-74885000D02*
X81820000Y-74504000D01*
X93250000Y-72345000D02*
G75*
G02X90710000Y-74885000I-2540000J0D01*
G01*
X89364162Y-68516040D02*
G75*
G02X86900000Y-70440000I-2464162J616040D01*
G01*
%TO.C,K59*%
X121750000Y-106916000D02*
X121750000Y-106535000D01*
X110320000Y-109456000D02*
X110320000Y-108440000D01*
X110320000Y-108440000D02*
X115400000Y-108440000D01*
X117864162Y-106535000D02*
X119591000Y-106535000D01*
X121369000Y-106535000D02*
X121750000Y-106535000D01*
X121750000Y-110345000D02*
X121750000Y-109964000D01*
X119210000Y-112885000D02*
X110320000Y-112885000D01*
X110320000Y-112885000D02*
X110320000Y-112504000D01*
X121750000Y-110345000D02*
G75*
G02X119210000Y-112885000I-2540000J0D01*
G01*
X117864162Y-106516040D02*
G75*
G02X115400000Y-108440000I-2464162J616040D01*
G01*
%TO.C,K54*%
X254750000Y-87916000D02*
X254750000Y-87535000D01*
X243320000Y-90456000D02*
X243320000Y-89440000D01*
X243320000Y-89440000D02*
X248400000Y-89440000D01*
X250864162Y-87535000D02*
X252591000Y-87535000D01*
X254369000Y-87535000D02*
X254750000Y-87535000D01*
X254750000Y-91345000D02*
X254750000Y-90964000D01*
X252210000Y-93885000D02*
X243320000Y-93885000D01*
X243320000Y-93885000D02*
X243320000Y-93504000D01*
X254750000Y-91345000D02*
G75*
G02X252210000Y-93885000I-2540000J0D01*
G01*
X250864162Y-87516040D02*
G75*
G02X248400000Y-89440000I-2464162J616040D01*
G01*
%TO.C,K53*%
X235750000Y-87916000D02*
X235750000Y-87535000D01*
X224320000Y-90456000D02*
X224320000Y-89440000D01*
X224320000Y-89440000D02*
X229400000Y-89440000D01*
X231864162Y-87535000D02*
X233591000Y-87535000D01*
X235369000Y-87535000D02*
X235750000Y-87535000D01*
X235750000Y-91345000D02*
X235750000Y-90964000D01*
X233210000Y-93885000D02*
X224320000Y-93885000D01*
X224320000Y-93885000D02*
X224320000Y-93504000D01*
X235750000Y-91345000D02*
G75*
G02X233210000Y-93885000I-2540000J0D01*
G01*
X231864162Y-87516040D02*
G75*
G02X229400000Y-89440000I-2464162J616040D01*
G01*
%TO.C,K52*%
X216750000Y-87916000D02*
X216750000Y-87535000D01*
X205320000Y-90456000D02*
X205320000Y-89440000D01*
X205320000Y-89440000D02*
X210400000Y-89440000D01*
X212864162Y-87535000D02*
X214591000Y-87535000D01*
X216369000Y-87535000D02*
X216750000Y-87535000D01*
X216750000Y-91345000D02*
X216750000Y-90964000D01*
X214210000Y-93885000D02*
X205320000Y-93885000D01*
X205320000Y-93885000D02*
X205320000Y-93504000D01*
X216750000Y-91345000D02*
G75*
G02X214210000Y-93885000I-2540000J0D01*
G01*
X212864162Y-87516040D02*
G75*
G02X210400000Y-89440000I-2464162J616040D01*
G01*
%TO.C,K51*%
X197750000Y-87916000D02*
X197750000Y-87535000D01*
X186320000Y-90456000D02*
X186320000Y-89440000D01*
X186320000Y-89440000D02*
X191400000Y-89440000D01*
X193864162Y-87535000D02*
X195591000Y-87535000D01*
X197369000Y-87535000D02*
X197750000Y-87535000D01*
X197750000Y-91345000D02*
X197750000Y-90964000D01*
X195210000Y-93885000D02*
X186320000Y-93885000D01*
X186320000Y-93885000D02*
X186320000Y-93504000D01*
X197750000Y-91345000D02*
G75*
G02X195210000Y-93885000I-2540000J0D01*
G01*
X193864162Y-87516040D02*
G75*
G02X191400000Y-89440000I-2464162J616040D01*
G01*
%TO.C,K50*%
X178750000Y-87916000D02*
X178750000Y-87535000D01*
X167320000Y-90456000D02*
X167320000Y-89440000D01*
X167320000Y-89440000D02*
X172400000Y-89440000D01*
X174864162Y-87535000D02*
X176591000Y-87535000D01*
X178369000Y-87535000D02*
X178750000Y-87535000D01*
X178750000Y-91345000D02*
X178750000Y-90964000D01*
X176210000Y-93885000D02*
X167320000Y-93885000D01*
X167320000Y-93885000D02*
X167320000Y-93504000D01*
X178750000Y-91345000D02*
G75*
G02X176210000Y-93885000I-2540000J0D01*
G01*
X174864162Y-87516040D02*
G75*
G02X172400000Y-89440000I-2464162J616040D01*
G01*
%TO.C,K49*%
X159750000Y-87916000D02*
X159750000Y-87535000D01*
X148320000Y-90456000D02*
X148320000Y-89440000D01*
X148320000Y-89440000D02*
X153400000Y-89440000D01*
X155864162Y-87535000D02*
X157591000Y-87535000D01*
X159369000Y-87535000D02*
X159750000Y-87535000D01*
X159750000Y-91345000D02*
X159750000Y-90964000D01*
X157210000Y-93885000D02*
X148320000Y-93885000D01*
X148320000Y-93885000D02*
X148320000Y-93504000D01*
X159750000Y-91345000D02*
G75*
G02X157210000Y-93885000I-2540000J0D01*
G01*
X155864162Y-87516040D02*
G75*
G02X153400000Y-89440000I-2464162J616040D01*
G01*
%TO.C,K48*%
X140750000Y-87916000D02*
X140750000Y-87535000D01*
X129320000Y-90456000D02*
X129320000Y-89440000D01*
X129320000Y-89440000D02*
X134400000Y-89440000D01*
X136864162Y-87535000D02*
X138591000Y-87535000D01*
X140369000Y-87535000D02*
X140750000Y-87535000D01*
X140750000Y-91345000D02*
X140750000Y-90964000D01*
X138210000Y-93885000D02*
X129320000Y-93885000D01*
X129320000Y-93885000D02*
X129320000Y-93504000D01*
X140750000Y-91345000D02*
G75*
G02X138210000Y-93885000I-2540000J0D01*
G01*
X136864162Y-87516040D02*
G75*
G02X134400000Y-89440000I-2464162J616040D01*
G01*
%TO.C,K46*%
X102750000Y-87916000D02*
X102750000Y-87535000D01*
X91320000Y-90456000D02*
X91320000Y-89440000D01*
X91320000Y-89440000D02*
X96400000Y-89440000D01*
X98864162Y-87535000D02*
X100591000Y-87535000D01*
X102369000Y-87535000D02*
X102750000Y-87535000D01*
X102750000Y-91345000D02*
X102750000Y-90964000D01*
X100210000Y-93885000D02*
X91320000Y-93885000D01*
X91320000Y-93885000D02*
X91320000Y-93504000D01*
X102750000Y-91345000D02*
G75*
G02X100210000Y-93885000I-2540000J0D01*
G01*
X98864162Y-87516040D02*
G75*
G02X96400000Y-89440000I-2464162J616040D01*
G01*
%TO.C,K45*%
X83750000Y-87916000D02*
X83750000Y-87535000D01*
X72320000Y-90456000D02*
X72320000Y-89440000D01*
X72320000Y-89440000D02*
X77400000Y-89440000D01*
X79864162Y-87535000D02*
X81591000Y-87535000D01*
X83369000Y-87535000D02*
X83750000Y-87535000D01*
X83750000Y-91345000D02*
X83750000Y-90964000D01*
X81210000Y-93885000D02*
X72320000Y-93885000D01*
X72320000Y-93885000D02*
X72320000Y-93504000D01*
X83750000Y-91345000D02*
G75*
G02X81210000Y-93885000I-2540000J0D01*
G01*
X79864162Y-87516040D02*
G75*
G02X77400000Y-89440000I-2464162J616040D01*
G01*
%TO.C,K44*%
X64750000Y-87916000D02*
X64750000Y-87535000D01*
X53320000Y-90456000D02*
X53320000Y-89440000D01*
X53320000Y-89440000D02*
X58400000Y-89440000D01*
X60864162Y-87535000D02*
X62591000Y-87535000D01*
X64369000Y-87535000D02*
X64750000Y-87535000D01*
X64750000Y-91345000D02*
X64750000Y-90964000D01*
X62210000Y-93885000D02*
X53320000Y-93885000D01*
X53320000Y-93885000D02*
X53320000Y-93504000D01*
X64750000Y-91345000D02*
G75*
G02X62210000Y-93885000I-2540000J0D01*
G01*
X60864162Y-87516040D02*
G75*
G02X58400000Y-89440000I-2464162J616040D01*
G01*
%TO.C,K41*%
X283250000Y-68916000D02*
X283250000Y-68535000D01*
X271820000Y-71456000D02*
X271820000Y-70440000D01*
X271820000Y-70440000D02*
X276900000Y-70440000D01*
X279364162Y-68535000D02*
X281091000Y-68535000D01*
X282869000Y-68535000D02*
X283250000Y-68535000D01*
X283250000Y-72345000D02*
X283250000Y-71964000D01*
X280710000Y-74885000D02*
X271820000Y-74885000D01*
X271820000Y-74885000D02*
X271820000Y-74504000D01*
X283250000Y-72345000D02*
G75*
G02X280710000Y-74885000I-2540000J0D01*
G01*
X279364162Y-68516040D02*
G75*
G02X276900000Y-70440000I-2464162J616040D01*
G01*
%TO.C,K39*%
X245250000Y-68916000D02*
X245250000Y-68535000D01*
X233820000Y-71456000D02*
X233820000Y-70440000D01*
X233820000Y-70440000D02*
X238900000Y-70440000D01*
X241364162Y-68535000D02*
X243091000Y-68535000D01*
X244869000Y-68535000D02*
X245250000Y-68535000D01*
X245250000Y-72345000D02*
X245250000Y-71964000D01*
X242710000Y-74885000D02*
X233820000Y-74885000D01*
X233820000Y-74885000D02*
X233820000Y-74504000D01*
X245250000Y-72345000D02*
G75*
G02X242710000Y-74885000I-2540000J0D01*
G01*
X241364162Y-68516040D02*
G75*
G02X238900000Y-70440000I-2464162J616040D01*
G01*
%TO.C,K38*%
X226250000Y-68916000D02*
X226250000Y-68535000D01*
X214820000Y-71456000D02*
X214820000Y-70440000D01*
X214820000Y-70440000D02*
X219900000Y-70440000D01*
X222364162Y-68535000D02*
X224091000Y-68535000D01*
X225869000Y-68535000D02*
X226250000Y-68535000D01*
X226250000Y-72345000D02*
X226250000Y-71964000D01*
X223710000Y-74885000D02*
X214820000Y-74885000D01*
X214820000Y-74885000D02*
X214820000Y-74504000D01*
X226250000Y-72345000D02*
G75*
G02X223710000Y-74885000I-2540000J0D01*
G01*
X222364162Y-68516040D02*
G75*
G02X219900000Y-70440000I-2464162J616040D01*
G01*
%TO.C,K36*%
X188250000Y-68916000D02*
X188250000Y-68535000D01*
X176820000Y-71456000D02*
X176820000Y-70440000D01*
X176820000Y-70440000D02*
X181900000Y-70440000D01*
X184364162Y-68535000D02*
X186091000Y-68535000D01*
X187869000Y-68535000D02*
X188250000Y-68535000D01*
X188250000Y-72345000D02*
X188250000Y-71964000D01*
X185710000Y-74885000D02*
X176820000Y-74885000D01*
X176820000Y-74885000D02*
X176820000Y-74504000D01*
X188250000Y-72345000D02*
G75*
G02X185710000Y-74885000I-2540000J0D01*
G01*
X184364162Y-68516040D02*
G75*
G02X181900000Y-70440000I-2464162J616040D01*
G01*
%TO.C,K35*%
X169250000Y-68916000D02*
X169250000Y-68535000D01*
X157820000Y-71456000D02*
X157820000Y-70440000D01*
X157820000Y-70440000D02*
X162900000Y-70440000D01*
X165364162Y-68535000D02*
X167091000Y-68535000D01*
X168869000Y-68535000D02*
X169250000Y-68535000D01*
X169250000Y-72345000D02*
X169250000Y-71964000D01*
X166710000Y-74885000D02*
X157820000Y-74885000D01*
X157820000Y-74885000D02*
X157820000Y-74504000D01*
X169250000Y-72345000D02*
G75*
G02X166710000Y-74885000I-2540000J0D01*
G01*
X165364162Y-68516040D02*
G75*
G02X162900000Y-70440000I-2464162J616040D01*
G01*
%TO.C,K33*%
X131250000Y-68916000D02*
X131250000Y-68535000D01*
X119820000Y-71456000D02*
X119820000Y-70440000D01*
X119820000Y-70440000D02*
X124900000Y-70440000D01*
X127364162Y-68535000D02*
X129091000Y-68535000D01*
X130869000Y-68535000D02*
X131250000Y-68535000D01*
X131250000Y-72345000D02*
X131250000Y-71964000D01*
X128710000Y-74885000D02*
X119820000Y-74885000D01*
X119820000Y-74885000D02*
X119820000Y-74504000D01*
X131250000Y-72345000D02*
G75*
G02X128710000Y-74885000I-2540000J0D01*
G01*
X127364162Y-68516040D02*
G75*
G02X124900000Y-70440000I-2464162J616040D01*
G01*
%TO.C,K30*%
X74250000Y-68916000D02*
X74250000Y-68535000D01*
X62820000Y-71456000D02*
X62820000Y-70440000D01*
X62820000Y-70440000D02*
X67900000Y-70440000D01*
X70364162Y-68535000D02*
X72091000Y-68535000D01*
X73869000Y-68535000D02*
X74250000Y-68535000D01*
X74250000Y-72345000D02*
X74250000Y-71964000D01*
X71710000Y-74885000D02*
X62820000Y-74885000D01*
X62820000Y-74885000D02*
X62820000Y-74504000D01*
X74250000Y-72345000D02*
G75*
G02X71710000Y-74885000I-2540000J0D01*
G01*
X70364162Y-68516040D02*
G75*
G02X67900000Y-70440000I-2464162J616040D01*
G01*
%TO.C,K27*%
X278500000Y-49916000D02*
X278500000Y-49535000D01*
X267070000Y-52456000D02*
X267070000Y-51440000D01*
X267070000Y-51440000D02*
X272150000Y-51440000D01*
X274614162Y-49535000D02*
X276341000Y-49535000D01*
X278119000Y-49535000D02*
X278500000Y-49535000D01*
X278500000Y-53345000D02*
X278500000Y-52964000D01*
X275960000Y-55885000D02*
X267070000Y-55885000D01*
X267070000Y-55885000D02*
X267070000Y-55504000D01*
X278500000Y-53345000D02*
G75*
G02X275960000Y-55885000I-2540000J0D01*
G01*
X274614162Y-49516040D02*
G75*
G02X272150000Y-51440000I-2464162J616040D01*
G01*
%TO.C,K26*%
X259500000Y-49916000D02*
X259500000Y-49535000D01*
X248070000Y-52456000D02*
X248070000Y-51440000D01*
X248070000Y-51440000D02*
X253150000Y-51440000D01*
X255614162Y-49535000D02*
X257341000Y-49535000D01*
X259119000Y-49535000D02*
X259500000Y-49535000D01*
X259500000Y-53345000D02*
X259500000Y-52964000D01*
X256960000Y-55885000D02*
X248070000Y-55885000D01*
X248070000Y-55885000D02*
X248070000Y-55504000D01*
X259500000Y-53345000D02*
G75*
G02X256960000Y-55885000I-2540000J0D01*
G01*
X255614162Y-49516040D02*
G75*
G02X253150000Y-51440000I-2464162J616040D01*
G01*
%TO.C,K25*%
X240500000Y-49916000D02*
X240500000Y-49535000D01*
X229070000Y-52456000D02*
X229070000Y-51440000D01*
X229070000Y-51440000D02*
X234150000Y-51440000D01*
X236614162Y-49535000D02*
X238341000Y-49535000D01*
X240119000Y-49535000D02*
X240500000Y-49535000D01*
X240500000Y-53345000D02*
X240500000Y-52964000D01*
X237960000Y-55885000D02*
X229070000Y-55885000D01*
X229070000Y-55885000D02*
X229070000Y-55504000D01*
X240500000Y-53345000D02*
G75*
G02X237960000Y-55885000I-2540000J0D01*
G01*
X236614162Y-49516040D02*
G75*
G02X234150000Y-51440000I-2464162J616040D01*
G01*
%TO.C,K24*%
X221500000Y-49916000D02*
X221500000Y-49535000D01*
X210070000Y-52456000D02*
X210070000Y-51440000D01*
X210070000Y-51440000D02*
X215150000Y-51440000D01*
X217614162Y-49535000D02*
X219341000Y-49535000D01*
X221119000Y-49535000D02*
X221500000Y-49535000D01*
X221500000Y-53345000D02*
X221500000Y-52964000D01*
X218960000Y-55885000D02*
X210070000Y-55885000D01*
X210070000Y-55885000D02*
X210070000Y-55504000D01*
X221500000Y-53345000D02*
G75*
G02X218960000Y-55885000I-2540000J0D01*
G01*
X217614162Y-49516040D02*
G75*
G02X215150000Y-51440000I-2464162J616040D01*
G01*
%TO.C,K23*%
X202500000Y-49916000D02*
X202500000Y-49535000D01*
X191070000Y-52456000D02*
X191070000Y-51440000D01*
X191070000Y-51440000D02*
X196150000Y-51440000D01*
X198614162Y-49535000D02*
X200341000Y-49535000D01*
X202119000Y-49535000D02*
X202500000Y-49535000D01*
X202500000Y-53345000D02*
X202500000Y-52964000D01*
X199960000Y-55885000D02*
X191070000Y-55885000D01*
X191070000Y-55885000D02*
X191070000Y-55504000D01*
X202500000Y-53345000D02*
G75*
G02X199960000Y-55885000I-2540000J0D01*
G01*
X198614162Y-49516040D02*
G75*
G02X196150000Y-51440000I-2464162J616040D01*
G01*
%TO.C,K22*%
X183500000Y-49916000D02*
X183500000Y-49535000D01*
X172070000Y-52456000D02*
X172070000Y-51440000D01*
X172070000Y-51440000D02*
X177150000Y-51440000D01*
X179614162Y-49535000D02*
X181341000Y-49535000D01*
X183119000Y-49535000D02*
X183500000Y-49535000D01*
X183500000Y-53345000D02*
X183500000Y-52964000D01*
X180960000Y-55885000D02*
X172070000Y-55885000D01*
X172070000Y-55885000D02*
X172070000Y-55504000D01*
X183500000Y-53345000D02*
G75*
G02X180960000Y-55885000I-2540000J0D01*
G01*
X179614162Y-49516040D02*
G75*
G02X177150000Y-51440000I-2464162J616040D01*
G01*
%TO.C,K21*%
X164500000Y-49916000D02*
X164500000Y-49535000D01*
X153070000Y-52456000D02*
X153070000Y-51440000D01*
X153070000Y-51440000D02*
X158150000Y-51440000D01*
X160614162Y-49535000D02*
X162341000Y-49535000D01*
X164119000Y-49535000D02*
X164500000Y-49535000D01*
X164500000Y-53345000D02*
X164500000Y-52964000D01*
X161960000Y-55885000D02*
X153070000Y-55885000D01*
X153070000Y-55885000D02*
X153070000Y-55504000D01*
X164500000Y-53345000D02*
G75*
G02X161960000Y-55885000I-2540000J0D01*
G01*
X160614162Y-49516040D02*
G75*
G02X158150000Y-51440000I-2464162J616040D01*
G01*
%TO.C,K20*%
X145500000Y-49916000D02*
X145500000Y-49535000D01*
X134070000Y-52456000D02*
X134070000Y-51440000D01*
X134070000Y-51440000D02*
X139150000Y-51440000D01*
X141614162Y-49535000D02*
X143341000Y-49535000D01*
X145119000Y-49535000D02*
X145500000Y-49535000D01*
X145500000Y-53345000D02*
X145500000Y-52964000D01*
X142960000Y-55885000D02*
X134070000Y-55885000D01*
X134070000Y-55885000D02*
X134070000Y-55504000D01*
X145500000Y-53345000D02*
G75*
G02X142960000Y-55885000I-2540000J0D01*
G01*
X141614162Y-49516040D02*
G75*
G02X139150000Y-51440000I-2464162J616040D01*
G01*
%TO.C,K19*%
X126500000Y-49916000D02*
X126500000Y-49535000D01*
X115070000Y-52456000D02*
X115070000Y-51440000D01*
X115070000Y-51440000D02*
X120150000Y-51440000D01*
X122614162Y-49535000D02*
X124341000Y-49535000D01*
X126119000Y-49535000D02*
X126500000Y-49535000D01*
X126500000Y-53345000D02*
X126500000Y-52964000D01*
X123960000Y-55885000D02*
X115070000Y-55885000D01*
X115070000Y-55885000D02*
X115070000Y-55504000D01*
X126500000Y-53345000D02*
G75*
G02X123960000Y-55885000I-2540000J0D01*
G01*
X122614162Y-49516040D02*
G75*
G02X120150000Y-51440000I-2464162J616040D01*
G01*
%TO.C,K18*%
X107500000Y-49916000D02*
X107500000Y-49535000D01*
X96070000Y-52456000D02*
X96070000Y-51440000D01*
X96070000Y-51440000D02*
X101150000Y-51440000D01*
X103614162Y-49535000D02*
X105341000Y-49535000D01*
X107119000Y-49535000D02*
X107500000Y-49535000D01*
X107500000Y-53345000D02*
X107500000Y-52964000D01*
X104960000Y-55885000D02*
X96070000Y-55885000D01*
X96070000Y-55885000D02*
X96070000Y-55504000D01*
X107500000Y-53345000D02*
G75*
G02X104960000Y-55885000I-2540000J0D01*
G01*
X103614162Y-49516040D02*
G75*
G02X101150000Y-51440000I-2464162J616040D01*
G01*
%TO.C,K17*%
X88500000Y-49916000D02*
X88500000Y-49535000D01*
X77070000Y-52456000D02*
X77070000Y-51440000D01*
X77070000Y-51440000D02*
X82150000Y-51440000D01*
X84614162Y-49535000D02*
X86341000Y-49535000D01*
X88119000Y-49535000D02*
X88500000Y-49535000D01*
X88500000Y-53345000D02*
X88500000Y-52964000D01*
X85960000Y-55885000D02*
X77070000Y-55885000D01*
X77070000Y-55885000D02*
X77070000Y-55504000D01*
X88500000Y-53345000D02*
G75*
G02X85960000Y-55885000I-2540000J0D01*
G01*
X84614162Y-49516040D02*
G75*
G02X82150000Y-51440000I-2464162J616040D01*
G01*
%TO.C,K16*%
X69500000Y-49916000D02*
X69500000Y-49535000D01*
X58070000Y-52456000D02*
X58070000Y-51440000D01*
X58070000Y-51440000D02*
X63150000Y-51440000D01*
X65614162Y-49535000D02*
X67341000Y-49535000D01*
X69119000Y-49535000D02*
X69500000Y-49535000D01*
X69500000Y-53345000D02*
X69500000Y-52964000D01*
X66960000Y-55885000D02*
X58070000Y-55885000D01*
X58070000Y-55885000D02*
X58070000Y-55504000D01*
X69500000Y-53345000D02*
G75*
G02X66960000Y-55885000I-2540000J0D01*
G01*
X65614162Y-49516040D02*
G75*
G02X63150000Y-51440000I-2464162J616040D01*
G01*
%TO.C,K14*%
X292750000Y-30916000D02*
X292750000Y-30535000D01*
X281320000Y-33456000D02*
X281320000Y-32440000D01*
X281320000Y-32440000D02*
X286400000Y-32440000D01*
X288864162Y-30535000D02*
X290591000Y-30535000D01*
X292369000Y-30535000D02*
X292750000Y-30535000D01*
X292750000Y-34345000D02*
X292750000Y-33964000D01*
X290210000Y-36885000D02*
X281320000Y-36885000D01*
X281320000Y-36885000D02*
X281320000Y-36504000D01*
X292750000Y-34345000D02*
G75*
G02X290210000Y-36885000I-2540000J0D01*
G01*
X288864162Y-30516040D02*
G75*
G02X286400000Y-32440000I-2464162J616040D01*
G01*
%TO.C,K13*%
X273750000Y-30916000D02*
X273750000Y-30535000D01*
X262320000Y-33456000D02*
X262320000Y-32440000D01*
X262320000Y-32440000D02*
X267400000Y-32440000D01*
X269864162Y-30535000D02*
X271591000Y-30535000D01*
X273369000Y-30535000D02*
X273750000Y-30535000D01*
X273750000Y-34345000D02*
X273750000Y-33964000D01*
X271210000Y-36885000D02*
X262320000Y-36885000D01*
X262320000Y-36885000D02*
X262320000Y-36504000D01*
X273750000Y-34345000D02*
G75*
G02X271210000Y-36885000I-2540000J0D01*
G01*
X269864162Y-30516040D02*
G75*
G02X267400000Y-32440000I-2464162J616040D01*
G01*
%TO.C,K12*%
X254750000Y-30916000D02*
X254750000Y-30535000D01*
X243320000Y-33456000D02*
X243320000Y-32440000D01*
X243320000Y-32440000D02*
X248400000Y-32440000D01*
X250864162Y-30535000D02*
X252591000Y-30535000D01*
X254369000Y-30535000D02*
X254750000Y-30535000D01*
X254750000Y-34345000D02*
X254750000Y-33964000D01*
X252210000Y-36885000D02*
X243320000Y-36885000D01*
X243320000Y-36885000D02*
X243320000Y-36504000D01*
X254750000Y-34345000D02*
G75*
G02X252210000Y-36885000I-2540000J0D01*
G01*
X250864162Y-30516040D02*
G75*
G02X248400000Y-32440000I-2464162J616040D01*
G01*
%TO.C,K11*%
X235750000Y-30916000D02*
X235750000Y-30535000D01*
X224320000Y-33456000D02*
X224320000Y-32440000D01*
X224320000Y-32440000D02*
X229400000Y-32440000D01*
X231864162Y-30535000D02*
X233591000Y-30535000D01*
X235369000Y-30535000D02*
X235750000Y-30535000D01*
X235750000Y-34345000D02*
X235750000Y-33964000D01*
X233210000Y-36885000D02*
X224320000Y-36885000D01*
X224320000Y-36885000D02*
X224320000Y-36504000D01*
X235750000Y-34345000D02*
G75*
G02X233210000Y-36885000I-2540000J0D01*
G01*
X231864162Y-30516040D02*
G75*
G02X229400000Y-32440000I-2464162J616040D01*
G01*
%TO.C,K10*%
X216750000Y-30916000D02*
X216750000Y-30535000D01*
X205320000Y-33456000D02*
X205320000Y-32440000D01*
X205320000Y-32440000D02*
X210400000Y-32440000D01*
X212864162Y-30535000D02*
X214591000Y-30535000D01*
X216369000Y-30535000D02*
X216750000Y-30535000D01*
X216750000Y-34345000D02*
X216750000Y-33964000D01*
X214210000Y-36885000D02*
X205320000Y-36885000D01*
X205320000Y-36885000D02*
X205320000Y-36504000D01*
X216750000Y-34345000D02*
G75*
G02X214210000Y-36885000I-2540000J0D01*
G01*
X212864162Y-30516040D02*
G75*
G02X210400000Y-32440000I-2464162J616040D01*
G01*
%TO.C,K9*%
X197750000Y-30916000D02*
X197750000Y-30535000D01*
X186320000Y-33456000D02*
X186320000Y-32440000D01*
X186320000Y-32440000D02*
X191400000Y-32440000D01*
X193864162Y-30535000D02*
X195591000Y-30535000D01*
X197369000Y-30535000D02*
X197750000Y-30535000D01*
X197750000Y-34345000D02*
X197750000Y-33964000D01*
X195210000Y-36885000D02*
X186320000Y-36885000D01*
X186320000Y-36885000D02*
X186320000Y-36504000D01*
X197750000Y-34345000D02*
G75*
G02X195210000Y-36885000I-2540000J0D01*
G01*
X193864162Y-30516040D02*
G75*
G02X191400000Y-32440000I-2464162J616040D01*
G01*
%TO.C,K8*%
X178750000Y-30916000D02*
X178750000Y-30535000D01*
X167320000Y-33456000D02*
X167320000Y-32440000D01*
X167320000Y-32440000D02*
X172400000Y-32440000D01*
X174864162Y-30535000D02*
X176591000Y-30535000D01*
X178369000Y-30535000D02*
X178750000Y-30535000D01*
X178750000Y-34345000D02*
X178750000Y-33964000D01*
X176210000Y-36885000D02*
X167320000Y-36885000D01*
X167320000Y-36885000D02*
X167320000Y-36504000D01*
X178750000Y-34345000D02*
G75*
G02X176210000Y-36885000I-2540000J0D01*
G01*
X174864162Y-30516040D02*
G75*
G02X172400000Y-32440000I-2464162J616040D01*
G01*
%TO.C,K7*%
X159750000Y-30916000D02*
X159750000Y-30535000D01*
X148320000Y-33456000D02*
X148320000Y-32440000D01*
X148320000Y-32440000D02*
X153400000Y-32440000D01*
X155864162Y-30535000D02*
X157591000Y-30535000D01*
X159369000Y-30535000D02*
X159750000Y-30535000D01*
X159750000Y-34345000D02*
X159750000Y-33964000D01*
X157210000Y-36885000D02*
X148320000Y-36885000D01*
X148320000Y-36885000D02*
X148320000Y-36504000D01*
X159750000Y-34345000D02*
G75*
G02X157210000Y-36885000I-2540000J0D01*
G01*
X155864162Y-30516040D02*
G75*
G02X153400000Y-32440000I-2464162J616040D01*
G01*
%TO.C,K6*%
X140750000Y-30916000D02*
X140750000Y-30535000D01*
X129320000Y-33456000D02*
X129320000Y-32440000D01*
X129320000Y-32440000D02*
X134400000Y-32440000D01*
X136864162Y-30535000D02*
X138591000Y-30535000D01*
X140369000Y-30535000D02*
X140750000Y-30535000D01*
X140750000Y-34345000D02*
X140750000Y-33964000D01*
X138210000Y-36885000D02*
X129320000Y-36885000D01*
X129320000Y-36885000D02*
X129320000Y-36504000D01*
X140750000Y-34345000D02*
G75*
G02X138210000Y-36885000I-2540000J0D01*
G01*
X136864162Y-30516040D02*
G75*
G02X134400000Y-32440000I-2464162J616040D01*
G01*
%TO.C,K5*%
X121750000Y-30916000D02*
X121750000Y-30535000D01*
X110320000Y-33456000D02*
X110320000Y-32440000D01*
X110320000Y-32440000D02*
X115400000Y-32440000D01*
X117864162Y-30535000D02*
X119591000Y-30535000D01*
X121369000Y-30535000D02*
X121750000Y-30535000D01*
X121750000Y-34345000D02*
X121750000Y-33964000D01*
X119210000Y-36885000D02*
X110320000Y-36885000D01*
X110320000Y-36885000D02*
X110320000Y-36504000D01*
X121750000Y-34345000D02*
G75*
G02X119210000Y-36885000I-2540000J0D01*
G01*
X117864162Y-30516040D02*
G75*
G02X115400000Y-32440000I-2464162J616040D01*
G01*
%TO.C,K4*%
X102750000Y-30916000D02*
X102750000Y-30535000D01*
X91320000Y-33456000D02*
X91320000Y-32440000D01*
X91320000Y-32440000D02*
X96400000Y-32440000D01*
X98864162Y-30535000D02*
X100591000Y-30535000D01*
X102369000Y-30535000D02*
X102750000Y-30535000D01*
X102750000Y-34345000D02*
X102750000Y-33964000D01*
X100210000Y-36885000D02*
X91320000Y-36885000D01*
X91320000Y-36885000D02*
X91320000Y-36504000D01*
X102750000Y-34345000D02*
G75*
G02X100210000Y-36885000I-2540000J0D01*
G01*
X98864162Y-30516040D02*
G75*
G02X96400000Y-32440000I-2464162J616040D01*
G01*
%TO.C,K3*%
X83750000Y-30916000D02*
X83750000Y-30535000D01*
X72320000Y-33456000D02*
X72320000Y-32440000D01*
X72320000Y-32440000D02*
X77400000Y-32440000D01*
X79864162Y-30535000D02*
X81591000Y-30535000D01*
X83369000Y-30535000D02*
X83750000Y-30535000D01*
X83750000Y-34345000D02*
X83750000Y-33964000D01*
X81210000Y-36885000D02*
X72320000Y-36885000D01*
X72320000Y-36885000D02*
X72320000Y-36504000D01*
X83750000Y-34345000D02*
G75*
G02X81210000Y-36885000I-2540000J0D01*
G01*
X79864162Y-30516040D02*
G75*
G02X77400000Y-32440000I-2464162J616040D01*
G01*
%TO.C,K2*%
X64750000Y-30916000D02*
X64750000Y-30535000D01*
X53320000Y-33456000D02*
X53320000Y-32440000D01*
X53320000Y-32440000D02*
X58400000Y-32440000D01*
X60864162Y-30535000D02*
X62591000Y-30535000D01*
X64369000Y-30535000D02*
X64750000Y-30535000D01*
X64750000Y-34345000D02*
X64750000Y-33964000D01*
X62210000Y-36885000D02*
X53320000Y-36885000D01*
X53320000Y-36885000D02*
X53320000Y-36504000D01*
X64750000Y-34345000D02*
G75*
G02X62210000Y-36885000I-2540000J0D01*
G01*
X60864162Y-30516040D02*
G75*
G02X58400000Y-32440000I-2464162J616040D01*
G01*
D12*
%TO.C,REF\002A\002A*%
G36*
X293500000Y-95500000D02*
G01*
X293500000Y-94500000D01*
X294000000Y-95000000D01*
X293500000Y-95500000D01*
G37*
X293500000Y-95500000D02*
X293500000Y-94500000D01*
X294000000Y-95000000D01*
X293500000Y-95500000D01*
G36*
X294878680Y-97828427D02*
G01*
X294171573Y-97121320D01*
X294878680Y-97121320D01*
X294878680Y-97828427D01*
G37*
X294878680Y-97828427D02*
X294171573Y-97121320D01*
X294878680Y-97121320D01*
X294878680Y-97828427D01*
G36*
X297500000Y-98500000D02*
G01*
X296500000Y-98500000D01*
X297000000Y-98000000D01*
X297500000Y-98500000D01*
G37*
X297500000Y-98500000D02*
X296500000Y-98500000D01*
X297000000Y-98000000D01*
X297500000Y-98500000D01*
G36*
X299828427Y-97121320D02*
G01*
X299121320Y-97828427D01*
X299121320Y-97121320D01*
X299828427Y-97121320D01*
G37*
X299828427Y-97121320D02*
X299121320Y-97828427D01*
X299121320Y-97121320D01*
X299828427Y-97121320D01*
G36*
X300500000Y-94500000D02*
G01*
X300500000Y-95500000D01*
X300000000Y-95000000D01*
X300500000Y-94500000D01*
G37*
X300500000Y-94500000D02*
X300500000Y-95500000D01*
X300000000Y-95000000D01*
X300500000Y-94500000D01*
G36*
X299121320Y-92171573D02*
G01*
X299828427Y-92878680D01*
X299121320Y-92878680D01*
X299121320Y-92171573D01*
G37*
X299121320Y-92171573D02*
X299828427Y-92878680D01*
X299121320Y-92878680D01*
X299121320Y-92171573D01*
G36*
X296500000Y-91500000D02*
G01*
X297500000Y-91500000D01*
X297000000Y-92000000D01*
X296500000Y-91500000D01*
G37*
X296500000Y-91500000D02*
X297500000Y-91500000D01*
X297000000Y-92000000D01*
X296500000Y-91500000D01*
G36*
X294171573Y-92878680D02*
G01*
X294878680Y-92171573D01*
X294878680Y-92878680D01*
X294171573Y-92878680D01*
G37*
X294171573Y-92878680D02*
X294878680Y-92171573D01*
X294878680Y-92878680D01*
X294171573Y-92878680D01*
G36*
X162900000Y-106400000D02*
G01*
X162900000Y-105400000D01*
X163400000Y-105900000D01*
X162900000Y-106400000D01*
G37*
X162900000Y-106400000D02*
X162900000Y-105400000D01*
X163400000Y-105900000D01*
X162900000Y-106400000D01*
G36*
X164278680Y-108728427D02*
G01*
X163571573Y-108021320D01*
X164278680Y-108021320D01*
X164278680Y-108728427D01*
G37*
X164278680Y-108728427D02*
X163571573Y-108021320D01*
X164278680Y-108021320D01*
X164278680Y-108728427D01*
G36*
X166900000Y-109400000D02*
G01*
X165900000Y-109400000D01*
X166400000Y-108900000D01*
X166900000Y-109400000D01*
G37*
X166900000Y-109400000D02*
X165900000Y-109400000D01*
X166400000Y-108900000D01*
X166900000Y-109400000D01*
G36*
X169228427Y-108021320D02*
G01*
X168521320Y-108728427D01*
X168521320Y-108021320D01*
X169228427Y-108021320D01*
G37*
X169228427Y-108021320D02*
X168521320Y-108728427D01*
X168521320Y-108021320D01*
X169228427Y-108021320D01*
G36*
X169900000Y-105400000D02*
G01*
X169900000Y-106400000D01*
X169400000Y-105900000D01*
X169900000Y-105400000D01*
G37*
X169900000Y-105400000D02*
X169900000Y-106400000D01*
X169400000Y-105900000D01*
X169900000Y-105400000D01*
G36*
X168521320Y-103071573D02*
G01*
X169228427Y-103778680D01*
X168521320Y-103778680D01*
X168521320Y-103071573D01*
G37*
X168521320Y-103071573D02*
X169228427Y-103778680D01*
X168521320Y-103778680D01*
X168521320Y-103071573D01*
G36*
X165900000Y-102400000D02*
G01*
X166900000Y-102400000D01*
X166400000Y-102900000D01*
X165900000Y-102400000D01*
G37*
X165900000Y-102400000D02*
X166900000Y-102400000D01*
X166400000Y-102900000D01*
X165900000Y-102400000D01*
G36*
X163571573Y-103778680D02*
G01*
X164278680Y-103071573D01*
X164278680Y-103778680D01*
X163571573Y-103778680D01*
G37*
X163571573Y-103778680D02*
X164278680Y-103071573D01*
X164278680Y-103778680D01*
X163571573Y-103778680D01*
G36*
X244900000Y-66000000D02*
G01*
X244900000Y-65000000D01*
X245400000Y-65500000D01*
X244900000Y-66000000D01*
G37*
X244900000Y-66000000D02*
X244900000Y-65000000D01*
X245400000Y-65500000D01*
X244900000Y-66000000D01*
G36*
X246278680Y-68328427D02*
G01*
X245571573Y-67621320D01*
X246278680Y-67621320D01*
X246278680Y-68328427D01*
G37*
X246278680Y-68328427D02*
X245571573Y-67621320D01*
X246278680Y-67621320D01*
X246278680Y-68328427D01*
G36*
X248900000Y-69000000D02*
G01*
X247900000Y-69000000D01*
X248400000Y-68500000D01*
X248900000Y-69000000D01*
G37*
X248900000Y-69000000D02*
X247900000Y-69000000D01*
X248400000Y-68500000D01*
X248900000Y-69000000D01*
G36*
X251228427Y-67621320D02*
G01*
X250521320Y-68328427D01*
X250521320Y-67621320D01*
X251228427Y-67621320D01*
G37*
X251228427Y-67621320D02*
X250521320Y-68328427D01*
X250521320Y-67621320D01*
X251228427Y-67621320D01*
G36*
X251900000Y-65000000D02*
G01*
X251900000Y-66000000D01*
X251400000Y-65500000D01*
X251900000Y-65000000D01*
G37*
X251900000Y-65000000D02*
X251900000Y-66000000D01*
X251400000Y-65500000D01*
X251900000Y-65000000D01*
G36*
X250521320Y-62671573D02*
G01*
X251228427Y-63378680D01*
X250521320Y-63378680D01*
X250521320Y-62671573D01*
G37*
X250521320Y-62671573D02*
X251228427Y-63378680D01*
X250521320Y-63378680D01*
X250521320Y-62671573D01*
G36*
X247900000Y-62000000D02*
G01*
X248900000Y-62000000D01*
X248400000Y-62500000D01*
X247900000Y-62000000D01*
G37*
X247900000Y-62000000D02*
X248900000Y-62000000D01*
X248400000Y-62500000D01*
X247900000Y-62000000D01*
G36*
X245571573Y-63378680D02*
G01*
X246278680Y-62671573D01*
X246278680Y-63378680D01*
X245571573Y-63378680D01*
G37*
X245571573Y-63378680D02*
X246278680Y-62671573D01*
X246278680Y-63378680D01*
X245571573Y-63378680D01*
G36*
X111900000Y-66000000D02*
G01*
X111900000Y-65000000D01*
X112400000Y-65500000D01*
X111900000Y-66000000D01*
G37*
X111900000Y-66000000D02*
X111900000Y-65000000D01*
X112400000Y-65500000D01*
X111900000Y-66000000D01*
G36*
X113278680Y-68328427D02*
G01*
X112571573Y-67621320D01*
X113278680Y-67621320D01*
X113278680Y-68328427D01*
G37*
X113278680Y-68328427D02*
X112571573Y-67621320D01*
X113278680Y-67621320D01*
X113278680Y-68328427D01*
G36*
X115900000Y-69000000D02*
G01*
X114900000Y-69000000D01*
X115400000Y-68500000D01*
X115900000Y-69000000D01*
G37*
X115900000Y-69000000D02*
X114900000Y-69000000D01*
X115400000Y-68500000D01*
X115900000Y-69000000D01*
G36*
X118228427Y-67621320D02*
G01*
X117521320Y-68328427D01*
X117521320Y-67621320D01*
X118228427Y-67621320D01*
G37*
X118228427Y-67621320D02*
X117521320Y-68328427D01*
X117521320Y-67621320D01*
X118228427Y-67621320D01*
G36*
X118900000Y-65000000D02*
G01*
X118900000Y-66000000D01*
X118400000Y-65500000D01*
X118900000Y-65000000D01*
G37*
X118900000Y-65000000D02*
X118900000Y-66000000D01*
X118400000Y-65500000D01*
X118900000Y-65000000D01*
G36*
X117521320Y-62671573D02*
G01*
X118228427Y-63378680D01*
X117521320Y-63378680D01*
X117521320Y-62671573D01*
G37*
X117521320Y-62671573D02*
X118228427Y-63378680D01*
X117521320Y-63378680D01*
X117521320Y-62671573D01*
G36*
X114900000Y-62000000D02*
G01*
X115900000Y-62000000D01*
X115400000Y-62500000D01*
X114900000Y-62000000D01*
G37*
X114900000Y-62000000D02*
X115900000Y-62000000D01*
X115400000Y-62500000D01*
X114900000Y-62000000D01*
G36*
X112571573Y-63378680D02*
G01*
X113278680Y-62671573D01*
X113278680Y-63378680D01*
X112571573Y-63378680D01*
G37*
X112571573Y-63378680D02*
X113278680Y-62671573D01*
X113278680Y-63378680D01*
X112571573Y-63378680D01*
G36*
X43900000Y-89300000D02*
G01*
X43900000Y-88300000D01*
X44400000Y-88800000D01*
X43900000Y-89300000D01*
G37*
X43900000Y-89300000D02*
X43900000Y-88300000D01*
X44400000Y-88800000D01*
X43900000Y-89300000D01*
G36*
X45278680Y-91628427D02*
G01*
X44571573Y-90921320D01*
X45278680Y-90921320D01*
X45278680Y-91628427D01*
G37*
X45278680Y-91628427D02*
X44571573Y-90921320D01*
X45278680Y-90921320D01*
X45278680Y-91628427D01*
G36*
X47900000Y-92300000D02*
G01*
X46900000Y-92300000D01*
X47400000Y-91800000D01*
X47900000Y-92300000D01*
G37*
X47900000Y-92300000D02*
X46900000Y-92300000D01*
X47400000Y-91800000D01*
X47900000Y-92300000D01*
G36*
X50228427Y-90921320D02*
G01*
X49521320Y-91628427D01*
X49521320Y-90921320D01*
X50228427Y-90921320D01*
G37*
X50228427Y-90921320D02*
X49521320Y-91628427D01*
X49521320Y-90921320D01*
X50228427Y-90921320D01*
G36*
X50900000Y-88300000D02*
G01*
X50900000Y-89300000D01*
X50400000Y-88800000D01*
X50900000Y-88300000D01*
G37*
X50900000Y-88300000D02*
X50900000Y-89300000D01*
X50400000Y-88800000D01*
X50900000Y-88300000D01*
G36*
X49521320Y-85971573D02*
G01*
X50228427Y-86678680D01*
X49521320Y-86678680D01*
X49521320Y-85971573D01*
G37*
X49521320Y-85971573D02*
X50228427Y-86678680D01*
X49521320Y-86678680D01*
X49521320Y-85971573D01*
G36*
X46900000Y-85300000D02*
G01*
X47900000Y-85300000D01*
X47400000Y-85800000D01*
X46900000Y-85300000D01*
G37*
X46900000Y-85300000D02*
X47900000Y-85300000D01*
X47400000Y-85800000D01*
X46900000Y-85300000D01*
G36*
X44571573Y-86678680D02*
G01*
X45278680Y-85971573D01*
X45278680Y-86678680D01*
X44571573Y-86678680D01*
G37*
X44571573Y-86678680D02*
X45278680Y-85971573D01*
X45278680Y-86678680D01*
X44571573Y-86678680D01*
G36*
X295400000Y-35900000D02*
G01*
X295400000Y-34900000D01*
X295900000Y-35400000D01*
X295400000Y-35900000D01*
G37*
X295400000Y-35900000D02*
X295400000Y-34900000D01*
X295900000Y-35400000D01*
X295400000Y-35900000D01*
G36*
X296778680Y-38228427D02*
G01*
X296071573Y-37521320D01*
X296778680Y-37521320D01*
X296778680Y-38228427D01*
G37*
X296778680Y-38228427D02*
X296071573Y-37521320D01*
X296778680Y-37521320D01*
X296778680Y-38228427D01*
G36*
X299400000Y-38900000D02*
G01*
X298400000Y-38900000D01*
X298900000Y-38400000D01*
X299400000Y-38900000D01*
G37*
X299400000Y-38900000D02*
X298400000Y-38900000D01*
X298900000Y-38400000D01*
X299400000Y-38900000D01*
G36*
X301728427Y-37521320D02*
G01*
X301021320Y-38228427D01*
X301021320Y-37521320D01*
X301728427Y-37521320D01*
G37*
X301728427Y-37521320D02*
X301021320Y-38228427D01*
X301021320Y-37521320D01*
X301728427Y-37521320D01*
G36*
X302400000Y-34900000D02*
G01*
X302400000Y-35900000D01*
X301900000Y-35400000D01*
X302400000Y-34900000D01*
G37*
X302400000Y-34900000D02*
X302400000Y-35900000D01*
X301900000Y-35400000D01*
X302400000Y-34900000D01*
G36*
X301021320Y-32571573D02*
G01*
X301728427Y-33278680D01*
X301021320Y-33278680D01*
X301021320Y-32571573D01*
G37*
X301021320Y-32571573D02*
X301728427Y-33278680D01*
X301021320Y-33278680D01*
X301021320Y-32571573D01*
G36*
X298400000Y-31900000D02*
G01*
X299400000Y-31900000D01*
X298900000Y-32400000D01*
X298400000Y-31900000D01*
G37*
X298400000Y-31900000D02*
X299400000Y-31900000D01*
X298900000Y-32400000D01*
X298400000Y-31900000D01*
G36*
X296071573Y-33278680D02*
G01*
X296778680Y-32571573D01*
X296778680Y-33278680D01*
X296071573Y-33278680D01*
G37*
X296071573Y-33278680D02*
X296778680Y-32571573D01*
X296778680Y-33278680D01*
X296071573Y-33278680D01*
G36*
X159400000Y-39300000D02*
G01*
X159400000Y-38300000D01*
X159900000Y-38800000D01*
X159400000Y-39300000D01*
G37*
X159400000Y-39300000D02*
X159400000Y-38300000D01*
X159900000Y-38800000D01*
X159400000Y-39300000D01*
G36*
X160778680Y-41628427D02*
G01*
X160071573Y-40921320D01*
X160778680Y-40921320D01*
X160778680Y-41628427D01*
G37*
X160778680Y-41628427D02*
X160071573Y-40921320D01*
X160778680Y-40921320D01*
X160778680Y-41628427D01*
G36*
X163400000Y-42300000D02*
G01*
X162400000Y-42300000D01*
X162900000Y-41800000D01*
X163400000Y-42300000D01*
G37*
X163400000Y-42300000D02*
X162400000Y-42300000D01*
X162900000Y-41800000D01*
X163400000Y-42300000D01*
G36*
X165728427Y-40921320D02*
G01*
X165021320Y-41628427D01*
X165021320Y-40921320D01*
X165728427Y-40921320D01*
G37*
X165728427Y-40921320D02*
X165021320Y-41628427D01*
X165021320Y-40921320D01*
X165728427Y-40921320D01*
G36*
X166400000Y-38300000D02*
G01*
X166400000Y-39300000D01*
X165900000Y-38800000D01*
X166400000Y-38300000D01*
G37*
X166400000Y-38300000D02*
X166400000Y-39300000D01*
X165900000Y-38800000D01*
X166400000Y-38300000D01*
G36*
X165021320Y-35971573D02*
G01*
X165728427Y-36678680D01*
X165021320Y-36678680D01*
X165021320Y-35971573D01*
G37*
X165021320Y-35971573D02*
X165728427Y-36678680D01*
X165021320Y-36678680D01*
X165021320Y-35971573D01*
G36*
X162400000Y-35300000D02*
G01*
X163400000Y-35300000D01*
X162900000Y-35800000D01*
X162400000Y-35300000D01*
G37*
X162400000Y-35300000D02*
X163400000Y-35300000D01*
X162900000Y-35800000D01*
X162400000Y-35300000D01*
G36*
X160071573Y-36678680D02*
G01*
X160778680Y-35971573D01*
X160778680Y-36678680D01*
X160071573Y-36678680D01*
G37*
X160071573Y-36678680D02*
X160778680Y-35971573D01*
X160778680Y-36678680D01*
X160071573Y-36678680D01*
G36*
X42500000Y-39900000D02*
G01*
X42500000Y-38900000D01*
X43000000Y-39400000D01*
X42500000Y-39900000D01*
G37*
X42500000Y-39900000D02*
X42500000Y-38900000D01*
X43000000Y-39400000D01*
X42500000Y-39900000D01*
G36*
X43878680Y-42228427D02*
G01*
X43171573Y-41521320D01*
X43878680Y-41521320D01*
X43878680Y-42228427D01*
G37*
X43878680Y-42228427D02*
X43171573Y-41521320D01*
X43878680Y-41521320D01*
X43878680Y-42228427D01*
G36*
X46500000Y-42900000D02*
G01*
X45500000Y-42900000D01*
X46000000Y-42400000D01*
X46500000Y-42900000D01*
G37*
X46500000Y-42900000D02*
X45500000Y-42900000D01*
X46000000Y-42400000D01*
X46500000Y-42900000D01*
G36*
X48828427Y-41521320D02*
G01*
X48121320Y-42228427D01*
X48121320Y-41521320D01*
X48828427Y-41521320D01*
G37*
X48828427Y-41521320D02*
X48121320Y-42228427D01*
X48121320Y-41521320D01*
X48828427Y-41521320D01*
G36*
X49500000Y-38900000D02*
G01*
X49500000Y-39900000D01*
X49000000Y-39400000D01*
X49500000Y-38900000D01*
G37*
X49500000Y-38900000D02*
X49500000Y-39900000D01*
X49000000Y-39400000D01*
X49500000Y-38900000D01*
G36*
X48121320Y-36571573D02*
G01*
X48828427Y-37278680D01*
X48121320Y-37278680D01*
X48121320Y-36571573D01*
G37*
X48121320Y-36571573D02*
X48828427Y-37278680D01*
X48121320Y-37278680D01*
X48121320Y-36571573D01*
G36*
X45500000Y-35900000D02*
G01*
X46500000Y-35900000D01*
X46000000Y-36400000D01*
X45500000Y-35900000D01*
G37*
X45500000Y-35900000D02*
X46500000Y-35900000D01*
X46000000Y-36400000D01*
X45500000Y-35900000D01*
G36*
X43171573Y-37278680D02*
G01*
X43878680Y-36571573D01*
X43878680Y-37278680D01*
X43171573Y-37278680D01*
G37*
X43171573Y-37278680D02*
X43878680Y-36571573D01*
X43878680Y-37278680D01*
X43171573Y-37278680D01*
D13*
%TO.C,X1*%
X23350000Y-109825000D02*
X29100000Y-109825000D01*
X29100000Y-109825000D02*
X29100000Y-113425000D01*
X29100000Y-113425000D02*
X23350000Y-113425000D01*
%TO.C,C1*%
X24000000Y-107800000D02*
X24700000Y-107800000D01*
X24700000Y-106600000D02*
X24000000Y-106600000D01*
%TO.C,C8*%
X23500000Y-101300000D02*
X23500000Y-100600000D01*
X22300000Y-100600000D02*
X22300000Y-101300000D01*
%TO.C,C7*%
X44391421Y-95792893D02*
X43896447Y-95297919D01*
X43047919Y-96146447D02*
X43542893Y-96641421D01*
%TO.C,C6*%
X32383223Y-95178249D02*
X31888249Y-95673223D01*
X32736777Y-96521751D02*
X33231751Y-96026777D01*
%TO.C,C5*%
X46976777Y-109971751D02*
X47471751Y-109476777D01*
X46623223Y-108628249D02*
X46128249Y-109123223D01*
%TO.C,C4*%
X29792893Y-97658579D02*
X29297919Y-98153553D01*
X30146447Y-99002081D02*
X30641421Y-98507107D01*
%TO.C,C3*%
X24000000Y-109400000D02*
X24700000Y-109400000D01*
X24700000Y-108200000D02*
X24000000Y-108200000D01*
%TO.C,C2*%
X27400000Y-109400000D02*
X28100000Y-109400000D01*
X28100000Y-108200000D02*
X27400000Y-108200000D01*
%TO.C,D1*%
X41750000Y-34300000D02*
X41750000Y-36850000D01*
X43450000Y-34300000D02*
X43450000Y-36850000D01*
X41750000Y-34300000D02*
X43450000Y-34300000D01*
%TO.C,D26*%
X260350000Y-53300000D02*
X260350000Y-55850000D01*
X262050000Y-53300000D02*
X262050000Y-55850000D01*
X260350000Y-53300000D02*
X262050000Y-53300000D01*
%TO.C,D7*%
X157650000Y-37600000D02*
X157650000Y-40150000D01*
X159350000Y-37600000D02*
X159350000Y-40150000D01*
X157650000Y-37600000D02*
X159350000Y-37600000D01*
%TO.C,D66*%
X317350000Y-34300000D02*
X317350000Y-36850000D01*
X319050000Y-34300000D02*
X319050000Y-36850000D01*
X317350000Y-34300000D02*
X319050000Y-34300000D01*
%TO.C,D65*%
X295750000Y-110300000D02*
X295750000Y-112850000D01*
X297450000Y-110300000D02*
X297450000Y-112850000D01*
X295750000Y-110300000D02*
X297450000Y-110300000D01*
%TO.C,D64*%
X264950000Y-110300000D02*
X264950000Y-112850000D01*
X266650000Y-110300000D02*
X266650000Y-112850000D01*
X264950000Y-110300000D02*
X266650000Y-110300000D01*
%TO.C,D63*%
X234150000Y-110300000D02*
X234150000Y-112850000D01*
X235850000Y-110300000D02*
X235850000Y-112850000D01*
X234150000Y-110300000D02*
X235850000Y-110300000D01*
%TO.C,D62*%
X210350000Y-110300000D02*
X210350000Y-112850000D01*
X212050000Y-110300000D02*
X212050000Y-112850000D01*
X210350000Y-110300000D02*
X212050000Y-110300000D01*
%TO.C,D61*%
X186550000Y-110300000D02*
X186550000Y-112850000D01*
X188250000Y-110300000D02*
X188250000Y-112850000D01*
X186550000Y-110300000D02*
X188250000Y-110300000D01*
%TO.C,D60*%
X153350000Y-110300000D02*
X153350000Y-112850000D01*
X155050000Y-110300000D02*
X155050000Y-112850000D01*
X153350000Y-110300000D02*
X155050000Y-110300000D01*
%TO.C,D59*%
X122550000Y-110300000D02*
X122550000Y-112850000D01*
X124250000Y-110300000D02*
X124250000Y-112850000D01*
X122550000Y-110300000D02*
X124250000Y-110300000D01*
%TO.C,D58*%
X101150000Y-110300000D02*
X101150000Y-112850000D01*
X102850000Y-110300000D02*
X102850000Y-112850000D01*
X101150000Y-110300000D02*
X102850000Y-110300000D01*
%TO.C,D57*%
X70350000Y-110300000D02*
X70350000Y-112850000D01*
X72050000Y-110300000D02*
X72050000Y-112850000D01*
X70350000Y-110300000D02*
X72050000Y-110300000D01*
%TO.C,D56*%
X317350000Y-91300000D02*
X317350000Y-93850000D01*
X319050000Y-91300000D02*
X319050000Y-93850000D01*
X317350000Y-91300000D02*
X319050000Y-91300000D01*
%TO.C,D55*%
X284150000Y-91300000D02*
X284150000Y-93850000D01*
X285850000Y-91300000D02*
X285850000Y-93850000D01*
X284150000Y-91300000D02*
X285850000Y-91300000D01*
%TO.C,D54*%
X255550000Y-91300000D02*
X255550000Y-93850000D01*
X257250000Y-91300000D02*
X257250000Y-93850000D01*
X255550000Y-91300000D02*
X257250000Y-91300000D01*
%TO.C,D53*%
X236550000Y-91300000D02*
X236550000Y-93850000D01*
X238250000Y-91300000D02*
X238250000Y-93850000D01*
X236550000Y-91300000D02*
X238250000Y-91300000D01*
%TO.C,D52*%
X217550000Y-91300000D02*
X217550000Y-93850000D01*
X219250000Y-91300000D02*
X219250000Y-93850000D01*
X217550000Y-91300000D02*
X219250000Y-91300000D01*
%TO.C,D51*%
X198550000Y-91300000D02*
X198550000Y-93850000D01*
X200250000Y-91300000D02*
X200250000Y-93850000D01*
X198550000Y-91300000D02*
X200250000Y-91300000D01*
%TO.C,D50*%
X179550000Y-91300000D02*
X179550000Y-93850000D01*
X181250000Y-91300000D02*
X181250000Y-93850000D01*
X179550000Y-91300000D02*
X181250000Y-91300000D01*
%TO.C,D49*%
X160550000Y-91300000D02*
X160550000Y-93850000D01*
X162250000Y-91300000D02*
X162250000Y-93850000D01*
X160550000Y-91300000D02*
X162250000Y-91300000D01*
%TO.C,D48*%
X141550000Y-91300000D02*
X141550000Y-93850000D01*
X143250000Y-91300000D02*
X143250000Y-93850000D01*
X141550000Y-91300000D02*
X143250000Y-91300000D01*
%TO.C,D47*%
X122550000Y-91300000D02*
X122550000Y-93850000D01*
X124250000Y-91300000D02*
X124250000Y-93850000D01*
X122550000Y-91300000D02*
X124250000Y-91300000D01*
%TO.C,D46*%
X103550000Y-91300000D02*
X103550000Y-93850000D01*
X105250000Y-91300000D02*
X105250000Y-93850000D01*
X103550000Y-91300000D02*
X105250000Y-91300000D01*
%TO.C,D45*%
X84550000Y-91300000D02*
X84550000Y-93850000D01*
X86250000Y-91300000D02*
X86250000Y-93850000D01*
X84550000Y-91300000D02*
X86250000Y-91300000D01*
%TO.C,D44*%
X65550000Y-91300000D02*
X65550000Y-93850000D01*
X67250000Y-91300000D02*
X67250000Y-93850000D01*
X65550000Y-91300000D02*
X67250000Y-91300000D01*
%TO.C,D43*%
X41750000Y-91300000D02*
X41750000Y-93850000D01*
X43450000Y-91300000D02*
X43450000Y-93850000D01*
X41750000Y-91300000D02*
X43450000Y-91300000D01*
%TO.C,D42*%
X312550000Y-72300000D02*
X312550000Y-74850000D01*
X314250000Y-72300000D02*
X314250000Y-74850000D01*
X312550000Y-72300000D02*
X314250000Y-72300000D01*
%TO.C,D41*%
X284150000Y-72300000D02*
X284150000Y-74850000D01*
X285850000Y-72300000D02*
X285850000Y-74850000D01*
X284150000Y-72300000D02*
X285850000Y-72300000D01*
%TO.C,D40*%
X265150000Y-72300000D02*
X265150000Y-74850000D01*
X266850000Y-72300000D02*
X266850000Y-74850000D01*
X265150000Y-72300000D02*
X266850000Y-72300000D01*
%TO.C,D39*%
X246150000Y-72300000D02*
X246150000Y-74850000D01*
X247850000Y-72300000D02*
X247850000Y-74850000D01*
X246150000Y-72300000D02*
X247850000Y-72300000D01*
%TO.C,D38*%
X227150000Y-72300000D02*
X227150000Y-74850000D01*
X228850000Y-72300000D02*
X228850000Y-74850000D01*
X227150000Y-72300000D02*
X228850000Y-72300000D01*
%TO.C,D37*%
X208150000Y-72300000D02*
X208150000Y-74850000D01*
X209850000Y-72300000D02*
X209850000Y-74850000D01*
X208150000Y-72300000D02*
X209850000Y-72300000D01*
%TO.C,D36*%
X189150000Y-72300000D02*
X189150000Y-74850000D01*
X190850000Y-72300000D02*
X190850000Y-74850000D01*
X189150000Y-72300000D02*
X190850000Y-72300000D01*
%TO.C,D35*%
X170150000Y-72300000D02*
X170150000Y-74850000D01*
X171850000Y-72300000D02*
X171850000Y-74850000D01*
X170150000Y-72300000D02*
X171850000Y-72300000D01*
%TO.C,D34*%
X151150000Y-72300000D02*
X151150000Y-74850000D01*
X152850000Y-72300000D02*
X152850000Y-74850000D01*
X151150000Y-72300000D02*
X152850000Y-72300000D01*
%TO.C,D33*%
X132150000Y-72300000D02*
X132150000Y-74850000D01*
X133850000Y-72300000D02*
X133850000Y-74850000D01*
X132150000Y-72300000D02*
X133850000Y-72300000D01*
%TO.C,D32*%
X113150000Y-72300000D02*
X113150000Y-74850000D01*
X114850000Y-72300000D02*
X114850000Y-74850000D01*
X113150000Y-72300000D02*
X114850000Y-72300000D01*
%TO.C,D31*%
X94150000Y-72300000D02*
X94150000Y-74850000D01*
X95850000Y-72300000D02*
X95850000Y-74850000D01*
X94150000Y-72300000D02*
X95850000Y-72300000D01*
%TO.C,D30*%
X75150000Y-72300000D02*
X75150000Y-74850000D01*
X76850000Y-72300000D02*
X76850000Y-74850000D01*
X75150000Y-72300000D02*
X76850000Y-72300000D01*
%TO.C,D29*%
X46550000Y-72300000D02*
X46550000Y-74850000D01*
X48250000Y-72300000D02*
X48250000Y-74850000D01*
X46550000Y-72300000D02*
X48250000Y-72300000D01*
%TO.C,D28*%
X310150000Y-53300000D02*
X310150000Y-55850000D01*
X311850000Y-53300000D02*
X311850000Y-55850000D01*
X310150000Y-53300000D02*
X311850000Y-53300000D01*
%TO.C,D27*%
X279350000Y-53300000D02*
X279350000Y-55850000D01*
X281050000Y-53300000D02*
X281050000Y-55850000D01*
X279350000Y-53300000D02*
X281050000Y-53300000D01*
%TO.C,D25*%
X241350000Y-53300000D02*
X241350000Y-55850000D01*
X243050000Y-53300000D02*
X243050000Y-55850000D01*
X241350000Y-53300000D02*
X243050000Y-53300000D01*
%TO.C,D24*%
X222350000Y-53300000D02*
X222350000Y-55850000D01*
X224050000Y-53300000D02*
X224050000Y-55850000D01*
X222350000Y-53300000D02*
X224050000Y-53300000D01*
%TO.C,D23*%
X203350000Y-53300000D02*
X203350000Y-55850000D01*
X205050000Y-53300000D02*
X205050000Y-55850000D01*
X203350000Y-53300000D02*
X205050000Y-53300000D01*
%TO.C,D22*%
X184350000Y-53300000D02*
X184350000Y-55850000D01*
X186050000Y-53300000D02*
X186050000Y-55850000D01*
X184350000Y-53300000D02*
X186050000Y-53300000D01*
%TO.C,D21*%
X165350000Y-53300000D02*
X165350000Y-55850000D01*
X167050000Y-53300000D02*
X167050000Y-55850000D01*
X165350000Y-53300000D02*
X167050000Y-53300000D01*
%TO.C,D20*%
X146350000Y-53300000D02*
X146350000Y-55850000D01*
X148050000Y-53300000D02*
X148050000Y-55850000D01*
X146350000Y-53300000D02*
X148050000Y-53300000D01*
%TO.C,D19*%
X127350000Y-53300000D02*
X127350000Y-55850000D01*
X129050000Y-53300000D02*
X129050000Y-55850000D01*
X127350000Y-53300000D02*
X129050000Y-53300000D01*
%TO.C,D18*%
X108350000Y-53300000D02*
X108350000Y-55850000D01*
X110050000Y-53300000D02*
X110050000Y-55850000D01*
X108350000Y-53300000D02*
X110050000Y-53300000D01*
%TO.C,D17*%
X89350000Y-53300000D02*
X89350000Y-55850000D01*
X91050000Y-53300000D02*
X91050000Y-55850000D01*
X89350000Y-53300000D02*
X91050000Y-53300000D01*
%TO.C,D16*%
X70350000Y-53300000D02*
X70350000Y-55850000D01*
X72050000Y-53300000D02*
X72050000Y-55850000D01*
X70350000Y-53300000D02*
X72050000Y-53300000D01*
%TO.C,D15*%
X44150000Y-53300000D02*
X44150000Y-55850000D01*
X45850000Y-53300000D02*
X45850000Y-55850000D01*
X44150000Y-53300000D02*
X45850000Y-53300000D01*
%TO.C,D14*%
X293550000Y-34300000D02*
X293550000Y-36850000D01*
X295250000Y-34300000D02*
X295250000Y-36850000D01*
X293550000Y-34300000D02*
X295250000Y-34300000D01*
%TO.C,D13*%
X274550000Y-34300000D02*
X274550000Y-36850000D01*
X276250000Y-34300000D02*
X276250000Y-36850000D01*
X274550000Y-34300000D02*
X276250000Y-34300000D01*
%TO.C,D12*%
X255550000Y-34300000D02*
X255550000Y-36850000D01*
X257250000Y-34300000D02*
X257250000Y-36850000D01*
X255550000Y-34300000D02*
X257250000Y-34300000D01*
%TO.C,D11*%
X236550000Y-34300000D02*
X236550000Y-36850000D01*
X238250000Y-34300000D02*
X238250000Y-36850000D01*
X236550000Y-34300000D02*
X238250000Y-34300000D01*
%TO.C,D10*%
X217550000Y-34300000D02*
X217550000Y-36850000D01*
X219250000Y-34300000D02*
X219250000Y-36850000D01*
X217550000Y-34300000D02*
X219250000Y-34300000D01*
%TO.C,D9*%
X198550000Y-34300000D02*
X198550000Y-36850000D01*
X200250000Y-34300000D02*
X200250000Y-36850000D01*
X198550000Y-34300000D02*
X200250000Y-34300000D01*
%TO.C,D8*%
X179550000Y-34300000D02*
X179550000Y-36850000D01*
X181250000Y-34300000D02*
X181250000Y-36850000D01*
X179550000Y-34300000D02*
X181250000Y-34300000D01*
%TO.C,D6*%
X141550000Y-34300000D02*
X141550000Y-36850000D01*
X143250000Y-34300000D02*
X143250000Y-36850000D01*
X141550000Y-34300000D02*
X143250000Y-34300000D01*
%TO.C,D5*%
X122550000Y-34300000D02*
X122550000Y-36850000D01*
X124250000Y-34300000D02*
X124250000Y-36850000D01*
X122550000Y-34300000D02*
X124250000Y-34300000D01*
%TO.C,D4*%
X103550000Y-34300000D02*
X103550000Y-36850000D01*
X105250000Y-34300000D02*
X105250000Y-36850000D01*
X103550000Y-34300000D02*
X105250000Y-34300000D01*
%TO.C,D3*%
X84550000Y-34300000D02*
X84550000Y-36850000D01*
X86250000Y-34300000D02*
X86250000Y-36850000D01*
X84550000Y-34300000D02*
X86250000Y-34300000D01*
%TO.C,D2*%
X65550000Y-34300000D02*
X65550000Y-36850000D01*
X67250000Y-34300000D02*
X67250000Y-36850000D01*
X65550000Y-34300000D02*
X67250000Y-34300000D01*
%TO.C,R2*%
X45880000Y-30350000D02*
X45880000Y-29350000D01*
X44520000Y-29350000D02*
X44520000Y-30350000D01*
%TO.C,R6*%
X43172721Y-111965614D02*
X42465614Y-112672721D01*
X43427279Y-113634386D02*
X44134386Y-112927279D01*
%TO.C,R5*%
X46120000Y-29350000D02*
X46120000Y-30350000D01*
X47480000Y-30350000D02*
X47480000Y-29350000D01*
%TO.C,R4*%
X47720000Y-29350000D02*
X47720000Y-30350000D01*
X49080000Y-30350000D02*
X49080000Y-29350000D01*
%TO.C,R3*%
X50680000Y-30350000D02*
X50680000Y-29350000D01*
X49320000Y-29350000D02*
X49320000Y-30350000D01*
%TO.C,R1*%
X22220000Y-97400000D02*
X22220000Y-98400000D01*
X23580000Y-98400000D02*
X23580000Y-97400000D01*
D10*
%TO.C,U1*%
X31288031Y-103993414D02*
X30386470Y-103091852D01*
X38200000Y-111718555D02*
X37722703Y-111241258D01*
X45518555Y-104400000D02*
X45041258Y-103922703D01*
X38200000Y-97081445D02*
X38677297Y-97558742D01*
X30881445Y-104400000D02*
X31358742Y-104877297D01*
X38200000Y-97081445D02*
X37722703Y-97558742D01*
X45518555Y-104400000D02*
X45041258Y-104877297D01*
X38200000Y-111718555D02*
X38677297Y-111241258D01*
X30881445Y-104400000D02*
X31288031Y-103993414D01*
D14*
%TO.C,G\002A\002A\002A*%
G36*
X307246167Y-111799334D02*
G01*
X307669500Y-111799334D01*
X307669500Y-111439500D01*
X307246167Y-111439500D01*
X307246167Y-111799334D01*
X307246167Y-111799334D01*
G37*
X307246167Y-111799334D02*
X307669500Y-111799334D01*
X307669500Y-111439500D01*
X307246167Y-111439500D01*
X307246167Y-111799334D01*
G36*
X315522334Y-111799334D02*
G01*
X315945667Y-111799334D01*
X315945667Y-111439500D01*
X315522334Y-111439500D01*
X315522334Y-111799334D01*
X315522334Y-111799334D01*
G37*
X315522334Y-111799334D02*
X315945667Y-111799334D01*
X315945667Y-111439500D01*
X315522334Y-111439500D01*
X315522334Y-111799334D01*
G36*
X307246167Y-113594497D02*
G01*
X307431375Y-113729734D01*
X307509720Y-113786662D01*
X307576951Y-113835000D01*
X307624749Y-113868800D01*
X307643042Y-113881151D01*
X307649362Y-113877179D01*
X307654653Y-113854915D01*
X307658995Y-113811427D01*
X307662466Y-113743780D01*
X307665144Y-113649040D01*
X307667107Y-113524273D01*
X307668434Y-113366546D01*
X307669203Y-113172923D01*
X307669493Y-112940472D01*
X307669500Y-112890666D01*
X307669500Y-111884000D01*
X307246167Y-111884000D01*
X307246167Y-113594497D01*
X307246167Y-113594497D01*
G37*
X307246167Y-113594497D02*
X307431375Y-113729734D01*
X307509720Y-113786662D01*
X307576951Y-113835000D01*
X307624749Y-113868800D01*
X307643042Y-113881151D01*
X307649362Y-113877179D01*
X307654653Y-113854915D01*
X307658995Y-113811427D01*
X307662466Y-113743780D01*
X307665144Y-113649040D01*
X307667107Y-113524273D01*
X307668434Y-113366546D01*
X307669203Y-113172923D01*
X307669493Y-112940472D01*
X307669500Y-112890666D01*
X307669500Y-111884000D01*
X307246167Y-111884000D01*
X307246167Y-113594497D01*
G36*
X312414269Y-112196209D02*
G01*
X312308343Y-112508417D01*
X312306672Y-112196209D01*
X312305000Y-111884000D01*
X311902834Y-111884000D01*
X311902834Y-113640512D01*
X312084860Y-113783548D01*
X312159948Y-113842043D01*
X312222802Y-113890053D01*
X312265985Y-113921958D01*
X312281468Y-113932148D01*
X312291872Y-113914750D01*
X312311723Y-113863039D01*
X312338832Y-113783405D01*
X312371011Y-113682236D01*
X312401068Y-113582898D01*
X312506084Y-113228084D01*
X312511887Y-113582625D01*
X312514671Y-113699661D01*
X312518720Y-113800246D01*
X312523623Y-113877492D01*
X312528967Y-113924510D01*
X312533054Y-113935791D01*
X312555010Y-113923111D01*
X312603177Y-113889677D01*
X312670305Y-113840665D01*
X312744209Y-113785020D01*
X312940000Y-113635626D01*
X312940000Y-111884000D01*
X312520195Y-111884000D01*
X312414269Y-112196209D01*
X312414269Y-112196209D01*
G37*
X312414269Y-112196209D02*
X312308343Y-112508417D01*
X312306672Y-112196209D01*
X312305000Y-111884000D01*
X311902834Y-111884000D01*
X311902834Y-113640512D01*
X312084860Y-113783548D01*
X312159948Y-113842043D01*
X312222802Y-113890053D01*
X312265985Y-113921958D01*
X312281468Y-113932148D01*
X312291872Y-113914750D01*
X312311723Y-113863039D01*
X312338832Y-113783405D01*
X312371011Y-113682236D01*
X312401068Y-113582898D01*
X312506084Y-113228084D01*
X312511887Y-113582625D01*
X312514671Y-113699661D01*
X312518720Y-113800246D01*
X312523623Y-113877492D01*
X312528967Y-113924510D01*
X312533054Y-113935791D01*
X312555010Y-113923111D01*
X312603177Y-113889677D01*
X312670305Y-113840665D01*
X312744209Y-113785020D01*
X312940000Y-113635626D01*
X312940000Y-111884000D01*
X312520195Y-111884000D01*
X312414269Y-112196209D01*
G36*
X313620769Y-112196209D02*
G01*
X313514843Y-112508417D01*
X313513172Y-112196209D01*
X313511500Y-111884000D01*
X313109334Y-111884000D01*
X313109334Y-113640512D01*
X313291360Y-113783548D01*
X313366448Y-113842043D01*
X313429302Y-113890053D01*
X313472485Y-113921958D01*
X313487968Y-113932148D01*
X313498372Y-113914750D01*
X313518223Y-113863039D01*
X313545332Y-113783405D01*
X313577511Y-113682236D01*
X313607568Y-113582898D01*
X313712584Y-113228084D01*
X313718387Y-113582625D01*
X313721171Y-113699661D01*
X313725220Y-113800246D01*
X313730123Y-113877492D01*
X313735467Y-113924510D01*
X313739554Y-113935791D01*
X313761510Y-113923111D01*
X313809677Y-113889677D01*
X313876805Y-113840665D01*
X313950709Y-113785020D01*
X314146500Y-113635626D01*
X314146500Y-111884000D01*
X313726695Y-111884000D01*
X313620769Y-112196209D01*
X313620769Y-112196209D01*
G37*
X313620769Y-112196209D02*
X313514843Y-112508417D01*
X313513172Y-112196209D01*
X313511500Y-111884000D01*
X313109334Y-111884000D01*
X313109334Y-113640512D01*
X313291360Y-113783548D01*
X313366448Y-113842043D01*
X313429302Y-113890053D01*
X313472485Y-113921958D01*
X313487968Y-113932148D01*
X313498372Y-113914750D01*
X313518223Y-113863039D01*
X313545332Y-113783405D01*
X313577511Y-113682236D01*
X313607568Y-113582898D01*
X313712584Y-113228084D01*
X313718387Y-113582625D01*
X313721171Y-113699661D01*
X313725220Y-113800246D01*
X313730123Y-113877492D01*
X313735467Y-113924510D01*
X313739554Y-113935791D01*
X313761510Y-113923111D01*
X313809677Y-113889677D01*
X313876805Y-113840665D01*
X313950709Y-113785020D01*
X314146500Y-113635626D01*
X314146500Y-111884000D01*
X313726695Y-111884000D01*
X313620769Y-112196209D01*
G36*
X305468167Y-113361725D02*
G01*
X305362334Y-113450334D01*
X305256500Y-113538942D01*
X305256500Y-113175167D01*
X304831686Y-113175167D01*
X304843750Y-113605101D01*
X305108334Y-113801610D01*
X305200609Y-113869203D01*
X305281657Y-113926806D01*
X305345143Y-113970052D01*
X305384730Y-113994575D01*
X305394084Y-113998502D01*
X305417490Y-113986036D01*
X305467001Y-113951579D01*
X305535988Y-113899990D01*
X305617824Y-113836126D01*
X305642792Y-113816182D01*
X305870334Y-113633478D01*
X305870334Y-111884000D01*
X305468167Y-111884000D01*
X305468167Y-113361725D01*
X305468167Y-113361725D01*
G37*
X305468167Y-113361725D02*
X305362334Y-113450334D01*
X305256500Y-113538942D01*
X305256500Y-113175167D01*
X304831686Y-113175167D01*
X304843750Y-113605101D01*
X305108334Y-113801610D01*
X305200609Y-113869203D01*
X305281657Y-113926806D01*
X305345143Y-113970052D01*
X305384730Y-113994575D01*
X305394084Y-113998502D01*
X305417490Y-113986036D01*
X305467001Y-113951579D01*
X305535988Y-113899990D01*
X305617824Y-113836126D01*
X305642792Y-113816182D01*
X305870334Y-113633478D01*
X305870334Y-111884000D01*
X305468167Y-111884000D01*
X305468167Y-113361725D01*
G36*
X306674667Y-113361725D02*
G01*
X306568834Y-113450334D01*
X306463000Y-113538942D01*
X306463000Y-113175167D01*
X306038186Y-113175167D01*
X306050250Y-113605101D01*
X306314834Y-113801610D01*
X306407109Y-113869203D01*
X306488157Y-113926806D01*
X306551643Y-113970052D01*
X306591230Y-113994575D01*
X306600584Y-113998502D01*
X306623990Y-113986036D01*
X306673501Y-113951579D01*
X306742488Y-113899990D01*
X306824324Y-113836126D01*
X306849292Y-113816182D01*
X307076834Y-113633478D01*
X307076834Y-111884000D01*
X306674667Y-111884000D01*
X306674667Y-113361725D01*
X306674667Y-113361725D01*
G37*
X306674667Y-113361725D02*
X306568834Y-113450334D01*
X306463000Y-113538942D01*
X306463000Y-113175167D01*
X306038186Y-113175167D01*
X306050250Y-113605101D01*
X306314834Y-113801610D01*
X306407109Y-113869203D01*
X306488157Y-113926806D01*
X306551643Y-113970052D01*
X306591230Y-113994575D01*
X306600584Y-113998502D01*
X306623990Y-113986036D01*
X306673501Y-113951579D01*
X306742488Y-113899990D01*
X306824324Y-113836126D01*
X306849292Y-113816182D01*
X307076834Y-113633478D01*
X307076834Y-111884000D01*
X306674667Y-111884000D01*
X306674667Y-113361725D01*
G36*
X307904112Y-111966421D02*
G01*
X307871313Y-112011095D01*
X307851824Y-112051494D01*
X307842217Y-112100961D01*
X307839063Y-112172841D01*
X307838834Y-112220421D01*
X307838834Y-112392000D01*
X308262167Y-112392000D01*
X308262167Y-112262788D01*
X308484417Y-112275584D01*
X308490516Y-112434980D01*
X308496614Y-112594376D01*
X308173016Y-112766393D01*
X307849417Y-112938410D01*
X307837843Y-113633582D01*
X308113371Y-113817125D01*
X308208751Y-113879952D01*
X308291907Y-113933387D01*
X308356447Y-113973428D01*
X308395981Y-113996073D01*
X308404908Y-113999661D01*
X308426486Y-113986817D01*
X308474536Y-113952294D01*
X308542543Y-113900946D01*
X308623990Y-113837624D01*
X308648459Y-113818297D01*
X308876000Y-113637938D01*
X308876000Y-113281000D01*
X308687969Y-113281000D01*
X308596581Y-113282063D01*
X308539157Y-113286310D01*
X308507356Y-113295329D01*
X308492838Y-113310710D01*
X308490083Y-113318686D01*
X308469467Y-113351053D01*
X308425262Y-113398682D01*
X308371198Y-113447657D01*
X308262167Y-113538942D01*
X308262167Y-113141579D01*
X308569084Y-112966391D01*
X308876000Y-112791204D01*
X308876000Y-112407704D01*
X308875720Y-112270556D01*
X308874398Y-112168873D01*
X308871313Y-112095790D01*
X308865744Y-112044439D01*
X308856970Y-112007954D01*
X308844269Y-111979469D01*
X308828375Y-111954246D01*
X308780750Y-111884289D01*
X308375071Y-111884145D01*
X307969391Y-111884000D01*
X307904112Y-111966421D01*
X307904112Y-111966421D01*
G37*
X307904112Y-111966421D02*
X307871313Y-112011095D01*
X307851824Y-112051494D01*
X307842217Y-112100961D01*
X307839063Y-112172841D01*
X307838834Y-112220421D01*
X307838834Y-112392000D01*
X308262167Y-112392000D01*
X308262167Y-112262788D01*
X308484417Y-112275584D01*
X308490516Y-112434980D01*
X308496614Y-112594376D01*
X308173016Y-112766393D01*
X307849417Y-112938410D01*
X307837843Y-113633582D01*
X308113371Y-113817125D01*
X308208751Y-113879952D01*
X308291907Y-113933387D01*
X308356447Y-113973428D01*
X308395981Y-113996073D01*
X308404908Y-113999661D01*
X308426486Y-113986817D01*
X308474536Y-113952294D01*
X308542543Y-113900946D01*
X308623990Y-113837624D01*
X308648459Y-113818297D01*
X308876000Y-113637938D01*
X308876000Y-113281000D01*
X308687969Y-113281000D01*
X308596581Y-113282063D01*
X308539157Y-113286310D01*
X308507356Y-113295329D01*
X308492838Y-113310710D01*
X308490083Y-113318686D01*
X308469467Y-113351053D01*
X308425262Y-113398682D01*
X308371198Y-113447657D01*
X308262167Y-113538942D01*
X308262167Y-113141579D01*
X308569084Y-112966391D01*
X308876000Y-112791204D01*
X308876000Y-112407704D01*
X308875720Y-112270556D01*
X308874398Y-112168873D01*
X308871313Y-112095790D01*
X308865744Y-112044439D01*
X308856970Y-112007954D01*
X308844269Y-111979469D01*
X308828375Y-111954246D01*
X308780750Y-111884289D01*
X308375071Y-111884145D01*
X307969391Y-111884000D01*
X307904112Y-111966421D01*
G36*
X314394213Y-111964268D02*
G01*
X314315834Y-112044535D01*
X314315834Y-113595040D01*
X314590822Y-113797853D01*
X314684597Y-113866311D01*
X314766658Y-113924889D01*
X314830923Y-113969350D01*
X314871308Y-113995455D01*
X314881864Y-114000574D01*
X314903398Y-113988011D01*
X314951324Y-113953618D01*
X315019158Y-113902236D01*
X315100415Y-113838703D01*
X315125459Y-113818781D01*
X315353000Y-113637081D01*
X315353000Y-113340578D01*
X314972731Y-113340578D01*
X314861605Y-113437789D01*
X314805836Y-113485921D01*
X314764130Y-113520686D01*
X314745057Y-113534952D01*
X314744822Y-113535000D01*
X314743395Y-113514702D01*
X314742101Y-113457284D01*
X314740985Y-113367958D01*
X314740096Y-113251938D01*
X314739481Y-113114435D01*
X314739186Y-112960664D01*
X314739167Y-112909477D01*
X314739167Y-112283955D01*
X314850292Y-112290352D01*
X314961417Y-112296750D01*
X314972731Y-113340578D01*
X315353000Y-113340578D01*
X315353000Y-112050486D01*
X315284209Y-111967625D01*
X315215417Y-111884763D01*
X314844005Y-111884382D01*
X314472592Y-111884000D01*
X314394213Y-111964268D01*
X314394213Y-111964268D01*
G37*
X314394213Y-111964268D02*
X314315834Y-112044535D01*
X314315834Y-113595040D01*
X314590822Y-113797853D01*
X314684597Y-113866311D01*
X314766658Y-113924889D01*
X314830923Y-113969350D01*
X314871308Y-113995455D01*
X314881864Y-114000574D01*
X314903398Y-113988011D01*
X314951324Y-113953618D01*
X315019158Y-113902236D01*
X315100415Y-113838703D01*
X315125459Y-113818781D01*
X315353000Y-113637081D01*
X315353000Y-113340578D01*
X314972731Y-113340578D01*
X314861605Y-113437789D01*
X314805836Y-113485921D01*
X314764130Y-113520686D01*
X314745057Y-113534952D01*
X314744822Y-113535000D01*
X314743395Y-113514702D01*
X314742101Y-113457284D01*
X314740985Y-113367958D01*
X314740096Y-113251938D01*
X314739481Y-113114435D01*
X314739186Y-112960664D01*
X314739167Y-112909477D01*
X314739167Y-112283955D01*
X314850292Y-112290352D01*
X314961417Y-112296750D01*
X314972731Y-113340578D01*
X315353000Y-113340578D01*
X315353000Y-112050486D01*
X315284209Y-111967625D01*
X315215417Y-111884763D01*
X314844005Y-111884382D01*
X314472592Y-111884000D01*
X314394213Y-111964268D01*
G36*
X315527388Y-112744495D02*
G01*
X315532917Y-113604989D01*
X315797500Y-113801554D01*
X315889771Y-113869163D01*
X315970817Y-113926780D01*
X316034302Y-113970038D01*
X316073892Y-113994571D01*
X316083250Y-113998502D01*
X316106657Y-113986036D01*
X316156167Y-113951579D01*
X316225154Y-113899990D01*
X316306991Y-113836126D01*
X316331959Y-113816182D01*
X316559500Y-113633478D01*
X316559500Y-113215912D01*
X316363709Y-113221998D01*
X316167917Y-113228084D01*
X316161352Y-113295970D01*
X316147113Y-113345993D01*
X316109752Y-113396671D01*
X316050227Y-113451400D01*
X315945667Y-113538942D01*
X315945667Y-111884000D01*
X315521859Y-111884000D01*
X315527388Y-112744495D01*
X315527388Y-112744495D01*
G37*
X315527388Y-112744495D02*
X315532917Y-113604989D01*
X315797500Y-113801554D01*
X315889771Y-113869163D01*
X315970817Y-113926780D01*
X316034302Y-113970038D01*
X316073892Y-113994571D01*
X316083250Y-113998502D01*
X316106657Y-113986036D01*
X316156167Y-113951579D01*
X316225154Y-113899990D01*
X316306991Y-113836126D01*
X316331959Y-113816182D01*
X316559500Y-113633478D01*
X316559500Y-113215912D01*
X316363709Y-113221998D01*
X316167917Y-113228084D01*
X316161352Y-113295970D01*
X316147113Y-113345993D01*
X316109752Y-113396671D01*
X316050227Y-113451400D01*
X315945667Y-113538942D01*
X315945667Y-111884000D01*
X315521859Y-111884000D01*
X315527388Y-112744495D01*
G36*
X310554198Y-111757102D02*
G01*
X310499760Y-111807622D01*
X310428656Y-111874526D01*
X310354690Y-111944813D01*
X310341792Y-111957151D01*
X310209500Y-112083861D01*
X310209500Y-112340398D01*
X310208458Y-112461727D01*
X310205612Y-112607802D01*
X310201385Y-112761097D01*
X310196196Y-112904084D01*
X310195612Y-112917801D01*
X310181724Y-113238667D01*
X310109841Y-113238667D01*
X310071560Y-113243268D01*
X310031799Y-113260524D01*
X309982629Y-113295611D01*
X309916117Y-113353705D01*
X309875021Y-113391923D01*
X309807201Y-113456558D01*
X309751775Y-113510975D01*
X309715531Y-113548411D01*
X309705028Y-113561256D01*
X309721924Y-113567546D01*
X309773139Y-113572683D01*
X309850667Y-113576125D01*
X309943153Y-113577334D01*
X310047986Y-113577654D01*
X310117662Y-113579544D01*
X310159359Y-113584399D01*
X310180254Y-113593612D01*
X310187524Y-113608576D01*
X310188352Y-113624959D01*
X310204379Y-113664114D01*
X310251943Y-113729704D01*
X310330302Y-113820776D01*
X310398958Y-113894834D01*
X310609546Y-114117084D01*
X310610607Y-113836625D01*
X310611667Y-113556167D01*
X310687989Y-113556167D01*
X310727544Y-113552225D01*
X310766618Y-113536894D01*
X310813526Y-113504910D01*
X310876587Y-113451014D01*
X310926114Y-113405524D01*
X310993990Y-113341131D01*
X311049405Y-113286298D01*
X311085441Y-113248007D01*
X311095498Y-113234614D01*
X311078990Y-113226072D01*
X311024918Y-113221062D01*
X310937927Y-113219855D01*
X310866745Y-113221215D01*
X310630409Y-113228084D01*
X310632361Y-112455923D01*
X310634312Y-111683763D01*
X310554198Y-111757102D01*
X310554198Y-111757102D01*
G37*
X310554198Y-111757102D02*
X310499760Y-111807622D01*
X310428656Y-111874526D01*
X310354690Y-111944813D01*
X310341792Y-111957151D01*
X310209500Y-112083861D01*
X310209500Y-112340398D01*
X310208458Y-112461727D01*
X310205612Y-112607802D01*
X310201385Y-112761097D01*
X310196196Y-112904084D01*
X310195612Y-112917801D01*
X310181724Y-113238667D01*
X310109841Y-113238667D01*
X310071560Y-113243268D01*
X310031799Y-113260524D01*
X309982629Y-113295611D01*
X309916117Y-113353705D01*
X309875021Y-113391923D01*
X309807201Y-113456558D01*
X309751775Y-113510975D01*
X309715531Y-113548411D01*
X309705028Y-113561256D01*
X309721924Y-113567546D01*
X309773139Y-113572683D01*
X309850667Y-113576125D01*
X309943153Y-113577334D01*
X310047986Y-113577654D01*
X310117662Y-113579544D01*
X310159359Y-113584399D01*
X310180254Y-113593612D01*
X310187524Y-113608576D01*
X310188352Y-113624959D01*
X310204379Y-113664114D01*
X310251943Y-113729704D01*
X310330302Y-113820776D01*
X310398958Y-113894834D01*
X310609546Y-114117084D01*
X310610607Y-113836625D01*
X310611667Y-113556167D01*
X310687989Y-113556167D01*
X310727544Y-113552225D01*
X310766618Y-113536894D01*
X310813526Y-113504910D01*
X310876587Y-113451014D01*
X310926114Y-113405524D01*
X310993990Y-113341131D01*
X311049405Y-113286298D01*
X311085441Y-113248007D01*
X311095498Y-113234614D01*
X311078990Y-113226072D01*
X311024918Y-113221062D01*
X310937927Y-113219855D01*
X310866745Y-113221215D01*
X310630409Y-113228084D01*
X310632361Y-112455923D01*
X310634312Y-111683763D01*
X310554198Y-111757102D01*
%TD*%
%TO.C,K66*%
D10*
X313904285Y-36067380D02*
X313904285Y-35067380D01*
X313332857Y-36067380D02*
X313761428Y-35495952D01*
X313332857Y-35067380D02*
X313904285Y-35638809D01*
X312475714Y-35067380D02*
X312666190Y-35067380D01*
X312761428Y-35115000D01*
X312809047Y-35162619D01*
X312904285Y-35305476D01*
X312951904Y-35495952D01*
X312951904Y-35876904D01*
X312904285Y-35972142D01*
X312856666Y-36019761D01*
X312761428Y-36067380D01*
X312570952Y-36067380D01*
X312475714Y-36019761D01*
X312428095Y-35972142D01*
X312380476Y-35876904D01*
X312380476Y-35638809D01*
X312428095Y-35543571D01*
X312475714Y-35495952D01*
X312570952Y-35448333D01*
X312761428Y-35448333D01*
X312856666Y-35495952D01*
X312904285Y-35543571D01*
X312951904Y-35638809D01*
X311523333Y-35067380D02*
X311713809Y-35067380D01*
X311809047Y-35115000D01*
X311856666Y-35162619D01*
X311951904Y-35305476D01*
X311999523Y-35495952D01*
X311999523Y-35876904D01*
X311951904Y-35972142D01*
X311904285Y-36019761D01*
X311809047Y-36067380D01*
X311618571Y-36067380D01*
X311523333Y-36019761D01*
X311475714Y-35972142D01*
X311428095Y-35876904D01*
X311428095Y-35638809D01*
X311475714Y-35543571D01*
X311523333Y-35495952D01*
X311618571Y-35448333D01*
X311809047Y-35448333D01*
X311904285Y-35495952D01*
X311951904Y-35543571D01*
X311999523Y-35638809D01*
%TO.C,K28*%
X306779285Y-55067380D02*
X306779285Y-54067380D01*
X306207857Y-55067380D02*
X306636428Y-54495952D01*
X306207857Y-54067380D02*
X306779285Y-54638809D01*
X305826904Y-54162619D02*
X305779285Y-54115000D01*
X305684047Y-54067380D01*
X305445952Y-54067380D01*
X305350714Y-54115000D01*
X305303095Y-54162619D01*
X305255476Y-54257857D01*
X305255476Y-54353095D01*
X305303095Y-54495952D01*
X305874523Y-55067380D01*
X305255476Y-55067380D01*
X304684047Y-54495952D02*
X304779285Y-54448333D01*
X304826904Y-54400714D01*
X304874523Y-54305476D01*
X304874523Y-54257857D01*
X304826904Y-54162619D01*
X304779285Y-54115000D01*
X304684047Y-54067380D01*
X304493571Y-54067380D01*
X304398333Y-54115000D01*
X304350714Y-54162619D01*
X304303095Y-54257857D01*
X304303095Y-54305476D01*
X304350714Y-54400714D01*
X304398333Y-54448333D01*
X304493571Y-54495952D01*
X304684047Y-54495952D01*
X304779285Y-54543571D01*
X304826904Y-54591190D01*
X304874523Y-54686428D01*
X304874523Y-54876904D01*
X304826904Y-54972142D01*
X304779285Y-55019761D01*
X304684047Y-55067380D01*
X304493571Y-55067380D01*
X304398333Y-55019761D01*
X304350714Y-54972142D01*
X304303095Y-54876904D01*
X304303095Y-54686428D01*
X304350714Y-54591190D01*
X304398333Y-54543571D01*
X304493571Y-54495952D01*
%TO.C,K42*%
X309154285Y-74067380D02*
X309154285Y-73067380D01*
X308582857Y-74067380D02*
X309011428Y-73495952D01*
X308582857Y-73067380D02*
X309154285Y-73638809D01*
X307725714Y-73400714D02*
X307725714Y-74067380D01*
X307963809Y-73019761D02*
X308201904Y-73734047D01*
X307582857Y-73734047D01*
X307249523Y-73162619D02*
X307201904Y-73115000D01*
X307106666Y-73067380D01*
X306868571Y-73067380D01*
X306773333Y-73115000D01*
X306725714Y-73162619D01*
X306678095Y-73257857D01*
X306678095Y-73353095D01*
X306725714Y-73495952D01*
X307297142Y-74067380D01*
X306678095Y-74067380D01*
%TO.C,K56*%
X313904285Y-93067380D02*
X313904285Y-92067380D01*
X313332857Y-93067380D02*
X313761428Y-92495952D01*
X313332857Y-92067380D02*
X313904285Y-92638809D01*
X312428095Y-92067380D02*
X312904285Y-92067380D01*
X312951904Y-92543571D01*
X312904285Y-92495952D01*
X312809047Y-92448333D01*
X312570952Y-92448333D01*
X312475714Y-92495952D01*
X312428095Y-92543571D01*
X312380476Y-92638809D01*
X312380476Y-92876904D01*
X312428095Y-92972142D01*
X312475714Y-93019761D01*
X312570952Y-93067380D01*
X312809047Y-93067380D01*
X312904285Y-93019761D01*
X312951904Y-92972142D01*
X311523333Y-92067380D02*
X311713809Y-92067380D01*
X311809047Y-92115000D01*
X311856666Y-92162619D01*
X311951904Y-92305476D01*
X311999523Y-92495952D01*
X311999523Y-92876904D01*
X311951904Y-92972142D01*
X311904285Y-93019761D01*
X311809047Y-93067380D01*
X311618571Y-93067380D01*
X311523333Y-93019761D01*
X311475714Y-92972142D01*
X311428095Y-92876904D01*
X311428095Y-92638809D01*
X311475714Y-92543571D01*
X311523333Y-92495952D01*
X311618571Y-92448333D01*
X311809047Y-92448333D01*
X311904285Y-92495952D01*
X311951904Y-92543571D01*
X311999523Y-92638809D01*
%TO.C,K55*%
X280654285Y-93067380D02*
X280654285Y-92067380D01*
X280082857Y-93067380D02*
X280511428Y-92495952D01*
X280082857Y-92067380D02*
X280654285Y-92638809D01*
X279178095Y-92067380D02*
X279654285Y-92067380D01*
X279701904Y-92543571D01*
X279654285Y-92495952D01*
X279559047Y-92448333D01*
X279320952Y-92448333D01*
X279225714Y-92495952D01*
X279178095Y-92543571D01*
X279130476Y-92638809D01*
X279130476Y-92876904D01*
X279178095Y-92972142D01*
X279225714Y-93019761D01*
X279320952Y-93067380D01*
X279559047Y-93067380D01*
X279654285Y-93019761D01*
X279701904Y-92972142D01*
X278225714Y-92067380D02*
X278701904Y-92067380D01*
X278749523Y-92543571D01*
X278701904Y-92495952D01*
X278606666Y-92448333D01*
X278368571Y-92448333D01*
X278273333Y-92495952D01*
X278225714Y-92543571D01*
X278178095Y-92638809D01*
X278178095Y-92876904D01*
X278225714Y-92972142D01*
X278273333Y-93019761D01*
X278368571Y-93067380D01*
X278606666Y-93067380D01*
X278701904Y-93019761D01*
X278749523Y-92972142D01*
%TO.C,K65*%
X292529285Y-112067380D02*
X292529285Y-111067380D01*
X291957857Y-112067380D02*
X292386428Y-111495952D01*
X291957857Y-111067380D02*
X292529285Y-111638809D01*
X291100714Y-111067380D02*
X291291190Y-111067380D01*
X291386428Y-111115000D01*
X291434047Y-111162619D01*
X291529285Y-111305476D01*
X291576904Y-111495952D01*
X291576904Y-111876904D01*
X291529285Y-111972142D01*
X291481666Y-112019761D01*
X291386428Y-112067380D01*
X291195952Y-112067380D01*
X291100714Y-112019761D01*
X291053095Y-111972142D01*
X291005476Y-111876904D01*
X291005476Y-111638809D01*
X291053095Y-111543571D01*
X291100714Y-111495952D01*
X291195952Y-111448333D01*
X291386428Y-111448333D01*
X291481666Y-111495952D01*
X291529285Y-111543571D01*
X291576904Y-111638809D01*
X290100714Y-111067380D02*
X290576904Y-111067380D01*
X290624523Y-111543571D01*
X290576904Y-111495952D01*
X290481666Y-111448333D01*
X290243571Y-111448333D01*
X290148333Y-111495952D01*
X290100714Y-111543571D01*
X290053095Y-111638809D01*
X290053095Y-111876904D01*
X290100714Y-111972142D01*
X290148333Y-112019761D01*
X290243571Y-112067380D01*
X290481666Y-112067380D01*
X290576904Y-112019761D01*
X290624523Y-111972142D01*
%TO.C,K64*%
X261654285Y-112067380D02*
X261654285Y-111067380D01*
X261082857Y-112067380D02*
X261511428Y-111495952D01*
X261082857Y-111067380D02*
X261654285Y-111638809D01*
X260225714Y-111067380D02*
X260416190Y-111067380D01*
X260511428Y-111115000D01*
X260559047Y-111162619D01*
X260654285Y-111305476D01*
X260701904Y-111495952D01*
X260701904Y-111876904D01*
X260654285Y-111972142D01*
X260606666Y-112019761D01*
X260511428Y-112067380D01*
X260320952Y-112067380D01*
X260225714Y-112019761D01*
X260178095Y-111972142D01*
X260130476Y-111876904D01*
X260130476Y-111638809D01*
X260178095Y-111543571D01*
X260225714Y-111495952D01*
X260320952Y-111448333D01*
X260511428Y-111448333D01*
X260606666Y-111495952D01*
X260654285Y-111543571D01*
X260701904Y-111638809D01*
X259273333Y-111400714D02*
X259273333Y-112067380D01*
X259511428Y-111019761D02*
X259749523Y-111734047D01*
X259130476Y-111734047D01*
%TO.C,K63*%
X230779285Y-112067380D02*
X230779285Y-111067380D01*
X230207857Y-112067380D02*
X230636428Y-111495952D01*
X230207857Y-111067380D02*
X230779285Y-111638809D01*
X229350714Y-111067380D02*
X229541190Y-111067380D01*
X229636428Y-111115000D01*
X229684047Y-111162619D01*
X229779285Y-111305476D01*
X229826904Y-111495952D01*
X229826904Y-111876904D01*
X229779285Y-111972142D01*
X229731666Y-112019761D01*
X229636428Y-112067380D01*
X229445952Y-112067380D01*
X229350714Y-112019761D01*
X229303095Y-111972142D01*
X229255476Y-111876904D01*
X229255476Y-111638809D01*
X229303095Y-111543571D01*
X229350714Y-111495952D01*
X229445952Y-111448333D01*
X229636428Y-111448333D01*
X229731666Y-111495952D01*
X229779285Y-111543571D01*
X229826904Y-111638809D01*
X228922142Y-111067380D02*
X228303095Y-111067380D01*
X228636428Y-111448333D01*
X228493571Y-111448333D01*
X228398333Y-111495952D01*
X228350714Y-111543571D01*
X228303095Y-111638809D01*
X228303095Y-111876904D01*
X228350714Y-111972142D01*
X228398333Y-112019761D01*
X228493571Y-112067380D01*
X228779285Y-112067380D01*
X228874523Y-112019761D01*
X228922142Y-111972142D01*
%TO.C,K62*%
X207029285Y-112067380D02*
X207029285Y-111067380D01*
X206457857Y-112067380D02*
X206886428Y-111495952D01*
X206457857Y-111067380D02*
X207029285Y-111638809D01*
X205600714Y-111067380D02*
X205791190Y-111067380D01*
X205886428Y-111115000D01*
X205934047Y-111162619D01*
X206029285Y-111305476D01*
X206076904Y-111495952D01*
X206076904Y-111876904D01*
X206029285Y-111972142D01*
X205981666Y-112019761D01*
X205886428Y-112067380D01*
X205695952Y-112067380D01*
X205600714Y-112019761D01*
X205553095Y-111972142D01*
X205505476Y-111876904D01*
X205505476Y-111638809D01*
X205553095Y-111543571D01*
X205600714Y-111495952D01*
X205695952Y-111448333D01*
X205886428Y-111448333D01*
X205981666Y-111495952D01*
X206029285Y-111543571D01*
X206076904Y-111638809D01*
X205124523Y-111162619D02*
X205076904Y-111115000D01*
X204981666Y-111067380D01*
X204743571Y-111067380D01*
X204648333Y-111115000D01*
X204600714Y-111162619D01*
X204553095Y-111257857D01*
X204553095Y-111353095D01*
X204600714Y-111495952D01*
X205172142Y-112067380D01*
X204553095Y-112067380D01*
%TO.C,K61*%
X183279285Y-112067380D02*
X183279285Y-111067380D01*
X182707857Y-112067380D02*
X183136428Y-111495952D01*
X182707857Y-111067380D02*
X183279285Y-111638809D01*
X181850714Y-111067380D02*
X182041190Y-111067380D01*
X182136428Y-111115000D01*
X182184047Y-111162619D01*
X182279285Y-111305476D01*
X182326904Y-111495952D01*
X182326904Y-111876904D01*
X182279285Y-111972142D01*
X182231666Y-112019761D01*
X182136428Y-112067380D01*
X181945952Y-112067380D01*
X181850714Y-112019761D01*
X181803095Y-111972142D01*
X181755476Y-111876904D01*
X181755476Y-111638809D01*
X181803095Y-111543571D01*
X181850714Y-111495952D01*
X181945952Y-111448333D01*
X182136428Y-111448333D01*
X182231666Y-111495952D01*
X182279285Y-111543571D01*
X182326904Y-111638809D01*
X180803095Y-112067380D02*
X181374523Y-112067380D01*
X181088809Y-112067380D02*
X181088809Y-111067380D01*
X181184047Y-111210238D01*
X181279285Y-111305476D01*
X181374523Y-111353095D01*
%TO.C,K60*%
X150029285Y-112067380D02*
X150029285Y-111067380D01*
X149457857Y-112067380D02*
X149886428Y-111495952D01*
X149457857Y-111067380D02*
X150029285Y-111638809D01*
X148600714Y-111067380D02*
X148791190Y-111067380D01*
X148886428Y-111115000D01*
X148934047Y-111162619D01*
X149029285Y-111305476D01*
X149076904Y-111495952D01*
X149076904Y-111876904D01*
X149029285Y-111972142D01*
X148981666Y-112019761D01*
X148886428Y-112067380D01*
X148695952Y-112067380D01*
X148600714Y-112019761D01*
X148553095Y-111972142D01*
X148505476Y-111876904D01*
X148505476Y-111638809D01*
X148553095Y-111543571D01*
X148600714Y-111495952D01*
X148695952Y-111448333D01*
X148886428Y-111448333D01*
X148981666Y-111495952D01*
X149029285Y-111543571D01*
X149076904Y-111638809D01*
X147886428Y-111067380D02*
X147791190Y-111067380D01*
X147695952Y-111115000D01*
X147648333Y-111162619D01*
X147600714Y-111257857D01*
X147553095Y-111448333D01*
X147553095Y-111686428D01*
X147600714Y-111876904D01*
X147648333Y-111972142D01*
X147695952Y-112019761D01*
X147791190Y-112067380D01*
X147886428Y-112067380D01*
X147981666Y-112019761D01*
X148029285Y-111972142D01*
X148076904Y-111876904D01*
X148124523Y-111686428D01*
X148124523Y-111448333D01*
X148076904Y-111257857D01*
X148029285Y-111162619D01*
X147981666Y-111115000D01*
X147886428Y-111067380D01*
%TO.C,K58*%
X97779285Y-112067380D02*
X97779285Y-111067380D01*
X97207857Y-112067380D02*
X97636428Y-111495952D01*
X97207857Y-111067380D02*
X97779285Y-111638809D01*
X96303095Y-111067380D02*
X96779285Y-111067380D01*
X96826904Y-111543571D01*
X96779285Y-111495952D01*
X96684047Y-111448333D01*
X96445952Y-111448333D01*
X96350714Y-111495952D01*
X96303095Y-111543571D01*
X96255476Y-111638809D01*
X96255476Y-111876904D01*
X96303095Y-111972142D01*
X96350714Y-112019761D01*
X96445952Y-112067380D01*
X96684047Y-112067380D01*
X96779285Y-112019761D01*
X96826904Y-111972142D01*
X95684047Y-111495952D02*
X95779285Y-111448333D01*
X95826904Y-111400714D01*
X95874523Y-111305476D01*
X95874523Y-111257857D01*
X95826904Y-111162619D01*
X95779285Y-111115000D01*
X95684047Y-111067380D01*
X95493571Y-111067380D01*
X95398333Y-111115000D01*
X95350714Y-111162619D01*
X95303095Y-111257857D01*
X95303095Y-111305476D01*
X95350714Y-111400714D01*
X95398333Y-111448333D01*
X95493571Y-111495952D01*
X95684047Y-111495952D01*
X95779285Y-111543571D01*
X95826904Y-111591190D01*
X95874523Y-111686428D01*
X95874523Y-111876904D01*
X95826904Y-111972142D01*
X95779285Y-112019761D01*
X95684047Y-112067380D01*
X95493571Y-112067380D01*
X95398333Y-112019761D01*
X95350714Y-111972142D01*
X95303095Y-111876904D01*
X95303095Y-111686428D01*
X95350714Y-111591190D01*
X95398333Y-111543571D01*
X95493571Y-111495952D01*
%TO.C,K57*%
X66904285Y-112067380D02*
X66904285Y-111067380D01*
X66332857Y-112067380D02*
X66761428Y-111495952D01*
X66332857Y-111067380D02*
X66904285Y-111638809D01*
X65428095Y-111067380D02*
X65904285Y-111067380D01*
X65951904Y-111543571D01*
X65904285Y-111495952D01*
X65809047Y-111448333D01*
X65570952Y-111448333D01*
X65475714Y-111495952D01*
X65428095Y-111543571D01*
X65380476Y-111638809D01*
X65380476Y-111876904D01*
X65428095Y-111972142D01*
X65475714Y-112019761D01*
X65570952Y-112067380D01*
X65809047Y-112067380D01*
X65904285Y-112019761D01*
X65951904Y-111972142D01*
X65047142Y-111067380D02*
X64380476Y-111067380D01*
X64809047Y-112067380D01*
%TO.C,K43*%
X38404285Y-93067380D02*
X38404285Y-92067380D01*
X37832857Y-93067380D02*
X38261428Y-92495952D01*
X37832857Y-92067380D02*
X38404285Y-92638809D01*
X36975714Y-92400714D02*
X36975714Y-93067380D01*
X37213809Y-92019761D02*
X37451904Y-92734047D01*
X36832857Y-92734047D01*
X36547142Y-92067380D02*
X35928095Y-92067380D01*
X36261428Y-92448333D01*
X36118571Y-92448333D01*
X36023333Y-92495952D01*
X35975714Y-92543571D01*
X35928095Y-92638809D01*
X35928095Y-92876904D01*
X35975714Y-92972142D01*
X36023333Y-93019761D01*
X36118571Y-93067380D01*
X36404285Y-93067380D01*
X36499523Y-93019761D01*
X36547142Y-92972142D01*
%TO.C,K29*%
X43154285Y-74067380D02*
X43154285Y-73067380D01*
X42582857Y-74067380D02*
X43011428Y-73495952D01*
X42582857Y-73067380D02*
X43154285Y-73638809D01*
X42201904Y-73162619D02*
X42154285Y-73115000D01*
X42059047Y-73067380D01*
X41820952Y-73067380D01*
X41725714Y-73115000D01*
X41678095Y-73162619D01*
X41630476Y-73257857D01*
X41630476Y-73353095D01*
X41678095Y-73495952D01*
X42249523Y-74067380D01*
X41630476Y-74067380D01*
X41154285Y-74067380D02*
X40963809Y-74067380D01*
X40868571Y-74019761D01*
X40820952Y-73972142D01*
X40725714Y-73829285D01*
X40678095Y-73638809D01*
X40678095Y-73257857D01*
X40725714Y-73162619D01*
X40773333Y-73115000D01*
X40868571Y-73067380D01*
X41059047Y-73067380D01*
X41154285Y-73115000D01*
X41201904Y-73162619D01*
X41249523Y-73257857D01*
X41249523Y-73495952D01*
X41201904Y-73591190D01*
X41154285Y-73638809D01*
X41059047Y-73686428D01*
X40868571Y-73686428D01*
X40773333Y-73638809D01*
X40725714Y-73591190D01*
X40678095Y-73495952D01*
%TO.C,K15*%
X40779285Y-55067380D02*
X40779285Y-54067380D01*
X40207857Y-55067380D02*
X40636428Y-54495952D01*
X40207857Y-54067380D02*
X40779285Y-54638809D01*
X39255476Y-55067380D02*
X39826904Y-55067380D01*
X39541190Y-55067380D02*
X39541190Y-54067380D01*
X39636428Y-54210238D01*
X39731666Y-54305476D01*
X39826904Y-54353095D01*
X38350714Y-54067380D02*
X38826904Y-54067380D01*
X38874523Y-54543571D01*
X38826904Y-54495952D01*
X38731666Y-54448333D01*
X38493571Y-54448333D01*
X38398333Y-54495952D01*
X38350714Y-54543571D01*
X38303095Y-54638809D01*
X38303095Y-54876904D01*
X38350714Y-54972142D01*
X38398333Y-55019761D01*
X38493571Y-55067380D01*
X38731666Y-55067380D01*
X38826904Y-55019761D01*
X38874523Y-54972142D01*
%TO.C,K1*%
X37928095Y-36067380D02*
X37928095Y-35067380D01*
X37356666Y-36067380D02*
X37785238Y-35495952D01*
X37356666Y-35067380D02*
X37928095Y-35638809D01*
X36404285Y-36067380D02*
X36975714Y-36067380D01*
X36690000Y-36067380D02*
X36690000Y-35067380D01*
X36785238Y-35210238D01*
X36880476Y-35305476D01*
X36975714Y-35353095D01*
%TO.C,K40*%
X261654285Y-74067380D02*
X261654285Y-73067380D01*
X261082857Y-74067380D02*
X261511428Y-73495952D01*
X261082857Y-73067380D02*
X261654285Y-73638809D01*
X260225714Y-73400714D02*
X260225714Y-74067380D01*
X260463809Y-73019761D02*
X260701904Y-73734047D01*
X260082857Y-73734047D01*
X259511428Y-73067380D02*
X259416190Y-73067380D01*
X259320952Y-73115000D01*
X259273333Y-73162619D01*
X259225714Y-73257857D01*
X259178095Y-73448333D01*
X259178095Y-73686428D01*
X259225714Y-73876904D01*
X259273333Y-73972142D01*
X259320952Y-74019761D01*
X259416190Y-74067380D01*
X259511428Y-74067380D01*
X259606666Y-74019761D01*
X259654285Y-73972142D01*
X259701904Y-73876904D01*
X259749523Y-73686428D01*
X259749523Y-73448333D01*
X259701904Y-73257857D01*
X259654285Y-73162619D01*
X259606666Y-73115000D01*
X259511428Y-73067380D01*
%TO.C,K47*%
X119154285Y-93067380D02*
X119154285Y-92067380D01*
X118582857Y-93067380D02*
X119011428Y-92495952D01*
X118582857Y-92067380D02*
X119154285Y-92638809D01*
X117725714Y-92400714D02*
X117725714Y-93067380D01*
X117963809Y-92019761D02*
X118201904Y-92734047D01*
X117582857Y-92734047D01*
X117297142Y-92067380D02*
X116630476Y-92067380D01*
X117059047Y-93067380D01*
%TO.C,K37*%
X204654285Y-74067380D02*
X204654285Y-73067380D01*
X204082857Y-74067380D02*
X204511428Y-73495952D01*
X204082857Y-73067380D02*
X204654285Y-73638809D01*
X203749523Y-73067380D02*
X203130476Y-73067380D01*
X203463809Y-73448333D01*
X203320952Y-73448333D01*
X203225714Y-73495952D01*
X203178095Y-73543571D01*
X203130476Y-73638809D01*
X203130476Y-73876904D01*
X203178095Y-73972142D01*
X203225714Y-74019761D01*
X203320952Y-74067380D01*
X203606666Y-74067380D01*
X203701904Y-74019761D01*
X203749523Y-73972142D01*
X202797142Y-73067380D02*
X202130476Y-73067380D01*
X202559047Y-74067380D01*
%TO.C,K34*%
X147654285Y-74067380D02*
X147654285Y-73067380D01*
X147082857Y-74067380D02*
X147511428Y-73495952D01*
X147082857Y-73067380D02*
X147654285Y-73638809D01*
X146749523Y-73067380D02*
X146130476Y-73067380D01*
X146463809Y-73448333D01*
X146320952Y-73448333D01*
X146225714Y-73495952D01*
X146178095Y-73543571D01*
X146130476Y-73638809D01*
X146130476Y-73876904D01*
X146178095Y-73972142D01*
X146225714Y-74019761D01*
X146320952Y-74067380D01*
X146606666Y-74067380D01*
X146701904Y-74019761D01*
X146749523Y-73972142D01*
X145273333Y-73400714D02*
X145273333Y-74067380D01*
X145511428Y-73019761D02*
X145749523Y-73734047D01*
X145130476Y-73734047D01*
%TO.C,K32*%
X109654285Y-74067380D02*
X109654285Y-73067380D01*
X109082857Y-74067380D02*
X109511428Y-73495952D01*
X109082857Y-73067380D02*
X109654285Y-73638809D01*
X108749523Y-73067380D02*
X108130476Y-73067380D01*
X108463809Y-73448333D01*
X108320952Y-73448333D01*
X108225714Y-73495952D01*
X108178095Y-73543571D01*
X108130476Y-73638809D01*
X108130476Y-73876904D01*
X108178095Y-73972142D01*
X108225714Y-74019761D01*
X108320952Y-74067380D01*
X108606666Y-74067380D01*
X108701904Y-74019761D01*
X108749523Y-73972142D01*
X107749523Y-73162619D02*
X107701904Y-73115000D01*
X107606666Y-73067380D01*
X107368571Y-73067380D01*
X107273333Y-73115000D01*
X107225714Y-73162619D01*
X107178095Y-73257857D01*
X107178095Y-73353095D01*
X107225714Y-73495952D01*
X107797142Y-74067380D01*
X107178095Y-74067380D01*
%TO.C,K31*%
X90654285Y-74067380D02*
X90654285Y-73067380D01*
X90082857Y-74067380D02*
X90511428Y-73495952D01*
X90082857Y-73067380D02*
X90654285Y-73638809D01*
X89749523Y-73067380D02*
X89130476Y-73067380D01*
X89463809Y-73448333D01*
X89320952Y-73448333D01*
X89225714Y-73495952D01*
X89178095Y-73543571D01*
X89130476Y-73638809D01*
X89130476Y-73876904D01*
X89178095Y-73972142D01*
X89225714Y-74019761D01*
X89320952Y-74067380D01*
X89606666Y-74067380D01*
X89701904Y-74019761D01*
X89749523Y-73972142D01*
X88178095Y-74067380D02*
X88749523Y-74067380D01*
X88463809Y-74067380D02*
X88463809Y-73067380D01*
X88559047Y-73210238D01*
X88654285Y-73305476D01*
X88749523Y-73353095D01*
%TO.C,K59*%
X119154285Y-112067380D02*
X119154285Y-111067380D01*
X118582857Y-112067380D02*
X119011428Y-111495952D01*
X118582857Y-111067380D02*
X119154285Y-111638809D01*
X117678095Y-111067380D02*
X118154285Y-111067380D01*
X118201904Y-111543571D01*
X118154285Y-111495952D01*
X118059047Y-111448333D01*
X117820952Y-111448333D01*
X117725714Y-111495952D01*
X117678095Y-111543571D01*
X117630476Y-111638809D01*
X117630476Y-111876904D01*
X117678095Y-111972142D01*
X117725714Y-112019761D01*
X117820952Y-112067380D01*
X118059047Y-112067380D01*
X118154285Y-112019761D01*
X118201904Y-111972142D01*
X117154285Y-112067380D02*
X116963809Y-112067380D01*
X116868571Y-112019761D01*
X116820952Y-111972142D01*
X116725714Y-111829285D01*
X116678095Y-111638809D01*
X116678095Y-111257857D01*
X116725714Y-111162619D01*
X116773333Y-111115000D01*
X116868571Y-111067380D01*
X117059047Y-111067380D01*
X117154285Y-111115000D01*
X117201904Y-111162619D01*
X117249523Y-111257857D01*
X117249523Y-111495952D01*
X117201904Y-111591190D01*
X117154285Y-111638809D01*
X117059047Y-111686428D01*
X116868571Y-111686428D01*
X116773333Y-111638809D01*
X116725714Y-111591190D01*
X116678095Y-111495952D01*
%TO.C,K54*%
X252154285Y-93067380D02*
X252154285Y-92067380D01*
X251582857Y-93067380D02*
X252011428Y-92495952D01*
X251582857Y-92067380D02*
X252154285Y-92638809D01*
X250678095Y-92067380D02*
X251154285Y-92067380D01*
X251201904Y-92543571D01*
X251154285Y-92495952D01*
X251059047Y-92448333D01*
X250820952Y-92448333D01*
X250725714Y-92495952D01*
X250678095Y-92543571D01*
X250630476Y-92638809D01*
X250630476Y-92876904D01*
X250678095Y-92972142D01*
X250725714Y-93019761D01*
X250820952Y-93067380D01*
X251059047Y-93067380D01*
X251154285Y-93019761D01*
X251201904Y-92972142D01*
X249773333Y-92400714D02*
X249773333Y-93067380D01*
X250011428Y-92019761D02*
X250249523Y-92734047D01*
X249630476Y-92734047D01*
%TO.C,K53*%
X233154285Y-93067380D02*
X233154285Y-92067380D01*
X232582857Y-93067380D02*
X233011428Y-92495952D01*
X232582857Y-92067380D02*
X233154285Y-92638809D01*
X231678095Y-92067380D02*
X232154285Y-92067380D01*
X232201904Y-92543571D01*
X232154285Y-92495952D01*
X232059047Y-92448333D01*
X231820952Y-92448333D01*
X231725714Y-92495952D01*
X231678095Y-92543571D01*
X231630476Y-92638809D01*
X231630476Y-92876904D01*
X231678095Y-92972142D01*
X231725714Y-93019761D01*
X231820952Y-93067380D01*
X232059047Y-93067380D01*
X232154285Y-93019761D01*
X232201904Y-92972142D01*
X231297142Y-92067380D02*
X230678095Y-92067380D01*
X231011428Y-92448333D01*
X230868571Y-92448333D01*
X230773333Y-92495952D01*
X230725714Y-92543571D01*
X230678095Y-92638809D01*
X230678095Y-92876904D01*
X230725714Y-92972142D01*
X230773333Y-93019761D01*
X230868571Y-93067380D01*
X231154285Y-93067380D01*
X231249523Y-93019761D01*
X231297142Y-92972142D01*
%TO.C,K52*%
X214154285Y-93067380D02*
X214154285Y-92067380D01*
X213582857Y-93067380D02*
X214011428Y-92495952D01*
X213582857Y-92067380D02*
X214154285Y-92638809D01*
X212678095Y-92067380D02*
X213154285Y-92067380D01*
X213201904Y-92543571D01*
X213154285Y-92495952D01*
X213059047Y-92448333D01*
X212820952Y-92448333D01*
X212725714Y-92495952D01*
X212678095Y-92543571D01*
X212630476Y-92638809D01*
X212630476Y-92876904D01*
X212678095Y-92972142D01*
X212725714Y-93019761D01*
X212820952Y-93067380D01*
X213059047Y-93067380D01*
X213154285Y-93019761D01*
X213201904Y-92972142D01*
X212249523Y-92162619D02*
X212201904Y-92115000D01*
X212106666Y-92067380D01*
X211868571Y-92067380D01*
X211773333Y-92115000D01*
X211725714Y-92162619D01*
X211678095Y-92257857D01*
X211678095Y-92353095D01*
X211725714Y-92495952D01*
X212297142Y-93067380D01*
X211678095Y-93067380D01*
%TO.C,K51*%
X195154285Y-93067380D02*
X195154285Y-92067380D01*
X194582857Y-93067380D02*
X195011428Y-92495952D01*
X194582857Y-92067380D02*
X195154285Y-92638809D01*
X193678095Y-92067380D02*
X194154285Y-92067380D01*
X194201904Y-92543571D01*
X194154285Y-92495952D01*
X194059047Y-92448333D01*
X193820952Y-92448333D01*
X193725714Y-92495952D01*
X193678095Y-92543571D01*
X193630476Y-92638809D01*
X193630476Y-92876904D01*
X193678095Y-92972142D01*
X193725714Y-93019761D01*
X193820952Y-93067380D01*
X194059047Y-93067380D01*
X194154285Y-93019761D01*
X194201904Y-92972142D01*
X192678095Y-93067380D02*
X193249523Y-93067380D01*
X192963809Y-93067380D02*
X192963809Y-92067380D01*
X193059047Y-92210238D01*
X193154285Y-92305476D01*
X193249523Y-92353095D01*
%TO.C,K50*%
X176154285Y-93067380D02*
X176154285Y-92067380D01*
X175582857Y-93067380D02*
X176011428Y-92495952D01*
X175582857Y-92067380D02*
X176154285Y-92638809D01*
X174678095Y-92067380D02*
X175154285Y-92067380D01*
X175201904Y-92543571D01*
X175154285Y-92495952D01*
X175059047Y-92448333D01*
X174820952Y-92448333D01*
X174725714Y-92495952D01*
X174678095Y-92543571D01*
X174630476Y-92638809D01*
X174630476Y-92876904D01*
X174678095Y-92972142D01*
X174725714Y-93019761D01*
X174820952Y-93067380D01*
X175059047Y-93067380D01*
X175154285Y-93019761D01*
X175201904Y-92972142D01*
X174011428Y-92067380D02*
X173916190Y-92067380D01*
X173820952Y-92115000D01*
X173773333Y-92162619D01*
X173725714Y-92257857D01*
X173678095Y-92448333D01*
X173678095Y-92686428D01*
X173725714Y-92876904D01*
X173773333Y-92972142D01*
X173820952Y-93019761D01*
X173916190Y-93067380D01*
X174011428Y-93067380D01*
X174106666Y-93019761D01*
X174154285Y-92972142D01*
X174201904Y-92876904D01*
X174249523Y-92686428D01*
X174249523Y-92448333D01*
X174201904Y-92257857D01*
X174154285Y-92162619D01*
X174106666Y-92115000D01*
X174011428Y-92067380D01*
%TO.C,K49*%
X157154285Y-93067380D02*
X157154285Y-92067380D01*
X156582857Y-93067380D02*
X157011428Y-92495952D01*
X156582857Y-92067380D02*
X157154285Y-92638809D01*
X155725714Y-92400714D02*
X155725714Y-93067380D01*
X155963809Y-92019761D02*
X156201904Y-92734047D01*
X155582857Y-92734047D01*
X155154285Y-93067380D02*
X154963809Y-93067380D01*
X154868571Y-93019761D01*
X154820952Y-92972142D01*
X154725714Y-92829285D01*
X154678095Y-92638809D01*
X154678095Y-92257857D01*
X154725714Y-92162619D01*
X154773333Y-92115000D01*
X154868571Y-92067380D01*
X155059047Y-92067380D01*
X155154285Y-92115000D01*
X155201904Y-92162619D01*
X155249523Y-92257857D01*
X155249523Y-92495952D01*
X155201904Y-92591190D01*
X155154285Y-92638809D01*
X155059047Y-92686428D01*
X154868571Y-92686428D01*
X154773333Y-92638809D01*
X154725714Y-92591190D01*
X154678095Y-92495952D01*
%TO.C,K48*%
X138154285Y-93067380D02*
X138154285Y-92067380D01*
X137582857Y-93067380D02*
X138011428Y-92495952D01*
X137582857Y-92067380D02*
X138154285Y-92638809D01*
X136725714Y-92400714D02*
X136725714Y-93067380D01*
X136963809Y-92019761D02*
X137201904Y-92734047D01*
X136582857Y-92734047D01*
X136059047Y-92495952D02*
X136154285Y-92448333D01*
X136201904Y-92400714D01*
X136249523Y-92305476D01*
X136249523Y-92257857D01*
X136201904Y-92162619D01*
X136154285Y-92115000D01*
X136059047Y-92067380D01*
X135868571Y-92067380D01*
X135773333Y-92115000D01*
X135725714Y-92162619D01*
X135678095Y-92257857D01*
X135678095Y-92305476D01*
X135725714Y-92400714D01*
X135773333Y-92448333D01*
X135868571Y-92495952D01*
X136059047Y-92495952D01*
X136154285Y-92543571D01*
X136201904Y-92591190D01*
X136249523Y-92686428D01*
X136249523Y-92876904D01*
X136201904Y-92972142D01*
X136154285Y-93019761D01*
X136059047Y-93067380D01*
X135868571Y-93067380D01*
X135773333Y-93019761D01*
X135725714Y-92972142D01*
X135678095Y-92876904D01*
X135678095Y-92686428D01*
X135725714Y-92591190D01*
X135773333Y-92543571D01*
X135868571Y-92495952D01*
%TO.C,K46*%
X100154285Y-93067380D02*
X100154285Y-92067380D01*
X99582857Y-93067380D02*
X100011428Y-92495952D01*
X99582857Y-92067380D02*
X100154285Y-92638809D01*
X98725714Y-92400714D02*
X98725714Y-93067380D01*
X98963809Y-92019761D02*
X99201904Y-92734047D01*
X98582857Y-92734047D01*
X97773333Y-92067380D02*
X97963809Y-92067380D01*
X98059047Y-92115000D01*
X98106666Y-92162619D01*
X98201904Y-92305476D01*
X98249523Y-92495952D01*
X98249523Y-92876904D01*
X98201904Y-92972142D01*
X98154285Y-93019761D01*
X98059047Y-93067380D01*
X97868571Y-93067380D01*
X97773333Y-93019761D01*
X97725714Y-92972142D01*
X97678095Y-92876904D01*
X97678095Y-92638809D01*
X97725714Y-92543571D01*
X97773333Y-92495952D01*
X97868571Y-92448333D01*
X98059047Y-92448333D01*
X98154285Y-92495952D01*
X98201904Y-92543571D01*
X98249523Y-92638809D01*
%TO.C,K45*%
X81154285Y-93067380D02*
X81154285Y-92067380D01*
X80582857Y-93067380D02*
X81011428Y-92495952D01*
X80582857Y-92067380D02*
X81154285Y-92638809D01*
X79725714Y-92400714D02*
X79725714Y-93067380D01*
X79963809Y-92019761D02*
X80201904Y-92734047D01*
X79582857Y-92734047D01*
X78725714Y-92067380D02*
X79201904Y-92067380D01*
X79249523Y-92543571D01*
X79201904Y-92495952D01*
X79106666Y-92448333D01*
X78868571Y-92448333D01*
X78773333Y-92495952D01*
X78725714Y-92543571D01*
X78678095Y-92638809D01*
X78678095Y-92876904D01*
X78725714Y-92972142D01*
X78773333Y-93019761D01*
X78868571Y-93067380D01*
X79106666Y-93067380D01*
X79201904Y-93019761D01*
X79249523Y-92972142D01*
%TO.C,K44*%
X62154285Y-93067380D02*
X62154285Y-92067380D01*
X61582857Y-93067380D02*
X62011428Y-92495952D01*
X61582857Y-92067380D02*
X62154285Y-92638809D01*
X60725714Y-92400714D02*
X60725714Y-93067380D01*
X60963809Y-92019761D02*
X61201904Y-92734047D01*
X60582857Y-92734047D01*
X59773333Y-92400714D02*
X59773333Y-93067380D01*
X60011428Y-92019761D02*
X60249523Y-92734047D01*
X59630476Y-92734047D01*
%TO.C,K41*%
X280654285Y-74067380D02*
X280654285Y-73067380D01*
X280082857Y-74067380D02*
X280511428Y-73495952D01*
X280082857Y-73067380D02*
X280654285Y-73638809D01*
X279225714Y-73400714D02*
X279225714Y-74067380D01*
X279463809Y-73019761D02*
X279701904Y-73734047D01*
X279082857Y-73734047D01*
X278178095Y-74067380D02*
X278749523Y-74067380D01*
X278463809Y-74067380D02*
X278463809Y-73067380D01*
X278559047Y-73210238D01*
X278654285Y-73305476D01*
X278749523Y-73353095D01*
%TO.C,K39*%
X242654285Y-74067380D02*
X242654285Y-73067380D01*
X242082857Y-74067380D02*
X242511428Y-73495952D01*
X242082857Y-73067380D02*
X242654285Y-73638809D01*
X241749523Y-73067380D02*
X241130476Y-73067380D01*
X241463809Y-73448333D01*
X241320952Y-73448333D01*
X241225714Y-73495952D01*
X241178095Y-73543571D01*
X241130476Y-73638809D01*
X241130476Y-73876904D01*
X241178095Y-73972142D01*
X241225714Y-74019761D01*
X241320952Y-74067380D01*
X241606666Y-74067380D01*
X241701904Y-74019761D01*
X241749523Y-73972142D01*
X240654285Y-74067380D02*
X240463809Y-74067380D01*
X240368571Y-74019761D01*
X240320952Y-73972142D01*
X240225714Y-73829285D01*
X240178095Y-73638809D01*
X240178095Y-73257857D01*
X240225714Y-73162619D01*
X240273333Y-73115000D01*
X240368571Y-73067380D01*
X240559047Y-73067380D01*
X240654285Y-73115000D01*
X240701904Y-73162619D01*
X240749523Y-73257857D01*
X240749523Y-73495952D01*
X240701904Y-73591190D01*
X240654285Y-73638809D01*
X240559047Y-73686428D01*
X240368571Y-73686428D01*
X240273333Y-73638809D01*
X240225714Y-73591190D01*
X240178095Y-73495952D01*
%TO.C,K38*%
X223654285Y-74067380D02*
X223654285Y-73067380D01*
X223082857Y-74067380D02*
X223511428Y-73495952D01*
X223082857Y-73067380D02*
X223654285Y-73638809D01*
X222749523Y-73067380D02*
X222130476Y-73067380D01*
X222463809Y-73448333D01*
X222320952Y-73448333D01*
X222225714Y-73495952D01*
X222178095Y-73543571D01*
X222130476Y-73638809D01*
X222130476Y-73876904D01*
X222178095Y-73972142D01*
X222225714Y-74019761D01*
X222320952Y-74067380D01*
X222606666Y-74067380D01*
X222701904Y-74019761D01*
X222749523Y-73972142D01*
X221559047Y-73495952D02*
X221654285Y-73448333D01*
X221701904Y-73400714D01*
X221749523Y-73305476D01*
X221749523Y-73257857D01*
X221701904Y-73162619D01*
X221654285Y-73115000D01*
X221559047Y-73067380D01*
X221368571Y-73067380D01*
X221273333Y-73115000D01*
X221225714Y-73162619D01*
X221178095Y-73257857D01*
X221178095Y-73305476D01*
X221225714Y-73400714D01*
X221273333Y-73448333D01*
X221368571Y-73495952D01*
X221559047Y-73495952D01*
X221654285Y-73543571D01*
X221701904Y-73591190D01*
X221749523Y-73686428D01*
X221749523Y-73876904D01*
X221701904Y-73972142D01*
X221654285Y-74019761D01*
X221559047Y-74067380D01*
X221368571Y-74067380D01*
X221273333Y-74019761D01*
X221225714Y-73972142D01*
X221178095Y-73876904D01*
X221178095Y-73686428D01*
X221225714Y-73591190D01*
X221273333Y-73543571D01*
X221368571Y-73495952D01*
%TO.C,K36*%
X185654285Y-74067380D02*
X185654285Y-73067380D01*
X185082857Y-74067380D02*
X185511428Y-73495952D01*
X185082857Y-73067380D02*
X185654285Y-73638809D01*
X184749523Y-73067380D02*
X184130476Y-73067380D01*
X184463809Y-73448333D01*
X184320952Y-73448333D01*
X184225714Y-73495952D01*
X184178095Y-73543571D01*
X184130476Y-73638809D01*
X184130476Y-73876904D01*
X184178095Y-73972142D01*
X184225714Y-74019761D01*
X184320952Y-74067380D01*
X184606666Y-74067380D01*
X184701904Y-74019761D01*
X184749523Y-73972142D01*
X183273333Y-73067380D02*
X183463809Y-73067380D01*
X183559047Y-73115000D01*
X183606666Y-73162619D01*
X183701904Y-73305476D01*
X183749523Y-73495952D01*
X183749523Y-73876904D01*
X183701904Y-73972142D01*
X183654285Y-74019761D01*
X183559047Y-74067380D01*
X183368571Y-74067380D01*
X183273333Y-74019761D01*
X183225714Y-73972142D01*
X183178095Y-73876904D01*
X183178095Y-73638809D01*
X183225714Y-73543571D01*
X183273333Y-73495952D01*
X183368571Y-73448333D01*
X183559047Y-73448333D01*
X183654285Y-73495952D01*
X183701904Y-73543571D01*
X183749523Y-73638809D01*
%TO.C,K35*%
X166654285Y-74067380D02*
X166654285Y-73067380D01*
X166082857Y-74067380D02*
X166511428Y-73495952D01*
X166082857Y-73067380D02*
X166654285Y-73638809D01*
X165749523Y-73067380D02*
X165130476Y-73067380D01*
X165463809Y-73448333D01*
X165320952Y-73448333D01*
X165225714Y-73495952D01*
X165178095Y-73543571D01*
X165130476Y-73638809D01*
X165130476Y-73876904D01*
X165178095Y-73972142D01*
X165225714Y-74019761D01*
X165320952Y-74067380D01*
X165606666Y-74067380D01*
X165701904Y-74019761D01*
X165749523Y-73972142D01*
X164225714Y-73067380D02*
X164701904Y-73067380D01*
X164749523Y-73543571D01*
X164701904Y-73495952D01*
X164606666Y-73448333D01*
X164368571Y-73448333D01*
X164273333Y-73495952D01*
X164225714Y-73543571D01*
X164178095Y-73638809D01*
X164178095Y-73876904D01*
X164225714Y-73972142D01*
X164273333Y-74019761D01*
X164368571Y-74067380D01*
X164606666Y-74067380D01*
X164701904Y-74019761D01*
X164749523Y-73972142D01*
%TO.C,K33*%
X128654285Y-74067380D02*
X128654285Y-73067380D01*
X128082857Y-74067380D02*
X128511428Y-73495952D01*
X128082857Y-73067380D02*
X128654285Y-73638809D01*
X127749523Y-73067380D02*
X127130476Y-73067380D01*
X127463809Y-73448333D01*
X127320952Y-73448333D01*
X127225714Y-73495952D01*
X127178095Y-73543571D01*
X127130476Y-73638809D01*
X127130476Y-73876904D01*
X127178095Y-73972142D01*
X127225714Y-74019761D01*
X127320952Y-74067380D01*
X127606666Y-74067380D01*
X127701904Y-74019761D01*
X127749523Y-73972142D01*
X126797142Y-73067380D02*
X126178095Y-73067380D01*
X126511428Y-73448333D01*
X126368571Y-73448333D01*
X126273333Y-73495952D01*
X126225714Y-73543571D01*
X126178095Y-73638809D01*
X126178095Y-73876904D01*
X126225714Y-73972142D01*
X126273333Y-74019761D01*
X126368571Y-74067380D01*
X126654285Y-74067380D01*
X126749523Y-74019761D01*
X126797142Y-73972142D01*
%TO.C,K30*%
X71654285Y-74067380D02*
X71654285Y-73067380D01*
X71082857Y-74067380D02*
X71511428Y-73495952D01*
X71082857Y-73067380D02*
X71654285Y-73638809D01*
X70749523Y-73067380D02*
X70130476Y-73067380D01*
X70463809Y-73448333D01*
X70320952Y-73448333D01*
X70225714Y-73495952D01*
X70178095Y-73543571D01*
X70130476Y-73638809D01*
X70130476Y-73876904D01*
X70178095Y-73972142D01*
X70225714Y-74019761D01*
X70320952Y-74067380D01*
X70606666Y-74067380D01*
X70701904Y-74019761D01*
X70749523Y-73972142D01*
X69511428Y-73067380D02*
X69416190Y-73067380D01*
X69320952Y-73115000D01*
X69273333Y-73162619D01*
X69225714Y-73257857D01*
X69178095Y-73448333D01*
X69178095Y-73686428D01*
X69225714Y-73876904D01*
X69273333Y-73972142D01*
X69320952Y-74019761D01*
X69416190Y-74067380D01*
X69511428Y-74067380D01*
X69606666Y-74019761D01*
X69654285Y-73972142D01*
X69701904Y-73876904D01*
X69749523Y-73686428D01*
X69749523Y-73448333D01*
X69701904Y-73257857D01*
X69654285Y-73162619D01*
X69606666Y-73115000D01*
X69511428Y-73067380D01*
%TO.C,K27*%
X275904285Y-55067380D02*
X275904285Y-54067380D01*
X275332857Y-55067380D02*
X275761428Y-54495952D01*
X275332857Y-54067380D02*
X275904285Y-54638809D01*
X274951904Y-54162619D02*
X274904285Y-54115000D01*
X274809047Y-54067380D01*
X274570952Y-54067380D01*
X274475714Y-54115000D01*
X274428095Y-54162619D01*
X274380476Y-54257857D01*
X274380476Y-54353095D01*
X274428095Y-54495952D01*
X274999523Y-55067380D01*
X274380476Y-55067380D01*
X274047142Y-54067380D02*
X273380476Y-54067380D01*
X273809047Y-55067380D01*
%TO.C,K26*%
X256904285Y-55067380D02*
X256904285Y-54067380D01*
X256332857Y-55067380D02*
X256761428Y-54495952D01*
X256332857Y-54067380D02*
X256904285Y-54638809D01*
X255951904Y-54162619D02*
X255904285Y-54115000D01*
X255809047Y-54067380D01*
X255570952Y-54067380D01*
X255475714Y-54115000D01*
X255428095Y-54162619D01*
X255380476Y-54257857D01*
X255380476Y-54353095D01*
X255428095Y-54495952D01*
X255999523Y-55067380D01*
X255380476Y-55067380D01*
X254523333Y-54067380D02*
X254713809Y-54067380D01*
X254809047Y-54115000D01*
X254856666Y-54162619D01*
X254951904Y-54305476D01*
X254999523Y-54495952D01*
X254999523Y-54876904D01*
X254951904Y-54972142D01*
X254904285Y-55019761D01*
X254809047Y-55067380D01*
X254618571Y-55067380D01*
X254523333Y-55019761D01*
X254475714Y-54972142D01*
X254428095Y-54876904D01*
X254428095Y-54638809D01*
X254475714Y-54543571D01*
X254523333Y-54495952D01*
X254618571Y-54448333D01*
X254809047Y-54448333D01*
X254904285Y-54495952D01*
X254951904Y-54543571D01*
X254999523Y-54638809D01*
%TO.C,K25*%
X237904285Y-55067380D02*
X237904285Y-54067380D01*
X237332857Y-55067380D02*
X237761428Y-54495952D01*
X237332857Y-54067380D02*
X237904285Y-54638809D01*
X236951904Y-54162619D02*
X236904285Y-54115000D01*
X236809047Y-54067380D01*
X236570952Y-54067380D01*
X236475714Y-54115000D01*
X236428095Y-54162619D01*
X236380476Y-54257857D01*
X236380476Y-54353095D01*
X236428095Y-54495952D01*
X236999523Y-55067380D01*
X236380476Y-55067380D01*
X235475714Y-54067380D02*
X235951904Y-54067380D01*
X235999523Y-54543571D01*
X235951904Y-54495952D01*
X235856666Y-54448333D01*
X235618571Y-54448333D01*
X235523333Y-54495952D01*
X235475714Y-54543571D01*
X235428095Y-54638809D01*
X235428095Y-54876904D01*
X235475714Y-54972142D01*
X235523333Y-55019761D01*
X235618571Y-55067380D01*
X235856666Y-55067380D01*
X235951904Y-55019761D01*
X235999523Y-54972142D01*
%TO.C,K24*%
X218904285Y-55067380D02*
X218904285Y-54067380D01*
X218332857Y-55067380D02*
X218761428Y-54495952D01*
X218332857Y-54067380D02*
X218904285Y-54638809D01*
X217951904Y-54162619D02*
X217904285Y-54115000D01*
X217809047Y-54067380D01*
X217570952Y-54067380D01*
X217475714Y-54115000D01*
X217428095Y-54162619D01*
X217380476Y-54257857D01*
X217380476Y-54353095D01*
X217428095Y-54495952D01*
X217999523Y-55067380D01*
X217380476Y-55067380D01*
X216523333Y-54400714D02*
X216523333Y-55067380D01*
X216761428Y-54019761D02*
X216999523Y-54734047D01*
X216380476Y-54734047D01*
%TO.C,K23*%
X199904285Y-55067380D02*
X199904285Y-54067380D01*
X199332857Y-55067380D02*
X199761428Y-54495952D01*
X199332857Y-54067380D02*
X199904285Y-54638809D01*
X198951904Y-54162619D02*
X198904285Y-54115000D01*
X198809047Y-54067380D01*
X198570952Y-54067380D01*
X198475714Y-54115000D01*
X198428095Y-54162619D01*
X198380476Y-54257857D01*
X198380476Y-54353095D01*
X198428095Y-54495952D01*
X198999523Y-55067380D01*
X198380476Y-55067380D01*
X198047142Y-54067380D02*
X197428095Y-54067380D01*
X197761428Y-54448333D01*
X197618571Y-54448333D01*
X197523333Y-54495952D01*
X197475714Y-54543571D01*
X197428095Y-54638809D01*
X197428095Y-54876904D01*
X197475714Y-54972142D01*
X197523333Y-55019761D01*
X197618571Y-55067380D01*
X197904285Y-55067380D01*
X197999523Y-55019761D01*
X198047142Y-54972142D01*
%TO.C,K22*%
X180904285Y-55067380D02*
X180904285Y-54067380D01*
X180332857Y-55067380D02*
X180761428Y-54495952D01*
X180332857Y-54067380D02*
X180904285Y-54638809D01*
X179951904Y-54162619D02*
X179904285Y-54115000D01*
X179809047Y-54067380D01*
X179570952Y-54067380D01*
X179475714Y-54115000D01*
X179428095Y-54162619D01*
X179380476Y-54257857D01*
X179380476Y-54353095D01*
X179428095Y-54495952D01*
X179999523Y-55067380D01*
X179380476Y-55067380D01*
X178999523Y-54162619D02*
X178951904Y-54115000D01*
X178856666Y-54067380D01*
X178618571Y-54067380D01*
X178523333Y-54115000D01*
X178475714Y-54162619D01*
X178428095Y-54257857D01*
X178428095Y-54353095D01*
X178475714Y-54495952D01*
X179047142Y-55067380D01*
X178428095Y-55067380D01*
%TO.C,K21*%
X161904285Y-55067380D02*
X161904285Y-54067380D01*
X161332857Y-55067380D02*
X161761428Y-54495952D01*
X161332857Y-54067380D02*
X161904285Y-54638809D01*
X160951904Y-54162619D02*
X160904285Y-54115000D01*
X160809047Y-54067380D01*
X160570952Y-54067380D01*
X160475714Y-54115000D01*
X160428095Y-54162619D01*
X160380476Y-54257857D01*
X160380476Y-54353095D01*
X160428095Y-54495952D01*
X160999523Y-55067380D01*
X160380476Y-55067380D01*
X159428095Y-55067380D02*
X159999523Y-55067380D01*
X159713809Y-55067380D02*
X159713809Y-54067380D01*
X159809047Y-54210238D01*
X159904285Y-54305476D01*
X159999523Y-54353095D01*
%TO.C,K20*%
X142904285Y-55067380D02*
X142904285Y-54067380D01*
X142332857Y-55067380D02*
X142761428Y-54495952D01*
X142332857Y-54067380D02*
X142904285Y-54638809D01*
X141951904Y-54162619D02*
X141904285Y-54115000D01*
X141809047Y-54067380D01*
X141570952Y-54067380D01*
X141475714Y-54115000D01*
X141428095Y-54162619D01*
X141380476Y-54257857D01*
X141380476Y-54353095D01*
X141428095Y-54495952D01*
X141999523Y-55067380D01*
X141380476Y-55067380D01*
X140761428Y-54067380D02*
X140666190Y-54067380D01*
X140570952Y-54115000D01*
X140523333Y-54162619D01*
X140475714Y-54257857D01*
X140428095Y-54448333D01*
X140428095Y-54686428D01*
X140475714Y-54876904D01*
X140523333Y-54972142D01*
X140570952Y-55019761D01*
X140666190Y-55067380D01*
X140761428Y-55067380D01*
X140856666Y-55019761D01*
X140904285Y-54972142D01*
X140951904Y-54876904D01*
X140999523Y-54686428D01*
X140999523Y-54448333D01*
X140951904Y-54257857D01*
X140904285Y-54162619D01*
X140856666Y-54115000D01*
X140761428Y-54067380D01*
%TO.C,K19*%
X123904285Y-55067380D02*
X123904285Y-54067380D01*
X123332857Y-55067380D02*
X123761428Y-54495952D01*
X123332857Y-54067380D02*
X123904285Y-54638809D01*
X122380476Y-55067380D02*
X122951904Y-55067380D01*
X122666190Y-55067380D02*
X122666190Y-54067380D01*
X122761428Y-54210238D01*
X122856666Y-54305476D01*
X122951904Y-54353095D01*
X121904285Y-55067380D02*
X121713809Y-55067380D01*
X121618571Y-55019761D01*
X121570952Y-54972142D01*
X121475714Y-54829285D01*
X121428095Y-54638809D01*
X121428095Y-54257857D01*
X121475714Y-54162619D01*
X121523333Y-54115000D01*
X121618571Y-54067380D01*
X121809047Y-54067380D01*
X121904285Y-54115000D01*
X121951904Y-54162619D01*
X121999523Y-54257857D01*
X121999523Y-54495952D01*
X121951904Y-54591190D01*
X121904285Y-54638809D01*
X121809047Y-54686428D01*
X121618571Y-54686428D01*
X121523333Y-54638809D01*
X121475714Y-54591190D01*
X121428095Y-54495952D01*
%TO.C,K18*%
X104904285Y-55067380D02*
X104904285Y-54067380D01*
X104332857Y-55067380D02*
X104761428Y-54495952D01*
X104332857Y-54067380D02*
X104904285Y-54638809D01*
X103380476Y-55067380D02*
X103951904Y-55067380D01*
X103666190Y-55067380D02*
X103666190Y-54067380D01*
X103761428Y-54210238D01*
X103856666Y-54305476D01*
X103951904Y-54353095D01*
X102809047Y-54495952D02*
X102904285Y-54448333D01*
X102951904Y-54400714D01*
X102999523Y-54305476D01*
X102999523Y-54257857D01*
X102951904Y-54162619D01*
X102904285Y-54115000D01*
X102809047Y-54067380D01*
X102618571Y-54067380D01*
X102523333Y-54115000D01*
X102475714Y-54162619D01*
X102428095Y-54257857D01*
X102428095Y-54305476D01*
X102475714Y-54400714D01*
X102523333Y-54448333D01*
X102618571Y-54495952D01*
X102809047Y-54495952D01*
X102904285Y-54543571D01*
X102951904Y-54591190D01*
X102999523Y-54686428D01*
X102999523Y-54876904D01*
X102951904Y-54972142D01*
X102904285Y-55019761D01*
X102809047Y-55067380D01*
X102618571Y-55067380D01*
X102523333Y-55019761D01*
X102475714Y-54972142D01*
X102428095Y-54876904D01*
X102428095Y-54686428D01*
X102475714Y-54591190D01*
X102523333Y-54543571D01*
X102618571Y-54495952D01*
%TO.C,K17*%
X85904285Y-55067380D02*
X85904285Y-54067380D01*
X85332857Y-55067380D02*
X85761428Y-54495952D01*
X85332857Y-54067380D02*
X85904285Y-54638809D01*
X84380476Y-55067380D02*
X84951904Y-55067380D01*
X84666190Y-55067380D02*
X84666190Y-54067380D01*
X84761428Y-54210238D01*
X84856666Y-54305476D01*
X84951904Y-54353095D01*
X84047142Y-54067380D02*
X83380476Y-54067380D01*
X83809047Y-55067380D01*
%TO.C,K16*%
X66904285Y-55067380D02*
X66904285Y-54067380D01*
X66332857Y-55067380D02*
X66761428Y-54495952D01*
X66332857Y-54067380D02*
X66904285Y-54638809D01*
X65380476Y-55067380D02*
X65951904Y-55067380D01*
X65666190Y-55067380D02*
X65666190Y-54067380D01*
X65761428Y-54210238D01*
X65856666Y-54305476D01*
X65951904Y-54353095D01*
X64523333Y-54067380D02*
X64713809Y-54067380D01*
X64809047Y-54115000D01*
X64856666Y-54162619D01*
X64951904Y-54305476D01*
X64999523Y-54495952D01*
X64999523Y-54876904D01*
X64951904Y-54972142D01*
X64904285Y-55019761D01*
X64809047Y-55067380D01*
X64618571Y-55067380D01*
X64523333Y-55019761D01*
X64475714Y-54972142D01*
X64428095Y-54876904D01*
X64428095Y-54638809D01*
X64475714Y-54543571D01*
X64523333Y-54495952D01*
X64618571Y-54448333D01*
X64809047Y-54448333D01*
X64904285Y-54495952D01*
X64951904Y-54543571D01*
X64999523Y-54638809D01*
%TO.C,K14*%
X290154285Y-36067380D02*
X290154285Y-35067380D01*
X289582857Y-36067380D02*
X290011428Y-35495952D01*
X289582857Y-35067380D02*
X290154285Y-35638809D01*
X288630476Y-36067380D02*
X289201904Y-36067380D01*
X288916190Y-36067380D02*
X288916190Y-35067380D01*
X289011428Y-35210238D01*
X289106666Y-35305476D01*
X289201904Y-35353095D01*
X287773333Y-35400714D02*
X287773333Y-36067380D01*
X288011428Y-35019761D02*
X288249523Y-35734047D01*
X287630476Y-35734047D01*
%TO.C,K13*%
X271154285Y-36067380D02*
X271154285Y-35067380D01*
X270582857Y-36067380D02*
X271011428Y-35495952D01*
X270582857Y-35067380D02*
X271154285Y-35638809D01*
X269630476Y-36067380D02*
X270201904Y-36067380D01*
X269916190Y-36067380D02*
X269916190Y-35067380D01*
X270011428Y-35210238D01*
X270106666Y-35305476D01*
X270201904Y-35353095D01*
X269297142Y-35067380D02*
X268678095Y-35067380D01*
X269011428Y-35448333D01*
X268868571Y-35448333D01*
X268773333Y-35495952D01*
X268725714Y-35543571D01*
X268678095Y-35638809D01*
X268678095Y-35876904D01*
X268725714Y-35972142D01*
X268773333Y-36019761D01*
X268868571Y-36067380D01*
X269154285Y-36067380D01*
X269249523Y-36019761D01*
X269297142Y-35972142D01*
%TO.C,K12*%
X252154285Y-36067380D02*
X252154285Y-35067380D01*
X251582857Y-36067380D02*
X252011428Y-35495952D01*
X251582857Y-35067380D02*
X252154285Y-35638809D01*
X250630476Y-36067380D02*
X251201904Y-36067380D01*
X250916190Y-36067380D02*
X250916190Y-35067380D01*
X251011428Y-35210238D01*
X251106666Y-35305476D01*
X251201904Y-35353095D01*
X250249523Y-35162619D02*
X250201904Y-35115000D01*
X250106666Y-35067380D01*
X249868571Y-35067380D01*
X249773333Y-35115000D01*
X249725714Y-35162619D01*
X249678095Y-35257857D01*
X249678095Y-35353095D01*
X249725714Y-35495952D01*
X250297142Y-36067380D01*
X249678095Y-36067380D01*
%TO.C,K11*%
X233154285Y-36067380D02*
X233154285Y-35067380D01*
X232582857Y-36067380D02*
X233011428Y-35495952D01*
X232582857Y-35067380D02*
X233154285Y-35638809D01*
X231630476Y-36067380D02*
X232201904Y-36067380D01*
X231916190Y-36067380D02*
X231916190Y-35067380D01*
X232011428Y-35210238D01*
X232106666Y-35305476D01*
X232201904Y-35353095D01*
X230678095Y-36067380D02*
X231249523Y-36067380D01*
X230963809Y-36067380D02*
X230963809Y-35067380D01*
X231059047Y-35210238D01*
X231154285Y-35305476D01*
X231249523Y-35353095D01*
%TO.C,K10*%
X214154285Y-36067380D02*
X214154285Y-35067380D01*
X213582857Y-36067380D02*
X214011428Y-35495952D01*
X213582857Y-35067380D02*
X214154285Y-35638809D01*
X212630476Y-36067380D02*
X213201904Y-36067380D01*
X212916190Y-36067380D02*
X212916190Y-35067380D01*
X213011428Y-35210238D01*
X213106666Y-35305476D01*
X213201904Y-35353095D01*
X212011428Y-35067380D02*
X211916190Y-35067380D01*
X211820952Y-35115000D01*
X211773333Y-35162619D01*
X211725714Y-35257857D01*
X211678095Y-35448333D01*
X211678095Y-35686428D01*
X211725714Y-35876904D01*
X211773333Y-35972142D01*
X211820952Y-36019761D01*
X211916190Y-36067380D01*
X212011428Y-36067380D01*
X212106666Y-36019761D01*
X212154285Y-35972142D01*
X212201904Y-35876904D01*
X212249523Y-35686428D01*
X212249523Y-35448333D01*
X212201904Y-35257857D01*
X212154285Y-35162619D01*
X212106666Y-35115000D01*
X212011428Y-35067380D01*
%TO.C,K9*%
X194678095Y-36067380D02*
X194678095Y-35067380D01*
X194106666Y-36067380D02*
X194535238Y-35495952D01*
X194106666Y-35067380D02*
X194678095Y-35638809D01*
X193630476Y-36067380D02*
X193440000Y-36067380D01*
X193344761Y-36019761D01*
X193297142Y-35972142D01*
X193201904Y-35829285D01*
X193154285Y-35638809D01*
X193154285Y-35257857D01*
X193201904Y-35162619D01*
X193249523Y-35115000D01*
X193344761Y-35067380D01*
X193535238Y-35067380D01*
X193630476Y-35115000D01*
X193678095Y-35162619D01*
X193725714Y-35257857D01*
X193725714Y-35495952D01*
X193678095Y-35591190D01*
X193630476Y-35638809D01*
X193535238Y-35686428D01*
X193344761Y-35686428D01*
X193249523Y-35638809D01*
X193201904Y-35591190D01*
X193154285Y-35495952D01*
%TO.C,K8*%
X175678095Y-36067380D02*
X175678095Y-35067380D01*
X175106666Y-36067380D02*
X175535238Y-35495952D01*
X175106666Y-35067380D02*
X175678095Y-35638809D01*
X174535238Y-35495952D02*
X174630476Y-35448333D01*
X174678095Y-35400714D01*
X174725714Y-35305476D01*
X174725714Y-35257857D01*
X174678095Y-35162619D01*
X174630476Y-35115000D01*
X174535238Y-35067380D01*
X174344761Y-35067380D01*
X174249523Y-35115000D01*
X174201904Y-35162619D01*
X174154285Y-35257857D01*
X174154285Y-35305476D01*
X174201904Y-35400714D01*
X174249523Y-35448333D01*
X174344761Y-35495952D01*
X174535238Y-35495952D01*
X174630476Y-35543571D01*
X174678095Y-35591190D01*
X174725714Y-35686428D01*
X174725714Y-35876904D01*
X174678095Y-35972142D01*
X174630476Y-36019761D01*
X174535238Y-36067380D01*
X174344761Y-36067380D01*
X174249523Y-36019761D01*
X174201904Y-35972142D01*
X174154285Y-35876904D01*
X174154285Y-35686428D01*
X174201904Y-35591190D01*
X174249523Y-35543571D01*
X174344761Y-35495952D01*
%TO.C,K7*%
X156678095Y-36067380D02*
X156678095Y-35067380D01*
X156106666Y-36067380D02*
X156535238Y-35495952D01*
X156106666Y-35067380D02*
X156678095Y-35638809D01*
X155773333Y-35067380D02*
X155106666Y-35067380D01*
X155535238Y-36067380D01*
%TO.C,K6*%
X137678095Y-36067380D02*
X137678095Y-35067380D01*
X137106666Y-36067380D02*
X137535238Y-35495952D01*
X137106666Y-35067380D02*
X137678095Y-35638809D01*
X136249523Y-35067380D02*
X136440000Y-35067380D01*
X136535238Y-35115000D01*
X136582857Y-35162619D01*
X136678095Y-35305476D01*
X136725714Y-35495952D01*
X136725714Y-35876904D01*
X136678095Y-35972142D01*
X136630476Y-36019761D01*
X136535238Y-36067380D01*
X136344761Y-36067380D01*
X136249523Y-36019761D01*
X136201904Y-35972142D01*
X136154285Y-35876904D01*
X136154285Y-35638809D01*
X136201904Y-35543571D01*
X136249523Y-35495952D01*
X136344761Y-35448333D01*
X136535238Y-35448333D01*
X136630476Y-35495952D01*
X136678095Y-35543571D01*
X136725714Y-35638809D01*
%TO.C,K5*%
X118678095Y-36067380D02*
X118678095Y-35067380D01*
X118106666Y-36067380D02*
X118535238Y-35495952D01*
X118106666Y-35067380D02*
X118678095Y-35638809D01*
X117201904Y-35067380D02*
X117678095Y-35067380D01*
X117725714Y-35543571D01*
X117678095Y-35495952D01*
X117582857Y-35448333D01*
X117344761Y-35448333D01*
X117249523Y-35495952D01*
X117201904Y-35543571D01*
X117154285Y-35638809D01*
X117154285Y-35876904D01*
X117201904Y-35972142D01*
X117249523Y-36019761D01*
X117344761Y-36067380D01*
X117582857Y-36067380D01*
X117678095Y-36019761D01*
X117725714Y-35972142D01*
%TO.C,K4*%
X99678095Y-36067380D02*
X99678095Y-35067380D01*
X99106666Y-36067380D02*
X99535238Y-35495952D01*
X99106666Y-35067380D02*
X99678095Y-35638809D01*
X98249523Y-35400714D02*
X98249523Y-36067380D01*
X98487619Y-35019761D02*
X98725714Y-35734047D01*
X98106666Y-35734047D01*
%TO.C,K3*%
X80678095Y-36067380D02*
X80678095Y-35067380D01*
X80106666Y-36067380D02*
X80535238Y-35495952D01*
X80106666Y-35067380D02*
X80678095Y-35638809D01*
X79773333Y-35067380D02*
X79154285Y-35067380D01*
X79487619Y-35448333D01*
X79344761Y-35448333D01*
X79249523Y-35495952D01*
X79201904Y-35543571D01*
X79154285Y-35638809D01*
X79154285Y-35876904D01*
X79201904Y-35972142D01*
X79249523Y-36019761D01*
X79344761Y-36067380D01*
X79630476Y-36067380D01*
X79725714Y-36019761D01*
X79773333Y-35972142D01*
%TO.C,K2*%
X61678095Y-36067380D02*
X61678095Y-35067380D01*
X61106666Y-36067380D02*
X61535238Y-35495952D01*
X61106666Y-35067380D02*
X61678095Y-35638809D01*
X60725714Y-35162619D02*
X60678095Y-35115000D01*
X60582857Y-35067380D01*
X60344761Y-35067380D01*
X60249523Y-35115000D01*
X60201904Y-35162619D01*
X60154285Y-35257857D01*
X60154285Y-35353095D01*
X60201904Y-35495952D01*
X60773333Y-36067380D01*
X60154285Y-36067380D01*
%TO.C,USB1*%
X49138095Y-22652380D02*
X49138095Y-23461904D01*
X49090476Y-23557142D01*
X49042857Y-23604761D01*
X48947619Y-23652380D01*
X48757142Y-23652380D01*
X48661904Y-23604761D01*
X48614285Y-23557142D01*
X48566666Y-23461904D01*
X48566666Y-22652380D01*
X48138095Y-23604761D02*
X47995238Y-23652380D01*
X47757142Y-23652380D01*
X47661904Y-23604761D01*
X47614285Y-23557142D01*
X47566666Y-23461904D01*
X47566666Y-23366666D01*
X47614285Y-23271428D01*
X47661904Y-23223809D01*
X47757142Y-23176190D01*
X47947619Y-23128571D01*
X48042857Y-23080952D01*
X48090476Y-23033333D01*
X48138095Y-22938095D01*
X48138095Y-22842857D01*
X48090476Y-22747619D01*
X48042857Y-22700000D01*
X47947619Y-22652380D01*
X47709523Y-22652380D01*
X47566666Y-22700000D01*
X46804761Y-23128571D02*
X46661904Y-23176190D01*
X46614285Y-23223809D01*
X46566666Y-23319047D01*
X46566666Y-23461904D01*
X46614285Y-23557142D01*
X46661904Y-23604761D01*
X46757142Y-23652380D01*
X47138095Y-23652380D01*
X47138095Y-22652380D01*
X46804761Y-22652380D01*
X46709523Y-22700000D01*
X46661904Y-22747619D01*
X46614285Y-22842857D01*
X46614285Y-22938095D01*
X46661904Y-23033333D01*
X46709523Y-23080952D01*
X46804761Y-23128571D01*
X47138095Y-23128571D01*
X45614285Y-23652380D02*
X46185714Y-23652380D01*
X45900000Y-23652380D02*
X45900000Y-22652380D01*
X45995238Y-22795238D01*
X46090476Y-22890476D01*
X46185714Y-22938095D01*
%TO.C,U1*%
X39125973Y-104551522D02*
X38553553Y-105123942D01*
X38452538Y-105157614D01*
X38385194Y-105157614D01*
X38284179Y-105123942D01*
X38149492Y-104989255D01*
X38115820Y-104888240D01*
X38115820Y-104820896D01*
X38149492Y-104719881D01*
X38721912Y-104147461D01*
X37307698Y-104147461D02*
X37711759Y-104551522D01*
X37509729Y-104349492D02*
X38216835Y-103642385D01*
X38183164Y-103810744D01*
X38183164Y-103945431D01*
X38216835Y-104046446D01*
%TD*%
M02*
